<?xml version="1.0" encoding="utf-8"?>
<!-- Generator: Adobe Illustrator 26.4.1, SVG Export Plug-In . SVG Version: 6.00 Build 0)  -->
<svg version="1.1" id="Layer_1" xmlns="http://www.w3.org/2000/svg" xmlns:xlink="http://www.w3.org/1999/xlink" x="0px" y="0px"
	 viewBox="0 0 128.81 173.08" style="enable-background:new 0 0 128.81 173.08;" xml:space="preserve">
<style type="text/css">
	.st0{fill:#F7A395;}
	.st1{fill:#F3DFCB;}
	.st2{fill:#0A1414;}
	.st3{fill:none;stroke:#F3DFCB;stroke-width:0.25;stroke-miterlimit:10;}
	.st4{fill:#2E9A9C;}
	.st5{fill:#2E606B;}
	.st6{fill:#B9B0A8;}
	.st7{fill:#FABAA7;}
	.st8{fill:#7B7D7F;}
	.st9{fill:#EF847E;}
	.st10{fill:#C0B7AD;}
	.st11{fill:#9E3B47;}
	.st12{fill:#D95A69;}
	.st13{fill:#812834;}
	.st14{fill:#EAE5E1;}
	.st15{fill:none;stroke:#C0B7AD;stroke-width:0.25;stroke-miterlimit:10;}
	.st16{fill:#FFF4CD;}
	.st17{fill:#C95D69;}
	.st18{fill:#AA434D;}
	.st19{fill:none;stroke:#FFF4CD;stroke-width:0.1;stroke-miterlimit:10;}
	.st20{fill:#FFFFFF;}
	.st21{fill:#F7F4F0;}
	.st22{fill:#FCEA93;}
	.st23{fill:#D6D0C9;}
	.st24{fill:#CCC4BC;}
	.st25{fill:#ECE6E3;}
	.st26{fill:#5773B8;}
	.st27{fill:#7D95CC;}
	.st28{fill:#E3BEB5;}
	.st29{fill:#D7B6AE;}
	.st30{fill:#728392;}
	.st31{fill:#B49591;}
	.st32{fill:#C7A197;}
	.st33{fill:#7C7874;}
	.st34{fill:#8E898C;}
	.st35{fill:#9E968F;}
	.st36{fill:#B0A8A1;}
	.st37{fill:#8F8680;}
	.st38{fill:#847C75;}
	.st39{fill:#789DBA;}
	.st40{fill:#CA5181;}
	.st41{fill:none;stroke:#7B7D7F;stroke-width:0.25;stroke-miterlimit:10;}
</style>
<g>
	<polygon class="st23" points="69.96,74.54 66.61,71.79 82.61,71.79 79.77,74.54 	"/>
	<rect x="69.12" y="21.26" class="st28" width="9.83" height="48.47"/>
	<path class="st6" d="M14.94,131.92v37.27h105.17l0.23-37.27H14.94z M23.47,137.35h-3.7v-3.33h3.7V137.35z M31.39,137.35h-3.66
		v-3.33h3.66V137.35z M39.7,137.35h-3.7v-3.33h3.7V137.35z M47.62,137.35h-3.66v-3.33h3.66V137.35z M72.77,137.35h-3.66v-3.33h3.66
		V137.35z M81.09,137.35h-3.7v-3.33h3.7V137.35z M89.01,137.35h-3.66v-3.33h3.66V137.35z M97.55,137.35h-3.7v-3.33h3.7V137.35z
		 M106.61,137.35h-3.66v-3.33h3.66V137.35z M115.16,137.35h-3.7v-3.33h3.7V137.35z"/>
	<rect x="70.27" y="74.08" class="st29" width="11.43" height="29.04"/>
	<rect x="84.21" y="48.11" class="st28" width="8.46" height="54.78"/>
	<polygon class="st28" points="93.13,90.31 88.79,90.31 88.79,92.14 86.04,92.14 86.04,90.31 82.84,90.31 82.84,92.14 80.1,92.14 
		80.1,90.31 76.67,90.31 76.67,92.14 73.92,92.14 73.92,90.31 45.8,90.31 45.8,116.53 45.8,139.93 93.36,138.4 	"/>
	<path class="st8" d="M78.27,89.85v-3.01c0,0,0.12-1.79,0.99-1.79c0.87,0,0.99,1.8,0.99,1.8l0.06,3H78.27z"/>
	<polygon class="st30" points="30.51,108.28 33.94,65.98 35.32,65.98 39.43,108.28 	"/>
	<rect x="46.3" y="92.28" class="st28" width="34.51" height="9.6"/>
	<rect x="46.3" y="100.97" class="st31" width="41.51" height="9.37"/>
	<rect x="49.46" y="103.94" class="st31" width="27.06" height="9.37"/>
	<polygon class="st14" points="91.07,134.9 93.13,134.9 93.13,93.51 95.19,90.31 89.01,90.31 91.07,93.51 	"/>
	<rect x="61.58" y="26.06" class="st29" width="5.03" height="40.91"/>
	<polygon class="st29" points="79.88,104.97 79.88,106.97 75.95,106.97 75.95,104.97 71.14,104.97 71.14,106.97 67.21,106.97 
		67.21,104.97 63.28,104.97 63.28,106.97 59.35,106.97 59.35,104.97 55.41,104.97 55.41,106.97 51.48,106.97 51.48,104.97 
		38.81,104.97 43.18,109.22 47.55,109.22 46.67,157.44 90.81,157.44 90.81,104.97 	"/>
	<rect x="45.12" y="109.89" class="st32" width="48.93" height="1.6"/>
	<rect x="19.28" y="102.89" class="st14" width="7.32" height="25.84"/>
	<rect x="26.37" y="124.61" class="st10" width="8.23" height="7.77"/>
	<g>
		<polygon class="st33" points="94.33,112.27 89.98,109.53 110.73,109.53 107.05,112.27 		"/>
		<polygon class="st34" points="110.73,106.56 110.73,102.89 105.79,102.89 105.79,105.4 102.67,105.4 102.67,102.89 97.99,102.89 
			97.99,105.4 94.35,105.4 94.35,102.89 89.93,102.89 89.98,106.56 89.98,109.53 110.73,109.53 		"/>
		<rect x="94.35" y="112.26" class="st35" width="12.74" height="34.3"/>
		<rect x="97.24" y="116.15" class="st33" width="3.66" height="2.29"/>
		<rect x="99.76" y="117.98" class="st33" width="3.66" height="2.29"/>
		<rect x="102.27" y="124.61" class="st33" width="3.66" height="2.29"/>
		<rect x="100.9" y="130.32" class="st33" width="3.66" height="2.29"/>
		<rect x="102.5" y="113.63" class="st33" width="3.66" height="2.29"/>
	</g>
	<polygon class="st36" points="14.94,131.92 14.94,169.19 120.11,169.19 120.34,131.92 	"/>
	<rect x="71.87" y="30.64" class="st29" width="7.55" height="39.78"/>
	<path class="st8" d="M71.87,68.82v-4.58c0,0,0.23-2.73,1.83-2.73c1.6,0,1.83,2.74,1.83,2.74l0.11,4.57H71.87z"/>
	<g>
		<rect x="19.78" y="131.96" class="st8" width="3.7" height="3.33"/>
		<rect x="27.74" y="131.96" class="st8" width="3.66" height="3.33"/>
		<rect x="36.01" y="131.96" class="st8" width="3.7" height="3.33"/>
		<rect x="43.97" y="131.96" class="st8" width="3.66" height="3.33"/>
		<rect x="77.39" y="131.96" class="st8" width="3.7" height="3.33"/>
		<rect x="85.35" y="131.96" class="st8" width="3.66" height="3.33"/>
		<rect x="93.85" y="131.96" class="st8" width="3.7" height="3.33"/>
		<rect x="102.96" y="131.96" class="st8" width="3.66" height="3.33"/>
		<rect x="111.46" y="131.96" class="st8" width="3.7" height="3.33"/>
	</g>
	<rect x="78.95" y="31.78" class="st31" width="0.91" height="38.64"/>
	<rect x="66.61" y="68.82" class="st14" width="16" height="2.97"/>
	<polygon class="st26" points="14.94,131.92 23.41,126.44 111.81,126.44 111.81,131.92 	"/>
	<g>
		<g>
			<g>
				<polygon class="st35" points="51.65,124.97 51.59,141.87 59.12,141.87 59.16,124.97 57.53,124.97 57.53,125.73 56.39,125.73 
					56.39,124.97 54.59,124.97 54.59,125.73 53.28,125.73 53.28,124.97 				"/>
				<path class="st35" d="M53.13,141.89c0,0-1.48,0.08-1.64-0.02s0.16-13.64,0.16-13.64h1.48V141.89z"/>
				<path class="st37" d="M57.74,141.89c0,0-1.68,0.08-2.99,0.08s-2.12-0.08-2.12-0.08v-13.66h5.11V141.89z"/>
				<path class="st38" d="M59.16,141.89c-0.16,0.08-1.96,0-1.96,0v-13.66h1.96C59.16,128.23,59.33,141.81,59.16,141.89z"/>
			</g>
			<rect x="56.39" y="124.97" class="st8" width="1.14" height="0.76"/>
			<rect x="53.28" y="124.97" class="st8" width="1.31" height="0.76"/>
		</g>
		<rect x="55.57" y="140.54" class="st33" width="2.61" height="0.96"/>
		<rect x="51.98" y="135.67" class="st33" width="2.61" height="0.96"/>
		<rect x="53.12" y="134.81" class="st33" width="2.61" height="0.96"/>
		<rect x="55.9" y="128.79" class="st33" width="2.61" height="0.96"/>
	</g>
	<rect x="21.47" y="107.55" class="st8" width="3.07" height="3.33"/>
	<polygon class="st39" points="19.28,102.89 22.48,94.88 23.39,94.88 26.6,102.89 	"/>
	<rect x="22.48" y="89.17" class="st16" width="0.91" height="5.72"/>
	<rect x="66.15" y="36.81" class="st31" width="4.12" height="8.69"/>
	<polygon class="st39" points="45.18,92.28 52.23,64.15 74.94,64.15 80.81,92.28 	"/>
	<rect x="30.51" y="108.28" class="st14" width="6.63" height="17.15"/>
	<rect x="33.26" y="112.62" class="st8" width="1.37" height="8.76"/>
	<polygon class="st39" points="30.51,108.28 33.49,90.9 34.63,90.9 37.15,108.28 	"/>
	<rect x="33.49" y="81.3" class="st16" width="1.14" height="9.6"/>
	<polygon class="st30" points="63.58,64.15 74.94,64.15 80.81,92.28 63.58,92.28 	"/>
	<rect x="69.12" y="21.26" class="st29" width="9.83" height="6.63"/>
	<rect x="56.54" y="77.87" class="st14" width="12.92" height="17.38"/>
	<rect x="56.54" y="73.76" class="st14" width="1.96" height="17.38"/>
	<rect x="67.89" y="73.76" class="st14" width="1.57" height="17.38"/>
	<polygon class="st14" points="58.49,78.33 63.19,70.1 67.89,78.33 	"/>
	<rect x="59.28" y="87.93" class="st8" width="7.44" height="7.55"/>
	<rect x="59.28" y="79.7" class="st8" width="7.44" height="4.34"/>
	<polygon class="st22" points="52.23,64.15 52.23,56.38 58.82,56.38 58.82,61.64 68.34,61.64 68.34,56.38 74.94,56.38 74.94,64.15 	
		"/>
	<rect x="33.94" y="54.55" class="st22" width="1.37" height="11.43"/>
	<rect x="89.01" y="75.91" class="st14" width="6.17" height="14.4"/>
	<rect x="93.82" y="75.91" class="st23" width="1.37" height="14.4"/>
	<polygon class="st30" points="89.01,75.91 91.53,68.82 92.67,68.82 95.19,75.91 	"/>
	<rect x="82.61" y="57.85" class="st14" width="11.89" height="3.66"/>
	<rect x="91.53" y="60.59" class="st16" width="1.14" height="8.23"/>
	<polygon class="st39" points="84.21,48.11 87.64,34.07 89.01,34.07 92.67,48.11 	"/>
	<rect x="87.64" y="23.55" class="st16" width="1.37" height="10.52"/>
	<g>
		<g>
			<rect x="6.96" y="132.12" class="st35" width="14.63" height="37.15"/>
			<polygon class="st28" points="6.96,132.24 3.53,127.44 24.11,127.44 21.59,132.24 			"/>
			<rect x="3.53" y="120.12" class="st28" width="20.58" height="7.32"/>
			<polygon class="st28" points="3.53,120.12 7.19,115.32 20.45,115.32 24.11,120.12 			"/>
			<rect x="7.19" y="111.89" class="st32" width="13.26" height="3.43"/>
			<polygon class="st28" points="7.19,111.89 7.19,107.77 9.95,107.77 9.95,109.83 12.35,109.83 12.35,107.77 15.11,107.77 
				15.11,109.83 17.48,109.83 17.48,107.77 20.45,107.77 20.45,111.89 			"/>
			<polygon class="st30" points="7.19,107.77 12.68,84.68 15.42,84.68 20.45,107.77 			"/>
			<rect x="9.95" y="107.77" class="st8" width="2.39" height="2.06"/>
			<rect x="15.11" y="107.77" class="st8" width="2.37" height="2.06"/>
			<rect x="7.6" y="120.02" class="st8" width="3.87" height="3.33"/>
			<rect x="15.94" y="120.02" class="st8" width="3.83" height="3.33"/>
			<path class="st35" d="M9.93,169.51c0,0,2.05,0.68,0,0.46c-2.06-0.23-2.74-0.46-2.97-0.69s0-32.47,0-32.47h2.97V169.51z"/>
			<path class="st37" d="M18.85,170.19c0,0-4.12,0-5.03,0s-3.89-0.23-3.89-0.23v-33.15h8.92V170.19z"/>
			<path class="st38" d="M21.59,169.28c-0.23,0.23-0.69,0.46-1.83,0.69c-1.12,0.22-0.91,0-0.91,0v-33.15h2.74
				C21.59,136.81,21.82,169.05,21.59,169.28z"/>
			<rect x="9.93" y="142.98" class="st33" width="3.66" height="2.29"/>
			<rect x="11.99" y="144.58" class="st33" width="3.66" height="2.29"/>
			<rect x="17.71" y="155.33" class="st33" width="3.66" height="2.29"/>
			<rect x="15.42" y="156.93" class="st33" width="3.66" height="2.29"/>
			<rect x="9.93" y="162.19" class="st33" width="3.66" height="2.29"/>
			<rect x="12.68" y="71.88" class="st16" width="2.74" height="12.8"/>
			<polygon class="st40" points="12.88,71.88 12.88,78.28 4.42,75.08 			"/>
		</g>
		<g>
			<polygon class="st33" points="5.68,137.01 0.07,134.27 26.81,134.27 22.06,137.01 			"/>
			<polygon class="st34" points="26.81,131.29 26.81,127.62 20.44,127.62 20.44,130.14 16.42,130.14 16.42,127.62 10.39,127.62 
				10.39,130.14 5.7,130.14 5.7,127.62 0,127.62 0.07,131.29 0.07,134.27 26.81,134.27 			"/>
		</g>
	</g>
	<path class="st8" d="M74.15,82.31V79.3c0,0,0.12-1.79,0.99-1.79c0.87,0,0.99,1.8,0.99,1.8l0.06,3H74.15z"/>
	<polygon class="st23" points="69.12,31.09 67.29,28.81 81.01,28.81 81.01,31.03 79.96,31.09 79.96,32.01 77.85,32.01 76.79,31.09 	
		"/>
	<polygon class="st14" points="79.96,25.84 79.96,21.26 77.42,21.26 77.42,25.84 67.29,25.84 67.29,28.81 77.42,28.81 77.42,31.09 
		79.96,31.09 79.96,28.81 	"/>
	<rect x="78.04" y="22.64" class="st8" width="1.14" height="4.57"/>
	<polygon class="st39" points="69.12,21.26 73.47,8.46 75.52,8.46 79.87,21.26 	"/>
	<polygon class="st16" points="77.12,21.26 78.27,14.86 78.73,14.86 79.87,21.26 	"/>
	<g>
		<g>
			<g>
				<polygon class="st35" points="69.36,124.97 69.31,141.87 76.84,141.87 76.88,124.97 75.24,124.97 75.24,125.73 74.1,125.73 
					74.1,124.97 72.3,124.97 72.3,125.73 71,125.73 71,124.97 				"/>
				<path class="st35" d="M70.85,141.89c0,0-1.48,0.08-1.64-0.02c-0.16-0.1,0.16-13.64,0.16-13.64h1.48V141.89z"/>
				<path class="st37" d="M75.46,141.89c0,0-1.68,0.08-2.99,0.08c-1.31,0-2.12-0.08-2.12-0.08v-13.66h5.11V141.89z"/>
				<path class="st38" d="M76.88,141.89c-0.16,0.08-1.96,0-1.96,0v-13.66h1.96C76.88,128.23,77.04,141.81,76.88,141.89z"/>
			</g>
			<rect x="74.1" y="124.97" class="st8" width="1.14" height="0.76"/>
			<rect x="71" y="124.97" class="st8" width="1.31" height="0.76"/>
		</g>
		<rect x="71.28" y="140.54" class="st33" width="2.61" height="0.96"/>
		<rect x="70.69" y="136.73" class="st33" width="2.61" height="0.96"/>
		<rect x="72.83" y="133.74" class="st33" width="2.61" height="0.96"/>
		<rect x="71.61" y="128.79" class="st33" width="2.61" height="0.96"/>
	</g>
	<rect x="69.12" y="16.69" class="st16" width="1.14" height="4.57"/>
	<rect x="73.01" y="16.69" class="st16" width="1.14" height="4.57"/>
	<g>
		<rect x="78.23" y="88.47" class="st14" width="6.17" height="13.64"/>
		<rect x="83.03" y="88.47" class="st23" width="1.37" height="13.64"/>
		<polygon class="st39" points="78.23,88.47 80.75,81.76 81.89,81.76 84.41,88.47 		"/>
		<rect x="80.75" y="73.97" class="st16" width="1.14" height="7.79"/>
		<polyline class="st23" points="78.23,102.11 78.81,102.97 83.81,102.97 84.41,102.11 		"/>
	</g>
	<rect x="73.47" class="st16" width="2.06" height="8.46"/>
	<polygon class="st26" points="73.47,0 67.52,2.29 73.47,4.11 	"/>
	<polygon class="st30" points="61.58,26.06 63.63,14.86 64.55,14.86 66.61,26.06 	"/>
	<rect x="63.63" y="10.29" class="st16" width="0.91" height="4.57"/>
	<path class="st8" d="M72.32,96.26v-3.01c0,0,0.12-1.79,0.99-1.79c0.87,0,0.99,1.8,0.99,1.8l0.06,3H72.32z"/>
	<g>
		<g>
			<polygon class="st35" points="108.22,133.18 108.22,170.29 122.78,170.29 122.85,133.18 			"/>
			<polygon class="st28" points="108.22,133.3 104.79,128.49 125.6,128.49 122.85,133.3 			"/>
			<rect x="104.79" y="121.18" class="st28" width="20.81" height="7.32"/>
			<polygon class="st28" points="104.79,121.18 108.45,116.38 121.71,116.38 125.6,121.18 			"/>
			<rect x="108.45" y="112.95" class="st32" width="13.26" height="3.43"/>
			<polygon class="st28" points="108.45,112.95 108.45,108.83 111.21,108.83 111.21,110.89 113.6,110.89 113.6,108.83 
				116.37,108.83 116.37,110.89 118.74,110.89 118.74,108.83 121.71,108.83 121.71,112.95 			"/>
			<polygon class="st30" points="108.45,108.83 113.94,85.74 116.68,85.74 121.71,108.83 			"/>
			<rect x="111.21" y="108.83" class="st8" width="2.39" height="2.06"/>
			<rect x="116.37" y="108.83" class="st8" width="2.37" height="2.06"/>
			<rect x="108.86" y="121.08" class="st8" width="3.87" height="3.33"/>
			<rect x="117.19" y="121.08" class="st8" width="3.83" height="3.33"/>
			<path class="st35" d="M111.19,170.56c0,0-2.74,0-2.97-0.23c-0.23-0.23,0-32.47,0-32.47h2.97V170.56z"/>
			<path class="st37" d="M120.11,170.56c0,0-1.83,0.23-4.34,0.23c-2.52,0-4.57-0.23-4.57-0.23v-32.7h8.92V170.56z"/>
			<path class="st38" d="M122.85,170.33c-0.23,0.23-2.74,0.23-2.74,0.23v-32.7h2.74C122.85,137.87,123.08,170.11,122.85,170.33z"/>
			<rect x="110.51" y="148.61" class="st33" width="3.66" height="2.29"/>
			<rect x="118.97" y="143.81" class="st33" width="3.66" height="2.29"/>
			<rect x="116.68" y="160.27" class="st33" width="3.66" height="2.29"/>
			<rect x="109.59" y="165.76" class="st33" width="3.66" height="2.29"/>
			<rect x="113.94" y="72.94" class="st16" width="2.74" height="12.8"/>
			<polygon class="st20" points="114.14,72.94 114.14,79.34 105.68,76.14 			"/>
		</g>
		<g>
			<polygon class="st33" points="107.68,138.01 102.07,135.27 128.81,135.27 124.06,138.01 			"/>
			<polygon class="st34" points="128.81,132.29 128.81,128.62 122.44,128.62 122.44,131.14 118.42,131.14 118.42,128.62 
				112.39,128.62 112.39,131.14 107.7,131.14 107.7,128.62 102,128.62 102.07,132.29 102.07,135.27 128.81,135.27 			"/>
		</g>
	</g>
	<g>
		
			<rect x="42.23" y="88.47" transform="matrix(-1 -4.508273e-11 4.508273e-11 -1 90.6383 190.5794)" class="st14" width="6.17" height="13.64"/>
		
			<rect x="42.23" y="88.47" transform="matrix(-1 -4.508273e-11 4.508273e-11 -1 85.8369 190.5794)" class="st23" width="1.37" height="13.64"/>
		<polygon class="st30" points="48.41,88.47 45.89,81.76 44.75,81.76 42.23,88.47 		"/>
		
			<rect x="44.75" y="73.97" transform="matrix(-1 -4.455248e-11 4.455248e-11 -1 90.6383 155.7316)" class="st16" width="1.14" height="7.79"/>
		<polyline class="st23" points="48.41,102.11 47.83,102.97 42.83,102.97 42.23,102.11 		"/>
	</g>
	<g>
		<g>
			<g>
				<rect x="35.4" y="135.35" class="st35" width="13.72" height="37.27"/>
				<rect x="32.2" y="126.46" class="st28" width="19.43" height="7.32"/>
				<polygon class="st28" points="32.2,126.46 35.85,121.66 48.66,121.66 51.63,126.46 				"/>
				<rect x="35.85" y="118.23" class="st32" width="12.8" height="3.43"/>
				<polygon class="st28" points="35.85,118.23 35.85,114.12 38.19,114.12 38.19,116.18 40.42,116.18 40.42,114.12 43,114.12 
					43,116.18 45.21,116.18 45.21,114.12 48.66,114.12 48.66,118.23 				"/>
				<polygon class="st30" points="35.85,114.12 41.42,91.03 43.98,91.03 48.67,114.12 				"/>
				<rect x="38.19" y="114.12" class="st8" width="2.23" height="2.06"/>
				<rect x="43" y="114.12" class="st8" width="2.21" height="2.06"/>
				<rect x="36.08" y="126.37" class="st8" width="3.7" height="3.33"/>
				<rect x="44.04" y="126.37" class="st8" width="3.66" height="3.33"/>
				<path class="st35" d="M38.6,173.08c0,0-0.23,0-0.91,0c-0.91,0-2.06-0.23-2.29-0.46s0-32.47,0-32.47h2.79L38.6,173.08z"/>
				<path class="st37" d="M46.54,172.81c0,0-2.46,0.26-4.52,0.26s-3.89,0-3.89,0l0.04-38.11h8.36V172.81z"/>
				<path class="st38" d="M49.12,172.55c-0.23,0.26-2.57,0.26-2.57,0.26v-37.84h2.57C49.12,134.97,49.34,172.28,49.12,172.55z"/>
				<rect x="38.18" y="144.27" class="st33" width="3.43" height="2.29"/>
				<rect x="45.17" y="150.44" class="st33" width="3.43" height="2.29"/>
				<rect x="37.82" y="163.93" class="st33" width="3.43" height="2.29"/>
				<rect x="39.56" y="165.53" class="st33" width="3.43" height="2.29"/>
				<rect x="41.42" y="78.22" class="st16" width="2.56" height="12.8"/>
			</g>
		</g>
		<g>
			<g>
				<g>
					<polygon class="st33" points="34.68,135.58 29.07,132.83 55.81,132.83 51.06,135.58 					"/>
				</g>
				<polygon class="st34" points="55.81,129.86 55.81,126.19 49.44,126.19 49.44,128.71 45.42,128.71 45.42,126.19 39.39,126.19 
					39.39,128.71 34.7,128.71 34.7,126.19 29,126.19 29.07,129.86 29.07,132.83 55.81,132.83 				"/>
			</g>
		</g>
	</g>
	<g>
		<g>
			<g>
				<rect x="79.92" y="135.35" class="st35" width="13.72" height="37.27"/>
				<rect x="76.72" y="126.46" class="st28" width="19.43" height="7.32"/>
				<polygon class="st28" points="76.72,126.46 80.38,121.66 93.18,121.66 96.16,126.46 				"/>
				<rect x="80.38" y="118.23" class="st32" width="12.8" height="3.43"/>
				<polygon class="st28" points="80.38,118.23 80.38,114.12 82.72,114.12 82.72,116.18 84.95,116.18 84.95,114.12 87.53,114.12 
					87.53,116.18 89.74,116.18 89.74,114.12 93.18,114.12 93.18,118.23 				"/>
				<polygon class="st30" points="80.38,114.12 85.94,91.03 88.51,91.03 93.2,114.12 				"/>
				<rect x="82.72" y="114.12" class="st8" width="2.23" height="2.06"/>
				<rect x="87.53" y="114.12" class="st8" width="2.21" height="2.06"/>
				<rect x="80.61" y="126.37" class="st8" width="3.7" height="3.33"/>
				<rect x="88.57" y="126.37" class="st8" width="3.66" height="3.33"/>
				<path class="st35" d="M83.35,172.85c0,0-3.2,0-3.43-0.23s0-32.47,0-32.47h2.79L83.35,172.85z"/>
				<path class="st37" d="M91.07,172.81c0,0-2.92,0.27-4.06,0.27c-1.14,0-4.3-0.27-4.3-0.27v-38.84h8.36V172.81z"/>
				<path class="st38" d="M93.64,172.54c-0.23,0.27-2.57,0.27-2.57,0.27v-38.84h2.57C93.64,133.97,93.87,172.26,93.64,172.54z"/>
				<rect x="89.57" y="144.27" class="st33" width="3.43" height="2.29"/>
				<rect x="87.18" y="147.93" class="st33" width="3.43" height="2.29"/>
				<rect x="82.34" y="160.96" class="st33" width="3.43" height="2.29"/>
				<rect x="88.2" y="166.91" class="st33" width="3.43" height="2.29"/>
				<rect x="85.94" y="78.22" class="st16" width="2.56" height="12.8"/>
			</g>
		</g>
		<g>
			<polygon class="st33" points="78.68,135.58 73.07,132.83 99.81,132.83 95.06,135.58 			"/>
			<polygon class="st34" points="99.81,129.86 99.81,126.19 93.44,126.19 93.44,128.71 89.42,128.71 89.42,126.19 83.39,126.19 
				83.39,128.71 78.7,128.71 78.7,126.19 73,126.19 73.07,129.86 73.07,132.83 99.81,132.83 			"/>
		</g>
	</g>
	<path class="st8" d="M52.19,169.28c0,0,0.62-17.31,12.62-17.31s11.91,17.22,11.91,17.22L52.19,169.28z"/>
	<g>
		<g>
			<path class="st33" d="M59.6,142.97H51.3c-0.27,0-0.49-0.22-0.49-0.49v-1.02c0-0.27,0.22-0.49,0.49-0.49h8.31
				c0.27,0,0.49,0.22,0.49,0.49v1.02C60.09,142.75,59.88,142.97,59.6,142.97z"/>
			<path class="st33" d="M58.91,143.97h-6.92c-0.26,0-0.47-0.21-0.47-0.47v-1.06c0-0.26,0.21-0.47,0.47-0.47h6.92
				c0.26,0,0.47,0.21,0.47,0.47v1.06C59.38,143.76,59.17,143.97,58.91,143.97z"/>
			<path class="st33" d="M58.07,144.97h-5.24c-0.33,0-0.6-0.27-0.6-0.6v-0.81c0-0.33,0.27-0.6,0.6-0.6h5.24c0.33,0,0.6,0.27,0.6,0.6
				v0.81C58.67,144.7,58.4,144.97,58.07,144.97z"/>
		</g>
	</g>
	<g>
		<g>
			<path class="st33" d="M77.32,142.97h-8.31c-0.27,0-0.49-0.22-0.49-0.49v-1.02c0-0.27,0.22-0.49,0.49-0.49h8.31
				c0.27,0,0.49,0.22,0.49,0.49v1.02C77.81,142.75,77.59,142.97,77.32,142.97z"/>
			<path class="st33" d="M76.63,143.97h-6.92c-0.26,0-0.47-0.21-0.47-0.47v-1.06c0-0.26,0.21-0.47,0.47-0.47h6.92
				c0.26,0,0.47,0.21,0.47,0.47v1.06C77.09,143.76,76.88,143.97,76.63,143.97z"/>
			<path class="st33" d="M75.78,144.97h-5.24c-0.33,0-0.6-0.27-0.6-0.6v-0.81c0-0.33,0.27-0.6,0.6-0.6h5.24c0.33,0,0.6,0.27,0.6,0.6
				v0.81C76.38,144.7,76.11,144.97,75.78,144.97z"/>
		</g>
	</g>
	<path class="st40" d="M56.81,145.97h4l-2,5c-0.71,0.71-1,4-1,4s-1.13-2.58-1.06-4.79S56.81,145.97,56.81,145.97z"/>
	<path class="st26" d="M50.81,145.97h4c0,0,0,1,0,3s-1,7-1,7s0-3-1-5S50.81,145.97,50.81,145.97z"/>
	<path class="st20" d="M53.81,145.97h4l-2,11c0,0-1-2.44-1-4.89S53.81,145.97,53.81,145.97z"/>
	<path class="st40" d="M72.81,145.97h-4l2,5c0.71,0.71,1,4,1,4s1.13-2.58,1.06-4.79C72.81,147.97,72.81,145.97,72.81,145.97z"/>
	<path class="st26" d="M78.81,145.97h-4c0,0,0,1,0,3s1,7,1,7s0-3,1-5S78.81,145.97,78.81,145.97z"/>
	<path class="st20" d="M75.81,145.97h-4l2,11c0,0,1-2.44,1-4.89S75.81,145.97,75.81,145.97z"/>
	<rect x="60.81" y="137.97" class="st14" width="7" height="7"/>
	<path class="st10" d="M62.16,139.52c0.06-0.55,4.06-0.55,4.19-0.17c0.58,1.74-1.13,4.62-2.13,4.62S61.98,141.07,62.16,139.52z"/>
	<rect x="60.81" y="137.97" class="st41" width="7" height="7"/>
</g>
</svg>
