<?xml version="1.0" encoding="utf-8"?>
<!-- Generator: Adobe Illustrator 26.4.1, SVG Export Plug-In . SVG Version: 6.00 Build 0)  -->
<svg version="1.1" id="Layer_1" xmlns="http://www.w3.org/2000/svg" xmlns:xlink="http://www.w3.org/1999/xlink" x="0px" y="0px"
	 viewBox="0 0 125.06 174.91" style="enable-background:new 0 0 125.06 174.91;" xml:space="preserve">
<style type="text/css">
	.st0{fill:#F7A395;}
	.st1{fill:#F3DFCB;}
	.st2{fill:#0A1414;}
	.st3{fill:none;stroke:#F3DFCB;stroke-width:0.25;stroke-miterlimit:10;}
	.st4{fill:#2E9A9C;}
	.st5{fill:#2E606B;}
	.st6{fill:#B9B0A8;}
	.st7{fill:#FABAA7;}
	.st8{fill:#7B7D7F;}
	.st9{fill:#EF847E;}
	.st10{fill:#C0B7AD;}
	.st11{fill:#9E3B47;}
	.st12{fill:#D95A69;}
	.st13{fill:#812834;}
	.st14{fill:#EAE5E1;}
	.st15{fill:none;stroke:#C0B7AD;stroke-width:0.25;stroke-miterlimit:10;}
	.st16{fill:#FFF4CD;}
	.st17{fill:#C95D69;}
	.st18{fill:#AA434D;}
	.st19{fill:none;stroke:#FFF4CD;stroke-width:0.1;stroke-miterlimit:10;}
	.st20{fill:#FFFFFF;}
	.st21{fill:#F7F4F0;}
	.st22{fill:#FCEA93;}
	.st23{fill:#D6D0C9;}
	.st24{fill:#CCC4BC;}
	.st25{fill:#ECE6E3;}
	.st26{fill:#5773B8;}
	.st27{fill:#7D95CC;}
	.st28{fill:#E3BEB5;}
	.st29{fill:#D7B6AE;}
	.st30{fill:#728392;}
	.st31{fill:#B49591;}
	.st32{fill:#C7A197;}
	.st33{fill:#7C7874;}
	.st34{fill:#8E898C;}
	.st35{fill:#9E968F;}
	.st36{fill:#B0A8A1;}
	.st37{fill:#8F8680;}
	.st38{fill:#847C75;}
	.st39{fill:#789DBA;}
	.st40{fill:#CA5181;}
	.st41{fill:none;stroke:#7B7D7F;stroke-width:0.25;stroke-miterlimit:10;}
</style>
<g>
	<path class="st6" d="M14.4,131.92v37.27h105.17l0.23-37.27H14.4z M22.94,137.35h-3.7v-3.33h3.7V137.35z M30.86,137.35H27.2v-3.33
		h3.66V137.35z M39.17,137.35h-3.7v-3.33h3.7V137.35z M47.09,137.35h-3.66v-3.33h3.66V137.35z M72.24,137.35h-3.66v-3.33h3.66
		V137.35z M80.56,137.35h-3.7v-3.33h3.7V137.35z M88.48,137.35h-3.66v-3.33h3.66V137.35z M97.02,137.35h-3.7v-3.33h3.7V137.35z
		 M106.08,137.35h-3.66v-3.33h3.66V137.35z M114.62,137.35h-3.7v-3.33h3.7V137.35z"/>
	<rect x="69.73" y="74.08" class="st20" width="11.43" height="29.04"/>
	<rect x="83.68" y="48.11" class="st21" width="8.46" height="54.78"/>
	<polygon class="st20" points="92.6,90.31 88.25,90.31 88.25,92.14 85.51,92.14 85.51,90.31 82.31,90.31 82.31,92.14 79.57,92.14 
		79.57,90.31 76.14,90.31 76.14,92.14 73.39,92.14 73.39,90.31 45.27,90.31 45.27,116.53 45.27,139.93 92.83,138.4 	"/>
	<path class="st8" d="M77.74,89.85v-3.01c0,0,0.12-1.79,0.99-1.79c0.87,0,0.99,1.8,0.99,1.8l0.06,3H77.74z"/>
	<polygon class="st22" points="42.98,69.28 46.41,26.98 47.79,26.98 51.9,69.28 	"/>
	<rect x="49.39" y="69.28" class="st21" width="21.03" height="9.6"/>
	<rect x="49.16" y="77.97" class="st23" width="21.03" height="9.37"/>
	<rect x="49.16" y="80.94" class="st14" width="21.03" height="9.37"/>
	<polygon class="st21" points="90.54,134.9 92.6,134.9 92.6,93.51 94.66,90.31 88.48,90.31 90.54,93.51 	"/>
	<rect x="61.05" y="26.06" class="st20" width="5.03" height="28.81"/>
	<polygon class="st23" points="69.43,74.54 66.08,71.79 82.08,71.79 79.24,74.54 	"/>
	<polygon class="st21" points="64.48,86.42 64.48,88.25 62.42,88.25 62.42,86.42 59.9,86.42 59.9,88.25 57.85,88.25 57.85,86.42 
		55.79,86.42 55.79,88.25 53.73,88.25 53.73,86.42 51.67,86.42 51.67,88.25 49.61,88.25 49.61,86.42 42.98,86.42 45.27,90.31 
		47.56,90.31 47.1,134.44 70.19,134.44 70.19,86.42 	"/>
	<rect x="44.58" y="102.89" class="st23" width="48.93" height="1.6"/>
	<rect x="18.75" y="102.89" class="st24" width="7.32" height="25.84"/>
	<rect x="25.84" y="124.61" class="st10" width="8.23" height="7.77"/>
	<polygon class="st23" points="93.8,112.27 89.45,109.53 110.2,109.53 106.52,112.27 	"/>
	<polygon class="st20" points="110.2,106.56 110.2,102.89 105.26,102.89 105.26,105.4 102.14,105.4 102.14,102.89 97.46,102.89 
		97.46,105.4 93.82,105.4 93.82,102.89 89.4,102.89 89.45,106.56 89.45,109.53 110.2,109.53 	"/>
	<rect x="93.82" y="112.26" class="st14" width="12.74" height="34.3"/>
	<rect x="96.71" y="116.15" class="st10" width="3.66" height="2.29"/>
	<rect x="99.23" y="117.98" class="st10" width="3.66" height="2.29"/>
	<rect x="101.74" y="124.61" class="st10" width="3.66" height="2.29"/>
	<rect x="100.37" y="130.32" class="st10" width="3.66" height="2.29"/>
	<g>
		<rect x="3.43" y="131.12" class="st20" width="14.63" height="37.15"/>
		<polygon class="st25" points="3.43,131.24 0,126.44 20.58,126.44 18.06,131.24 		"/>
		<rect y="119.12" class="st20" width="20.58" height="7.32"/>
		<polygon class="st21" points="0,119.12 3.66,114.32 16.92,114.32 20.58,119.12 		"/>
		<rect x="3.66" y="110.89" class="st23" width="13.26" height="3.43"/>
		<polygon class="st20" points="3.66,110.89 3.66,106.77 6.42,106.77 6.42,108.83 8.82,108.83 8.82,106.77 11.58,106.77 
			11.58,108.83 13.95,108.83 13.95,106.77 16.92,106.77 16.92,110.89 		"/>
		<polygon class="st26" points="3.66,106.77 9.15,83.68 11.89,83.68 16.92,106.77 		"/>
		<rect x="6.42" y="106.77" class="st8" width="2.39" height="2.06"/>
		<rect x="11.58" y="106.77" class="st8" width="2.37" height="2.06"/>
		<rect x="4.07" y="119.02" class="st8" width="3.87" height="3.33"/>
		<rect x="12.41" y="119.02" class="st8" width="3.83" height="3.33"/>
		<path class="st21" d="M6.4,168.51c0,0,2.05,0.68,0,0.46c-2.06-0.23-2.74-0.46-2.97-0.69s0-32.47,0-32.47H6.4V168.51z"/>
		<path class="st14" d="M15.32,169.19c0,0-4.12,0-5.03,0s-3.89-0.23-3.89-0.23v-33.15h8.92V169.19z"/>
		<path class="st23" d="M18.06,168.28c-0.23,0.23-0.69,0.46-1.83,0.69c-1.12,0.22-0.91,0-0.91,0v-33.15h2.74
			C18.06,135.81,18.29,168.05,18.06,168.28z"/>
		<rect x="6.4" y="141.98" class="st10" width="3.66" height="2.29"/>
		<rect x="8.46" y="143.58" class="st10" width="3.66" height="2.29"/>
		<rect x="14.18" y="154.33" class="st10" width="3.66" height="2.29"/>
		<rect x="11.89" y="155.93" class="st10" width="3.66" height="2.29"/>
		<rect x="6.4" y="161.19" class="st10" width="3.66" height="2.29"/>
		<rect x="9.15" y="70.88" class="st16" width="2.74" height="12.8"/>
		<polygon class="st26" points="11.89,70.88 11.89,77.28 20.35,74.08 		"/>
	</g>
	<polygon class="st6" points="14.4,131.92 14.4,169.19 119.58,169.19 119.81,131.92 	"/>
	<g>
		<rect x="19.25" y="131.96" class="st8" width="3.7" height="3.33"/>
		<rect x="27.2" y="131.96" class="st8" width="3.66" height="3.33"/>
		<rect x="35.48" y="131.96" class="st8" width="3.7" height="3.33"/>
		<rect x="43.44" y="131.96" class="st8" width="3.66" height="3.33"/>
		<rect x="68.59" y="131.96" class="st8" width="3.66" height="3.33"/>
		<rect x="76.86" y="131.96" class="st8" width="3.7" height="3.33"/>
		<rect x="84.82" y="131.96" class="st8" width="3.66" height="3.33"/>
		<rect x="93.32" y="131.96" class="st8" width="3.7" height="3.33"/>
		<rect x="102.43" y="131.96" class="st8" width="3.66" height="3.33"/>
		<rect x="110.93" y="131.96" class="st8" width="3.7" height="3.33"/>
	</g>
	<polygon class="st26" points="14.4,131.92 18.38,126.44 59.9,126.44 59.9,131.92 	"/>
	<g>
		<g>
			<rect x="30.87" y="135.35" class="st20" width="13.72" height="37.27"/>
			<rect x="27.67" y="123.46" class="st20" width="19.43" height="7.32"/>
			<polygon class="st21" points="27.67,123.46 31.32,118.66 44.13,118.66 47.1,123.46 			"/>
			<rect x="31.32" y="115.23" class="st23" width="12.8" height="3.43"/>
			<polygon class="st20" points="31.32,115.23 31.32,111.12 33.66,111.12 33.66,113.18 35.89,113.18 35.89,111.12 38.47,111.12 
				38.47,113.18 40.68,113.18 40.68,111.12 44.13,111.12 44.13,115.23 			"/>
			<polygon class="st26" points="31.32,111.12 36.89,88.03 39.45,88.03 44.14,111.12 			"/>
			<rect x="33.66" y="111.12" class="st8" width="2.23" height="2.06"/>
			<rect x="38.47" y="111.12" class="st8" width="2.21" height="2.06"/>
			<rect x="31.55" y="123.37" class="st8" width="3.7" height="3.33"/>
			<rect x="39.51" y="123.37" class="st8" width="3.66" height="3.33"/>
			<path class="st21" d="M34.07,173.08c0,0-0.23,0-0.91,0c-0.91,0-2.06-0.23-2.29-0.46c-0.23-0.23,0-32.47,0-32.47h2.79
				L34.07,173.08z"/>
			<path class="st14" d="M42.01,172.85c0,0-2.46,0.23-4.52,0.23s-3.89,0-3.89,0l0.04-32.92h8.36V172.85z"/>
			<path class="st23" d="M44.58,172.62c-0.23,0.23-2.57,0.23-2.57,0.23v-32.7h2.57C44.58,140.15,44.81,172.39,44.58,172.62z"/>
			<rect x="33.65" y="144.27" class="st10" width="3.43" height="2.29"/>
			<rect x="40.63" y="150.44" class="st10" width="3.43" height="2.29"/>
			<rect x="33.29" y="163.93" class="st10" width="3.43" height="2.29"/>
			<rect x="35.03" y="165.53" class="st10" width="3.43" height="2.29"/>
			<rect x="36.89" y="75.22" class="st16" width="2.56" height="12.8"/>
		</g>
		<polygon class="st25" points="30.87,135.35 27.67,130.78 47.1,130.78 44.58,135.35 		"/>
	</g>
	<g>
		<g>
			<rect x="73.39" y="135.35" class="st20" width="13.72" height="37.27"/>
			<rect x="70.19" y="123.46" class="st20" width="19.43" height="7.32"/>
			<polygon class="st21" points="70.19,123.46 73.85,118.66 86.65,118.66 89.63,123.46 			"/>
			<rect x="73.85" y="115.23" class="st23" width="12.8" height="3.43"/>
			<polygon class="st20" points="73.85,115.23 73.85,111.12 76.18,111.12 76.18,113.18 78.42,113.18 78.42,111.12 81,111.12 
				81,113.18 83.21,113.18 83.21,111.12 86.65,111.12 86.65,115.23 			"/>
			<polygon class="st26" points="73.85,111.12 79.41,88.03 81.97,88.03 86.67,111.12 			"/>
			<rect x="76.18" y="111.12" class="st8" width="2.23" height="2.06"/>
			<rect x="81" y="111.12" class="st8" width="2.21" height="2.06"/>
			<rect x="74.08" y="123.37" class="st8" width="3.7" height="3.33"/>
			<rect x="82.04" y="123.37" class="st8" width="3.66" height="3.33"/>
			<path class="st21" d="M76.82,172.85c0,0-3.2,0-3.43-0.23s0-32.47,0-32.47h2.79L76.82,172.85z"/>
			<path class="st14" d="M84.54,172.85c0,0-2.92,0.23-4.06,0.23c-1.14,0-4.3-0.23-4.3-0.23v-32.7h8.36V172.85z"/>
			<path class="st23" d="M87.11,172.62c-0.23,0.23-2.57,0.23-2.57,0.23v-32.7h2.57C87.11,140.15,87.34,172.39,87.11,172.62z"/>
			<rect x="83.04" y="144.27" class="st10" width="3.43" height="2.29"/>
			<rect x="80.65" y="147.93" class="st10" width="3.43" height="2.29"/>
			<rect x="75.81" y="160.96" class="st10" width="3.43" height="2.29"/>
			<rect x="81.67" y="166.91" class="st10" width="3.43" height="2.29"/>
			<rect x="79.41" y="75.22" class="st16" width="2.56" height="12.8"/>
		</g>
		<polygon class="st25" points="73.39,135.35 70.19,130.78 89.63,130.78 87.11,135.35 		"/>
	</g>
	<g>
		<polygon class="st20" points="107.69,133.18 107.69,170.29 122.25,170.29 122.32,133.18 		"/>
		<polygon class="st25" points="107.69,133.3 104.26,128.49 125.06,128.49 122.32,133.3 		"/>
		<rect x="104.26" y="121.18" class="st20" width="20.81" height="7.32"/>
		<polygon class="st21" points="104.26,121.18 107.92,116.38 121.18,116.38 125.06,121.18 		"/>
		<rect x="107.92" y="112.95" class="st23" width="13.26" height="3.43"/>
		<polygon class="st20" points="107.92,112.95 107.92,108.83 110.68,108.83 110.68,110.89 113.07,110.89 113.07,108.83 
			115.84,108.83 115.84,110.89 118.21,110.89 118.21,108.83 121.18,108.83 121.18,112.95 		"/>
		<polygon class="st26" points="107.92,108.83 113.4,85.74 116.15,85.74 121.18,108.83 		"/>
		<rect x="110.68" y="108.83" class="st8" width="2.39" height="2.06"/>
		<rect x="115.84" y="108.83" class="st8" width="2.37" height="2.06"/>
		<rect x="108.33" y="121.08" class="st8" width="3.87" height="3.33"/>
		<rect x="116.66" y="121.08" class="st8" width="3.83" height="3.33"/>
		<path class="st21" d="M110.66,170.56c0,0-2.74,0-2.97-0.23c-0.23-0.23,0-32.47,0-32.47h2.97V170.56z"/>
		<path class="st14" d="M119.58,170.56c0,0-1.83,0.23-4.34,0.23c-2.52,0-4.57-0.23-4.57-0.23v-32.7h8.92V170.56z"/>
		<path class="st23" d="M122.32,170.33c-0.23,0.23-2.74,0.23-2.74,0.23v-32.7h2.74C122.32,137.87,122.55,170.11,122.32,170.33z"/>
		<rect x="109.97" y="148.61" class="st10" width="3.66" height="2.29"/>
		<rect x="118.43" y="143.81" class="st10" width="3.66" height="2.29"/>
		<rect x="116.15" y="160.27" class="st10" width="3.66" height="2.29"/>
		<rect x="109.06" y="165.76" class="st10" width="3.66" height="2.29"/>
		<rect x="113.4" y="72.94" class="st16" width="2.74" height="12.8"/>
		<polygon class="st26" points="116.15,72.94 116.15,79.34 124.61,76.14 		"/>
	</g>
	<g>
		<g>
			<g>
				<polygon class="st25" points="91.45,131.24 91.38,171.7 101.92,171.7 101.97,131.24 99.69,131.24 99.69,133.07 98.09,133.07 
					98.09,131.24 95.57,131.24 95.57,133.07 93.74,133.07 93.74,131.24 				"/>
				<path class="st21" d="M93.53,171.75c0,0-2.07,0.19-2.3-0.04s0.23-32.65,0.23-32.65h2.07V171.75z"/>
				<path class="st14" d="M99.99,171.75c0,0-2.36,0.19-4.19,0.19c-1.83,0-2.97-0.19-2.97-0.19v-32.7h7.16V171.75z"/>
				<path class="st23" d="M101.97,171.75c-0.23,0.19-2.74,0-2.74,0v-32.7h2.74C101.97,139.05,102.2,171.56,101.97,171.75z"/>
			</g>
			<rect x="98.09" y="131.24" class="st8" width="1.6" height="1.83"/>
			<rect x="93.74" y="131.24" class="st8" width="1.83" height="1.83"/>
		</g>
		<polygon class="st26" points="91.45,131.24 95.57,112.95 98.09,112.95 101.97,131.24 		"/>
		<rect x="95.57" y="99.69" class="st16" width="2.52" height="13.26"/>
		<rect x="96.94" y="168.51" class="st10" width="3.66" height="2.29"/>
		<rect x="91.91" y="156.85" class="st10" width="3.66" height="2.29"/>
		<rect x="93.51" y="154.79" class="st10" width="3.66" height="2.29"/>
		<rect x="97.4" y="140.38" class="st10" width="3.66" height="2.29"/>
	</g>
	<rect x="51.94" y="134.02" class="st8" width="3.7" height="3.33"/>
	<rect x="60.63" y="134.02" class="st8" width="3.7" height="3.33"/>
	<polygon class="st26" points="58.53,90.31 62.19,90.31 65.43,115.69 58.99,115.58 	"/>
	<path class="st14" d="M52.19,171.25c0,0-0.08-17.1-0.08-17.58c0-0.47,1.99-7.35,6.4-7.35c5.17,0,6.89,7.11,6.89,7.58
		c0,0.71,0.25,17.3,0.25,17.3"/>
	<rect x="20.94" y="107.55" class="st8" width="3.07" height="3.33"/>
	<polygon class="st26" points="18.75,102.89 21.95,94.88 22.86,94.88 26.06,102.89 	"/>
	<rect x="21.95" y="89.17" class="st16" width="0.91" height="5.72"/>
	<rect x="65.62" y="36.81" class="st20" width="4.12" height="8.69"/>
	<polygon class="st27" points="49.61,69.28 53.73,41.15 66.99,41.15 70.42,69.28 	"/>
	<g>
		<polygon class="st27" points="51.9,118.89 55.1,93.74 62.19,93.74 65.43,119.12 		"/>
		<rect x="49.84" y="102.89" class="st22" width="2.29" height="16.23"/>
		<rect x="65.05" y="102.54" class="st22" width="2.17" height="16.23"/>
		<path class="st20" d="M49.9,174.72c-0.06-0.04-0.04-4.09-0.06-10.33c-0.04-16.19,0-45.5,0-45.5h4.8l3.89-20.12l4.12,19.89h4.57
			v45.47v10.54C66.76,174.91,50.37,175.04,49.9,174.72z"/>
		<rect x="55.1" y="132.38" class="st14" width="6.86" height="3.66"/>
		<circle class="st8" cx="58.65" cy="118.55" r="2.4"/>
		<path class="st8" d="M52.59,132.38h12.8c0,0,0-2.78,0-5.17c0-1.6-0.6-3.98-3.4-3.98c-2.8,0-2.88,3.78-2.88,3.78
			s-0.32-3.78-3.32-3.78c-3,0-3.2,2.98-3.2,3.98C52.59,129.8,52.59,132.38,52.59,132.38z"/>
		<path class="st8" d="M52.66,174.72c0,0-0.07-16.5-0.07-16.96s1.85-7.09,5.94-7.09c4.8,0,6.4,6.86,6.4,7.32
			c0,0.69,0.23,16.69,0.23,16.69"/>
		<polygon class="st22" points="55.1,93.74 55.1,85.97 57.16,85.97 57.16,91.23 60.13,91.23 60.13,85.97 62.19,85.97 62.19,93.74 		
			"/>
		<g>
			<polygon class="st14" points="51.21,137.87 52.82,140.84 55.79,140.84 57.39,137.87 			"/>
			<polygon class="st14" points="59.67,137.87 61.27,140.84 64.25,140.84 65.85,137.87 			"/>
		</g>
		<rect x="49.84" y="121.86" class="st14" width="0.69" height="42.07"/>
		<rect x="66.53" y="121.86" class="st14" width="0.69" height="42.07"/>
		<rect x="50.53" y="159.59" class="st14" width="1.6" height="4.34"/>
		<rect x="65.39" y="159.59" class="st14" width="1.6" height="4.34"/>
	</g>
	<rect x="42.98" y="69.28" class="st20" width="6.63" height="17.15"/>
	<rect x="45.73" y="73.62" class="st8" width="1.37" height="8.76"/>
	<polygon class="st27" points="42.98,69.28 45.96,51.9 47.1,51.9 49.61,69.28 	"/>
	<rect x="45.96" y="42.3" class="st16" width="1.14" height="9.6"/>
	<polygon class="st26" points="60.36,41.15 66.99,41.15 70.42,69.28 60.36,69.28 	"/>
	<rect x="68.59" y="21.26" class="st20" width="9.83" height="48.47"/>
	<rect x="68.59" y="21.26" class="st21" width="9.83" height="6.63"/>
	<rect x="56.24" y="54.87" class="st21" width="7.55" height="17.38"/>
	<rect x="56.24" y="50.76" class="st21" width="1.14" height="17.38"/>
	<rect x="62.88" y="50.76" class="st21" width="0.91" height="17.38"/>
	<polygon class="st21" points="57.39,55.33 60.13,47.1 62.88,55.33 	"/>
	<rect x="57.85" y="64.93" class="st8" width="4.34" height="7.55"/>
	<rect x="57.85" y="56.7" class="st8" width="4.34" height="4.34"/>
	<polygon class="st22" points="53.73,41.15 53.73,33.38 57.58,33.38 57.58,38.64 63.14,38.64 63.14,33.38 66.99,33.38 66.99,41.15 	
		"/>
	<rect x="46.41" y="15.55" class="st22" width="1.37" height="11.43"/>
	<rect x="88.48" y="75.91" class="st20" width="6.17" height="14.4"/>
	<rect x="93.28" y="75.91" class="st23" width="1.37" height="14.4"/>
	<polygon class="st26" points="88.48,75.91 91,68.82 92.14,68.82 94.66,75.91 	"/>
	<rect x="82.08" y="57.85" class="st20" width="11.89" height="3.66"/>
	<rect x="91" y="60.59" class="st16" width="1.14" height="8.23"/>
	<polygon class="st26" points="83.68,48.11 87.11,34.07 88.48,34.07 92.14,48.11 	"/>
	<rect x="87.11" y="23.55" class="st16" width="1.37" height="10.52"/>
	<rect x="71.33" y="30.64" class="st21" width="7.55" height="39.78"/>
	<path class="st8" d="M71.33,68.82v-4.58c0,0,0.23-2.73,1.83-2.73c1.6,0,1.83,2.74,1.83,2.74l0.11,4.57H71.33z"/>
	<path class="st8" d="M73.62,82.31V79.3c0,0,0.12-1.79,0.99-1.79c0.87,0,0.99,1.8,0.99,1.8l0.06,3H73.62z"/>
	<rect x="78.42" y="31.78" class="st23" width="0.91" height="38.64"/>
	<rect x="66.08" y="68.82" class="st20" width="16" height="2.97"/>
	<polygon class="st23" points="68.59,31.09 66.76,28.81 80.48,28.81 80.48,31.03 79.43,31.09 79.43,32.01 77.31,32.01 76.26,31.09 	
		"/>
	<polygon class="st20" points="79.43,25.84 79.43,21.26 76.89,21.26 76.89,25.84 66.76,25.84 66.76,28.81 76.89,28.81 76.89,31.09 
		79.43,31.09 79.43,28.81 	"/>
	<rect x="77.51" y="22.64" class="st8" width="1.14" height="4.57"/>
	<polygon class="st22" points="68.59,21.26 72.94,8.46 74.99,8.46 79.34,21.26 	"/>
	<polygon class="st16" points="76.59,21.26 77.74,14.86 78.19,14.86 79.34,21.26 	"/>
	<rect x="68.59" y="16.69" class="st16" width="1.14" height="4.57"/>
	<rect x="72.48" y="16.69" class="st16" width="1.14" height="4.57"/>
	<rect x="72.94" class="st16" width="2.06" height="8.46"/>
	<polygon class="st26" points="74.99,0 80.94,2.29 74.99,4.11 	"/>
	<polygon class="st26" points="61.05,26.06 63.1,14.86 64.02,14.86 66.08,26.06 	"/>
	<rect x="63.1" y="10.29" class="st16" width="0.91" height="4.57"/>
	<path class="st8" d="M71.79,96.26v-3.01c0,0,0.12-1.79,0.99-1.79c0.87,0,0.99,1.8,0.99,1.8l0.06,3H71.79z"/>
	<rect x="101.97" y="113.63" class="st10" width="3.66" height="2.29"/>
</g>
</svg>
