<?xml version="1.0" encoding="utf-8"?>
<!-- Generator: Adobe Illustrator 26.4.1, SVG Export Plug-In . SVG Version: 6.00 Build 0)  -->
<svg version="1.1" id="Layer_1" xmlns="http://www.w3.org/2000/svg" xmlns:xlink="http://www.w3.org/1999/xlink" x="0px" y="0px"
	 viewBox="0 0 125.06 178.79" style="enable-background:new 0 0 125.06 178.79;" xml:space="preserve">
<style type="text/css">
	.st0{fill:#F7A395;}
	.st1{fill:#F3DFCB;}
	.st2{fill:#0A1414;}
	.st3{fill:none;stroke:#F3DFCB;stroke-width:0.25;stroke-miterlimit:10;}
	.st4{fill:#2E9A9C;}
	.st5{fill:#2E606B;}
	.st6{fill:#B9B0A8;}
	.st7{fill:#FABAA7;}
	.st8{fill:#7B7D7F;}
	.st9{fill:#EF847E;}
	.st10{fill:#C0B7AD;}
	.st11{fill:#9E3B47;}
	.st12{fill:#D95A69;}
	.st13{fill:#812834;}
	.st14{fill:#EAE5E1;}
	.st15{fill:none;stroke:#C0B7AD;stroke-width:0.25;stroke-miterlimit:10;}
	.st16{fill:#FFF4CD;}
	.st17{fill:#C95D69;}
	.st18{fill:#AA434D;}
	.st19{fill:none;stroke:#FFF4CD;stroke-width:0.1;stroke-miterlimit:10;}
	.st20{fill:#FFFFFF;}
	.st21{fill:#F7F4F0;}
	.st22{fill:#FCEA93;}
	.st23{fill:#D6D0C9;}
	.st24{fill:#CCC4BC;}
	.st25{fill:#ECE6E3;}
	.st26{fill:#5773B8;}
	.st27{fill:#7D95CC;}
	.st28{fill:#E3BEB5;}
	.st29{fill:#D7B6AE;}
	.st30{fill:#728392;}
	.st31{fill:#B49591;}
	.st32{fill:#C7A197;}
	.st33{fill:#7C7874;}
	.st34{fill:#8E898C;}
	.st35{fill:#9E968F;}
	.st36{fill:#B0A8A1;}
	.st37{fill:#8F8680;}
	.st38{fill:#847C75;}
	.st39{fill:#789DBA;}
	.st40{fill:#CA5181;}
	.st41{fill:none;stroke:#7B7D7F;stroke-width:0.25;stroke-miterlimit:10;}
</style>
<g>
	<g>
		<g>
			<rect x="100.2" y="74.51" class="st0" width="6.86" height="44.42"/>
			<rect x="98.91" y="82.4" class="st1" width="9.64" height="2.97"/>
		</g>
		<rect x="102.96" y="51.13" class="st2" width="1.2" height="8.23"/>
		<g>
			<polyline class="st3" points="101.14,67.59 101.14,63.59 105.99,63.59 105.99,67.59 			"/>
			<line class="st3" x1="102.76" y1="63.59" x2="102.76" y2="67.59"/>
			<line class="st3" x1="104.37" y1="63.59" x2="104.37" y2="67.59"/>
		</g>
		<g>
			<path class="st4" d="M97.36,74.81c0,0,1.8-0.52,1.85-1.38c0.15-2.36-0.87-6.83,3.02-6.83c0.59,0,1.03,0,1.35,0
				c0.17,0,0.11,8.21,0.11,8.21H97.36z"/>
			<path class="st4" d="M109.77,74.81c0,0-1.8-0.52-1.85-1.38c-0.15-2.36,0.87-6.83-3.02-6.83c-0.59,0-1.03,0-1.35,0
				c-0.17,0-0.11,8.21-0.11,8.21H109.77z"/>
		</g>
		<g>
			<path class="st4" d="M100.06,63.59c0,0,1.02-0.32,1.05-0.86c0.09-1.46-0.49-4.23,1.71-4.23c0.34,0,0.58,0,0.77,0
				c0.1,0,0.06,5.09,0.06,5.09H100.06z"/>
			<path class="st4" d="M107.07,63.59c0,0-1.02-0.32-1.05-0.86c-0.09-1.46,0.49-4.23-1.71-4.23c-0.34,0-0.58,0-0.77,0
				c-0.1,0-0.06,5.09-0.06,5.09H107.07z"/>
		</g>
	</g>
	<polygon class="st5" points="60.05,26.61 62.26,25.46 63.1,15.4 64.02,15.4 64.87,25.46 67.08,26.61 	"/>
	<path class="st6" d="M14.4,132.46v37.27h105.17l0.23-37.27H14.4z M22.94,137.89h-3.7v-3.33h3.7V137.89z M30.86,137.89H27.2v-3.33
		h3.66V137.89z M39.17,137.89h-3.7v-3.33h3.7V137.89z M47.09,137.89h-3.66v-3.33h3.66V137.89z M72.24,137.89h-3.66v-3.33h3.66
		V137.89z M80.56,137.89h-3.7v-3.33h3.7V137.89z M88.48,137.89h-3.66v-3.33h3.66V137.89z M97.02,137.89h-3.7v-3.33h3.7V137.89z
		 M106.08,137.89h-3.66v-3.33h3.66V137.89z M114.62,137.89h-3.7v-3.33h3.7V137.89z"/>
	<rect x="69.73" y="74.62" class="st7" width="11.43" height="29.04"/>
	<rect x="83.68" y="48.65" class="st0" width="8.46" height="54.78"/>
	<polygon class="st7" points="92.6,90.85 88.25,90.85 88.25,92.68 85.51,92.68 85.51,90.85 82.31,90.85 82.31,92.68 79.57,92.68 
		79.57,90.85 76.14,90.85 76.14,92.68 73.39,92.68 73.39,90.85 45.27,90.85 45.27,117.07 45.27,140.47 92.83,138.94 	"/>
	<path class="st8" d="M77.74,90.39v-3.01c0,0,0.12-1.79,0.99-1.79c0.87,0,0.99,1.8,0.99,1.8l0.06,3H77.74z"/>
	<polygon class="st5" points="39.98,69.82 43.16,67.63 46.41,27.52 47.79,27.52 49.69,67.64 52.9,69.82 	"/>
	<g>
		<rect x="18.75" y="110.43" class="st9" width="7.32" height="25.84"/>
		<rect x="20.94" y="115.09" class="st8" width="3.07" height="3.33"/>
		<polygon class="st5" points="17.75,110.43 20.28,109.09 21.95,102.42 22.86,102.42 24.53,109.09 27.06,110.43 		"/>
		<rect x="21.95" y="96.71" class="st2" width="0.91" height="5.72"/>
	</g>
	<rect x="49.39" y="69.82" class="st9" width="21.03" height="9.6"/>
	<rect x="49.16" y="78.51" class="st0" width="21.03" height="9.37"/>
	<rect x="49.16" y="81.48" class="st9" width="21.03" height="9.37"/>
	<polygon class="st0" points="90.54,135.44 92.6,135.44 92.6,94.05 94.66,90.85 88.48,90.85 90.54,94.05 	"/>
	<rect x="61.05" y="26.61" class="st7" width="5.03" height="28.81"/>
	<polygon class="st0" points="69.43,75.08 66.08,72.33 82.08,72.33 79.24,75.08 	"/>
	<polygon class="st0" points="64.48,86.97 64.48,88.79 62.42,88.79 62.42,86.97 59.9,86.97 59.9,88.79 57.85,88.79 57.85,86.97 
		55.79,86.97 55.79,88.79 53.73,88.79 53.73,86.97 51.67,86.97 51.67,88.79 49.61,88.79 49.61,86.97 42.98,86.97 45.27,90.85 
		47.56,90.85 47.1,134.98 70.19,134.98 70.19,86.97 	"/>
	<rect x="44.58" y="103.43" class="st1" width="48.93" height="1.6"/>
	<rect x="25.84" y="125.15" class="st10" width="8.23" height="7.77"/>
	<g>
		<rect x="34.75" y="99.1" class="st9" width="7.32" height="37.16"/>
		<rect x="36.94" y="104.09" class="st8" width="3.07" height="3.33"/>
		<polygon class="st5" points="33.75,99.1 36.15,97.66 37.95,87.59 38.86,87.59 40.63,97.54 43.06,99.1 		"/>
		<rect x="37.95" y="82.71" class="st2" width="0.91" height="4.89"/>
	</g>
	<polygon class="st9" points="93.8,112.81 89.45,110.07 110.2,110.07 106.52,112.81 	"/>
	<polygon class="st7" points="110.2,107.1 110.2,103.43 105.26,103.43 105.26,105.94 102.14,105.94 102.14,103.43 97.46,103.43 
		97.46,105.94 93.82,105.94 93.82,103.43 89.4,103.43 89.45,107.1 89.45,110.07 110.2,110.07 	"/>
	<rect x="93.82" y="112.8" class="st7" width="12.74" height="34.3"/>
	<rect x="96.71" y="116.69" class="st10" width="3.66" height="2.29"/>
	<rect x="99.23" y="118.52" class="st10" width="3.66" height="2.29"/>
	<rect x="101.74" y="125.15" class="st10" width="3.66" height="2.29"/>
	<rect x="100.37" y="130.86" class="st10" width="3.66" height="2.29"/>
	<g>
		<rect x="3.43" y="131.66" class="st11" width="14.63" height="37.15"/>
		<polygon class="st12" points="3.43,131.78 0,126.98 20.58,126.98 18.06,131.78 		"/>
		<rect y="119.66" class="st11" width="20.58" height="7.32"/>
		<polygon class="st11" points="0,119.66 3.66,114.86 16.92,114.86 20.58,119.66 		"/>
		<rect x="3.66" y="111.43" class="st12" width="13.26" height="3.43"/>
		<polygon class="st12" points="3.66,111.43 3.66,107.31 6.42,107.31 6.42,109.37 8.82,109.37 8.82,107.31 11.58,107.31 
			11.58,109.37 13.95,109.37 13.95,107.31 16.92,107.31 16.92,111.43 		"/>
		<polygon class="st4" points="2.66,107.31 6.14,105.08 9.15,84.22 11.89,84.22 14.55,105.02 17.92,107.31 		"/>
		<rect x="6.42" y="107.31" class="st8" width="2.39" height="2.06"/>
		<rect x="11.58" y="107.31" class="st8" width="2.37" height="2.06"/>
		<rect x="4.07" y="119.56" class="st8" width="3.87" height="3.33"/>
		<rect x="12.41" y="119.56" class="st8" width="3.83" height="3.33"/>
		<path class="st11" d="M6.4,169.05c0,0,2.05,0.68,0,0.46c-2.06-0.23-2.74-0.46-2.97-0.69s0-32.47,0-32.47H6.4V169.05z"/>
		<path class="st13" d="M15.32,169.73c0,0-4.12,0-5.03,0S6.4,169.5,6.4,169.5v-33.15h8.92V169.73z"/>
		<path class="st13" d="M18.06,168.82c-0.23,0.23-0.69,0.46-1.83,0.69c-1.12,0.22-0.91,0-0.91,0v-33.15h2.74
			C18.06,136.35,18.29,168.59,18.06,168.82z"/>
		<rect x="6.4" y="142.52" class="st10" width="3.66" height="2.29"/>
		<rect x="8.46" y="144.12" class="st10" width="3.66" height="2.29"/>
		<rect x="14.18" y="154.87" class="st10" width="3.66" height="2.29"/>
		<rect x="11.89" y="156.47" class="st10" width="3.66" height="2.29"/>
		<rect x="6.4" y="161.73" class="st10" width="3.66" height="2.29"/>
		<rect x="9.15" y="71.42" class="st2" width="2.74" height="12.8"/>
	</g>
	<polygon class="st9" points="14.4,132.46 14.4,169.73 119.58,169.73 119.81,132.46 	"/>
	<rect x="14.06" y="148.59" class="st12" width="100" height="21"/>
	<g>
		<rect x="19.25" y="132.5" class="st8" width="3.7" height="3.33"/>
		<rect x="27.2" y="132.5" class="st8" width="3.66" height="3.33"/>
		<rect x="35.48" y="132.5" class="st8" width="3.7" height="3.33"/>
		<rect x="43.44" y="132.5" class="st8" width="3.66" height="3.33"/>
		<rect x="68.59" y="132.5" class="st8" width="3.66" height="3.33"/>
		<rect x="76.86" y="132.5" class="st8" width="3.7" height="3.33"/>
		<rect x="84.82" y="132.5" class="st8" width="3.66" height="3.33"/>
		<rect x="93.32" y="132.5" class="st8" width="3.7" height="3.33"/>
		<rect x="102.43" y="132.5" class="st8" width="3.66" height="3.33"/>
		<rect x="110.93" y="132.5" class="st8" width="3.7" height="3.33"/>
	</g>
	<g>
		<rect x="26.75" y="104.45" class="st9" width="7.32" height="31.81"/>
		<rect x="28.94" y="109.09" class="st8" width="3.07" height="3.33"/>
		<polygon class="st5" points="25.75,104.45 28.14,103.26 29.95,94.59 30.86,94.59 32.61,103.06 35.06,104.45 		"/>
		<rect x="29.95" y="89.71" class="st2" width="0.91" height="4.89"/>
	</g>
	<rect x="51.94" y="134.56" class="st8" width="3.7" height="3.33"/>
	<rect x="60.63" y="134.56" class="st8" width="3.7" height="3.33"/>
	<path class="st14" d="M52.19,171.79c0,0-0.08-17.1-0.08-17.58c0-0.47,1.99-7.35,6.4-7.35c5.17,0,6.89,7.11,6.89,7.58
		c0,0.71,0.25,17.3,0.25,17.3"/>
	<rect x="65.62" y="37.35" class="st0" width="4.12" height="8.69"/>
	<polygon class="st4" points="49.61,69.82 52.09,59.71 53.73,41.7 66.99,41.7 68.15,59.41 70.42,69.82 	"/>
	<polygon class="st5" points="14.4,132.46 22.77,120.59 110.06,120.59 110.06,132.46 	"/>
	<g>
		<polygon class="st5" points="51.9,119.43 55.1,94.28 62.19,94.28 65.43,119.66 		"/>
		<rect x="49.84" y="103.43" class="st1" width="2.29" height="16.23"/>
		<rect x="65.05" y="103.08" class="st1" width="2.17" height="16.23"/>
		<path class="st12" d="M49.9,175.26c-0.06-0.04-0.04-4.09-0.06-10.33c-0.04-16.19,0-45.5,0-45.5h4.8l3.89-20.12l4.12,19.89h4.57
			v45.47v10.54C66.76,175.45,50.37,175.58,49.9,175.26z"/>
		<circle class="st8" cx="58.65" cy="119.09" r="2.4"/>
		<path class="st1" d="M52.66,175.26c0,0-0.07-16.5-0.07-16.96s1.85-7.09,5.94-7.09c4.8,0,6.4,6.86,6.4,7.32
			c0,0.69,0.23,16.69,0.23,16.69"/>
		<polygon class="st1" points="55.1,94.28 55.1,86.51 57.16,86.51 57.16,91.77 60.13,91.77 60.13,86.51 62.19,86.51 62.19,94.28 		
			"/>
		<rect x="49.84" y="122.4" class="st11" width="0.69" height="42.07"/>
		<rect x="66.53" y="122.4" class="st11" width="0.69" height="42.07"/>
		<rect x="50.53" y="160.13" class="st11" width="1.6" height="4.34"/>
		<rect x="65.39" y="160.13" class="st11" width="1.6" height="4.34"/>
		<rect x="52.06" y="124.59" class="st1" width="13" height="21"/>
		<rect x="53.06" y="125.59" class="st8" width="5" height="5"/>
		<rect x="59.06" y="125.59" class="st8" width="5" height="5"/>
		<rect x="53.06" y="131.59" class="st8" width="5" height="5"/>
		<rect x="59.06" y="131.59" class="st8" width="5" height="5"/>
		<rect x="53.06" y="137.59" class="st8" width="5" height="5"/>
		<rect x="59.06" y="137.59" class="st8" width="5" height="5"/>
		<rect x="53.06" y="125.59" class="st15" width="5" height="5"/>
		<rect x="59.06" y="125.59" class="st15" width="5" height="5"/>
		<rect x="53.06" y="131.59" class="st15" width="5" height="5"/>
		<rect x="59.06" y="131.59" class="st15" width="5" height="5"/>
		<rect x="53.06" y="137.59" class="st15" width="5" height="5"/>
		<rect x="59.06" y="137.59" class="st15" width="5" height="5"/>
	</g>
	<rect x="42.98" y="69.82" class="st7" width="6.63" height="17.15"/>
	<rect x="45.73" y="74.16" class="st8" width="1.37" height="8.76"/>
	<polygon class="st4" points="41.98,69.82 44.41,68.3 45.96,52.44 47.1,52.44 48.24,68.24 50.61,69.82 	"/>
	<rect x="45.96" y="42.84" class="st16" width="1.14" height="9.6"/>
	<polygon class="st5" points="60.36,41.7 66.99,41.7 68.15,59.41 70.42,69.82 60.36,69.82 	"/>
	<rect x="68.59" y="21.8" class="st7" width="9.83" height="48.47"/>
	<rect x="68.59" y="21.8" class="st0" width="9.83" height="6.63"/>
	<rect x="56.24" y="55.41" class="st0" width="7.55" height="17.38"/>
	<rect x="56.24" y="51.3" class="st0" width="1.14" height="17.38"/>
	<rect x="62.88" y="51.3" class="st0" width="0.91" height="17.38"/>
	<polygon class="st0" points="57.39,55.87 60.13,47.64 62.88,55.87 	"/>
	<polygon class="st16" points="53.73,41.7 53.73,33.92 57.58,33.92 57.58,39.18 63.14,39.18 63.14,33.92 66.99,33.92 66.99,41.7 	
		"/>
	<rect x="46.41" y="16.09" class="st16" width="1.37" height="11.43"/>
	<rect x="88.48" y="76.45" class="st7" width="6.17" height="14.4"/>
	<g>
		<g>
			<rect x="37.7" y="145.56" class="st11" width="12.08" height="32.83"/>
			<rect x="34.88" y="135.09" class="st11" width="17.12" height="6.44"/>
			<polygon class="st11" points="34.88,135.09 38.1,130.86 49.38,130.86 52,135.09 			"/>
			<rect x="38.1" y="127.84" class="st12" width="11.28" height="3.02"/>
			<polygon class="st12" points="38.1,127.84 38.1,124.21 40.16,124.21 40.16,126.02 42.13,126.02 42.13,124.21 44.4,124.21 
				44.4,126.02 46.35,126.02 46.35,124.21 49.38,124.21 49.38,127.84 			"/>
			<polygon class="st4" points="37.1,124.21 40.91,121.86 43,103.87 45.26,103.87 46.73,121.93 50.39,124.21 			"/>
			<rect x="40.16" y="124.21" class="st8" width="1.97" height="1.81"/>
			<rect x="44.4" y="124.21" class="st8" width="1.95" height="1.81"/>
			<rect x="38.31" y="135" class="st8" width="3.25" height="2.93"/>
			<rect x="45.32" y="135" class="st8" width="3.22" height="2.93"/>
			<path class="st11" d="M40.52,178.79c0,0-0.2,0-0.81,0c-0.81,0-1.81-0.2-2.01-0.4s0-28.6,0-28.6h2.45L40.52,178.79z"/>
			<path class="st13" d="M47.52,178.58c0,0-2.16,0.2-3.98,0.2c-1.81,0-3.42,0-3.42,0l0.04-29h7.36V178.58z"/>
			<path class="st13" d="M49.78,178.38c-0.2,0.2-2.27,0.2-2.27,0.2v-28.8h2.27C49.78,149.79,49.98,178.18,49.78,178.38z"/>
			<rect x="40.16" y="153.41" class="st10" width="3.02" height="2.01"/>
			<rect x="46.3" y="158.85" class="st10" width="3.02" height="2.01"/>
			<rect x="39.83" y="170.73" class="st10" width="3.02" height="2.01"/>
			<rect x="41.37" y="172.14" class="st10" width="3.02" height="2.01"/>
			<rect x="43" y="92.59" class="st2" width="2.26" height="11.28"/>
		</g>
		<polygon class="st13" points="37.7,145.56 34.88,141.53 52,141.53 49.78,145.56 		"/>
	</g>
	<rect x="93.28" y="76.45" class="st0" width="1.37" height="14.4"/>
	<polygon class="st4" points="87.48,76.45 89.83,75.47 91,69.36 92.14,69.36 93.25,75.29 95.66,76.45 	"/>
	<rect x="82.08" y="58.39" class="st1" width="11.89" height="3.66"/>
	<rect x="91" y="61.13" class="st2" width="1.14" height="8.23"/>
	<polygon class="st4" points="82.68,48.65 85.17,46.63 87.11,34.61 88.48,34.61 90.61,46.61 93.14,48.65 	"/>
	<rect x="87.11" y="24.09" class="st16" width="1.37" height="10.52"/>
	<rect x="71.33" y="31.18" class="st0" width="7.55" height="39.78"/>
	<path class="st8" d="M71.33,69.36v-4.58c0,0,0.23-2.73,1.83-2.73c1.6,0,1.83,2.74,1.83,2.74l0.11,4.57H71.33z"/>
	<path class="st8" d="M73.62,82.85v-3.01c0,0,0.12-1.79,0.99-1.79c0.87,0,0.99,1.8,0.99,1.8l0.06,3H73.62z"/>
	<rect x="78.42" y="32.32" class="st0" width="0.91" height="38.64"/>
	<rect x="66.08" y="69.36" class="st7" width="16" height="2.97"/>
	<polygon class="st0" points="68.59,31.64 66.76,29.35 80.48,29.35 80.48,31.57 79.43,31.64 79.43,32.55 77.31,32.55 76.26,31.64 	
		"/>
	<polygon class="st7" points="79.43,26.38 79.43,21.8 76.89,21.8 76.89,26.38 66.76,26.38 66.76,29.35 76.89,29.35 76.89,31.63 
		79.43,31.64 79.43,29.35 	"/>
	<rect x="77.51" y="23.18" class="st8" width="1.14" height="4.57"/>
	<polygon class="st5" points="67.59,21.8 69.98,19.87 72.94,0 74.99,0 77.95,19.88 80.34,21.8 	"/>
	<polygon class="st1" points="76.59,21.8 77.74,15.4 78.19,15.4 79.34,21.8 	"/>
	<rect x="68.59" y="17.23" class="st1" width="1.14" height="4.57"/>
	<rect x="14.06" y="148.59" class="st12" width="7" height="22"/>
	<rect x="72.48" y="17.23" class="st1" width="1.14" height="4.57"/>
	<rect x="63.1" y="10.83" class="st16" width="0.91" height="4.57"/>
	<path class="st8" d="M71.79,96.8v-3.01c0,0,0.12-1.79,0.99-1.79c0.87,0,0.99,1.8,0.99,1.8l0.06,3H71.79z"/>
	<rect x="101.97" y="114.17" class="st10" width="3.66" height="2.29"/>
	<path class="st1" d="M15.17,170.41c0,0-0.03-12.91-0.03-13.27c0-0.36,0.72-5.54,2.33-5.54c1.88,0,2.51,5.37,2.51,5.72
		c0,0.54,0.09,13.06,0.09,13.06"/>
	<path class="st1" d="M30.17,169.41c0,0-0.04-12.91-0.04-13.27c0-0.36,0.87-5.54,2.8-5.54c2.26,0,3.02,5.37,3.02,5.72
		c0,0.54,0.11,13.06,0.11,13.06"/>
	<path class="st1" d="M81.17,169.41c0,0-0.04-12.91-0.04-13.27c0-0.36,0.87-5.54,2.8-5.54c2.26,0,3.02,5.37,3.02,5.72
		c0,0.54,0.11,13.06,0.11,13.06"/>
	<path class="st1" d="M96.17,169.41c0,0-0.04-12.91-0.04-13.27c0-0.36,0.87-5.54,2.8-5.54c2.26,0,3.02,5.37,3.02,5.72
		c0,0.54,0.11,13.06,0.11,13.06"/>
	<path class="st15" d="M30.17,169.41c0,0-0.04-12.91-0.04-13.27c0-0.36,0.87-5.54,2.8-5.54c2.26,0,3.02,5.37,3.02,5.72
		c0,0.54,0.11,13.06,0.11,13.06"/>
	<g>
		<polygon class="st11" points="21.06,170.59 25.56,172.59 30.06,170.59 30.06,134.59 21.06,134.59 		"/>
		<polygon class="st13" points="25.56,172.59 25.56,134.47 30.06,134.59 30.06,170.59 		"/>
	</g>
	<g>
		<g>
			<g>
				<g>
					<polygon class="st17" points="29.89,119.17 29.95,147.38 21.03,147.38 20.99,119.17 22.92,119.17 22.92,120.45 24.28,120.45 
						24.28,119.17 26.41,119.17 26.41,120.45 27.95,120.45 27.95,119.17 					"/>
					<path class="st17" d="M28.13,147.42c0,0,1.76,0.13,1.95-0.03s-0.19-22.77-0.19-22.77h-1.76V147.42z"/>
					<path class="st18" d="M22.67,147.42c0,0,1.99,0.13,3.54,0.13c1.55,0,2.52-0.13,2.52-0.13v-22.8h-6.06V147.42z"/>
					<path class="st18" d="M20.99,147.42c0.19,0.13,2.32,0,2.32,0v-22.8h-2.32C20.99,124.62,20.79,147.28,20.99,147.42z"/>
				</g>
				<rect x="22.92" y="119.17" class="st8" width="1.35" height="1.28"/>
				<rect x="26.41" y="119.17" class="st8" width="1.55" height="1.28"/>
			</g>
			<path class="st4" d="M29.89,119.17c0,0,0.32-5.71-3.48-5.71s1.24,0-2.13,0s-3.29,5.71-3.29,5.71H29.89z"/>
			
				<rect x="24.32" y="145.16" transform="matrix(-1 -3.643409e-11 3.643409e-11 -1 51.745 291.9065)" class="st10" width="3.1" height="1.59"/>
			
				<rect x="26.41" y="139.72" transform="matrix(-1 -3.643409e-11 3.643409e-11 -1 55.9057 281.0254)" class="st10" width="3.1" height="1.59"/>
			
				<rect x="22.88" y="135.59" transform="matrix(-1 -3.760915e-11 3.760915e-11 -1 48.8456 272.7777)" class="st10" width="3.1" height="1.59"/>
			
				<rect x="21.76" y="127.34" transform="matrix(-1 -3.760915e-11 3.760915e-11 -1 46.6195 256.2781)" class="st10" width="3.1" height="1.59"/>
		</g>
		<path class="st18" d="M30.22,146.93c0,0,0,3.49-5.08,3.49c-4.23,0-4.23-3.49-4.23-3.49H30.22z"/>
		
			<rect x="20.06" y="146.24" transform="matrix(-1 -3.704160e-11 3.704160e-11 -1 51.1284 293.8661)" class="st1" width="11" height="1.39"/>
		
			<rect x="20.06" y="124.62" transform="matrix(-1 -3.671076e-11 3.671076e-11 -1 51.1284 249.9424)" class="st1" width="11" height="0.7"/>
		
			<rect x="20.06" y="121.83" transform="matrix(-1 -3.704160e-11 3.704160e-11 -1 51.1284 244.3648)" class="st1" width="11" height="0.7"/>
		
			<rect x="20.06" y="118.35" transform="matrix(-1 -3.704160e-11 3.704160e-11 -1 51.1284 238.0899)" class="st1" width="11" height="1.39"/>
	</g>
	<path class="st15" d="M81.17,169.41c0,0-0.04-12.91-0.04-13.27c0-0.36,0.87-5.54,2.8-5.54c2.26,0,3.02,5.37,3.02,5.72
		c0,0.54,0.11,13.06,0.11,13.06"/>
	<g>
		<polygon class="st11" points="96.06,170.59 91.56,172.59 87.06,170.59 87.06,134.59 96.06,134.59 		"/>
		<polygon class="st13" points="91.56,172.59 91.56,134.47 87.06,134.59 87.06,170.59 		"/>
	</g>
	<g>
		<g>
			<rect x="67.11" y="145.56" class="st11" width="12.08" height="32.83"/>
			<rect x="64.29" y="135.09" class="st11" width="17.12" height="6.44"/>
			<polygon class="st11" points="64.29,135.09 67.51,130.86 78.79,130.86 81.41,135.09 			"/>
			<rect x="67.51" y="127.84" class="st12" width="11.28" height="3.02"/>
			<polygon class="st12" points="67.51,127.84 67.51,124.21 69.57,124.21 69.57,126.02 71.54,126.02 71.54,124.21 73.81,124.21 
				73.81,126.02 75.76,126.02 75.76,124.21 78.79,124.21 78.79,127.84 			"/>
			<polygon class="st4" points="66.51,124.21 70.27,123.09 72.41,103.87 74.67,103.87 76.54,122.92 79.81,124.21 			"/>
			<rect x="69.57" y="124.21" class="st8" width="1.97" height="1.81"/>
			<rect x="73.81" y="124.21" class="st8" width="1.95" height="1.81"/>
			<rect x="67.72" y="135" class="st8" width="3.25" height="2.93"/>
			<rect x="74.73" y="135" class="st8" width="3.22" height="2.93"/>
			<path class="st11" d="M70.13,178.58c0,0-2.82,0-3.02-0.2s0-28.6,0-28.6h2.45L70.13,178.58z"/>
			<path class="st13" d="M76.93,178.58c0,0-2.57,0.2-3.57,0.2s-3.79-0.2-3.79-0.2v-28.8h7.36V178.58z"/>
			<path class="st13" d="M79.19,178.38c-0.2,0.2-2.27,0.2-2.27,0.2v-28.8h2.27C79.19,149.79,79.4,178.18,79.19,178.38z"/>
			<rect x="75.61" y="153.41" class="st10" width="3.02" height="2.01"/>
			<rect x="73.5" y="156.63" class="st10" width="3.02" height="2.01"/>
			<rect x="69.24" y="168.11" class="st10" width="3.02" height="2.01"/>
			<rect x="74.4" y="173.35" class="st10" width="3.02" height="2.01"/>
			<rect x="72.41" y="92.59" class="st2" width="2.26" height="11.28"/>
		</g>
		<polygon class="st13" points="67.11,145.56 64.29,141.53 81.41,141.53 79.19,145.56 		"/>
	</g>
	<g>
		<g>
			<g>
				<g>
					<polygon class="st17" points="87.24,118.48 87.18,146.69 96.1,146.69 96.14,118.48 94.21,118.48 94.21,119.75 92.85,119.75 
						92.85,118.48 90.72,118.48 90.72,119.75 89.18,119.75 89.18,118.48 					"/>
					<path class="st17" d="M89,146.72c0,0-1.76,0.13-1.95-0.03c-0.19-0.16,0.19-22.77,0.19-22.77H89V146.72z"/>
					<path class="st18" d="M94.46,146.72c0,0-1.99,0.13-3.54,0.13s-2.52-0.13-2.52-0.13v-22.8h6.06V146.72z"/>
					<path class="st18" d="M96.14,146.72c-0.19,0.13-2.32,0-2.32,0v-22.8h2.32C96.14,123.92,96.33,146.59,96.14,146.72z"/>
				</g>
				<rect x="92.85" y="118.48" class="st8" width="1.35" height="1.28"/>
				<rect x="89.18" y="118.48" class="st8" width="1.55" height="1.28"/>
			</g>
			<path class="st4" d="M87.24,118.48c0,0-0.32-5.71,3.48-5.71s-1.24,0,2.13,0s3.29,5.71,3.29,5.71H87.24z"/>
			<rect x="91.88" y="144.46" class="st10" width="3.1" height="1.59"/>
			<rect x="87.63" y="136.33" class="st10" width="3.1" height="1.59"/>
			<rect x="88.98" y="134.89" class="st10" width="3.1" height="1.59"/>
			<rect x="92.27" y="124.85" class="st10" width="3.1" height="1.59"/>
		</g>
		<path class="st18" d="M86.91,146.24c0,0,0,3.49,5.08,3.49c4.23,0,4.23-3.49,4.23-3.49H86.91z"/>
		<rect x="86.06" y="145.54" class="st1" width="11" height="1.39"/>
		<rect x="86.06" y="123.93" class="st1" width="11" height="0.7"/>
		<rect x="86.06" y="121.14" class="st1" width="11" height="0.7"/>
		<rect x="86.06" y="117.65" class="st1" width="11" height="1.39"/>
	</g>
	<rect x="96.06" y="148.59" class="st12" width="12" height="22"/>
	<path class="st1" d="M97.17,170.41c0,0-0.03-12.91-0.03-13.27c0-0.36,0.72-5.54,2.33-5.54c1.88,0,2.51,5.37,2.51,5.72
		c0,0.54,0.09,13.06,0.09,13.06"/>
	<g>
		<polygon class="st11" points="107.69,133.72 107.69,170.83 122.25,170.83 122.32,133.72 		"/>
		<polygon class="st12" points="107.69,133.84 104.26,129.03 125.06,129.03 122.32,133.84 		"/>
		<rect x="104.26" y="121.72" class="st11" width="20.81" height="7.32"/>
		<polygon class="st11" points="104.26,121.72 107.92,116.92 121.18,116.92 125.06,121.72 		"/>
		<rect x="107.92" y="113.49" class="st12" width="13.26" height="3.43"/>
		<polygon class="st12" points="107.92,113.49 107.92,109.37 110.68,109.37 110.68,111.43 113.07,111.43 113.07,109.37 
			115.84,109.37 115.84,111.43 118.21,111.43 118.21,109.37 121.18,109.37 121.18,113.49 		"/>
		<polygon class="st4" points="106.92,109.37 110.54,106.75 113.4,86.28 116.15,86.28 118.61,106.75 122.18,109.37 		"/>
		<rect x="110.68" y="109.37" class="st8" width="2.39" height="2.06"/>
		<rect x="115.84" y="109.37" class="st8" width="2.37" height="2.06"/>
		<rect x="108.33" y="121.62" class="st8" width="3.87" height="3.33"/>
		<rect x="116.66" y="121.62" class="st8" width="3.83" height="3.33"/>
		<path class="st11" d="M110.66,171.1c0,0-2.74,0-2.97-0.23c-0.23-0.23,0-32.47,0-32.47h2.97V171.1z"/>
		<path class="st13" d="M119.58,171.1c0,0-1.83,0.23-4.34,0.23c-2.52,0-4.57-0.23-4.57-0.23v-32.7h8.92V171.1z"/>
		<path class="st13" d="M122.32,170.88c-0.23,0.23-2.74,0.23-2.74,0.23v-32.7h2.74C122.32,138.41,122.55,170.65,122.32,170.88z"/>
		<rect x="109.97" y="149.15" class="st10" width="3.66" height="2.29"/>
		<rect x="118.43" y="144.35" class="st10" width="3.66" height="2.29"/>
		<rect x="116.15" y="160.82" class="st10" width="3.66" height="2.29"/>
		<rect x="109.06" y="166.3" class="st10" width="3.66" height="2.29"/>
		<rect x="113.4" y="73.48" class="st2" width="2.74" height="12.8"/>
	</g>
	<ellipse class="st8" cx="60.06" cy="62.59" rx="2" ry="9"/>
	<line class="st19" x1="60.06" y1="53.59" x2="60.06" y2="71.59"/>
	<line class="st19" x1="58.06" y1="62.59" x2="62.06" y2="62.59"/>
	<ellipse class="st19" cx="60.06" cy="62.59" rx="2" ry="9"/>
	<path class="st15" d="M15.17,170.41c0,0-0.03-12.91-0.03-13.27c0-0.36,0.72-5.54,2.33-5.54c1.88,0,2.51,5.37,2.51,5.72
		c0,0.54,0.09,13.06,0.09,13.06"/>
	<path class="st15" d="M97.17,170.41c0,0-0.03-12.91-0.03-13.27c0-0.36,0.72-5.54,2.33-5.54c1.88,0,2.51,5.37,2.51,5.72
		c0,0.54,0.09,13.06,0.09,13.06"/>
	<rect x="39.06" y="142.93" class="st1" width="1.67" height="3.33"/>
	<rect x="43.23" y="142.93" class="st1" width="1.67" height="3.33"/>
	<rect x="47.4" y="142.93" class="st1" width="1.67" height="3.33"/>
	<rect x="68.06" y="142.93" class="st1" width="1.67" height="3.33"/>
	<rect x="72.23" y="142.93" class="st1" width="1.67" height="3.33"/>
	<rect x="76.4" y="142.93" class="st1" width="1.67" height="3.33"/>
	<rect x="53.06" y="143.59" class="st10" width="11" height="1"/>
	<line class="st15" x1="15.18" y1="156.76" x2="19.92" y2="156.76"/>
	<line class="st15" x1="30.2" y1="155.67" x2="35.87" y2="155.67"/>
	<line class="st15" x1="81.24" y1="155.43" x2="86.83" y2="155.43"/>
	<line class="st15" x1="97.24" y1="156.35" x2="101.86" y2="156.35"/>
	<circle class="st8" cx="100.56" cy="76.09" r="1.5"/>
	<rect x="68.08" y="58.39" class="st1" width="11.89" height="2.21"/>
</g>
</svg>
