<svg xmlns="http://www.w3.org/2000/svg" version="1.1" xmlns:xlink="http://www.w3.org/1999/xlink" xmlns:svgjs="http://svgjs.com/svgjs" width="70" height="70"><svg version="1.1" xmlns="http://www.w3.org/2000/svg" xmlns:xlink="http://www.w3.org/1999/xlink" x="0px" y="0px" viewBox="0 0 70 70" style="enable-background:new 0 0 70 70;" xml:space="preserve">
<style type="text/css">
	.st0{display:none;}
	.st1{display:inline;fill:#FFFFFF;}
	.st2{font-family:'Karimun';}
	.st3{font-size:83px;}
	.st4{display:inline;}
	.st5{fill:#FFFFFF;}
	.st6{font-family:'Waltograph';}
	.st7{font-size:222.0164px;}
	
		.st8{clip-path:url(#SVGID_00000078762964472254979330000011752505319511447481_);fill:none;stroke:#FFFFFF;stroke-width:10;stroke-miterlimit:10;}
</style>
<g id="SvgjsG1004" class="st0">
	<text transform="matrix(1 0 0 1 -434.4734 45.1773)" class="st1 st2 st3" svgjs:data="{&quot;leading&quot;:&quot;1.3&quot;}">A Disney Parks Weather App</text>
	<g class="st4">
		<text transform="matrix(1 0 0 1 -445.7007 -34.3491)" class="st5 st6 st7" svgjs:data="{&quot;leading&quot;:&quot;1.3&quot;}">Magic</text>
		<text transform="matrix(1 0 0 1 17.2993 10.6509)" class="st5 st6 st7" svgjs:data="{&quot;leading&quot;:&quot;1.3&quot;}">+</text>
		<g>
			<defs>
				<path id="SvgjsPath1003" d="M23.11-183.6c0,0-29,1-47,17s-24,23-24,23l-16-22l2-195h144l218,104l31,50l3,52l-36,132l-102.5,6.5
					c0,0,2.86-14.48,4.5-41.5c2-33-7-40-7-40l-39-60l-89-31L23.11-183.6z"></path>
			</defs>
			<clipPath id="SvgjsClipPath1002">
				<use xlink:href="#SVGID_1_" style="overflow:visible;"></use>
			</clipPath>
			
				<path style="clip-path:url(#SVGID_00000119807828578938407590000012714950652755183022_);fill:none;stroke:#FFFFFF;stroke-width:10;stroke-miterlimit:10;" d="
				M274.89-245.22c-41.53-17.36-89.27,2.23-106.63,43.76c-4.64,11.09-6.61,22.62-6.26,33.91c-11.73-11.13-25.64-20.36-41.44-26.97
				c-11.6-4.85-23.48-7.97-35.38-9.51c6.87-7.1,12.57-15.56,16.61-25.22c17.36-41.53-2.23-89.27-43.76-106.63
				s-89.27,2.23-106.63,43.76c-17.36,41.53,2.23,89.27,43.76,106.63c0.38,0.16,0.76,0.29,1.15,0.45
				c-16.11,9.82-30.29,23.03-41.37,39.11c25.43-19.84,57.42-31.67,92.18-31.67c82.84,0,150,67.16,150,150
				c0,1.59-0.03,3.17-0.08,4.75c9.06-25.81,9.91-52.71,3.79-77.71c3.53,2.16,7.26,4.08,11.2,5.72
				c41.53,17.36,89.27-2.23,106.63-43.76C336.01-180.12,316.41-227.86,274.89-245.22z"></path>
		</g>
	</g>
</g>
<g id="SvgjsG1001" class="st0">
</g>
<g id="SvgjsG1000">
	<g>
		<g>
			<path d="M0,18.51h8.02l9.53,20.43l9.58-20.43h7.97v32.98h-7.78V34.93l-7.88,16.56h-3.77L7.83,34.93v16.56H0V18.51z"></path>
		</g>
		<g>
			<path d="M66.66,29.32c0.28-0.08,0.6-0.13,0.96-0.13c0.84,0,1.45,0.21,1.84,0.63l0.12,0.12l0.08,0.17
				c0.22,0.56,0.33,1.41,0.33,2.55c0,1.42-0.11,2.55-0.31,3.38c-0.21,0.84-0.61,1.42-1.19,1.75l-0.29,0.21l-0.38-0.08
				c-1.2-0.25-2.63-0.38-4.3-0.38c-1.31,0-3.24,0.13-5.8,0.38v0.33c0,3.12,0.45,6.07,1.34,8.85l0.04,0.08l0.21,0.96v0.08
				c0,0.75-0.28,1.32-0.84,1.69c-0.56,0.38-1.24,0.56-2.05,0.56c-1.28,0-2.51-0.24-3.67-0.71c-0.92-0.31-1.5-0.9-1.75-1.79v-0.04
				V47.9c-0.58-2.73-0.89-5.85-0.92-9.35h-0.17c-3.26,0-6.19-0.54-8.81-1.63c-1-0.39-1.75-0.97-2.26-1.75
				c-0.5-0.78-0.75-1.73-0.75-2.84c0-2.28,0.84-3.69,2.51-4.22l1.17-0.33v1.13c0.14,0.08,0.36,0.18,0.67,0.29h0.04
				c2.25,0.95,4.84,1.46,7.77,1.54c0.08-1.98,0.12-3.55,0.12-4.72c0-0.95-0.04-2.56-0.12-4.84l-0.04-0.17l0.08-0.17
				c0.08-0.28,0.24-0.51,0.46-0.69c0.22-0.18,0.44-0.31,0.65-0.4c0.21-0.08,0.54-0.15,0.98-0.19c0.45-0.04,0.78-0.06,1-0.06
				c0.22,0,0.61,0,1.17,0h1.17c0.36,0,0.64,0.01,0.84,0.02c0.2,0.02,0.47,0.06,0.81,0.13c0.35,0.07,0.61,0.22,0.77,0.44
				c0.17,0.22,0.25,0.52,0.25,0.88v0.04c0.06,0.72,0.08,1.77,0.08,3.13c0,1.5-0.08,3.49-0.25,5.97
				C61.84,29.61,64.66,29.35,66.66,29.32z"></path>
		</g>
	</g>
</g>
</svg><style>@media (prefers-color-scheme: light) { :root { filter: none; } }
@media (prefers-color-scheme: dark) { :root { filter: contrast(0.8333333333333334) brightness(1.7); } }
</style></svg>