<?xml version="1.0" encoding="utf-8"?>
<!-- Generator: Adobe Illustrator 26.4.1, SVG Export Plug-In . SVG Version: 6.00 Build 0)  -->
<svg version="1.1" xmlns="http://www.w3.org/2000/svg" xmlns:xlink="http://www.w3.org/1999/xlink" x="0px" y="0px"
	 viewBox="0 0 215.91 57.48" style="enable-background:new 0 0 215.91 57.48;" xml:space="preserve">
<style type="text/css">
	.st0{display:none;}
	.st1{display:inline;}
	
		.st2{clip-path:url(#SVGID_00000044160183682643490110000001659223372877027725_);fill:none;stroke:#FFFFFF;stroke-width:10;stroke-miterlimit:10;}
</style>
<g id="Layer_1" class="st0">
</g>
<g id="Layer_2" class="st0">
</g>
<g id="Layer_3">
	<g>
		<path d="M0,1.74h10.2l12.12,25.98L34.5,1.74h10.14v41.94h-9.9V22.62L24.72,43.68h-4.8L9.96,22.62v21.06H0V1.74z"/>
		<path d="M52.17,41.97c-2.22-1.74-3.33-4.17-3.33-7.29c0-3.24,1.07-5.73,3.21-7.47c2.14-1.74,5.21-2.61,9.21-2.61
			c1.56,0,3.12,0.17,4.68,0.51c1.56,0.34,2.9,0.79,4.02,1.35v-0.6c0-3.08-2.52-4.62-7.56-4.62c-3.52,0-6.74,0.68-9.66,2.04v-7.26
			c1.28-0.6,2.96-1.09,5.04-1.47c2.08-0.38,4.24-0.57,6.48-0.57c5.36,0,9.41,1.07,12.15,3.21c2.74,2.14,4.11,5.13,4.11,8.97v17.52
			h-9.9v-2.46c-1.08,1.04-2.44,1.86-4.08,2.46c-1.64,0.6-3.52,0.9-5.64,0.9C57.3,44.58,54.39,43.71,52.17,41.97z M67.5,37.35
			c1.08-0.5,1.9-1.15,2.46-1.95v-2.52c-1.72-1.16-3.68-1.74-5.88-1.74c-1.4,0-2.48,0.3-3.24,0.9c-0.76,0.6-1.14,1.48-1.14,2.64
			c0,1.08,0.37,1.92,1.11,2.52c0.74,0.6,1.81,0.9,3.21,0.9C65.26,38.1,66.42,37.85,67.5,37.35z"/>
		<path d="M95.49,56.94c-1.94-0.36-3.61-0.84-5.01-1.44v-7.32c3.16,1.36,6.76,2.04,10.8,2.04c2.92,0,5.03-0.6,6.33-1.8
			c1.3-1.2,1.95-2.96,1.95-5.28V41.4c-1.16,1-2.59,1.78-4.29,2.34c-1.7,0.56-3.51,0.84-5.43,0.84c-3.04,0-5.72-0.64-8.04-1.92
			c-2.32-1.28-4.13-3.08-5.43-5.4c-1.3-2.32-1.95-4.98-1.95-7.98c0-3.04,0.64-5.72,1.92-8.04c1.28-2.32,3.08-4.11,5.4-5.37
			c2.32-1.26,4.98-1.89,7.98-1.89c4.12,0,7.52,1.26,10.2,3.78v-2.88h10.2V41.7c0,5-1.53,8.88-4.59,11.64
			c-3.06,2.76-7.81,4.14-14.25,4.14C99.36,57.48,97.43,57.3,95.49,56.94z M106.86,35.16c1.28-0.84,2.18-1.96,2.7-3.36v-5.04
			c-0.56-1.4-1.48-2.51-2.76-3.33c-1.28-0.82-2.72-1.23-4.32-1.23c-2.16,0-3.9,0.63-5.22,1.89s-1.98,2.97-1.98,5.13
			c0,2.2,0.66,3.95,1.98,5.25s3.06,1.95,5.22,1.95C104.12,36.42,105.58,36,106.86,35.16z"/>
		<path d="M127.14,9.48c-1.08-1.04-1.62-2.36-1.62-3.96c0-1.56,0.54-2.87,1.62-3.93c1.08-1.06,2.42-1.59,4.02-1.59
			c1.56,0,2.89,0.53,3.99,1.59c1.1,1.06,1.65,2.37,1.65,3.93c0,1.56-0.55,2.87-1.65,3.93c-1.1,1.06-2.43,1.59-3.99,1.59
			C129.56,11.04,128.22,10.52,127.14,9.48z M125.88,14.88h10.56v28.8h-10.56V14.88z"/>
		<path d="M145.62,40.62c-3.08-2.64-4.62-6.4-4.62-11.28c0-4.88,1.55-8.66,4.65-11.34c3.1-2.68,7.29-4.02,12.57-4.02
			c2.36,0,4.57,0.23,6.63,0.69s3.77,1.11,5.13,1.95v8.22c-2.44-1.76-5.66-2.64-9.66-2.64c-2.56,0-4.61,0.59-6.15,1.77
			c-1.54,1.18-2.31,2.97-2.31,5.37c0,2.44,0.76,4.23,2.28,5.37c1.52,1.14,3.56,1.71,6.12,1.71c3.88,0,7.24-0.92,10.08-2.76v8.16
			c-3.04,1.84-7.1,2.76-12.18,2.76C152.88,44.58,148.7,43.26,145.62,40.62z"/>
	</g>
	<g>
		<path d="M212.44,22.2c0.29-0.09,0.62-0.13,1-0.13c0.87,0,1.51,0.22,1.91,0.65l0.13,0.13l0.09,0.17c0.23,0.58,0.35,1.46,0.35,2.65
			c0,1.48-0.11,2.65-0.33,3.52c-0.22,0.87-0.63,1.48-1.24,1.83l-0.3,0.22l-0.39-0.09c-1.25-0.26-2.74-0.39-4.48-0.39
			c-1.36,0-3.38,0.13-6.04,0.39v0.35c0,3.25,0.46,6.32,1.39,9.21l0.04,0.09l0.22,1v0.09c0,0.78-0.29,1.37-0.87,1.76
			c-0.58,0.39-1.29,0.59-2.13,0.59c-1.33,0-2.61-0.25-3.82-0.74c-0.96-0.32-1.56-0.94-1.83-1.87v-0.04v-0.04
			c-0.61-2.84-0.93-6.08-0.96-9.73h-0.17c-3.39,0-6.45-0.56-9.17-1.7c-1.04-0.41-1.83-1.01-2.35-1.82c-0.52-0.81-0.78-1.8-0.78-2.96
			c0-2.38,0.87-3.84,2.61-4.39l1.22-0.35v1.17c0.14,0.09,0.38,0.19,0.7,0.3h0.04c2.35,0.99,5.04,1.52,8.08,1.61
			c0.09-2.06,0.13-3.69,0.13-4.91c0-0.98-0.04-2.67-0.13-5.04l-0.04-0.17l0.09-0.17c0.09-0.29,0.25-0.53,0.48-0.72
			c0.23-0.19,0.46-0.33,0.67-0.41c0.22-0.09,0.56-0.15,1.02-0.2c0.46-0.04,0.81-0.07,1.04-0.07c0.23,0,0.64,0,1.22,0h1.22
			c0.38,0,0.67,0.01,0.87,0.02c0.2,0.02,0.49,0.06,0.85,0.13s0.63,0.22,0.8,0.46c0.17,0.23,0.26,0.54,0.26,0.91v0.04
			c0.06,0.75,0.09,1.84,0.09,3.26c0,1.56-0.09,3.64-0.26,6.21C207.42,22.5,210.35,22.22,212.44,22.2z"/>
	</g>
</g>
</svg>
