<?xml version="1.0" encoding="utf-8"?>
<!-- Generator: Adobe Illustrator 26.5.0, SVG Export Plug-In . SVG Version: 6.00 Build 0)  -->
<svg version="1.1" xmlns="http://www.w3.org/2000/svg" xmlns:xlink="http://www.w3.org/1999/xlink" x="0px" y="0px"
	 viewBox="0 0 740.64 206.08" style="enable-background:new 0 0 740.64 206.08;" xml:space="preserve">
<style type="text/css">
	.st0{display:none;}
	.st1{display:inline;}
	.st2{fill:#FFFFFF;}
	.st3{font-family:'Waltograph';}
	.st4{font-size:222.0164px;}
	
		.st5{clip-path:url(#SVGID_00000078019718633025726370000011334487992257784476_);fill:none;stroke:#FFFFFF;stroke-width:10;stroke-miterlimit:10;}
	.st6{display:inline;fill:#FFFFFF;}
</style>
<g id="Layer_1" class="st0">
	<g class="st1">
		<text transform="matrix(1 0 0 1 -17.4562 216.3903)" class="st2 st3 st4">Magic</text>
		<text transform="matrix(1 0 0 1 445.5438 261.3903)" class="st2 st3 st4">+</text>
		<g>
			<defs>
				<path id="SVGID_1_" d="M451.36,67.14c0,0-29,1-47,17s-24,23-24,23l-16-22l2-195h144l218,104l31,50l3,52l-36,132l-102.5,6.5
					c0,0,2.86-14.48,4.5-41.5c2-33-7-40-7-40l-39-60l-89-31L451.36,67.14z"/>
			</defs>
			<clipPath id="SVGID_00000101817633634018269940000002054663447706059182_">
				<use xlink:href="#SVGID_1_"  style="overflow:visible;"/>
			</clipPath>
			
				<path style="clip-path:url(#SVGID_00000101817633634018269940000002054663447706059182_);fill:none;stroke:#FFFFFF;stroke-width:10;stroke-miterlimit:10;" d="
				M703.13,5.52c-41.53-17.36-89.27,2.23-106.63,43.76c-4.64,11.09-6.61,22.62-6.26,33.91c-11.73-11.13-25.64-20.36-41.44-26.97
				c-11.6-4.85-23.48-7.97-35.38-9.51c6.87-7.1,12.57-15.56,16.61-25.22c17.36-41.53-2.23-89.27-43.76-106.63
				s-89.27,2.23-106.63,43.76c-17.36,41.53,2.23,89.27,43.76,106.63c0.38,0.16,0.76,0.29,1.15,0.45
				c-16.11,9.82-30.29,23.03-41.37,39.11c25.43-19.84,57.42-31.67,92.18-31.67c82.84,0,150,67.16,150,150
				c0,1.59-0.03,3.17-0.08,4.75c9.06-25.81,9.91-52.71,3.79-77.71c3.53,2.16,7.26,4.08,11.2,5.72
				c41.53,17.36,89.27-2.23,106.63-43.76C764.25,70.62,744.66,22.88,703.13,5.52z"/>
		</g>
	</g>
</g>
<g id="Layer_2" class="st0">
</g>
<g id="Layer_3" class="st0">
	<polygon class="st6" points="200.32,134 224.32,134 224.32,71 241.32,71 241.32,50 183.32,50 183.32,71 200.32,71 	"/>
	<path class="st6" d="M286.32,75c-3-3-6-3-8-3s-28,0-30,0s-5,1-7,3s-4,5-4,7s0,39,0,41s2,6,4,8s5,3,7,3s28,0,30,0s5,0,8-3s4-6,4-8
		s0-38,0-40S289.32,78,286.32,75z M269.32,116h-11V90h11V116z"/>
	<polygon class="st6" points="296.82,54.5 296.32,134 317.32,134 317.32,109 333.32,134 358.32,134 338.32,101 355.32,72 330.32,72 
		316.82,95.5 316.82,54.5 	"/>
	<path class="st6" d="M413.32,72h-22v44h-10V72h-21c0,0-1,50,0,52s4,9,10,10s16,0,16,0l5-9v14h-22l-11,18c0,0,42,0,45,0s10-3,10-14
		S413.32,72,413.32,72z"/>
	<path class="st6" d="M468.32,75c-3-3-6-3-8-3s-28,0-30,0s-5,1-7,3s-4,5-4,7s0,39,0,41s2,6,4,8s5,3,7,3s28,0,30,0s5,0,8-3s4-6,4-8
		s0-38,0-40S471.32,78,468.32,75z M451.32,116h-11V90h11V116z"/>
	<path class="st6" d="M245.32,159c0-2,0-11-14-12s-47,0-47,0v84c0,0,48,1,51,0s9-2,10-12S245.32,161,245.32,159z M221.32,210h-13
		v-42h13V210z"/>
	<rect x="251.32" y="158" class="st6" width="22" height="8"/>
	<rect x="251.32" y="169" class="st6" width="22" height="63"/>
	<g class="st1">
		<rect x="337.32" y="169" class="st2" width="21" height="63"/>
		<path class="st2" d="M390.32,232h-21v-46h-15l10-17h5c0,0,7.92-0.98,14,2c3.95,1.94,7,7.82,7,9C390.32,183,390.32,232,390.32,232z
			"/>
	</g>
	<path class="st6" d="M332.82,185.5l-10.5-16.5c0,0-27,0-30,0s-13,5-13,10s0,16,0,18s3,10,9,10s23,0,23,0v6h-34l10,18c0,0,30,0,33,0
		s11-4,11-11s0.5-16.5,0.5-18.5s-3-11-14-11s-18,0-18,0v-5H332.82z"/>
	<path class="st6" d="M417.82,212.5v-5h32c0,0-0.5-16.5-0.5-25.5s-6-13-10-13s-25,0-32,0s-10,9-10,12s0,30,0,39s9,11,12,11
		s30,0,30,0l11.5-18.5H417.82z M417.82,186.5h11v7h-11V186.5z"/>
	<path class="st6" d="M508.32,169h-22v44h-10v-44h-21c0,0-1,50,0,52s4,9,10,10s16,0,16,0l5-9v14h-22l-11,18c0,0,42,0,45,0
		s10-3,10-14S508.32,169,508.32,169z"/>
	<rect x="515.32" y="151" class="st6" width="20" height="81"/>
	<g class="st1">
		<rect x="601.32" y="169" class="st2" width="21" height="63"/>
		<path class="st2" d="M654.32,232h-21v-46h-15l10-17h5c0,0,7.92-0.98,14,2c3.95,1.94,7,7.82,7,9C654.32,183,654.32,232,654.32,232z
			"/>
	</g>
	<path class="st6" d="M580.32,169c-4,0-29,0-29,0l-9.5,17.5h32v3c0,0-9-1-19,0s-13,9-13,12s-0.5,7.5,0.5,18.5s7.49,10.58,13,11
		c6.5,0.5,13,0,13,0l5-9v9h21c0,0,0-42,0-51S584.32,169,580.32,169z M573.82,212.5h-11v-7h11V212.5z"/>
	<path class="st6" d="M693.32,152v17c0,0-14,0-18,0s-15,1-15,11s0,35,0,38s2,13,12,13s15,0,15,0l6-10v10h21v-79H693.32z
		 M692.82,214.5h-11v-29h11V214.5z"/>
	<path class="st6" d="M-8.68,231h172c0,0-13-44-4-44v-12h-8v-6h4c0,0-13-26-12-40c0,0,7-1,11,0s6-4,6-4s-6,2-12-6h-6
		c0,0-0.5,14.5-0.5,16.5s-6,27-9,30v-25l2-2v-7h-2c0,0-8-25.95-8-36c0-4,9-2,10-2s5-1,6-3c0,0-4-1-9-5s-9-1-9-1v13c0,0-2,28-7,34h-1
		v8l2,1v9h-7l1-22l3-4v-17h5c0,0-8-15-8-23h-1c0,0-3,18-7,21v-21l3-5v-4h-3v-10h3c0,0-3.99-6.53-7-19c-4.13-17.08-7.58-42.6-7-53
		c0,0,9,0,13,2s6-1,6-1s-8-3-8-6c0,0,5-2,6-4s-4,1-7-1s-9-6-12-4v18c0,0-9,65-13,69h3v9h-4v3l3,6v34l-7-24h-21l-8,36l-6-24
		c0,0-9,33-12,35h2v6l4,4v8h-7c0,0-12-22-12-25s0-6,0-6s6-2,9-1s7-3,7-3s-6.9-0.9-12-6c-1-1-6-1-6,0s0,15,0,15s-9,26-12,27h6v16h-8
		l-1,11c0,0,6,1,4,10S-8.68,231-8.68,231z"/>
</g>
<g id="Layer_4" class="st0">
	<g class="st1">
		<path class="st2" d="M48.31,130.02c-3.45,0-7.54-0.47-7.54-2.51c0-14.44,25.43-15.07,36.27-15.07c14.13,0,32.18,4.4,47.57,9.89
			c23.39,8.48,70.81,36.74,70.81,69.08c0,28.57-30.77,42.23-59.35,42.23c-7.22,0-15.86-1.26-22.92-2.36
			c-0.47,1.73-0.79,2.98-1.88,6.59c-1.88,0.31-3.45,0.63-5.49,0.63l-3.61-0.31c-2.35-2.83-3.14-7.38-4.08-12.25
			c-14.29-8.32-23.55-15.39-27.79-20.25c-3.61-3.77-7.69-8.79-7.69-13.66c0-2.51,1.57-4.71,5.18-7.22
			c7.38-5.5,16.8-8.48,32.18-11.15l0.31-6.44c0.16-1.57,1.73-18.37,5.34-21.51c5.81,4.71,6.44,9.58,6.91,16.8
			c0.16,3.14,0.31,6.44,0.78,9.89h2.2c10.99,0,44.59,2.83,44.59,18.68c0,3.77-5.5,10.83-10.83,10.83c-1.88,0-5.34-0.79-6.91-2.04
			c2.35-2.67,5.81-5.02,6.75-7.06c-3.14-3.77-20.1-8.16-32.5-8.16c-2.04,0-2.83,0-4.08,0.16l0.16,34.38
			c5.02,3.14,11.15,3.45,15.07,3.45c17.27,0,53.07-2.98,53.07-30.93c0-27.63-35.32-48.98-61.7-59.03
			c-18.53-7.06-36.11-10.68-56.68-10.68c-4.24,0-8.63,0.31-12.87,1.41c-2.67,0.63-3.61,1.26-3.61,1.88c0,1.1,5.34,1.73,5.97,2.04
			c0.47,0.31,0.78,0.79,0.78,1.26c0,0.31-0.16,0.78-0.63,1.26C51.45,129.87,50.04,130.02,48.31,130.02z M99.33,185.13
			c-15.54,1.26-32.81,2.83-32.81,8.32c0,4.24,7.22,9.42,11.62,12.72c5.02,4.08,12.56,7.85,19.78,9.42L99.33,185.13z"/>
		<path class="st2" d="M233.57,129.4c2.67,0,8.79,2.67,8.79,8.48c0,12.09-20.72,25.9-31.09,25.9c-3.14,0-7.06-0.47-9.89-1.41
			c-1.73,2.04-2.35,3.77-4.71,4.08c-1.57-0.31-3.61-3.3-3.92-6.75c0-0.79,0.31-1.88,0.47-2.67c-2.35-3.14-4.08-5.97-4.08-9.42
			c0-10.36,15.54-24.18,30.46-24.18c6.91,0,12.4,2.67,13.35,6.12C233.1,129.55,233.26,129.4,233.57,129.4z M197.46,147.92
			c0.31,0,0.63-0.16,0.78-0.31c2.04-2.83,8.63-9.11,12.25-12.56v-0.16c0-0.16,0-0.47-0.31-0.79c-7.85,1.57-12.72,7.38-13.35,13.5
			C196.99,147.76,197.15,147.92,197.46,147.92z M212.37,182.15c0.31,12.72,1.57,26.06,1.57,38.62c0,2.51-0.94,5.5-4.87,5.5
			c-1.26,0-3.14-0.47-4.4-0.94c-2.04-0.63-2.98-6.75-3.14-8.32c0-8.01,0.16-8.16,0.47-16.49c0.16-2.2,0.63-10.83,2.67-26.69
			c0.16-0.79,0.31-1.1,0.94-1.1C211.28,172.88,212.06,176.18,212.37,182.15z M207.51,154.52h3.45c7.85,0,23.86-5.34,23.86-14.92
			c0-2.2,0-3.92-4.08-3.92c-9.11,0-18.05,8.79-24.49,17.58C206.25,153.57,207.04,154.52,207.51,154.52z"/>
		<path class="st2" d="M230.12,187.17c0,0.16,0.16,0.31,0.31,0.31c5.97,2.2,9.89,2.98,16.17,3.3c10.68,0.79,26.53,0.94,26.53,15.7
			c0,16.96-18.84,17.9-23.86,17.9c-13.34,0-25.12-8.48-25.12-14.92c0-7.69,8.01-9.73,14.29-9.73c5.97,0,13.82,1.57,20.25,4.87
			c0.16,0.16,0.31,0.31,0.31,0.63c0,0.47-0.16,0.79-0.31,0.94c-1.26,1.26-5.02,3.14-8.95,3.14c-4.55,0-10.83-3.77-16.96-3.77
			c-2.2,0-4.87,0.47-4.87,3.92c0,3.92,7.06,3.92,12.72,3.92c2.98,0,24.65-2.51,24.65-8.32c0-5.49-16.48-7.85-23.24-8.01
			c-18.05-0.47-20.41-2.35-20.41-8.95c0-14.76,29.83-15.86,31.24-15.86c7.85,0,14.91,1.41,20.1,2.67c1.1,0.16,1.73,0.63,1.73,2.36
			c-0.16,1.88-1.73,2.98-3.45,3.61c-1.26,0.31-3.93,0.79-5.18,0.94c-5.49,0.79-21.67,1.41-26.69,2.36
			c-5.18,0.78-7.38,1.41-8.95,2.35C230.27,186.7,230.12,187.01,230.12,187.17z"/>
		<path class="st2" d="M306.57,167.55c0-1.26,0.16-3.3,1.57-3.3c4.4,0,16.96,15.54,16.96,37.37c0,9.58-4.4,21.04-12.09,21.04
			c-9.11,0-18.68-29.2-20.88-29.2c-0.31,0-0.79,0.47-1.1,1.73c-0.47,1.88-0.79,18.37-1.57,23.24c-0.47,2.2-1.26,7.38-4.71,7.38
			c-5.02,0-6.12-8.63-6.12-12.4c0-8.16,4.08-37.05,10.83-37.05c4.71,0,14.13,19.62,22.45,29.99c0.63,0.63,0.94,1.26,1.1,1.26
			c0.94,0,0.94-1.41,0.94-4.08c0-14.44-2.98-18.68-6.91-33.44l-0.47-1.88V167.55z"/>
		<path class="st2" d="M366.54,218.41c-4.24,3.3-13.82,10.68-24.18,10.68c-8.63,0-12.56-6.44-12.56-13.19
			c0-3.61,2.2-8.48,3.92-13.34c-0.47-1.57-1.26-2.51-1.26-4.08c0-1.26,0.47-1.88,0.79-3.14c1.26-0.47,2.67-1.1,4.08-1.26l3.77-8.63
			c-3.61-1.73-8.95-3.77-8.95-7.07c0-1.73,1.41-2.2,4.08-2.35c6.59-0.31,14.29-3.14,27.16-3.14c1.41,0,3.14,0.16,6.44,1.1
			c1.41,1.73,5.02,5.02,5.02,7.69c0,1.57-5.49,3.3-8.48,3.45c-6.75,0.47-8.32,0.31-12.56,0.47c-0.79,0-1.57,0-2.35,0.16
			c-0.63,0.63-1.88,2.67-1.88,6.59c0,0.63,0.31,1.57,1.41,1.57h11.62l2.2,0.31c0.79,1.1,0.94,3.14,0.94,4.55
			c0,1.26-0.31,3.61-1.73,3.77c-2.83,0.16-9.89,0.47-17.74,0.47c-0.31,0-0.63,0-0.94,0.63c-0.78,3.3-2.2,7.06-3.77,10.52
			c0.78,0,6.75-1.57,16.8-2.51c1.57-0.16,3.61-0.31,5.18-0.31c1.88,0,3.92,2.67,3.92,4.71C367.49,217,367.33,217.94,366.54,218.41z"
			/>
		<path class="st2" d="M378.81,255.95c-6.28-0.63-10.52-5.81-10.52-12.56c0-2.98-0.49-3.94,8.3-24.98
			c-1.73-3.77-2.83-7.69-2.83-11.46c0-16.17,15.7-35.33,18.84-35.64c2.2,0.31,2.51,1.57,2.51,4.4c0,3.14-1.88,5.18-6.75,12.56
			c-2.51,3.93-6.12,10.36-6.12,16.01c0,0.63,0,1.57,0.47,1.88h0.31c0.16,0,0.31-0.16,0.63-0.63c7.54-10.05,23.08-28.89,31.09-28.89
			c8.16,0,10.21,13.19,10.21,19.47c0,18.53-23.24,31.71-33.75,31.71c-1.1,0-2.2,0.16-3.45,0.31c-6.12,17.9-4.22,9.59-8.46,26.55
			L378.81,255.95z M410.98,207.11c4.4-3.77,6.75-8.95,6.75-15.39c0-1.73,0-4.4-2.04-4.4c-2.67,0-8.63,7.06-10.99,10.05
			c-1.73,2.35-8.01,14.29-9.11,16.96C400.93,213.7,406.11,211.35,410.98,207.11z"/>
	</g>
	<g class="st1">
		<path class="st2" d="M493.12,225.6h-9.88l-8.86-14.84c-1.73-2.91-3.31-4.89-4.73-5.94s-3.04-1.58-4.87-1.58h-4.57v22.36h-8.44
			v-54.46h17.33c5.65,0,10.01,1.27,13.1,3.81s4.62,6.15,4.62,10.81c0,3.66-1.07,6.79-3.2,9.39s-5.11,4.42-8.93,5.45v0.14
			c2.44,0.84,5.17,3.7,8.19,8.58L493.12,225.6z M460.21,178.1v18.14h7.49c3.12,0,5.61-0.9,7.47-2.71s2.79-4.1,2.79-6.89
			c0-5.7-3.38-8.54-10.12-8.54H460.21z"/>
		<path class="st2" d="M527.77,225.6H497.6v-54.46h28.93v7.24h-20.5v16.03h19.02v7.21h-19.02v16.73h21.73V225.6z"/>
		<path class="st2" d="M532.99,214.31c4.17,3.4,9.08,5.1,14.73,5.1c7.22,0,10.83-2.47,10.83-7.42c0-1.43-0.4-2.72-1.2-3.87
			s-1.87-2.15-3.22-3.01s-4.01-2.23-8-4.13c-4.9-2.34-8.32-4.72-10.27-7.14s-2.92-5.25-2.92-8.51c0-4.69,1.85-8.38,5.55-11.07
			s8.44-4.04,14.2-4.04c5.46,0,9.59,0.67,12.38,2v8.65c-3.35-2.32-7.54-3.48-12.55-3.48c-3.21,0-5.8,0.64-7.77,1.93
			s-2.95,3.06-2.95,5.31c0,2.04,0.72,3.71,2.16,5.03s4.48,3.07,9.12,5.27c5.41,2.53,9.15,5.07,11.21,7.61s3.09,5.47,3.09,8.77
			c0,4.92-1.78,8.68-5.34,11.29s-8.5,3.9-14.8,3.9c-2.32,0-4.9-0.28-7.73-0.84s-5.02-1.31-6.54-2.25V214.31z"/>
		<path class="st2" d="M571.93,199.05c0-8.6,2.41-15.56,7.22-20.87s11.31-7.96,19.49-7.96c7.66,0,13.82,2.58,18.46,7.73
			s6.96,11.77,6.96,19.83c0,8.55-2.37,15.48-7.1,20.78s-11.13,7.95-19.2,7.95c-7.69,0-13.92-2.55-18.69-7.66
			S571.93,207.14,571.93,199.05z M580.79,198.46c0,6,1.54,10.94,4.61,14.82s7.22,5.82,12.45,5.82c5.48,0,9.75-1.85,12.8-5.54
			s4.57-8.68,4.57-14.96c0-6.42-1.47-11.51-4.41-15.26s-7.13-5.62-12.57-5.62c-5.3,0-9.53,1.95-12.69,5.84
			S580.79,192.41,580.79,198.46z"/>
		<path class="st2" d="M673.38,225.6h-9.88l-8.86-14.84c-1.73-2.91-3.31-4.89-4.73-5.94s-3.04-1.58-4.87-1.58h-4.57v22.36h-8.44
			v-54.46h17.33c5.65,0,10.01,1.27,13.1,3.81s4.62,6.15,4.62,10.81c0,3.66-1.07,6.79-3.2,9.39s-5.11,4.42-8.93,5.45v0.14
			c2.44,0.84,5.17,3.7,8.19,8.58L673.38,225.6z M640.47,178.1v18.14h7.49c3.12,0,5.61-0.9,7.47-2.71s2.79-4.1,2.79-6.89
			c0-5.7-3.38-8.54-10.12-8.54H640.47z"/>
		<path class="st2" d="M710.17,178.38h-15.64v47.21h-8.47v-47.21h-15.61v-7.24h39.73V178.38z"/>
	</g>
	<g class="st1">
		<path class="st2" d="M265.46,155.71v-8.24c0.74,0.67,1.62,1.28,2.64,1.82c1.02,0.54,2.1,0.99,3.25,1.36s2.29,0.66,3.43,0.86
			c1.14,0.2,2.2,0.3,3.16,0.3c3.36,0,5.87-0.56,7.52-1.68s2.47-2.75,2.47-4.88c0-1.14-0.27-2.14-0.82-2.98
			c-0.55-0.84-1.32-1.61-2.31-2.3c-0.99-0.7-2.15-1.36-3.48-2c-1.33-0.64-2.76-1.31-4.29-2c-1.64-0.87-3.16-1.76-4.58-2.66
			s-2.64-1.89-3.68-2.98c-1.04-1.09-1.86-2.32-2.46-3.68c-0.59-1.37-0.89-2.97-0.89-4.81c0-2.27,0.51-4.23,1.53-5.91
			c1.02-1.67,2.37-3.05,4.04-4.14c1.67-1.09,3.57-1.9,5.7-2.42c2.13-0.53,4.31-0.79,6.53-0.79c5.05,0,8.73,0.57,11.04,1.72v7.91
			c-2.74-1.97-6.26-2.96-10.57-2.96c-1.19,0-2.37,0.11-3.55,0.34c-1.18,0.22-2.23,0.59-3.16,1.11c-0.93,0.52-1.69,1.18-2.27,1.99
			c-0.58,0.81-0.88,1.78-0.88,2.93c0,1.08,0.22,2.01,0.67,2.79s1.1,1.5,1.97,2.15c0.86,0.65,1.92,1.28,3.16,1.9
			c1.24,0.62,2.69,1.28,4.32,2c1.68,0.88,3.27,1.79,4.76,2.76c1.49,0.96,2.8,2.03,3.94,3.2c1.13,1.17,2.03,2.46,2.69,3.89
			s0.99,3.04,0.99,4.86c0,2.45-0.49,4.51-1.48,6.19c-0.99,1.68-2.32,3.05-3.99,4.1c-1.67,1.05-3.59,1.82-5.77,2.29
			c-2.18,0.47-4.47,0.71-6.9,0.71c-0.81,0-1.8-0.06-2.98-0.19s-2.38-0.3-3.62-0.54c-1.23-0.24-2.4-0.52-3.5-0.86
			C267.01,156.52,266.13,156.14,265.46,155.71z"/>
		<path class="st2" d="M333.25,157.63h-6.49v-16.89h-18.33v16.89h-6.46V118.7h6.46v16.37h18.33V118.7h6.49V157.63z"/>
		<path class="st2" d="M373.18,157.63h-7.09l-3.5-9.91h-15.31l-3.37,9.91h-7.06l14.58-38.93h7.28L373.18,157.63z M360.88,142.45
			l-5.4-15.53c-0.16-0.51-0.34-1.32-0.52-2.44h-0.11c-0.16,1.03-0.34,1.85-0.54,2.44l-5.35,15.53H360.88z"/>
		<path class="st2" d="M409.88,157.63h-7.06l-18.6-28.62c-0.47-0.72-0.86-1.48-1.17-2.25h-0.16c0.14,0.83,0.22,2.62,0.22,5.35v25.52
			h-6.24V118.7h7.52l17.97,27.94c0.76,1.16,1.25,1.96,1.46,2.39h0.11c-0.18-1.03-0.27-2.78-0.27-5.24V118.7h6.22V157.63z"/>
		<path class="st2" d="M448.23,154.97c-4.05,2.21-8.57,3.31-13.55,3.31c-5.76,0-10.42-1.79-13.98-5.38
			c-3.57-3.58-5.35-8.33-5.35-14.23c0-6.03,1.95-10.97,5.85-14.84c3.9-3.87,8.86-5.8,14.87-5.8c4.33,0,7.96,0.63,10.91,1.9v6.65
			c-2.99-1.99-6.54-2.99-10.67-2.99c-4.15,0-7.54,1.37-10.2,4.1c-2.65,2.73-3.98,6.27-3.98,10.62c0,4.47,1.14,7.99,3.42,10.55
			s5.38,3.84,9.29,3.84c2.68,0,5-0.52,6.95-1.55v-9.26h-8.2v-5.43h14.63V154.97z"/>
		<path class="st2" d="M486.23,157.63h-6.49v-16.89h-18.33v16.89h-6.46V118.7h6.46v16.37h18.33V118.7h6.49V157.63z"/>
		<path class="st2" d="M526.16,157.63h-7.09l-3.5-9.91h-15.31l-3.37,9.91h-7.06l14.58-38.93h7.28L526.16,157.63z M513.86,142.45
			l-5.4-15.53c-0.16-0.51-0.33-1.32-0.52-2.44h-0.11c-0.16,1.03-0.34,1.85-0.54,2.44l-5.35,15.53H513.86z"/>
		<path class="st2" d="M536.46,157.63h-6.65V118.7h6.65V157.63z"/>
	</g>
	<path class="st6" d="M323.32,103h51c0,0-3-26,0-28s18.49-13.51,32,0c2,2,2,28,2,28h50l-5-41h5c0,0-10-20-10-24
		c0-1-8.5,18.5-8.5,18.5v-25l3-2c0,0-6.5-7.5-7-8c-0.71-0.71-2-8-2-8l3-3h-3v-6h-3v5h-3l3,4l-2,5v3l-3,5l-4,2l3,3v5h-5.5l-0.5-47h4
		c0,0-9-10-9-18c0,0-5,16-9,18h3v16l-6-6v-25l4-3v-3h-1l-1-2h-3c0,0,0-15,0-17s-1-2-1-4s0-7,0-7h-2l-2-18l-3,18h-2v9l-1.5-4.5
		l-2.5,7.5v14l3.5,2.5h-4l-0.5,1.5h-1v3c0,0,4,2,4,6s0,22,0,22h-6c0,0,4.5-4.5,0-8l3.5-2.5l-4.5-2.5v-5l3-2l-4-3
		c0,0,2.5-2.5-0.5-3.5l-1.5-5.5v-7c0,0,2.5-2.5,0-4l-1.5-4.5l-1.5,4.5c0,0-2.5,1.5,0,4c0.5,0.5,0,7,0,7l-1,5c0,0-3,2-1,4
		c1,1-3,3-3,3l3,2v5l-4,3l3,2c0,0-4,5,1,8h-8c0,0,0,12-9,16v4h4v12l-8,1v-8h5c0,0-11-16-11-24c0,0-4,20-10,24h5l-1,29l-6-16
		c0,0-9,23-12,25h6L323.32,103z"/>
	<path class="st6" d="M432.32,0v-6c0,0,3,1,7,1s13,0.84,13,4c0,1-4.5-1.5-10.5,0.5S432.32,0,432.32,0z"/>
	<path class="st6" d="M500.32,103h17c0,0,20.5-119.5-92.5-151.5c-14.01-3.97-98.27-24.72-154.5,76.5
		c-1.36,2.44,63.5-106.5,155.5-64.5C525.9,9.19,500.32,103,500.32,103z"/>
	<polygon class="st6" points="266.32,62 264.32,105 260.32,62 244.32,72 255.32,58 227.32,55 254.32,51 244.32,36 259.32,45 
		261.32,4 266.32,45 281.32,36 270.32,51 296.32,55 272.32,59 281.32,72 	"/>
</g>
<g id="Layer_5" class="st0">
	<g class="st1">
		<path class="st2" d="M10.29,32.03c-4.48,0-9.77-0.61-9.77-3.26c0-18.72,32.97-19.54,47.01-19.54c18.32,0,41.72,5.7,61.66,12.82
			c30.32,10.99,91.78,47.62,91.78,89.54c0,37.04-39.89,54.74-76.93,54.74c-9.36,0-20.56-1.63-29.71-3.05
			c-0.61,2.24-1.02,3.87-2.44,8.55c-2.44,0.41-4.48,0.81-7.12,0.81l-4.68-0.41c-3.05-3.66-4.07-9.56-5.29-15.87
			c-18.52-10.79-30.53-19.94-36.02-26.25c-4.68-4.88-9.97-11.4-9.97-17.71c0-3.26,2.04-6.11,6.72-9.36
			c9.57-7.12,21.78-10.99,41.72-14.45l0.41-8.34c0.2-2.04,2.24-23.81,6.92-27.88c7.53,6.11,8.34,12.41,8.95,21.78
			c0.2,4.07,0.41,8.34,1.02,12.82h2.85c14.25,0,57.8,3.66,57.8,24.22c0,4.88-7.12,14.04-14.04,14.04c-2.44,0-6.92-1.02-8.95-2.65
			c3.05-3.46,7.53-6.51,8.75-9.16c-4.07-4.88-26.05-10.58-42.13-10.58c-2.65,0-3.66,0-5.29,0.2l0.2,44.57
			c6.51,4.07,14.45,4.48,19.54,4.48c22.39,0,68.79-3.87,68.79-40.09c0-35.82-45.79-63.49-79.98-76.52
			c-24.01-9.16-46.81-13.84-73.47-13.84c-5.49,0-11.19,0.41-16.69,1.83c-3.46,0.81-4.68,1.63-4.68,2.44c0,1.42,6.92,2.24,7.73,2.65
			c0.61,0.41,1.02,1.02,1.02,1.63c0,0.41-0.2,1.02-0.81,1.63C14.36,31.83,12.53,32.03,10.29,32.03z M76.43,103.47
			c-20.15,1.63-42.53,3.66-42.53,10.79c0,5.5,9.36,12.21,15.06,16.48c6.51,5.29,16.28,10.18,25.64,12.21L76.43,103.47z"/>
		<path class="st2" d="M250.43,31.22c3.46,0,11.4,3.46,11.4,10.99c0,15.67-26.86,33.58-40.29,33.58c-4.07,0-9.16-0.61-12.82-1.83
			c-2.24,2.65-3.05,4.88-6.1,5.29c-2.04-0.41-4.68-4.27-5.09-8.75c0-1.02,0.41-2.44,0.61-3.46c-3.05-4.07-5.29-7.73-5.29-12.21
			c0-13.43,20.15-31.34,39.48-31.34c8.95,0,16.08,3.46,17.3,7.94C249.82,31.42,250.02,31.22,250.43,31.22z M203.62,55.23
			c0.41,0,0.81-0.2,1.02-0.41c2.65-3.66,11.19-11.8,15.87-16.28v-0.2c0-0.2,0-0.61-0.41-1.02c-10.18,2.04-16.48,9.56-17.3,17.5
			C203.01,55.03,203.22,55.23,203.62,55.23z M222.96,99.6c0.41,16.48,2.04,33.78,2.04,50.06c0,3.26-1.22,7.12-6.31,7.12
			c-1.63,0-4.07-0.61-5.7-1.22c-2.65-0.81-3.87-8.75-4.07-10.79c0-10.38,0.2-10.58,0.61-21.37c0.2-2.85,0.81-14.04,3.46-34.6
			c0.2-1.02,0.41-1.42,1.22-1.42C221.53,87.59,222.55,91.87,222.96,99.6z M216.65,63.78h4.48c10.18,0,30.93-6.92,30.93-19.33
			c0-2.85,0-5.09-5.29-5.09c-11.8,0-23.4,11.4-31.75,22.79C215.02,62.56,216.04,63.78,216.65,63.78z"/>
		<path class="st2" d="M245.95,106.11c0,0.2,0.2,0.41,0.41,0.41c7.73,2.85,12.82,3.87,20.96,4.27c13.84,1.02,34.39,1.22,34.39,20.35
			c0,21.98-24.42,23.2-30.93,23.2c-17.3,0-32.56-10.99-32.56-19.33c0-9.97,10.38-12.62,18.52-12.62c7.73,0,17.91,2.03,26.25,6.31
			c0.2,0.2,0.41,0.41,0.41,0.81c0,0.61-0.2,1.02-0.41,1.22c-1.63,1.63-6.51,4.07-11.6,4.07c-5.9,0-14.04-4.88-21.98-4.88
			c-2.85,0-6.31,0.61-6.31,5.09c0,5.09,9.16,5.09,16.48,5.09c3.87,0,31.95-3.26,31.95-10.79c0-7.12-21.37-10.18-30.12-10.38
			c-23.4-0.61-26.46-3.05-26.46-11.6c0-19.13,38.67-20.56,40.5-20.56c10.18,0,19.33,1.83,26.05,3.46c1.42,0.2,2.24,0.81,2.24,3.05
			c-0.2,2.44-2.24,3.87-4.48,4.68c-1.63,0.41-5.09,1.02-6.72,1.22c-7.12,1.02-28.08,1.83-34.6,3.05c-6.72,1.02-9.56,1.83-11.6,3.05
			C246.15,105.5,245.95,105.91,245.95,106.11z"/>
		<path class="st2" d="M345.06,80.67c0-1.63,0.2-4.27,2.04-4.27c5.7,0,21.98,20.15,21.98,48.44c0,12.41-5.7,27.27-15.67,27.27
			c-11.8,0-24.22-37.85-27.07-37.85c-0.41,0-1.02,0.61-1.42,2.24c-0.61,2.44-1.02,23.81-2.04,30.12c-0.61,2.85-1.63,9.57-6.1,9.57
			c-6.51,0-7.94-11.19-7.94-16.08c0-10.58,5.29-48.03,14.04-48.03c6.11,0,18.32,25.44,29.1,38.87c0.81,0.81,1.22,1.63,1.42,1.63
			c1.22,0,1.22-1.83,1.22-5.29c0-18.72-3.87-24.22-8.95-43.35l-0.61-2.44V80.67z"/>
		<path class="st2" d="M422.79,146.61c-5.49,4.27-17.91,13.84-31.34,13.84c-11.19,0-16.28-8.34-16.28-17.1
			c0-4.68,2.85-10.99,5.09-17.3c-0.61-2.04-1.63-3.26-1.63-5.29c0-1.63,0.61-2.44,1.02-4.07c1.63-0.61,3.46-1.42,5.29-1.63
			l4.88-11.19c-4.68-2.24-11.6-4.88-11.6-9.16c0-2.24,1.83-2.85,5.29-3.05c8.55-0.41,18.52-4.07,35.21-4.07
			c1.83,0,4.07,0.2,8.34,1.42c1.83,2.24,6.51,6.51,6.51,9.97c0,2.04-7.12,4.27-10.99,4.48c-8.75,0.61-10.79,0.41-16.28,0.61
			c-1.02,0-2.04,0-3.05,0.2c-0.81,0.81-2.44,3.46-2.44,8.55c0,0.81,0.41,2.04,1.83,2.04h15.06l2.85,0.41
			c1.02,1.42,1.22,4.07,1.22,5.9c0,1.63-0.41,4.68-2.24,4.88c-3.66,0.2-12.82,0.61-23,0.61c-0.41,0-0.81,0-1.22,0.81
			c-1.02,4.27-2.85,9.16-4.88,13.64c1.02,0,8.75-2.04,21.78-3.26c2.04-0.2,4.68-0.41,6.72-0.41c2.44,0,5.09,3.46,5.09,6.11
			C424.01,144.78,423.81,146,422.79,146.61z"/>
		<path class="st2" d="M434.8,216.01c-8.14-0.81-13.64-7.53-13.64-16.28c0-3.87,3.26-25.85,14.65-53.12
			c-2.24-4.88-3.66-9.97-3.66-14.86c0-20.96,20.35-45.79,24.42-46.2c2.85,0.41,3.26,2.04,3.26,5.7c0,4.07-2.44,6.72-8.75,16.28
			c-3.26,5.09-7.94,13.43-7.94,20.76c0,0.81,0,2.04,0.61,2.44h0.41c0.2,0,0.41-0.2,0.81-0.81c9.77-13.02,29.92-37.45,40.29-37.45
			c10.58,0,13.23,17.1,13.23,25.24c0,24.01-30.12,41.11-43.75,41.11c-1.42,0-2.85,0.2-4.48,0.41c-7.94,23.2-9.36,33.17-14.86,55.15
			L434.8,216.01z M480.38,131.96c5.7-4.88,8.75-11.6,8.75-19.94c0-2.24,0-5.7-2.65-5.7c-3.46,0-11.19,9.16-14.25,13.02
			c-2.24,3.05-10.38,18.52-11.8,21.98C467.36,140.5,474.07,137.45,480.38,131.96z"/>
		<path class="st2" d="M526.17,88c-0.2,14.65-6.11,18.93-9.57,47.21v0.81c0,1.83,1.02,3.46,2.24,3.46c2.85,0,7.33-2.44,13.64-4.68
			c3.05-1.22,7.12-3.26,9.16-3.26s2.24,3.46,2.24,4.68c0,8.75-15.06,21.78-25.03,21.78c-13.64,0-15.47-13.23-15.47-23.61
			c0-15.26,8.55-38.06,13.02-46.4c1.22-2.24,2.65-3.26,6.31-4.48C525.76,83.52,526.17,84.95,526.17,88z"/>
		<path class="st2" d="M585.39,78.64h1.22c2.64,0,5.49,3.46,5.9,6.31c1.02,3.46,4.68,13.43,5.5,18.93
			c2.44,17.71,4.07,27.68,4.07,43.35c0,7.12,0,8.96-0.61,11.4c-0.61,0.41-1.42,0.61-2.24,0.61c-3.87,0-6.92-4.27-9.16-9.56
			l-0.81-11.8h-6.51c-7.12,0-9.56-0.2-11.19-0.2c-0.61,0-1.02,0-1.22,0.2c-3.05,1.02-4.48,8.95-7.33,16.48l-2.24,5.9
			c-1.02,1.02-2.85,1.63-4.88,1.63c-1.22,0-2.44-0.41-4.07-0.61c-2.85-3.05-3.87-5.7-3.87-9.97c0-4.88,2.04-10.99,5.7-17.5
			c0-3.26-1.83-6.72-6.1-7.33l0.41-3.87c0.81,0.2,1.83,0.2,2.85,0.2h6.72c3.26-6.92,10.38-21.37,15.26-28.69l9.77-12.01l0.61-2.44
			C583.76,78.64,584.37,78.64,585.39,78.64z M581.52,121.98c1.83,0,4.07,0,5.9-0.2c0-3.87-0.2-12.82-2.85-17.5
			c-2.85,0.81-7.33,12.62-8.75,17.5C577.65,121.98,579.69,121.98,581.52,121.98z"/>
		<path class="st2" d="M645.01,80.67c0-1.63,0.2-4.27,2.04-4.27c5.7,0,21.98,20.15,21.98,48.44c0,12.41-5.7,27.27-15.67,27.27
			c-11.8,0-24.22-37.85-27.07-37.85c-0.41,0-1.02,0.61-1.42,2.24c-0.61,2.44-1.02,23.81-2.04,30.12c-0.61,2.85-1.63,9.57-6.1,9.57
			c-6.51,0-7.94-11.19-7.94-16.08c0-10.58,5.29-48.03,14.04-48.03c6.11,0,18.32,25.44,29.1,38.87c0.81,0.81,1.22,1.63,1.42,1.63
			c1.22,0,1.22-1.83,1.22-5.29c0-18.72-3.87-24.22-8.95-43.35l-0.61-2.44V80.67z"/>
		<path class="st2" d="M673.5,93.7c0-4.68,3.46-7.33,10.38-8.75c2.44-0.2,4.48-0.2,6.72-0.2c19.74,0,35.41,7.73,47.42,23.2
			c5.09,7.94,6.31,11.6,6.31,19.13c0,17.1-20.55,30.12-39.07,30.12h-1.22c-0.81,1.83-2.65,3.46-5.49,5.09h-1.63
			c-5.09,0-7.33-2.65-7.33-8.14v-0.81c-9.16-5.9-13.64-11.6-13.64-17.3c0-2.85,0.81-5.5,2.44-8.14c2.24,3.05,5.49,5.29,9.77,7.33
			c-0.2-2.24-0.2-4.07-0.2-6.11c0-16.08,3.87-24.01,11.6-24.01h1.42c1.02,6.92,1.02,15.87,1.02,22.79v12.82
			c2.85,1.22,6.51,1.22,8.55,1.22c13.23,0,19.74-3.87,19.74-11.4c0-4.88-2.85-11.4-8.75-19.54c-9.77-11.8-22.59-17.71-38.26-17.71
			h-2.44l-4.48,6.31l-2.65-3.66C673.5,95.12,673.5,94.31,673.5,93.7z"/>
	</g>
	<g class="st1">
		<path class="st2" d="M495.59,206.02v9.54h-4.35v-26.31h7.98c3.02,0,5.36,0.7,7.03,2.11c1.66,1.41,2.49,3.39,2.49,5.94
			s-0.87,4.65-2.6,6.27c-1.74,1.63-4.08,2.44-7.04,2.44H495.59z M495.59,192.84v9.61h2.83c1.87,0,3.3-0.43,4.27-1.3
			c0.98-0.87,1.47-2.09,1.47-3.67c0-3.09-1.8-4.64-5.39-4.64H495.59z"/>
		<path class="st2" d="M563.55,215.56h-4.79l-2.37-6.7h-10.35l-2.27,6.7H539l9.85-26.31h4.92L563.55,215.56z M555.24,205.3
			l-3.65-10.49c-0.11-0.34-0.23-0.89-0.35-1.65h-0.07c-0.11,0.7-0.23,1.25-0.37,1.65l-3.61,10.49H555.24z"/>
		<path class="st2" d="M617.54,215.56h-5.1l-4.2-7.04c-0.38-0.65-0.75-1.2-1.11-1.66s-0.73-0.83-1.1-1.13
			c-0.37-0.29-0.78-0.51-1.22-0.64c-0.44-0.13-0.94-0.2-1.49-0.2h-1.76v10.68h-4.35v-26.31h8.66c1.24,0,2.37,0.15,3.41,0.44
			c1.04,0.29,1.94,0.74,2.72,1.33c0.77,0.59,1.37,1.33,1.81,2.22c0.43,0.89,0.65,1.92,0.65,3.11c0,0.93-0.14,1.78-0.41,2.56
			c-0.28,0.78-0.67,1.47-1.17,2.07c-0.51,0.61-1.12,1.12-1.83,1.55c-0.72,0.43-1.52,0.76-2.41,0.99v0.07
			c0.48,0.27,0.89,0.57,1.25,0.89c0.35,0.32,0.69,0.66,1.01,1c0.32,0.34,0.63,0.73,0.94,1.16c0.31,0.43,0.66,0.94,1.04,1.51
			L617.54,215.56z M601.56,192.79v8.55h3.63c0.67,0,1.29-0.1,1.86-0.31c0.57-0.21,1.06-0.51,1.48-0.9c0.42-0.39,0.74-0.87,0.97-1.43
			s0.35-1.19,0.35-1.89c0-1.26-0.4-2.24-1.19-2.95c-0.79-0.71-1.94-1.06-3.43-1.06H601.56z"/>
		<path class="st2" d="M655.14,215.56h-4.49v-26.31h4.49V215.56z"/>
		<path class="st2" d="M690.46,214.51v-4.49c0.4,0.37,0.88,0.7,1.44,0.99c0.56,0.29,1.15,0.54,1.77,0.74
			c0.62,0.2,1.25,0.36,1.87,0.47c0.62,0.11,1.2,0.17,1.72,0.17c1.83,0,3.2-0.31,4.1-0.92c0.9-0.61,1.35-1.5,1.35-2.66
			c0-0.62-0.15-1.16-0.45-1.62s-0.72-0.88-1.26-1.26c-0.54-0.38-1.17-0.74-1.9-1.09s-1.51-0.71-2.34-1.09
			c-0.89-0.48-1.72-0.96-2.49-1.45c-0.77-0.49-1.44-1.03-2.01-1.62c-0.57-0.59-1.02-1.26-1.34-2.01c-0.32-0.75-0.49-1.62-0.49-2.62
			c0-1.24,0.28-2.31,0.83-3.22c0.56-0.91,1.29-1.66,2.2-2.26c0.91-0.59,1.95-1.03,3.11-1.32c1.16-0.29,2.35-0.43,3.56-0.43
			c2.75,0,4.76,0.31,6.02,0.94v4.31c-1.49-1.08-3.41-1.61-5.76-1.61c-0.65,0-1.29,0.06-1.94,0.18c-0.64,0.12-1.22,0.32-1.72,0.61
			c-0.51,0.28-0.92,0.64-1.24,1.08c-0.32,0.44-0.48,0.97-0.48,1.6c0,0.59,0.12,1.09,0.37,1.52c0.24,0.43,0.6,0.82,1.07,1.17
			s1.05,0.7,1.72,1.04c0.68,0.34,1.46,0.7,2.36,1.09c0.92,0.48,1.78,0.98,2.6,1.5c0.81,0.53,1.53,1.11,2.15,1.74
			c0.62,0.64,1.11,1.34,1.47,2.12c0.36,0.78,0.54,1.66,0.54,2.65c0,1.33-0.27,2.46-0.81,3.38s-1.26,1.66-2.17,2.24
			c-0.91,0.57-1.96,0.99-3.15,1.25s-2.44,0.39-3.76,0.39c-0.44,0-0.98-0.03-1.62-0.1c-0.64-0.07-1.3-0.17-1.97-0.29
			c-0.67-0.13-1.31-0.28-1.91-0.47C691.31,214.95,690.83,214.74,690.46,214.51z"/>
	</g>
</g>
<g id="Layer_6">
	<path class="st2" d="M84.9,21.68C23.48,18.06,0,0,0,0c0.9,51.48,62.32,42.45,56.9,44.26C43.85,48.61,35.23,84,37.03,98.45
		c1.81,14.45,5.42,61.42,0,66.84S6.32,185.16,6.32,185.16c50.58-7.23,72.26,10.84,76.77,9.94c23.1-4.62,46.97-56,50.58-68.64
		S146.32,25.29,84.9,21.68z M94.84,172.51c-1.81-3.61-41.55-10.84-41.55-10.84c14.45-10.84,10.84-46.97,9.03-74.06
		c-1.81-27.1,5.42-39.74,5.42-39.74c32.52,0,34.32,32.52,39.74,65.03C112.9,145.42,96.64,176.13,94.84,172.51z"/>
	<path class="st2" d="M140.9,68.64l18.06-14.45c0,0,10.84,16.26,10.84,30.71s0,43.35,0,48.77s3.61,23.48,9.03,23.48
		s-16.26,14.45-16.26,14.45s-12.64-9.03-12.64-23.48c0-14.45,2.71-46.06,0.9-56.9S145.42,74.97,140.9,68.64z"/>
	<path class="st2" d="M140,37.03l18.06-14.45c0,0,5.42,10.84,16.26,9.03C185.16,29.81,158.06,65.93,140,37.03z"/>
	<path class="st2" d="M225.8,90.32l18.06-12.64c0,0-6.56-23.48-28.9-23.48c-7.23,0-21.68,14.45-27.1,21.68
		c-5.42,7.23-18.06,32.52,7.23,41.55s32.24,20.42,25.29,34.32c-1.81,3.61-13.55-2.71-18.97-17.16l-18.06,10.84
		c0,0,4.63,17.2,23.48,23.48c5.42,1.81,28.9-16.26,32.52-18.06s9.03-23.48,0-34.32s-37.93-18.06-37.93-25.29
		c0-7.23-1.81-16.26,1.81-18.06C206.84,71.35,219.48,74.97,225.8,90.32z"/>
	<path class="st2" d="M243.87,68.64c0,0,9.03,10.84,7.23,28.9c-1.81,18.06,0,32.52,0,37.93s-0.15,34.32,10.84,34.32
		c1.81,0,19.87-14.45,19.87-14.45s-8.13-6.32-8.13-20.77s-1.81-52.39-1.81-52.39l10.84-9.03c0,0,9.03,1.81,9.03,19.87
		s0,36.13,0,41.55s1.81,34.32,12.64,37.93l18.06-16.26c0,0-7.23-5.42-7.23-18.06c0-12.64,0-45.16,0-50.58
		c0-5.42-9.03-32.52-19.87-32.52l-21.68,16.26c0,0-6.93-16.26-12.65-16.26C259.22,55.1,243.87,68.64,243.87,68.64z"/>
	<path class="st2" d="M345.93,123.74l37.93-30.71L364,55.1c0,0-27.78,12.78-29.81,18.97c-31.61,96.64,28.9,95.74,28.9,95.74
		l23.48-19.87C345.93,150.84,345.93,123.74,345.93,123.74z M347.74,73.16L364,98.45l-19.87,16.26
		C340.51,94.84,347.74,73.16,347.74,73.16z"/>
	<path class="st2" d="M382.96,72.26l16.26-14.45c0,0,12.64,5.42,12.64,23.48s0,32.52,0,37.93s1.81,28.9,9.03,32.52
		s10.84-19.87,10.84-25.29c0-5.42,0-28.9,0-36.13c0-7.23-3.61-12.64-7.23-18.06C420.9,66.84,438.96,56,438.96,56
		s14.45,7.23,14.45,28.9s0,41.55,0,46.97s7.23,48.77,3.61,54.19s-10.84,18.06-32.52,19.87s-65.03-12.65-37.93-43.35l13.55,15.35
		c0,0-5.42,23.48,18.06,21.68c23.48-1.81,18.06-12.65,18.06-18.06s-3.61-27.1-3.61-27.1l-18.06,16.26c0,0-27.1-5.42-25.29-30.71
		S394.7,82.19,382.96,72.26z"/>
	<path class="st2" d="M460.64,21.68l16.26-10.84c0,0,14.45,9.03,14.45,21.68s0,75.87,0,84.9s-1.81,32.52,7.23,37.93l-16.26,14.45
		c0,0-14.45-9.03-12.64-28.9s-0.9-87.61-0.9-93.03S466.96,29.81,460.64,21.68z"/>
	<path class="st2" d="M563.61,126.45c0-5.42,1.81-39.74,1.81-50.58s-27.1-27.1-27.1-27.1l-27.1,19.87
		c-31.61,84,13.55,98.45,13.55,98.45l18.97-18.97c0,9.03,18.06,18.06,18.06,18.06l14.45-16.26
		C561.8,148.13,563.61,131.87,563.61,126.45z M535.61,143.61c-28.56,0-12.64-75.87-12.64-75.87c7.23-1.81,18.06,7.23,18.06,10.84
		s1.81,56,1.81,59.61S537.41,143.61,535.61,143.61z"/>
	<path class="st2" d="M578.06,68.64L596.12,56c0,0,10.84,9.03,10.84,16.26L628.64,56c0,0,18.06,7.23,19.87,25.29
		c1.81,18.06,0,37.93,0,46.97s0,23.48,9.03,27.1l-18.06,14.45c0,0-11.74-2.71-11.74-26.19s0-46.97,0-52.39s-5.42-18.06-7.23-18.06
		c-1.81,0-10.84,9.03-10.84,9.03s0,46.97,0,52.39s0,16.26,5.42,19.87l-14.45,16.26c0,0-16.26-12.64-14.45-27.1
		c1.81-14.45,0-41.55,0-48.77C586.19,87.61,584.38,71.35,578.06,68.64z"/>
	<path class="st2" d="M727.99,121.03c0-32.52-0.9-56.9-0.9-65.93s3.51-45.16-12.64-45.16c-1.81,0-19.87,14.45-19.87,14.45
		s12.64,5.42,12.64,19.87s-2.71,18.97-2.71,18.97L697.28,56L673.8,72.26c0,0-34.32,72.26,16.26,97.55
		c3.61,1.81,16.26-16.26,16.26-16.26s9.03,18.06,16.26,18.06l18.06-16.26C740.64,155.35,727.99,153.55,727.99,121.03z
		 M696.38,150.84c0,0-29.07-10.18-12.64-75.87c1.81-7.23,21.68,16.26,21.68,16.26l1.81,48.77L696.38,150.84z"/>
	<g>
		<path class="st2" d="M572.77,188.26v8.71h-3.97v-24.03h7.29c2.76,0,4.9,0.64,6.42,1.93c1.52,1.28,2.28,3.09,2.28,5.43
			c0,2.33-0.79,4.24-2.38,5.73c-1.59,1.49-3.73,2.23-6.44,2.23H572.77z M572.77,176.23v8.78h2.58c1.71,0,3.01-0.4,3.91-1.19
			c0.89-0.79,1.34-1.91,1.34-3.35c0-2.83-1.64-4.24-4.93-4.24H572.77z"/>
		<path class="st2" d="M628.37,196.98h-3.77v-2.68h-0.07c-1.18,2.06-2.92,3.08-5.21,3.08c-1.69,0-3.01-0.46-3.96-1.37
			c-0.96-0.92-1.43-2.13-1.43-3.64c0-3.24,1.87-5.13,5.6-5.67l5.09-0.72c0-2.45-1.16-3.67-3.49-3.67c-2.05,0-3.89,0.7-5.53,2.11
			v-3.4c1.81-1.07,3.9-1.61,6.27-1.61c4.33,0,6.5,2.13,6.5,6.4V196.98z M624.62,188.55l-3.6,0.5c-1.12,0.15-1.96,0.42-2.52,0.81
			c-0.56,0.4-0.85,1.09-0.85,2.09c0,0.73,0.26,1.32,0.78,1.79c0.52,0.46,1.22,0.7,2.09,0.7c1.18,0,2.16-0.42,2.94-1.25
			c0.78-0.83,1.17-1.88,1.17-3.14V188.55z"/>
		<path class="st2" d="M670.53,183.52c-0.47-0.37-1.15-0.55-2.03-0.55c-1.15,0-2.11,0.52-2.88,1.56c-0.77,1.04-1.16,2.45-1.16,4.24
			v8.21h-3.89v-17.16h3.89v3.54h0.07c0.38-1.21,0.96-2.15,1.75-2.82c0.79-0.68,1.67-1.01,2.64-1.01c0.7,0,1.24,0.11,1.61,0.32
			V183.52z"/>
		<path class="st2" d="M716.3,196.98h-4.93l-6.67-8.25h-0.07v8.25h-3.91v-25.41h3.91v16.11h0.07l6.3-7.86h4.67l-7.09,8.28
			L716.3,196.98z"/>
	</g>
</g>
</svg>
