<?xml version="1.0" encoding="utf-8"?>
<!-- Generator: Adobe Illustrator 26.5.0, SVG Export Plug-In . SVG Version: 6.00 Build 0)  -->
<svg version="1.1" xmlns="http://www.w3.org/2000/svg" xmlns:xlink="http://www.w3.org/1999/xlink" x="0px" y="0px"
	 viewBox="0 0 761.48 264.08" style="enable-background:new 0 0 761.48 264.08;" xml:space="preserve">
<style type="text/css">
	.st0{display:none;}
	.st1{display:inline;fill:#FFFFFF;}
	.st2{font-family:'Karimun';}
	.st3{font-size:83px;}
	.st4{display:inline;}
	.st5{fill:#FFFFFF;}
	.st6{font-family:'Waltograph';}
	.st7{font-size:222.0164px;}
	
		.st8{clip-path:url(#SVGID_00000164503351116799562660000003326829726383615162_);fill:none;stroke:#FFFFFF;stroke-width:10;stroke-miterlimit:10;}
</style>
<g id="Layer_1" class="st0">
	<text transform="matrix(1 0 0 1 1.1125 318.9166)" class="st1 st2 st3">A Disney Parks Weather App</text>
	<g class="st4">
		<text transform="matrix(1 0 0 1 -10.1147 239.3903)" class="st5 st6 st7">Magic</text>
		<text transform="matrix(1 0 0 1 452.8853 284.3903)" class="st5 st6 st7">+</text>
		<g>
			<defs>
				<path id="SVGID_1_" d="M458.7,90.14c0,0-29,1-47,17s-24,23-24,23l-16-22l2-195h144l218,104l31,50l3,52l-36,132l-102.5,6.5
					c0,0,2.86-14.48,4.5-41.5c2-33-7-40-7-40l-39-60l-89-31L458.7,90.14z"/>
			</defs>
			<clipPath id="SVGID_00000073703936225470462490000000670768682609031337_">
				<use xlink:href="#SVGID_1_"  style="overflow:visible;"/>
			</clipPath>
			
				<path style="clip-path:url(#SVGID_00000073703936225470462490000000670768682609031337_);fill:none;stroke:#FFFFFF;stroke-width:10;stroke-miterlimit:10;" d="
				M710.47,28.52c-41.53-17.36-89.27,2.23-106.63,43.76c-4.64,11.09-6.61,22.62-6.26,33.91c-11.73-11.13-25.64-20.36-41.44-26.97
				c-11.6-4.85-23.48-7.97-35.38-9.51c6.87-7.1,12.57-15.56,16.61-25.22c17.36-41.53-2.23-89.27-43.76-106.63
				s-89.27,2.23-106.63,43.76c-17.36,41.53,2.23,89.27,43.76,106.63c0.38,0.16,0.76,0.29,1.15,0.45
				c-16.11,9.82-30.29,23.03-41.37,39.11c25.43-19.84,57.42-31.67,92.18-31.67c82.84,0,150,67.16,150,150
				c0,1.59-0.03,3.17-0.08,4.75c9.06-25.81,9.91-52.71,3.79-77.71c3.53,2.16,7.26,4.08,11.2,5.72
				c41.53,17.36,89.27-2.23,106.63-43.76C771.59,93.62,752,45.88,710.47,28.52z"/>
		</g>
	</g>
</g>
<g id="Layer_2" class="st0">
</g>
<g id="Layer_3" class="st0">
	<polygon class="st1" points="207.66,157 231.66,157 231.66,94 248.66,94 248.66,73 190.66,73 190.66,94 207.66,94 	"/>
	<path class="st1" d="M293.66,98c-3-3-6-3-8-3s-28,0-30,0s-5,1-7,3s-4,5-4,7s0,39,0,41s2,6,4,8s5,3,7,3s28,0,30,0s5,0,8-3s4-6,4-8
		s0-38,0-40S296.66,101,293.66,98z M276.66,139h-11v-26h11V139z"/>
	<polygon class="st1" points="304.16,77.5 303.66,157 324.66,157 324.66,132 340.66,157 365.66,157 345.66,124 362.66,95 337.66,95 
		324.16,118.5 324.16,77.5 	"/>
	<path class="st1" d="M420.66,95h-22v44h-10V95h-21c0,0-1,50,0,52s4,9,10,10s16,0,16,0l5-9v14h-22l-11,18c0,0,42,0,45,0s10-3,10-14
		S420.66,95,420.66,95z"/>
	<path class="st1" d="M475.66,98c-3-3-6-3-8-3s-28,0-30,0s-5,1-7,3s-4,5-4,7s0,39,0,41s2,6,4,8s5,3,7,3s28,0,30,0s5,0,8-3s4-6,4-8
		s0-38,0-40S478.66,101,475.66,98z M458.66,139h-11v-26h11V139z"/>
	<path class="st1" d="M252.66,182c0-2,0-11-14-12s-47,0-47,0v84c0,0,48,1,51,0s9-2,10-12S252.66,184,252.66,182z M228.66,233h-13
		v-42h13V233z"/>
	<rect x="258.66" y="181" class="st1" width="22" height="8"/>
	<rect x="258.66" y="192" class="st1" width="22" height="63"/>
	<g class="st4">
		<rect x="344.66" y="192" class="st5" width="21" height="63"/>
		<path class="st5" d="M397.66,255h-21v-46h-15l10-17h5c0,0,7.92-0.98,14,2c3.95,1.94,7,7.82,7,9C397.66,206,397.66,255,397.66,255z
			"/>
	</g>
	<path class="st1" d="M340.16,208.5l-10.5-16.5c0,0-27,0-30,0s-13,5-13,10s0,16,0,18s3,10,9,10s23,0,23,0v6h-34l10,18c0,0,30,0,33,0
		s11-4,11-11s0.5-16.5,0.5-18.5s-3-11-14-11s-18,0-18,0v-5H340.16z"/>
	<path class="st1" d="M425.16,235.5v-5h32c0,0-0.5-16.5-0.5-25.5s-6-13-10-13s-25,0-32,0s-10,9-10,12s0,30,0,39s9,11,12,11
		s30,0,30,0l11.5-18.5H425.16z M425.16,209.5h11v7h-11V209.5z"/>
	<path class="st1" d="M515.66,192h-22v44h-10v-44h-21c0,0-1,50,0,52s4,9,10,10s16,0,16,0l5-9v14h-22l-11,18c0,0,42,0,45,0
		s10-3,10-14S515.66,192,515.66,192z"/>
	<rect x="522.66" y="174" class="st1" width="20" height="81"/>
	<g class="st4">
		<rect x="608.66" y="192" class="st5" width="21" height="63"/>
		<path class="st5" d="M661.66,255h-21v-46h-15l10-17h5c0,0,7.92-0.98,14,2c3.95,1.94,7,7.82,7,9C661.66,206,661.66,255,661.66,255z
			"/>
	</g>
	<path class="st1" d="M587.66,192c-4,0-29,0-29,0l-9.5,17.5h32v3c0,0-9-1-19,0s-13,9-13,12s-0.5,7.5,0.5,18.5s7.49,10.58,13,11
		c6.5,0.5,13,0,13,0l5-9v9h21c0,0,0-42,0-51S591.66,192,587.66,192z M581.16,235.5h-11v-7h11V235.5z"/>
	<path class="st1" d="M700.66,175v17c0,0-14,0-18,0s-15,1-15,11s0,35,0,38s2,13,12,13s15,0,15,0l6-10v10h21v-79H700.66z
		 M700.16,237.5h-11v-29h11V237.5z"/>
	<path class="st1" d="M-1.34,254h172c0,0-13-44-4-44v-12h-8v-6h4c0,0-13-26-12-40c0,0,7-1,11,0s6-4,6-4s-6,2-12-6h-6
		c0,0-0.5,14.5-0.5,16.5s-6,27-9,30v-25l2-2v-7h-2c0,0-8-25.95-8-36c0-4,9-2,10-2s5-1,6-3c0,0-4-1-9-5s-9-1-9-1v13c0,0-2,28-7,34h-1
		v8l2,1v9h-7l1-22l3-4v-17h5c0,0-8-15-8-23h-1c0,0-3,18-7,21v-21l3-5v-4h-3v-10h3c0,0-3.99-6.53-7-19c-4.13-17.08-7.58-42.6-7-53
		c0,0,9,0,13,2s6-1,6-1s-8-3-8-6c0,0,5-2,6-4s-4,1-7-1s-9-6-12-4v18c0,0-9,65-13,69h3v9h-4v3l3,6v34l-7-24h-21l-8,36l-6-24
		c0,0-9,33-12,35h2v6l4,4v8h-7c0,0-12-22-12-25s0-6,0-6s6-2,9-1s7-3,7-3s-6.9-0.9-12-6c-1-1-6-1-6,0s0,15,0,15s-9,26-12,27h6v16h-8
		l-1,11c0,0,6,1,4,10S-1.34,254-1.34,254z"/>
</g>
<g id="Layer_4" class="st0">
	<g class="st4">
		<path class="st5" d="M55.65,153.02c-3.45,0-7.54-0.47-7.54-2.51c0-14.44,25.43-15.07,36.27-15.07c14.13,0,32.18,4.4,47.57,9.89
			c23.39,8.48,70.81,36.74,70.81,69.08c0,28.57-30.77,42.23-59.35,42.23c-7.22,0-15.86-1.26-22.92-2.36
			c-0.47,1.73-0.79,2.98-1.88,6.59c-1.88,0.31-3.45,0.63-5.49,0.63l-3.61-0.31c-2.35-2.83-3.14-7.38-4.08-12.25
			c-14.29-8.32-23.55-15.39-27.79-20.25c-3.61-3.77-7.69-8.79-7.69-13.66c0-2.51,1.57-4.71,5.18-7.22
			c7.38-5.5,16.8-8.48,32.18-11.15l0.31-6.44c0.16-1.57,1.73-18.37,5.34-21.51c5.81,4.71,6.44,9.58,6.91,16.8
			c0.16,3.14,0.31,6.44,0.78,9.89h2.2c10.99,0,44.59,2.83,44.59,18.68c0,3.77-5.5,10.83-10.83,10.83c-1.88,0-5.34-0.79-6.91-2.04
			c2.35-2.67,5.81-5.02,6.75-7.06c-3.14-3.77-20.1-8.16-32.5-8.16c-2.04,0-2.83,0-4.08,0.16l0.16,34.38
			c5.02,3.14,11.15,3.45,15.07,3.45c17.27,0,53.07-2.98,53.07-30.93c0-27.63-35.32-48.98-61.7-59.03
			c-18.53-7.06-36.11-10.68-56.68-10.68c-4.24,0-8.63,0.31-12.87,1.41c-2.67,0.63-3.61,1.26-3.61,1.88c0,1.1,5.34,1.73,5.97,2.04
			c0.47,0.31,0.78,0.79,0.78,1.26c0,0.31-0.16,0.78-0.63,1.26C58.79,152.87,57.38,153.02,55.65,153.02z M106.68,208.13
			c-15.54,1.26-32.81,2.83-32.81,8.32c0,4.24,7.22,9.42,11.62,12.72c5.02,4.08,12.56,7.85,19.78,9.42L106.68,208.13z"/>
		<path class="st5" d="M240.91,152.4c2.67,0,8.79,2.67,8.79,8.48c0,12.09-20.72,25.9-31.09,25.9c-3.14,0-7.06-0.47-9.89-1.41
			c-1.73,2.04-2.35,3.77-4.71,4.08c-1.57-0.31-3.61-3.3-3.92-6.75c0-0.79,0.31-1.88,0.47-2.67c-2.35-3.14-4.08-5.97-4.08-9.42
			c0-10.36,15.54-24.18,30.46-24.18c6.91,0,12.4,2.67,13.35,6.12C240.44,152.55,240.6,152.4,240.91,152.4z M204.8,170.92
			c0.31,0,0.63-0.16,0.78-0.31c2.04-2.83,8.63-9.11,12.25-12.56v-0.16c0-0.16,0-0.47-0.31-0.79c-7.85,1.57-12.72,7.38-13.35,13.5
			C204.33,170.76,204.49,170.92,204.8,170.92z M219.72,205.15c0.31,12.72,1.57,26.06,1.57,38.62c0,2.51-0.94,5.5-4.87,5.5
			c-1.26,0-3.14-0.47-4.4-0.94c-2.04-0.63-2.98-6.75-3.14-8.32c0-8.01,0.16-8.16,0.47-16.49c0.16-2.2,0.63-10.83,2.67-26.69
			c0.16-0.79,0.31-1.1,0.94-1.1C218.62,195.88,219.4,199.18,219.72,205.15z M214.85,177.52h3.45c7.85,0,23.86-5.34,23.86-14.92
			c0-2.2,0-3.92-4.08-3.92c-9.11,0-18.05,8.79-24.49,17.58C213.59,176.57,214.38,177.52,214.85,177.52z"/>
		<path class="st5" d="M237.46,210.17c0,0.16,0.16,0.31,0.31,0.31c5.97,2.2,9.89,2.98,16.17,3.3c10.68,0.79,26.53,0.94,26.53,15.7
			c0,16.96-18.84,17.9-23.86,17.9c-13.34,0-25.12-8.48-25.12-14.92c0-7.69,8.01-9.73,14.29-9.73c5.97,0,13.82,1.57,20.25,4.87
			c0.16,0.16,0.31,0.31,0.31,0.63c0,0.47-0.16,0.79-0.31,0.94c-1.26,1.26-5.02,3.14-8.95,3.14c-4.55,0-10.83-3.77-16.96-3.77
			c-2.2,0-4.87,0.47-4.87,3.92c0,3.92,7.06,3.92,12.72,3.92c2.98,0,24.65-2.51,24.65-8.32c0-5.49-16.48-7.85-23.24-8.01
			c-18.05-0.47-20.41-2.35-20.41-8.95c0-14.76,29.83-15.86,31.24-15.86c7.85,0,14.91,1.41,20.1,2.67c1.1,0.16,1.73,0.63,1.73,2.36
			c-0.16,1.88-1.73,2.98-3.45,3.61c-1.26,0.31-3.93,0.79-5.18,0.94c-5.49,0.79-21.67,1.41-26.69,2.36
			c-5.18,0.78-7.38,1.41-8.95,2.35C237.61,209.7,237.46,210.01,237.46,210.17z"/>
		<path class="st5" d="M313.92,190.55c0-1.26,0.16-3.3,1.57-3.3c4.4,0,16.96,15.54,16.96,37.37c0,9.58-4.4,21.04-12.09,21.04
			c-9.11,0-18.68-29.2-20.88-29.2c-0.31,0-0.79,0.47-1.1,1.73c-0.47,1.88-0.79,18.37-1.57,23.24c-0.47,2.2-1.26,7.38-4.71,7.38
			c-5.02,0-6.12-8.63-6.12-12.4c0-8.16,4.08-37.05,10.83-37.05c4.71,0,14.13,19.62,22.45,29.99c0.63,0.63,0.94,1.26,1.1,1.26
			c0.94,0,0.94-1.41,0.94-4.08c0-14.44-2.98-18.68-6.91-33.44l-0.47-1.88V190.55z"/>
		<path class="st5" d="M373.89,241.41c-4.24,3.3-13.82,10.68-24.18,10.68c-8.63,0-12.56-6.44-12.56-13.19
			c0-3.61,2.2-8.48,3.92-13.34c-0.47-1.57-1.26-2.51-1.26-4.08c0-1.26,0.47-1.88,0.79-3.14c1.26-0.47,2.67-1.1,4.08-1.26l3.77-8.63
			c-3.61-1.73-8.95-3.77-8.95-7.07c0-1.73,1.41-2.2,4.08-2.35c6.59-0.31,14.29-3.14,27.16-3.14c1.41,0,3.14,0.16,6.44,1.1
			c1.41,1.73,5.02,5.02,5.02,7.69c0,1.57-5.49,3.3-8.48,3.45c-6.75,0.47-8.32,0.31-12.56,0.47c-0.79,0-1.57,0-2.35,0.16
			c-0.63,0.63-1.88,2.67-1.88,6.59c0,0.63,0.31,1.57,1.41,1.57h11.62l2.2,0.31c0.79,1.1,0.94,3.14,0.94,4.55
			c0,1.26-0.31,3.61-1.73,3.77c-2.83,0.16-9.89,0.47-17.74,0.47c-0.31,0-0.63,0-0.94,0.63c-0.78,3.3-2.2,7.06-3.77,10.52
			c0.78,0,6.75-1.57,16.8-2.51c1.57-0.16,3.61-0.31,5.18-0.31c1.88,0,3.92,2.67,3.92,4.71C374.83,240,374.67,240.94,373.89,241.41z"
			/>
		<path class="st5" d="M386.15,278.95c-6.28-0.63-10.52-5.81-10.52-12.56c0-2.98-0.49-3.94,8.3-24.98
			c-1.73-3.77-2.83-7.69-2.83-11.46c0-16.17,15.7-35.33,18.84-35.64c2.2,0.31,2.51,1.57,2.51,4.4c0,3.14-1.88,5.18-6.75,12.56
			c-2.51,3.93-6.12,10.36-6.12,16.01c0,0.63,0,1.57,0.47,1.88h0.31c0.16,0,0.31-0.16,0.63-0.63c7.54-10.05,23.08-28.89,31.09-28.89
			c8.16,0,10.21,13.19,10.21,19.47c0,18.53-23.24,31.71-33.75,31.71c-1.1,0-2.2,0.16-3.45,0.31c-6.12,17.9-4.22,9.59-8.46,26.55
			L386.15,278.95z M418.32,230.11c4.4-3.77,6.75-8.95,6.75-15.39c0-1.73,0-4.4-2.04-4.4c-2.67,0-8.63,7.06-10.99,10.05
			c-1.73,2.35-8.01,14.29-9.11,16.96C408.27,236.7,413.45,234.35,418.32,230.11z"/>
	</g>
	<g class="st4">
		<path class="st5" d="M500.46,248.6h-9.88l-8.86-14.84c-1.73-2.91-3.31-4.89-4.73-5.94s-3.04-1.58-4.87-1.58h-4.57v22.36h-8.44
			v-54.46h17.33c5.65,0,10.01,1.27,13.1,3.81s4.62,6.15,4.62,10.81c0,3.66-1.07,6.79-3.2,9.39s-5.11,4.42-8.93,5.45v0.14
			c2.44,0.84,5.17,3.7,8.19,8.58L500.46,248.6z M467.56,201.1v18.14h7.49c3.12,0,5.61-0.9,7.47-2.71s2.79-4.1,2.79-6.89
			c0-5.7-3.38-8.54-10.12-8.54H467.56z"/>
		<path class="st5" d="M535.11,248.6h-30.16v-54.46h28.93v7.24h-20.5v16.03h19.02v7.21h-19.02v16.73h21.73V248.6z"/>
		<path class="st5" d="M540.33,237.31c4.17,3.4,9.08,5.1,14.73,5.1c7.22,0,10.83-2.47,10.83-7.42c0-1.43-0.4-2.72-1.2-3.87
			s-1.87-2.15-3.22-3.01s-4.01-2.23-8-4.13c-4.9-2.34-8.32-4.72-10.27-7.14s-2.92-5.25-2.92-8.51c0-4.69,1.85-8.38,5.55-11.07
			s8.44-4.04,14.2-4.04c5.46,0,9.59,0.67,12.38,2v8.65c-3.35-2.32-7.54-3.48-12.55-3.48c-3.21,0-5.8,0.64-7.77,1.93
			s-2.95,3.06-2.95,5.31c0,2.04,0.72,3.71,2.16,5.03s4.48,3.07,9.12,5.27c5.41,2.53,9.15,5.07,11.21,7.61s3.09,5.47,3.09,8.77
			c0,4.92-1.78,8.68-5.34,11.29s-8.5,3.9-14.8,3.9c-2.32,0-4.9-0.28-7.73-0.84s-5.02-1.31-6.54-2.25V237.31z"/>
		<path class="st5" d="M579.27,222.05c0-8.6,2.41-15.56,7.22-20.87s11.31-7.96,19.49-7.96c7.66,0,13.82,2.58,18.46,7.73
			s6.96,11.77,6.96,19.83c0,8.55-2.37,15.48-7.1,20.78s-11.13,7.95-19.2,7.95c-7.69,0-13.92-2.55-18.69-7.66
			S579.27,230.14,579.27,222.05z M588.13,221.46c0,6,1.54,10.94,4.61,14.82s7.22,5.82,12.45,5.82c5.48,0,9.75-1.85,12.8-5.54
			s4.57-8.68,4.57-14.96c0-6.42-1.47-11.51-4.41-15.26s-7.13-5.62-12.57-5.62c-5.3,0-9.53,1.95-12.69,5.84
			S588.13,215.41,588.13,221.46z"/>
		<path class="st5" d="M680.72,248.6h-9.88l-8.86-14.84c-1.73-2.91-3.31-4.89-4.73-5.94s-3.04-1.58-4.87-1.58h-4.57v22.36h-8.44
			v-54.46h17.33c5.65,0,10.01,1.27,13.1,3.81s4.62,6.15,4.62,10.81c0,3.66-1.07,6.79-3.2,9.39s-5.11,4.42-8.93,5.45v0.14
			c2.44,0.84,5.17,3.7,8.19,8.58L680.72,248.6z M647.81,201.1v18.14h7.49c3.12,0,5.61-0.9,7.47-2.71s2.79-4.1,2.79-6.89
			c0-5.7-3.38-8.54-10.12-8.54H647.81z"/>
		<path class="st5" d="M717.51,201.38h-15.64v47.21h-8.47v-47.21h-15.61v-7.24h39.73V201.38z"/>
	</g>
	<g class="st4">
		<path class="st5" d="M272.8,178.71v-8.24c0.74,0.67,1.62,1.28,2.64,1.82c1.02,0.54,2.1,0.99,3.25,1.36s2.29,0.66,3.43,0.86
			c1.14,0.2,2.2,0.3,3.16,0.3c3.36,0,5.87-0.56,7.52-1.68s2.47-2.75,2.47-4.88c0-1.14-0.27-2.14-0.82-2.98
			c-0.55-0.84-1.32-1.61-2.31-2.3c-0.99-0.7-2.15-1.36-3.48-2c-1.33-0.64-2.76-1.31-4.29-2c-1.64-0.87-3.16-1.76-4.58-2.66
			s-2.64-1.89-3.68-2.98c-1.04-1.09-1.86-2.32-2.46-3.68c-0.59-1.37-0.89-2.97-0.89-4.81c0-2.27,0.51-4.23,1.53-5.91
			c1.02-1.67,2.37-3.05,4.04-4.14c1.67-1.09,3.57-1.9,5.7-2.42c2.13-0.53,4.31-0.79,6.53-0.79c5.05,0,8.73,0.57,11.04,1.72v7.91
			c-2.74-1.97-6.26-2.96-10.57-2.96c-1.19,0-2.37,0.11-3.55,0.34c-1.18,0.22-2.23,0.59-3.16,1.11c-0.93,0.52-1.69,1.18-2.27,1.99
			c-0.58,0.81-0.88,1.78-0.88,2.93c0,1.08,0.22,2.01,0.67,2.79s1.1,1.5,1.97,2.15c0.86,0.65,1.92,1.28,3.16,1.9
			c1.24,0.62,2.69,1.28,4.32,2c1.68,0.88,3.27,1.79,4.76,2.76c1.49,0.96,2.8,2.03,3.94,3.2c1.13,1.17,2.03,2.46,2.69,3.89
			s0.99,3.04,0.99,4.86c0,2.45-0.49,4.51-1.48,6.19c-0.99,1.68-2.32,3.05-3.99,4.1c-1.67,1.05-3.59,1.82-5.77,2.29
			c-2.18,0.47-4.47,0.71-6.9,0.71c-0.81,0-1.8-0.06-2.98-0.19s-2.38-0.3-3.62-0.54c-1.23-0.24-2.4-0.52-3.5-0.86
			C274.36,179.52,273.47,179.14,272.8,178.71z"/>
		<path class="st5" d="M340.59,180.63h-6.49v-16.89h-18.33v16.89h-6.46V141.7h6.46v16.37h18.33V141.7h6.49V180.63z"/>
		<path class="st5" d="M380.52,180.63h-7.09l-3.5-9.91h-15.31l-3.37,9.91h-7.06l14.58-38.93h7.28L380.52,180.63z M368.22,165.45
			l-5.4-15.53c-0.16-0.51-0.34-1.32-0.52-2.44h-0.11c-0.16,1.03-0.34,1.85-0.54,2.44l-5.35,15.53H368.22z"/>
		<path class="st5" d="M417.22,180.63h-7.06l-18.6-28.62c-0.47-0.72-0.86-1.48-1.17-2.25h-0.16c0.14,0.83,0.22,2.62,0.22,5.35v25.52
			h-6.24V141.7h7.52l17.97,27.94c0.76,1.16,1.25,1.96,1.46,2.39h0.11c-0.18-1.03-0.27-2.78-0.27-5.24V141.7h6.22V180.63z"/>
		<path class="st5" d="M455.57,177.97c-4.05,2.21-8.57,3.31-13.55,3.31c-5.76,0-10.42-1.79-13.98-5.38
			c-3.57-3.58-5.35-8.33-5.35-14.23c0-6.03,1.95-10.97,5.85-14.84c3.9-3.87,8.86-5.8,14.87-5.8c4.33,0,7.96,0.63,10.91,1.9v6.65
			c-2.99-1.99-6.54-2.99-10.67-2.99c-4.15,0-7.54,1.37-10.2,4.1c-2.65,2.73-3.98,6.27-3.98,10.62c0,4.47,1.14,7.99,3.42,10.55
			s5.38,3.84,9.29,3.84c2.68,0,5-0.52,6.95-1.55v-9.26h-8.2v-5.43h14.63V177.97z"/>
		<path class="st5" d="M493.57,180.63h-6.49v-16.89h-18.33v16.89h-6.46V141.7h6.46v16.37h18.33V141.7h6.49V180.63z"/>
		<path class="st5" d="M533.5,180.63h-7.09l-3.5-9.91H507.6l-3.37,9.91h-7.06l14.58-38.93h7.28L533.5,180.63z M521.2,165.45
			l-5.4-15.53c-0.16-0.51-0.33-1.32-0.52-2.44h-0.11c-0.16,1.03-0.34,1.85-0.54,2.44l-5.35,15.53H521.2z"/>
		<path class="st5" d="M543.8,180.63h-6.65V141.7h6.65V180.63z"/>
	</g>
	<path class="st1" d="M330.66,126h51c0,0-1-14,0-28s32-16,32,0s2,28,2,28h50l-5-41h5c0,0-10-20-10-24c0-1-8.5,18.5-8.5,18.5v-25l3-2
		c0,0-6.5-7.5-7-8c-0.71-0.71-2-8-2-8l3-3h-3v-6h-3v5h-3l3,4l-2,5v3l-3,5l-4,2l3,3v5h-5.5l-0.5-47h4c0,0-9-10-9-18c0,0-5,16-9,18h3
		v16l-6-6v-25l4-3v-3h-1l-1-2h-3c0,0,0-15,0-17s-1-2-1-4s0-7,0-7h-2l-2-18l-3,18h-2v9l-1.5-4.5l-2.5,7.5v14l3.5,2.5h-4l-0.5,1.5h-1
		v3c0,0,4,2,4,6s0,22,0,22h-6c0,0,4.5-4.5,0-8l3.5-2.5l-4.5-2.5v-5l3-2l-4-3c0,0,2.5-2.5-0.5-3.5l-1.5-5.5v-7c0,0,2.5-2.5,0-4
		l-1.5-4.5l-1.5,4.5c0,0-2.5,1.5,0,4c0.5,0.5,0,7,0,7l-1,5c0,0-3,2-1,4c1,1-3,3-3,3l3,2v5l-4,3l3,2c0,0-4,5,1,8h-8c0,0,0,12-9,16v4
		h4v12l-8,1v-8h5c0,0-11-16-11-24c0,0-4,20-10,24h5l-1,29l-6-16c0,0-9,23-12,25h6L330.66,126z"/>
	<path class="st1" d="M354.66,18v-5c0,0,2,1,7,0s9,2,10,2s-7,1-11,3H354.66z"/>
	<path class="st1" d="M439.66,23v-6c0,0,3,1,7,1s13,0.84,13,4c0,1-4.5-1.5-10.5,0.5S439.66,23,439.66,23z"/>
	<path class="st1" d="M507.66,126h17c0,0,20.5-119.5-92.5-151.5c-14.01-3.97-98.27-24.72-154.5,76.5
		c-1.36,2.44,63.5-106.5,155.5-64.5C533.25,32.19,507.66,126,507.66,126z"/>
	<polygon class="st1" points="273.66,85 271.66,128 267.66,85 251.66,95 262.66,81 234.66,78 261.66,74 251.66,59 266.66,68 
		268.66,27 273.66,68 288.66,59 277.66,74 303.66,78 279.66,82 288.66,95 	"/>
</g>
<g id="Layer_5" class="st0">
	<g class="st4">
		<path class="st5" d="M17.64,55.03c-4.48,0-9.77-0.61-9.77-3.26c0-18.72,32.97-19.54,47.01-19.54c18.32,0,41.72,5.7,61.66,12.82
			c30.32,10.99,91.78,47.62,91.78,89.54c0,37.04-39.89,54.74-76.93,54.74c-9.36,0-20.56-1.63-29.71-3.05
			c-0.61,2.24-1.02,3.87-2.44,8.55c-2.44,0.41-4.48,0.81-7.12,0.81l-4.68-0.41c-3.05-3.66-4.07-9.56-5.29-15.87
			c-18.52-10.79-30.53-19.94-36.02-26.25c-4.68-4.88-9.97-11.4-9.97-17.71c0-3.26,2.04-6.11,6.72-9.36
			c9.57-7.12,21.78-10.99,41.72-14.45l0.41-8.34c0.2-2.04,2.24-23.81,6.92-27.88c7.53,6.11,8.34,12.41,8.95,21.78
			c0.2,4.07,0.41,8.34,1.02,12.82h2.85c14.25,0,57.8,3.66,57.8,24.22c0,4.88-7.12,14.04-14.04,14.04c-2.44,0-6.92-1.02-8.95-2.65
			c3.05-3.46,7.53-6.51,8.75-9.16c-4.07-4.88-26.05-10.58-42.13-10.58c-2.65,0-3.66,0-5.29,0.2l0.2,44.57
			c6.51,4.07,14.45,4.48,19.54,4.48c22.39,0,68.79-3.87,68.79-40.09c0-35.82-45.79-63.49-79.98-76.52
			C85.4,49.34,62.61,44.65,35.95,44.65c-5.49,0-11.19,0.41-16.69,1.83c-3.46,0.81-4.68,1.63-4.68,2.44c0,1.42,6.92,2.24,7.73,2.65
			c0.61,0.41,1.02,1.02,1.02,1.63c0,0.41-0.2,1.02-0.81,1.63C21.71,54.83,19.87,55.03,17.64,55.03z M83.78,126.47
			c-20.15,1.63-42.53,3.66-42.53,10.79c0,5.5,9.36,12.21,15.06,16.48c6.51,5.29,16.28,10.18,25.64,12.21L83.78,126.47z"/>
		<path class="st5" d="M257.77,54.22c3.46,0,11.4,3.46,11.4,10.99c0,15.67-26.86,33.58-40.29,33.58c-4.07,0-9.16-0.61-12.82-1.83
			c-2.24,2.65-3.05,4.88-6.1,5.29c-2.04-0.41-4.68-4.27-5.09-8.75c0-1.02,0.41-2.44,0.61-3.46c-3.05-4.07-5.29-7.73-5.29-12.21
			c0-13.43,20.15-31.34,39.48-31.34c8.95,0,16.08,3.46,17.3,7.94C257.16,54.42,257.36,54.22,257.77,54.22z M210.96,78.23
			c0.41,0,0.81-0.2,1.02-0.41c2.65-3.66,11.19-11.8,15.87-16.28v-0.2c0-0.2,0-0.61-0.41-1.02c-10.18,2.04-16.48,9.56-17.3,17.5
			C210.35,78.03,210.56,78.23,210.96,78.23z M230.3,122.6c0.41,16.48,2.04,33.78,2.04,50.06c0,3.26-1.22,7.12-6.31,7.12
			c-1.63,0-4.07-0.61-5.7-1.22c-2.65-0.81-3.87-8.75-4.07-10.79c0-10.38,0.2-10.58,0.61-21.37c0.2-2.85,0.81-14.04,3.46-34.6
			c0.2-1.02,0.41-1.42,1.22-1.42C228.87,110.59,229.89,114.87,230.3,122.6z M223.99,86.78h4.48c10.18,0,30.93-6.92,30.93-19.33
			c0-2.85,0-5.09-5.29-5.09c-11.8,0-23.4,11.4-31.75,22.79C222.36,85.56,223.38,86.78,223.99,86.78z"/>
		<path class="st5" d="M253.29,129.11c0,0.2,0.2,0.41,0.41,0.41c7.73,2.85,12.82,3.87,20.96,4.27c13.84,1.02,34.39,1.22,34.39,20.35
			c0,21.98-24.42,23.2-30.93,23.2c-17.3,0-32.56-10.99-32.56-19.33c0-9.97,10.38-12.62,18.52-12.62c7.73,0,17.91,2.03,26.25,6.31
			c0.2,0.2,0.41,0.41,0.41,0.81c0,0.61-0.2,1.02-0.41,1.22c-1.63,1.63-6.51,4.07-11.6,4.07c-5.9,0-14.04-4.88-21.98-4.88
			c-2.85,0-6.31,0.61-6.31,5.09c0,5.09,9.16,5.09,16.48,5.09c3.87,0,31.95-3.26,31.95-10.79c0-7.12-21.37-10.18-30.12-10.38
			c-23.4-0.61-26.46-3.05-26.46-11.6c0-19.13,38.67-20.56,40.5-20.56c10.18,0,19.33,1.83,26.05,3.46c1.42,0.2,2.24,0.81,2.24,3.05
			c-0.2,2.44-2.24,3.87-4.48,4.68c-1.63,0.41-5.09,1.02-6.72,1.22c-7.12,1.02-28.08,1.83-34.6,3.05c-6.72,1.02-9.56,1.83-11.6,3.05
			C253.49,128.5,253.29,128.91,253.29,129.11z"/>
		<path class="st5" d="M352.4,103.67c0-1.63,0.2-4.27,2.04-4.27c5.7,0,21.98,20.15,21.98,48.44c0,12.41-5.7,27.27-15.67,27.27
			c-11.8,0-24.22-37.85-27.07-37.85c-0.41,0-1.02,0.61-1.42,2.24c-0.61,2.44-1.02,23.81-2.04,30.12c-0.61,2.85-1.63,9.57-6.1,9.57
			c-6.51,0-7.94-11.19-7.94-16.08c0-10.58,5.29-48.03,14.04-48.03c6.11,0,18.32,25.44,29.1,38.87c0.81,0.81,1.22,1.63,1.42,1.63
			c1.22,0,1.22-1.83,1.22-5.29c0-18.72-3.87-24.22-8.95-43.35l-0.61-2.44V103.67z"/>
		<path class="st5" d="M430.13,169.61c-5.49,4.27-17.91,13.84-31.34,13.84c-11.19,0-16.28-8.34-16.28-17.1
			c0-4.68,2.85-10.99,5.09-17.3c-0.61-2.04-1.63-3.26-1.63-5.29c0-1.63,0.61-2.44,1.02-4.07c1.63-0.61,3.46-1.42,5.29-1.63
			l4.88-11.19c-4.68-2.24-11.6-4.88-11.6-9.16c0-2.24,1.83-2.85,5.29-3.05c8.55-0.41,18.52-4.07,35.21-4.07
			c1.83,0,4.07,0.2,8.34,1.42c1.83,2.24,6.51,6.51,6.51,9.97c0,2.04-7.12,4.27-10.99,4.48c-8.75,0.61-10.79,0.41-16.28,0.61
			c-1.02,0-2.04,0-3.05,0.2c-0.81,0.81-2.44,3.46-2.44,8.55c0,0.81,0.41,2.04,1.83,2.04h15.06l2.85,0.41
			c1.02,1.42,1.22,4.07,1.22,5.9c0,1.63-0.41,4.68-2.24,4.88c-3.66,0.2-12.82,0.61-23,0.61c-0.41,0-0.81,0-1.22,0.81
			c-1.02,4.27-2.85,9.16-4.88,13.64c1.02,0,8.75-2.04,21.78-3.26c2.04-0.2,4.68-0.41,6.72-0.41c2.44,0,5.09,3.46,5.09,6.11
			C431.35,167.78,431.15,169,430.13,169.61z"/>
		<path class="st5" d="M442.14,239.01c-8.14-0.81-13.64-7.53-13.64-16.28c0-3.87,3.26-25.85,14.65-53.12
			c-2.24-4.88-3.66-9.97-3.66-14.86c0-20.96,20.35-45.79,24.42-46.2c2.85,0.41,3.26,2.04,3.26,5.7c0,4.07-2.44,6.72-8.75,16.28
			c-3.26,5.09-7.94,13.43-7.94,20.76c0,0.81,0,2.04,0.61,2.44h0.41c0.2,0,0.41-0.2,0.81-0.81c9.77-13.02,29.92-37.45,40.29-37.45
			c10.58,0,13.23,17.1,13.23,25.24c0,24.01-30.12,41.11-43.75,41.11c-1.42,0-2.85,0.2-4.48,0.41c-7.94,23.2-9.36,33.17-14.86,55.15
			L442.14,239.01z M487.72,154.96c5.7-4.88,8.75-11.6,8.75-19.94c0-2.24,0-5.7-2.65-5.7c-3.46,0-11.19,9.16-14.25,13.02
			c-2.24,3.05-10.38,18.52-11.8,21.98C474.7,163.5,481.41,160.45,487.72,154.96z"/>
		<path class="st5" d="M533.51,111c-0.2,14.65-6.11,18.93-9.57,47.21v0.81c0,1.83,1.02,3.46,2.24,3.46c2.85,0,7.33-2.44,13.64-4.68
			c3.05-1.22,7.12-3.26,9.16-3.26s2.24,3.46,2.24,4.68c0,8.75-15.06,21.78-25.03,21.78c-13.64,0-15.47-13.23-15.47-23.61
			c0-15.26,8.55-38.06,13.02-46.4c1.22-2.24,2.65-3.26,6.31-4.48C533.1,106.52,533.51,107.95,533.51,111z"/>
		<path class="st5" d="M592.73,101.64h1.22c2.64,0,5.49,3.46,5.9,6.31c1.02,3.46,4.68,13.43,5.5,18.93
			c2.44,17.71,4.07,27.68,4.07,43.35c0,7.12,0,8.96-0.61,11.4c-0.61,0.41-1.42,0.61-2.24,0.61c-3.87,0-6.92-4.27-9.16-9.56
			l-0.81-11.8h-6.51c-7.12,0-9.56-0.2-11.19-0.2c-0.61,0-1.02,0-1.22,0.2c-3.05,1.02-4.48,8.95-7.33,16.48l-2.24,5.9
			c-1.02,1.02-2.85,1.63-4.88,1.63c-1.22,0-2.44-0.41-4.07-0.61c-2.85-3.05-3.87-5.7-3.87-9.97c0-4.88,2.04-10.99,5.7-17.5
			c0-3.26-1.83-6.72-6.1-7.33l0.41-3.87c0.81,0.2,1.83,0.2,2.85,0.2h6.72c3.26-6.92,10.38-21.37,15.26-28.69l9.77-12.01l0.61-2.44
			C591.1,101.64,591.71,101.64,592.73,101.64z M588.86,144.98c1.83,0,4.07,0,5.9-0.2c0-3.87-0.2-12.82-2.85-17.5
			c-2.85,0.81-7.33,12.62-8.75,17.5C584.99,144.98,587.03,144.98,588.86,144.98z"/>
		<path class="st5" d="M652.35,103.67c0-1.63,0.2-4.27,2.04-4.27c5.7,0,21.98,20.15,21.98,48.44c0,12.41-5.7,27.27-15.67,27.27
			c-11.8,0-24.22-37.85-27.07-37.85c-0.41,0-1.02,0.61-1.42,2.24c-0.61,2.44-1.02,23.81-2.04,30.12c-0.61,2.85-1.63,9.57-6.1,9.57
			c-6.51,0-7.94-11.19-7.94-16.08c0-10.58,5.29-48.03,14.04-48.03c6.11,0,18.32,25.44,29.1,38.87c0.81,0.81,1.22,1.63,1.42,1.63
			c1.22,0,1.22-1.83,1.22-5.29c0-18.72-3.87-24.22-8.95-43.35l-0.61-2.44V103.67z"/>
		<path class="st5" d="M680.84,116.7c0-4.68,3.46-7.33,10.38-8.75c2.44-0.2,4.48-0.2,6.72-0.2c19.74,0,35.41,7.73,47.42,23.2
			c5.09,7.94,6.31,11.6,6.31,19.13c0,17.1-20.55,30.12-39.07,30.12h-1.22c-0.81,1.83-2.65,3.46-5.49,5.09h-1.63
			c-5.09,0-7.33-2.65-7.33-8.14v-0.81c-9.16-5.9-13.64-11.6-13.64-17.3c0-2.85,0.81-5.5,2.44-8.14c2.24,3.05,5.49,5.29,9.77,7.33
			c-0.2-2.24-0.2-4.07-0.2-6.11c0-16.08,3.87-24.01,11.6-24.01h1.42c1.02,6.92,1.02,15.87,1.02,22.79v12.82
			c2.85,1.22,6.51,1.22,8.55,1.22c13.23,0,19.74-3.87,19.74-11.4c0-4.88-2.85-11.4-8.75-19.54c-9.77-11.8-22.59-17.71-38.26-17.71
			h-2.44l-4.48,6.31l-2.65-3.66C680.84,118.12,680.84,117.31,680.84,116.7z"/>
	</g>
	<g class="st4">
		<path class="st5" d="M502.93,229.02v9.54h-4.35v-26.31h7.98c3.02,0,5.36,0.7,7.03,2.11c1.66,1.41,2.49,3.39,2.49,5.94
			s-0.87,4.65-2.6,6.27c-1.74,1.63-4.08,2.44-7.04,2.44H502.93z M502.93,215.84v9.61h2.83c1.87,0,3.3-0.43,4.27-1.3
			c0.98-0.87,1.47-2.09,1.47-3.67c0-3.09-1.8-4.64-5.39-4.64H502.93z"/>
		<path class="st5" d="M570.89,238.56h-4.79l-2.37-6.7h-10.35l-2.27,6.7h-4.77l9.85-26.31h4.92L570.89,238.56z M562.58,228.3
			l-3.65-10.49c-0.11-0.34-0.23-0.89-0.35-1.65h-0.07c-0.11,0.7-0.23,1.25-0.37,1.65l-3.61,10.49H562.58z"/>
		<path class="st5" d="M624.88,238.56h-5.1l-4.2-7.04c-0.38-0.65-0.75-1.2-1.11-1.66s-0.73-0.83-1.1-1.13
			c-0.37-0.29-0.78-0.51-1.22-0.64c-0.44-0.13-0.94-0.2-1.49-0.2h-1.76v10.68h-4.35v-26.31h8.66c1.24,0,2.37,0.15,3.41,0.44
			c1.04,0.29,1.94,0.74,2.72,1.33c0.77,0.59,1.37,1.33,1.81,2.22c0.43,0.89,0.65,1.92,0.65,3.11c0,0.93-0.14,1.78-0.41,2.56
			c-0.28,0.78-0.67,1.47-1.17,2.07c-0.51,0.61-1.12,1.12-1.83,1.55c-0.72,0.43-1.52,0.76-2.41,0.99v0.07
			c0.48,0.27,0.89,0.57,1.25,0.89c0.35,0.32,0.69,0.66,1.01,1c0.32,0.34,0.63,0.73,0.94,1.16c0.31,0.43,0.66,0.94,1.04,1.51
			L624.88,238.56z M608.91,215.79v8.55h3.63c0.67,0,1.29-0.1,1.86-0.31c0.57-0.21,1.06-0.51,1.48-0.9c0.42-0.39,0.74-0.87,0.97-1.43
			s0.35-1.19,0.35-1.89c0-1.26-0.4-2.24-1.19-2.95c-0.79-0.71-1.94-1.06-3.43-1.06H608.91z"/>
		<path class="st5" d="M662.48,238.56h-4.49v-26.31h4.49V238.56z"/>
		<path class="st5" d="M697.8,237.51v-4.49c0.4,0.37,0.88,0.7,1.44,0.99c0.56,0.29,1.15,0.54,1.77,0.74
			c0.62,0.2,1.25,0.36,1.87,0.47c0.62,0.11,1.2,0.17,1.72,0.17c1.83,0,3.2-0.31,4.1-0.92c0.9-0.61,1.35-1.5,1.35-2.66
			c0-0.62-0.15-1.16-0.45-1.62s-0.72-0.88-1.26-1.26c-0.54-0.38-1.17-0.74-1.9-1.09s-1.51-0.71-2.34-1.09
			c-0.89-0.48-1.72-0.96-2.49-1.45c-0.77-0.49-1.44-1.03-2.01-1.62c-0.57-0.59-1.02-1.26-1.34-2.01c-0.32-0.75-0.49-1.62-0.49-2.62
			c0-1.24,0.28-2.31,0.83-3.22c0.56-0.91,1.29-1.66,2.2-2.26c0.91-0.59,1.95-1.03,3.11-1.32c1.16-0.29,2.35-0.43,3.56-0.43
			c2.75,0,4.76,0.31,6.02,0.94v4.31c-1.49-1.08-3.41-1.61-5.76-1.61c-0.65,0-1.29,0.06-1.94,0.18c-0.64,0.12-1.22,0.32-1.72,0.61
			c-0.51,0.28-0.92,0.64-1.24,1.08c-0.32,0.44-0.48,0.97-0.48,1.6c0,0.59,0.12,1.09,0.37,1.52c0.24,0.43,0.6,0.82,1.07,1.17
			s1.05,0.7,1.72,1.04c0.68,0.34,1.46,0.7,2.36,1.09c0.92,0.48,1.78,0.98,2.6,1.5c0.81,0.53,1.53,1.11,2.15,1.74
			c0.62,0.64,1.11,1.34,1.47,2.12c0.36,0.78,0.54,1.66,0.54,2.65c0,1.33-0.27,2.46-0.81,3.38s-1.26,1.66-2.17,2.24
			c-0.91,0.57-1.96,0.99-3.15,1.25s-2.44,0.39-3.76,0.39c-0.44,0-0.98-0.03-1.62-0.1c-0.64-0.07-1.3-0.17-1.97-0.29
			c-0.67-0.13-1.31-0.28-1.91-0.47C698.65,237.95,698.17,237.74,697.8,237.51z"/>
	</g>
</g>
<g id="Layer_6" class="st0">
	<path class="st1" d="M92.24,44.68C30.82,41.06,7.34,23,7.34,23c0.9,51.48,62.32,42.45,56.9,44.26
		C51.19,71.61,42.57,107,44.37,121.45c1.81,14.45,5.42,61.42,0,66.84s-30.71,19.87-30.71,19.87c50.58-7.23,72.26,10.84,76.77,9.94
		c23.1-4.62,46.97-56,50.58-68.64C144.63,136.8,153.66,48.29,92.24,44.68z M102.18,195.51c-1.81-3.61-41.55-10.84-41.55-10.84
		c14.45-10.84,10.84-46.97,9.03-74.06c-1.81-27.1,5.42-39.74,5.42-39.74c32.52,0,34.32,32.52,39.74,65.03
		S103.99,199.13,102.18,195.51z"/>
	<path class="st1" d="M148.24,91.64l18.06-14.45c0,0,10.84,16.26,10.84,30.71s0,43.35,0,48.77s3.61,23.48,9.03,23.48
		s-16.26,14.45-16.26,14.45s-12.64-9.03-12.64-23.48c0-14.45,2.71-46.06,0.9-56.9S152.76,97.97,148.24,91.64z"/>
	<path class="st1" d="M147.34,60.03l18.06-14.45c0,0,5.42,10.84,16.26,9.03C192.5,52.81,165.4,88.93,147.34,60.03z"/>
	<path class="st1" d="M233.14,113.32l18.06-12.64c0,0-6.56-23.48-28.9-23.48c-7.23,0-21.68,14.45-27.1,21.68
		c-5.42,7.23-18.06,32.52,7.23,41.55c25.29,9.03,32.24,20.42,25.29,34.32c-1.81,3.61-13.55-2.71-18.97-17.16l-18.06,10.84
		c0,0,4.63,17.2,23.48,23.48c5.42,1.81,28.9-16.26,32.52-18.06s9.03-23.48,0-34.32c-9.03-10.84-37.93-18.06-37.93-25.29
		c0-7.23-1.81-16.26,1.81-18.06C214.18,94.35,226.82,97.97,233.14,113.32z"/>
	<path class="st1" d="M251.21,91.64c0,0,9.03,10.84,7.23,28.9s0,32.52,0,37.93s-0.15,34.32,10.84,34.32
		c1.81,0,19.87-14.45,19.87-14.45s-8.13-6.32-8.13-20.77c0-14.45-1.81-52.39-1.81-52.39l10.84-9.03c0,0,9.03,1.81,9.03,19.87
		s0,36.13,0,41.55s1.81,34.32,12.64,37.93l18.06-16.26c0,0-7.23-5.42-7.23-18.06c0-12.64,0-45.16,0-50.58
		c0-5.42-9.03-32.52-19.87-32.52l-21.68,16.26c0,0-6.93-16.26-12.65-16.26C266.56,78.1,251.21,91.64,251.21,91.64z"/>
	<path class="st1" d="M353.27,146.74l37.93-30.71L371.34,78.1c0,0-27.78,12.78-29.81,18.97c-31.61,96.64,28.9,95.74,28.9,95.74
		l23.48-19.87C353.27,173.84,353.27,146.74,353.27,146.74z M355.08,96.16l16.26,25.29l-19.87,16.26
		C347.85,117.84,355.08,96.16,355.08,96.16z"/>
	<path class="st1" d="M390.3,95.26l16.26-14.45c0,0,12.64,5.42,12.64,23.48s0,32.52,0,37.93c0,5.42,1.81,28.9,9.03,32.52
		s10.84-19.87,10.84-25.29s0-28.9,0-36.13c0-7.23-3.61-12.64-7.23-18.06C428.24,89.84,446.3,79,446.3,79s14.45,7.23,14.45,28.9
		s0,41.55,0,46.97s7.23,48.77,3.61,54.19s-10.84,18.06-32.52,19.87s-65.03-12.65-37.93-43.35l13.55,15.35
		c0,0-5.42,23.48,18.06,21.68c23.48-1.81,18.06-12.65,18.06-18.06s-3.61-27.1-3.61-27.1l-18.06,16.26c0,0-27.1-5.42-25.29-30.71
		S402.05,105.19,390.3,95.26z"/>
	<path class="st1" d="M467.98,44.68l16.26-10.84c0,0,14.45,9.03,14.45,21.68s0,75.87,0,84.9c0,9.03-1.81,32.52,7.23,37.93
		l-16.26,14.45c0,0-14.45-9.03-12.64-28.9s-0.9-87.61-0.9-93.03C476.11,65.45,474.3,52.81,467.98,44.68z"/>
	<path class="st1" d="M570.95,149.45c0-5.42,1.81-39.74,1.81-50.58s-27.1-27.1-27.1-27.1l-27.1,19.87
		c-31.61,84,13.55,98.45,13.55,98.45l18.97-18.97c0,9.03,18.06,18.06,18.06,18.06l14.45-16.26
		C569.14,171.13,570.95,154.87,570.95,149.45z M542.95,166.61c-28.56,0-12.64-75.87-12.64-75.87c7.23-1.81,18.06,7.23,18.06,10.84
		s1.81,56,1.81,59.61S544.75,166.61,542.95,166.61z"/>
	<path class="st1" d="M585.4,91.64L603.46,79c0,0,10.84,9.03,10.84,16.26L635.98,79c0,0,18.06,7.23,19.87,25.29
		c1.81,18.06,0,37.93,0,46.97s0,23.48,9.03,27.1l-18.06,14.45c0,0-11.74-2.71-11.74-26.19s0-46.97,0-52.39s-5.42-18.06-7.23-18.06
		c-1.81,0-10.84,9.03-10.84,9.03s0,46.97,0,52.39s0,16.26,5.42,19.87l-14.45,16.26c0,0-16.26-12.64-14.45-27.1
		c1.81-14.45,0-41.55,0-48.77C593.53,110.61,591.72,94.35,585.4,91.64z"/>
	<path class="st1" d="M735.33,144.03c0-32.52-0.9-56.9-0.9-65.93s3.51-45.16-12.64-45.16c-1.81,0-19.87,14.45-19.87,14.45
		s12.64,5.42,12.64,19.87s-2.71,18.97-2.71,18.97L704.62,79l-23.48,16.26c0,0-34.32,72.26,16.26,97.55
		c3.61,1.81,16.26-16.26,16.26-16.26s9.03,18.06,16.26,18.06l18.06-16.26C747.98,178.35,735.33,176.55,735.33,144.03z
		 M703.72,173.84c0,0-29.07-10.18-12.64-75.87c1.81-7.23,21.68,16.26,21.68,16.26l1.81,48.77L703.72,173.84z"/>
	<g class="st4">
		<path class="st5" d="M580.11,211.26v8.71h-3.97v-24.03h7.29c2.76,0,4.9,0.64,6.42,1.93c1.52,1.28,2.28,3.09,2.28,5.43
			c0,2.33-0.79,4.24-2.38,5.73c-1.59,1.49-3.73,2.23-6.44,2.23H580.11z M580.11,199.23v8.78h2.58c1.71,0,3.01-0.4,3.91-1.19
			c0.89-0.79,1.34-1.91,1.34-3.35c0-2.83-1.64-4.24-4.93-4.24H580.11z"/>
		<path class="st5" d="M635.71,219.98h-3.77v-2.68h-0.07c-1.18,2.06-2.92,3.08-5.21,3.08c-1.69,0-3.01-0.46-3.96-1.37
			c-0.96-0.92-1.43-2.13-1.43-3.64c0-3.24,1.87-5.13,5.6-5.67l5.09-0.72c0-2.45-1.16-3.67-3.49-3.67c-2.05,0-3.89,0.7-5.53,2.11
			v-3.4c1.81-1.07,3.9-1.61,6.27-1.61c4.33,0,6.5,2.13,6.5,6.4V219.98z M631.96,211.55l-3.6,0.5c-1.12,0.15-1.96,0.42-2.52,0.81
			c-0.56,0.4-0.85,1.09-0.85,2.09c0,0.73,0.26,1.32,0.78,1.79c0.52,0.46,1.22,0.7,2.09,0.7c1.18,0,2.16-0.42,2.94-1.25
			c0.78-0.83,1.17-1.88,1.17-3.14V211.55z"/>
		<path class="st5" d="M677.87,206.52c-0.47-0.37-1.15-0.55-2.03-0.55c-1.15,0-2.11,0.52-2.88,1.56c-0.77,1.04-1.16,2.45-1.16,4.24
			v8.21h-3.89v-17.16h3.89v3.54h0.07c0.38-1.21,0.96-2.15,1.75-2.82c0.79-0.68,1.67-1.01,2.64-1.01c0.7,0,1.24,0.11,1.61,0.32
			V206.52z"/>
		<path class="st5" d="M723.64,219.98h-4.93l-6.67-8.25h-0.07v8.25h-3.91v-25.41h3.91v16.11h0.07l6.3-7.86h4.67l-7.09,8.28
			L723.64,219.98z"/>
	</g>
</g>
<g id="Layer_7">
	<g>
		<path class="st5" d="M66.37,109.1c2.26,0,5.32,0.93,7.05,2.66c12.77,10.51,22.21,30.86,22.08,47.75
			c0,40.83-28.33,59.58-45.09,59.58c-5.85,0-10.37-2.79-13.7-5.59c-1.6-1.6-2.93-2.93-3.86-4.39c-0.67-1.46-1.33-2.53-1.33-3.06
			c-3.46,1.46-7.45,2.39-11.17,2.39C5.59,208.45,0,195.29,0,182.38c0-11.3,2.93-23.27,7.98-33.65c5.19-10.64,12.77-19.95,21.94-26.2
			c1.86-1.46,4.52-3.06,6.25-3.06c1.2,0,2,0.67,2,1.6c0,1.46-1.46,2.26-2,2.79c-15.16,15.56-25.4,38.57-25.4,60.65
			c0,8.11,2.26,18.22,11.17,18.22c2.66,0,5.59-0.8,7.18-2.66c-2-11.04-2.53-20.48-2.26-22.08c0-5.59,0.67-10.37,2.66-14.36
			c1.86-3.86,3.86-7.05,6.25-9.71c2.79-2.53,5.45-4.12,7.98-5.32c2.53-1.2,4.79-1.86,6.38-1.86c8.38,0,11.04,10.77,11.04,17.29
			c0,12.5-7.05,24.87-20.48,36.31c1.86,5.05,5.45,7.58,11.84,7.58c3.19,0,6.52-1.2,10.24-3.86c3.59-2.13,6.92-5.85,9.97-10.64
			c3.19-4.79,5.59-10.91,7.71-17.82c2-7.18,2.93-15.29,2.93-24.6c0-15.03-6.12-31.52-17.29-41.1L66.37,109.1z M39.5,190.76
			c3.99-4.92,6.65-9.71,8.38-14.36c1.6-4.92,2.39-9.84,2.39-15.29c0-3.46-0.13-9.04-3.06-9.04c-6.25,0-8.51,27.13-8.51,32.85v3.46
			C38.83,189.7,38.97,190.36,39.5,190.76z M114.11,158.98c0.27-0.67,0.67-0.8,0.93-0.8h1.33c0.93,0,1.86,0.67,2.53,1.33
			c0.67,1.06,1.33,1.99,1.46,2.93c0.67,2.13,2.93,8.64,3.59,12.5c1.6,11.57,2.66,17.82,2.66,28.33v4.92
			c-0.13,0.93-0.13,1.73-0.27,2.53c-0.4,0.27-1.06,0.4-1.46,0.4c-2.66,0-4.65-2.66-6.12-6.25l-0.53-7.85h-4.52
			c-4.39,0-6.12-0.13-7.18-0.13c-0.4,0-0.8,0.13-0.8,0.13c-1.06,0.4-1.73,1.6-2.53,3.99c-0.67,2.26-1.46,4.39-2.26,6.92l-1.46,3.72
			c-0.53,0.93-1.86,1.06-3.19,1.06c-0.93,0-1.6,0-2.66-0.27c-1.99-1.99-2.79-3.59-2.79-6.65s1.46-7.05,3.99-11.44
			c0-2.13-1.2-4.39-4.12-4.66l0.13-2.66h6.65c1.86-4.52,6.65-13.83,9.84-18.75l6.38-7.71L114.11,158.98z M109.32,186.51
			c0.67,0.13,1.33,0.13,1.86,0.13h3.72c0.67,0,1.46,0,2-0.13c0-2.53-0.13-8.38-1.86-11.3C113.18,175.74,110.52,183.18,109.32,186.51
			z M141.77,160.84c1.73,0,2.13,1.06,2.13,2.79c0,2.53-0.27,4.39-0.67,6.38c-0.4,1.73-1.06,3.86-1.6,5.85
			c-1.33,4.26-2.79,9.44-3.86,18.75v0.67c0,1.2,0.4,2.13,1.33,2.13c1.86,0,4.79-1.73,9.04-3.06c2-0.8,4.52-2.13,5.85-2.13
			c0.93,0,1.2,0.4,1.2,1.2c0.27,0.8,0.4,1.33,0.4,1.99c0,5.85-10.11,14.36-16.49,14.36c-8.65,0-9.97-8.78-9.97-15.69
			c0-10.11,5.72-25,8.51-30.46C138.45,162.44,139.25,161.9,141.77,160.84z M170.77,223.35c-1.33,0.93-1.86,1.2-3.86,1.2
			c-1.2,0-2.53-0.4-3.86-1.46c-1.33-0.93-2.13-1.73-2.79-2.79c-1.06-1.73-1.86-3.86-1.99-6.38c-0.27-2.66-0.27-4.92-0.27-7.05
			c0-11.44,2-20.88,4.39-27.8c-9.18-3.72-13.83-8.11-13.83-13.03c0-0.93,0.13-2.13,0.67-3.46c0.27-1.33,1.06-2.13,2-2.53
			c1.06,0,1.2,2,1.2,3.33c0,0.4,0.27,0.67,0.53,0.67c4.65,3.86,8.91,4.92,14.36,5.72c2.39-2,6.38-7.85,13.03-7.71
			c3.46,0,9.18,1.06,9.18,10.64c0.13,7.58-10.91,8.78-15.69,8.78h-0.67c-2.39,8.78-2.79,18.35-2.79,27.4
			C170.37,214.04,170.5,218.83,170.77,223.35z M175.95,170.81c0.66,0.13,1.2,0.27,2.26,0.27c2.13,0,5.98-1.6,5.98-3.19
			c0-1.2-0.67-2.13-1.86-2.13c-1.46,0-2.66,0.4-4.12,1.2C176.75,167.89,176.09,169.08,175.95,170.81z M186.46,129.45
			c-0.8,0-1.86,0.27-3.46,0.27c-1.33,0-2.79-0.13-4.12-0.4c-1.46-0.4-2.13-0.8-2.13-1.86c0-12.1,21.41-12.63,30.59-12.63
			c6.25,0,12.77,0.8,19.95,2.39c7.05,1.73,14.1,3.59,20.61,5.98c9.84,3.19,25.14,11.7,37.64,21.94
			c12.63,9.98,22.48,23.14,22.48,36.57c0,6.38-1.6,11.44-4.52,16.23c-2.66,4.39-6.65,8.11-11.57,11.04
			c-4.52,3.06-10.11,5.19-16.09,6.65s-12.1,2.13-18.22,2.13c-6.25,0-13.3-0.93-19.28-2c-0.53,1.46-0.93,2.66-1.73,5.59
			c-1.6,0.53-2.79,0.67-4.66,0.67l-3.06-0.27c-2-2.39-2.53-6.25-3.59-10.51c-12.37-7.05-19.95-13.03-23.54-17.29
			c-1.46-1.46-3.06-3.46-4.52-5.45c-1.46-2-2.26-4.12-2.26-6.12s1.6-4.12,4.52-5.98c3.19-2.39,7.05-4.12,11.17-5.72
			c4.26-1.33,9.71-2.66,16.23-3.86l0.27-5.45c0-0.53,0.53-4.65,1.2-8.78c0.67-3.72,1.86-7.98,3.46-9.44
			c4.92,3.86,5.59,8.25,5.85,14.1c0.13,2.79,0.4,5.59,0.8,8.51h1.73c9.04,0,37.77,2.26,37.77,15.83c0,3.19-4.52,9.18-9.04,9.18
			c-1.73,0-4.65-0.53-6.12-1.6c1.2-1.06,2.26-2.26,3.46-3.33c1.2-0.93,2.26-2,2.39-2.93c-2.66-2.93-17.16-6.65-27.4-6.65
			c-1.86,0-2.53,0.13-3.59,0.53l0.13,28.73c2.13,1.46,4.52,2.26,6.78,2.66c2.53,0.27,4.12,0.4,5.85,0.4
			c7.45,0,19.02-0.67,28.19-4.39c9.44-3.59,17.16-10.11,17.16-22.08c0-23.41-30.06-41.36-52.4-50.14
			c-7.85-3.06-15.69-5.32-23.54-6.92c-7.71-1.6-15.96-2.13-24.87-2.13c-3.46,0-7.18,0.27-10.77,1.06c-2.13,0.4-3.19,1.06-3.19,1.73
			c0,0.8,4.65,1.33,5.19,1.73c0.53,0.27,0.66,0.53,0.66,1.06C186.86,128.79,186.86,129.19,186.46,129.45z M225.03,176.8
			c-11.44,1.06-26.47,2.26-26.6,6.92c0,3.32,6.25,7.85,9.97,10.77c4.39,3.59,10.51,6.65,16.76,8.25l1.2-25.93H225.03z
			 M339.27,129.45h0.53c2,0,7.45,2.39,7.45,7.18c0,2.66-1.06,5.32-2.79,7.98c-2,2.66-4.26,5.05-7.18,7.05
			c-2.66,1.99-5.45,3.72-8.65,5.05c-2.93,1.33-5.59,2.13-7.85,2.13c-2.79,0-5.98-0.4-8.51-1.2c-1.33,1.73-1.86,3.06-3.86,3.46
			c-1.6-0.4-2.93-2.93-3.46-5.98c0-0.53,0.27-1.46,0.53-2.13c-2.13-2.66-3.46-4.79-3.46-7.85c0-8.78,13.03-20.61,25.93-20.88
			C333.82,124.27,338.34,126.53,339.27,129.45z M308.42,145.15c0.13,0.13,0.27,0.13,0.53,0.13c0.27,0,0.53,0,0.67-0.13
			c1.86-2.39,7.31-7.98,10.51-10.77v-0.13c0-0.4-0.13-0.53-0.13-0.67c-3.72,0.8-6.12,2.13-8.25,4.39
			C309.75,140.09,308.68,142.49,308.42,145.15z M315.86,166.42c2.53,0.13,4.12,0.8,4.52,2c0.8,1.33,1.33,3.46,1.33,5.99
			c0.13,10.77,1.33,22.21,1.33,32.85c0,1.06-0.27,2.13-0.8,3.19c-0.53,0.93-1.73,1.46-3.46,1.46c-0.93,0-2.66-0.53-3.72-0.8
			c-1.6-0.4-2.53-5.85-2.53-7.05v-3.99c0-3.46,0.13-4.66,0.4-10.11c0.13-1.86,0.4-9.04,2.13-22.48
			C315.07,166.69,315.47,166.42,315.86,166.42z M316.4,149.93c0,0.4,0.8,1.06,1.06,1.06h2.93c7.05,0,20.35-4.66,20.35-12.9
			c0-0.93-0.13-1.6-0.27-2.13c-0.27-0.8-1.33-1.06-3.06-1.06C329.7,134.91,321.85,142.35,316.4,149.93z M334.88,178.13
			c-0.13,0.13-0.27,0.13-0.27,0.27c0,0.27,0.13,0.4,0.27,0.4c2.53,0.93,4.92,1.6,6.78,2.26c1.86,0,4.26,0.27,6.92,0.53
			c2.26,0.13,4.92,0.27,7.45,0.53c2.66,0.13,5.05,0.8,7.32,1.73c1.99,0.8,3.86,2.13,5.32,3.86c1.6,1.86,2.39,3.99,2.39,7.32
			c0,3.59-0.93,6.52-2.53,8.64c-1.73,1.86-3.72,3.33-5.99,4.39c-2.26,1.06-4.39,1.6-6.65,1.86c-2.26,0.27-3.86,0.4-4.92,0.4
			c-11.44,0-21.55-7.45-21.55-12.9c0-6.38,6.92-8.11,12.24-8.11c5.19,0,11.84,1.06,17.16,3.99c0.27,0.13,0.27,0.53,0.27,0.67
			c0,0.27,0,0.53-0.27,0.67c-0.53,0.67-1.33,1.2-2.79,1.86c-1.2,0.67-2.93,0.8-4.65,0.8c-3.86,0-9.31-3.19-14.5-3.19
			c-1.06,0-1.86,0.27-2.66,0.53c-0.93,0.53-1.46,1.33-1.46,2.79c0,3.59,5.98,3.59,10.77,3.59c0.53,0,1.99-0.13,4.39-0.4
			c2.39-0.4,4.65-0.8,7.18-1.33c2.39-0.67,4.39-1.33,6.38-2.26c2-0.93,3.06-2,3.06-3.19c0-4.79-14.1-6.78-19.82-7.05
			c-15.43,0-17.16-1.73-17.16-7.45c0-12.5,25.27-13.43,26.6-13.43c6.38,0,12.24,1.2,16.62,2.13c1.06,0.27,1.6,0.67,1.6,2.13
			c-0.27,1.46-1.6,2.39-3.06,3.06c-0.93,0.4-3.06,0.67-4.26,0.67c-4.66,0.8-18.49,1.46-22.61,2.13
			C337.94,176.8,336.08,177.06,334.88,178.13z M398.19,162.04c0-1.2,0.27-2.79,1.33-2.79c2,0,5.72,3.19,8.91,8.78
			c3.06,5.72,5.59,13.57,5.59,22.88c0,8.11-3.59,18.09-10.24,18.09c-7.58,0-15.83-25.14-17.69-25.14c-0.27,0-0.67,0.67-1.06,1.46
			c-0.27,1.73-0.4,15.96-1.33,19.95c-0.13,1.73-1.06,6.25-3.86,6.25c-4.39,0-5.19-7.45-5.19-10.37c-0.27-7.31,3.46-31.65,9.04-31.65
			c1.06,0,2.39,0.67,3.86,2.79c1.46,1.6,3.06,3.99,4.79,6.52c1.6,2.53,3.19,5.45,5.19,8.38c1.73,2.93,3.59,5.45,5.45,7.71
			c0.67,0.8,0.93,1.06,0.8,1.06c0.8,0,0.93-0.8,0.93-2.26v-1.2c0-11.97-2.66-15.83-5.85-28.46l-0.67-1.46V162.04z M447.93,202.73
			c0,0.93-0.27,1.6-0.8,1.99c-3.59,2.93-11.84,9.18-20.61,9.18c-3.72,0-6.25-1.2-8.11-3.59c-1.73-2.13-2.53-4.79-2.53-7.58
			c0-3.06,1.99-7.32,3.32-11.57c-0.4-1.33-1.06-1.86-1.06-3.46c0-1.06,0.27-1.6,0.67-2.53c1.06-0.53,2.39-1.06,3.46-1.2l3.06-7.18
			c-3.06-1.46-7.45-3.06-7.45-6.12c0-1.33,1.2-1.86,3.46-1.99c5.72-0.4,12.1-2.66,23.14-2.66c1.33,0,2.66,0,5.45,0.93
			c0.53,0.8,1.6,1.73,2.53,2.79c1.06,1.2,1.6,2.66,1.6,3.72c0,1.2-4.52,3.06-7.05,3.06c-2.93,0.13-4.79,0.27-6.12,0.27h-4.66
			c-0.93,0-1.6,0-1.86,0.13c-0.53,0.67-1.86,2.26-1.86,5.45c0,0.67,0.4,1.46,1.33,1.46h9.97l2,0.27c0.67,0.93,0.8,2.66,0.8,3.99
			c0,1.06-0.27,2.93-1.6,3.06c-2.53,0-8.38,0.27-15.29,0.27c-0.27,0-0.53,0.27-0.8,0.8c-0.53,2.93-1.73,5.85-3.19,8.91
			c0.8,0,5.85-1.33,14.36-2.13c1.46-0.13,3.06-0.27,4.65-0.27c0.67,0,1.46,0.53,2.13,1.33C447.66,201,447.93,201.94,447.93,202.73z
			 M454.58,250.74c-2.53-0.4-4.92-1.46-6.25-3.46c-1.73-1.99-2.79-4.39-2.79-7.31c0-2.53,2.39-16.89,9.71-34.71
			c-1.46-3.06-2.53-6.65-2.53-9.84c0-3.46,0.93-7.05,2.26-10.51c1.33-3.72,3.06-6.78,4.79-9.58c2-2.93,3.59-5.32,5.45-7.31
			c1.73-1.73,2.93-2.79,3.46-2.79c2.13,0.27,2.39,1.33,2.39,3.59c0,1.33-0.67,2.66-1.46,3.99c-0.93,1.33-2.26,3.86-4.39,6.78
			c-1.2,1.6-2.26,3.72-3.19,6.25c-1.2,2.39-2,4.92-2,7.18c0,0.67,0,1.33,0.53,1.73h0.27c0,0,0.27-0.13,0.4-0.53
			c1.6-2.26,3.46-4.52,5.85-7.32c2.39-2.93,4.65-5.59,7.05-7.98c2.66-2.39,5.05-4.79,7.45-6.52c2.26-1.86,4.26-2.79,5.99-2.79
			c6.92,0,8.78,11.44,8.78,16.62c0,3.86-1.06,7.45-3.46,10.77c-1.86,3.32-4.39,6.25-7.45,8.51c-3.19,2.66-6.25,4.39-9.58,5.72
			c-3.19,1.46-6.12,1.99-8.25,1.99c-0.8,0-1.86,0.13-2.93,0.27c-5.32,15.16-6.25,21.68-9.71,36.17L454.58,250.74z M471.34,201.94
			c4.65-0.67,8.91-2.66,13.03-6.25c3.99-3.46,5.72-7.58,5.72-13.3c0-0.67,0-1.33-0.27-2.26c0-0.8-0.53-1.46-1.33-1.46
			c-2.39,0-7.18,6.12-9.31,8.64C477.72,189.43,472.53,199.67,471.34,201.94z"/>
	</g>
	<g>
		<path class="st5" d="M578.43,154.04v1.52c-1.45,0-2.62,0.26-3.53,0.78s-1.76,1.49-2.58,2.91c-0.55,0.96-1.41,3.24-2.58,6.85
			l-15.5,44.83h-1.64l-12.67-35.56l-12.59,35.56h-1.48l-16.53-46.18c-1.23-3.45-2.01-5.48-2.34-6.11c-0.55-1.04-1.29-1.81-2.23-2.32
			s-2.22-0.76-3.84-0.76v-1.52h20.59v1.52h-0.98c-1.45,0-2.56,0.33-3.32,0.98s-1.15,1.45-1.15,2.38c0,0.96,0.6,3.16,1.8,6.6
			l10.95,31.21l9.23-26.54l-1.64-4.68l-1.31-3.73c-0.57-1.37-1.22-2.57-1.93-3.61c-0.36-0.52-0.79-0.96-1.31-1.31
			c-0.68-0.49-1.37-0.85-2.05-1.07c-0.52-0.16-1.34-0.25-2.46-0.25v-1.52h21.66v1.52h-1.48c-1.53,0-2.65,0.33-3.36,0.98
			s-1.07,1.54-1.07,2.67c0,1.39,0.62,3.83,1.85,7.3l10.66,30.23l10.58-30.64c1.2-3.39,1.8-5.74,1.8-7.05c0-0.63-0.2-1.22-0.59-1.76
			c-0.4-0.55-0.9-0.93-1.5-1.15c-1.04-0.38-2.39-0.57-4.06-0.57v-1.52H578.43z"/>
		<path class="st5" d="M593.36,170.98c5.69,0,10.25,2.16,13.7,6.48c2.93,3.69,4.39,7.93,4.39,12.71c0,3.36-0.81,6.77-2.42,10.21
			s-3.83,6.04-6.66,7.79s-5.98,2.62-9.46,2.62c-5.66,0-10.16-2.26-13.49-6.77c-2.82-3.8-4.22-8.07-4.22-12.8
			c0-3.45,0.86-6.87,2.56-10.27c1.71-3.4,3.96-5.92,6.75-7.55S590.25,170.98,593.36,170.98z M592.09,173.65
			c-1.45,0-2.91,0.43-4.37,1.29c-1.46,0.86-2.65,2.37-3.55,4.53s-1.35,4.94-1.35,8.33c0,5.47,1.09,10.19,3.26,14.15
			s5.04,5.95,8.59,5.95c2.65,0,4.84-1.09,6.56-3.28s2.58-5.95,2.58-11.28c0-6.67-1.44-11.92-4.31-15.75
			C597.58,174.96,595.1,173.65,592.09,173.65z"/>
		<path class="st5" d="M627.98,170.98v8.45c3.14-5.63,6.37-8.45,9.68-8.45c1.5,0,2.75,0.46,3.73,1.37s1.48,1.98,1.48,3.18
			c0,1.07-0.36,1.97-1.07,2.71s-1.56,1.11-2.54,1.11c-0.96,0-2.03-0.47-3.22-1.42s-2.07-1.42-2.65-1.42c-0.49,0-1.03,0.27-1.6,0.82
			c-1.23,1.12-2.5,2.97-3.81,5.54v18.01c0,2.08,0.26,3.65,0.78,4.72c0.36,0.74,0.98,1.35,1.89,1.85s2.2,0.74,3.9,0.74v1.48h-19.24
			v-1.48c1.91,0,3.34-0.3,4.27-0.9c0.68-0.44,1.16-1.13,1.44-2.09c0.14-0.46,0.21-1.79,0.21-3.98v-14.56c0-4.38-0.09-6.98-0.27-7.81
			c-0.18-0.83-0.51-1.44-0.98-1.83c-0.48-0.38-1.07-0.57-1.79-0.57c-0.85,0-1.8,0.21-2.87,0.62l-0.41-1.48l11.36-4.59H627.98z"/>
		<path class="st5" d="M657.88,151.33v49.83c0,2.35,0.17,3.91,0.51,4.68s0.87,1.35,1.58,1.74s2.04,0.59,3.98,0.59v1.48h-18.42v-1.48
			c1.72,0,2.9-0.18,3.53-0.53s1.12-0.94,1.48-1.76s0.53-2.39,0.53-4.72v-34.12c0-4.24-0.1-6.84-0.29-7.81s-0.5-1.63-0.92-1.99
			s-0.96-0.53-1.62-0.53c-0.71,0-1.61,0.22-2.71,0.66l-0.7-1.44l11.2-4.59H657.88z"/>
		<path class="st5" d="M694.84,205.43c-1.83,1.91-3.62,3.29-5.37,4.12s-3.64,1.25-5.66,1.25c-4.1,0-7.68-1.72-10.75-5.15
			s-4.59-7.84-4.59-13.23s1.7-10.32,5.09-14.79s7.75-6.71,13.08-6.71c3.31,0,6.04,1.05,8.2,3.16v-6.93c0-4.29-0.1-6.93-0.31-7.92
			s-0.53-1.65-0.96-2.01s-0.98-0.53-1.64-0.53c-0.71,0-1.65,0.22-2.83,0.66l-0.53-1.44l11.2-4.59h1.85v43.44
			c0,4.4,0.1,7.09,0.31,8.06s0.53,1.65,0.98,2.03s0.98,0.57,1.58,0.57c0.74,0,1.72-0.23,2.95-0.7l0.45,1.44l-11.16,4.63h-1.89
			V205.43z M694.84,202.56V183.2c-0.16-1.86-0.66-3.55-1.48-5.09s-1.91-2.69-3.26-3.47s-2.67-1.17-3.96-1.17
			c-2.41,0-4.55,1.08-6.44,3.24c-2.49,2.84-3.73,7-3.73,12.47c0,5.52,1.2,9.75,3.61,12.69s5.09,4.41,8.04,4.41
			C690.11,206.3,692.51,205.05,694.84,202.56z"/>
	</g>
	<g>
		<path class="st5" d="M511.29,263.53h-6.36l-8.07-11.14c-0.6,0.02-1.08,0.04-1.46,0.04c-0.15,0-0.32,0-0.49-0.01
			s-0.36-0.01-0.54-0.03v6.93c0,1.5,0.16,2.43,0.49,2.79c0.45,0.52,1.11,0.77,2,0.77h0.93v0.65h-10.21v-0.65h0.9
			c1.01,0,1.73-0.33,2.16-0.98c0.25-0.36,0.37-1.22,0.37-2.58v-15.4c0-1.5-0.16-2.43-0.49-2.79c-0.46-0.52-1.14-0.77-2.04-0.77h-0.9
			v-0.65h8.68c2.53,0,4.4,0.18,5.6,0.55s2.22,1.05,3.06,2.04s1.26,2.17,1.26,3.54c0,1.46-0.48,2.74-1.43,3.81s-2.43,1.84-4.44,2.29
			l4.92,6.84c1.12,1.57,2.09,2.61,2.9,3.13s1.86,0.84,3.16,0.98V263.53z M494.36,251.28c0.22,0,0.42,0,0.58,0.01s0.3,0.01,0.4,0.01
			c2.27,0,3.99-0.49,5.14-1.48s1.73-2.24,1.73-3.76c0-1.49-0.47-2.7-1.4-3.63s-2.17-1.4-3.7-1.4c-0.68,0-1.6,0.11-2.76,0.33V251.28z
			"/>
		<path class="st5" d="M531.09,241v9.42h5.24c1.36,0,2.27-0.21,2.72-0.62c0.61-0.54,0.95-1.49,1.02-2.85h0.65v8.3h-0.65
			c-0.16-1.16-0.33-1.9-0.49-2.23c-0.21-0.41-0.56-0.73-1.04-0.97s-1.22-0.35-2.21-0.35h-5.24v7.86c0,1.05,0.05,1.7,0.14,1.92
			s0.26,0.41,0.49,0.54s0.68,0.2,1.34,0.2h4.04c1.35,0,2.33-0.09,2.94-0.28s1.2-0.56,1.76-1.11c0.73-0.73,1.47-1.82,2.23-3.29h0.7
			l-2.06,5.98h-18.37v-0.65h0.84c0.56,0,1.1-0.13,1.6-0.4c0.38-0.19,0.63-0.47,0.76-0.84s0.2-1.14,0.2-2.3v-15.49
			c0-1.51-0.15-2.44-0.46-2.79c-0.42-0.47-1.12-0.7-2.11-0.7h-0.84v-0.65h18.37l0.26,5.22h-0.69c-0.25-1.25-0.52-2.12-0.82-2.58
			s-0.74-0.83-1.33-1.07c-0.47-0.18-1.29-0.26-2.48-0.26H531.09z"/>
		<path class="st5" d="M574.67,239.15v8.24h-0.65c-0.21-1.58-0.59-2.84-1.13-3.78s-1.32-1.68-2.33-2.23s-2.05-0.83-3.13-0.83
			c-1.22,0-2.23,0.37-3.02,1.12s-1.2,1.59-1.2,2.54c0,0.73,0.25,1.39,0.76,1.99c0.73,0.88,2.46,2.05,5.19,3.52
			c2.23,1.2,3.75,2.11,4.56,2.75s1.44,1.39,1.88,2.26s0.66,1.78,0.66,2.72c0,1.8-0.7,3.36-2.1,4.67s-3.2,1.96-5.41,1.96
			c-0.69,0-1.34-0.05-1.95-0.16c-0.36-0.06-1.12-0.27-2.26-0.64s-1.87-0.55-2.17-0.55c-0.29,0-0.52,0.09-0.69,0.26
			s-0.3,0.54-0.38,1.09h-0.65v-8.17h0.65c0.3,1.71,0.71,2.99,1.23,3.84s1.3,1.56,2.36,2.12s2.22,0.84,3.49,0.84
			c1.46,0,2.62-0.39,3.47-1.16s1.27-1.69,1.27-2.74c0-0.59-0.16-1.18-0.48-1.78s-0.82-1.15-1.5-1.67c-0.46-0.35-1.71-1.1-3.74-2.24
			s-3.49-2.05-4.35-2.73s-1.51-1.43-1.96-2.25s-0.67-1.72-0.67-2.71c0-1.71,0.66-3.18,1.97-4.42s2.98-1.85,5.01-1.85
			c1.27,0,2.61,0.31,4.03,0.93c0.66,0.29,1.12,0.44,1.39,0.44c0.3,0,0.55-0.09,0.75-0.27s0.35-0.55,0.47-1.1H574.67z"/>
		<path class="st5" d="M603.95,239.15c3.09,0,5.77,1.17,8.04,3.52s3.4,5.28,3.4,8.8c0,3.62-1.14,6.63-3.43,9.02s-5.05,3.59-8.3,3.59
			c-3.28,0-6.04-1.17-8.27-3.5s-3.35-5.35-3.35-9.05c0-3.79,1.29-6.87,3.87-9.26C598.15,240.19,600.83,239.15,603.95,239.15z
			 M603.61,240.43c-2.13,0-3.84,0.79-5.13,2.37c-1.61,1.97-2.41,4.85-2.41,8.65c0,3.89,0.83,6.88,2.5,8.98
			c1.28,1.59,2.96,2.39,5.06,2.39c2.24,0,4.09-0.87,5.55-2.62s2.19-4.5,2.19-8.26c0-4.08-0.8-7.12-2.41-9.12
			C607.67,241.23,605.89,240.43,603.61,240.43z"/>
		<path class="st5" d="M653.71,263.53h-6.36l-8.07-11.14c-0.6,0.02-1.08,0.04-1.46,0.04c-0.15,0-0.32,0-0.49-0.01
			s-0.36-0.01-0.54-0.03v6.93c0,1.5,0.16,2.43,0.49,2.79c0.45,0.52,1.11,0.77,2,0.77h0.93v0.65h-10.21v-0.65h0.9
			c1.01,0,1.73-0.33,2.16-0.98c0.25-0.36,0.37-1.22,0.37-2.58v-15.4c0-1.5-0.16-2.43-0.49-2.79c-0.46-0.52-1.14-0.77-2.04-0.77h-0.9
			v-0.65h8.68c2.53,0,4.4,0.18,5.6,0.55s2.22,1.05,3.06,2.04s1.26,2.17,1.26,3.54c0,1.46-0.48,2.74-1.43,3.81s-2.43,1.84-4.44,2.29
			l4.92,6.84c1.12,1.57,2.09,2.61,2.9,3.13s1.86,0.84,3.16,0.98V263.53z M636.78,251.28c0.22,0,0.42,0,0.58,0.01s0.3,0.01,0.4,0.01
			c2.27,0,3.99-0.49,5.14-1.48s1.73-2.24,1.73-3.76c0-1.49-0.47-2.7-1.4-3.63s-2.17-1.4-3.7-1.4c-0.68,0-1.6,0.11-2.76,0.33V251.28z
			"/>
		<path class="st5" d="M684.66,239.7l0.26,5.59h-0.67c-0.13-0.98-0.3-1.69-0.53-2.11c-0.36-0.68-0.85-1.18-1.45-1.5
			s-1.4-0.48-2.38-0.48h-3.36v18.21c0,1.46,0.16,2.38,0.47,2.74c0.45,0.49,1.13,0.74,2.06,0.74h0.83v0.65h-10.11v-0.65h0.84
			c1.01,0,1.72-0.3,2.14-0.91c0.26-0.38,0.39-1.23,0.39-2.57v-18.21h-2.87c-1.11,0-1.9,0.08-2.37,0.25
			c-0.61,0.22-1.13,0.65-1.56,1.28s-0.69,1.49-0.77,2.57h-0.67l0.28-5.59H684.66z"/>
	</g>
	<path class="st5" d="M682.66,105l-6-9c0,0-288-126-585-12c0,0,46.5-33.5,282.5-38.5C525.13,42.3,682.66,105,682.66,105z"/>
	<polygon class="st5" points="652.16,54.5 642.16,59.5 654.16,64.5 657.16,75.5 664.16,64.5 677.16,66.5 670.16,56.5 675.16,44.5 
		663.16,49.5 653.16,41.5 	"/>
	<polygon class="st5" points="702.58,99.36 688.14,96.13 696.27,111.29 690.16,125.08 706.53,119.65 718.2,132.57 719.38,116.46 
		734.54,108.32 718.05,103.42 714.47,86.85 	"/>
	<polygon class="st5" points="596.37,95.82 586.68,93.66 592.14,103.83 588.03,113.09 599.02,109.44 606.85,118.11 607.64,107.3 
		617.81,101.84 606.75,98.55 604.35,87.43 	"/>
	<polygon class="st5" points="541.54,29.61 535.72,28.31 539,34.41 536.54,39.97 543.13,37.78 547.83,42.98 548.3,36.49 
		554.41,33.22 547.76,31.24 546.33,24.57 	"/>
	<polygon class="st5" points="588.16,36.5 589.16,27.5 591.16,36.5 598.16,37.5 591.16,39.5 590.16,47.5 588.16,39.5 581.16,37.5 	
		"/>
	<polygon class="st5" points="497.23,26.51 497.73,22 498.73,26.51 502.24,27.01 498.73,28.02 498.23,32.03 497.23,28.02 
		493.72,27.01 	"/>
	<polygon class="st5" points="562.93,102.31 563.63,96 565.03,102.31 569.94,103.01 565.03,104.42 564.33,110.03 562.93,104.42 
		558.02,103.01 	"/>
	<polygon class="st5" points="514.93,75.31 515.63,69 517.03,75.31 521.94,76.01 517.03,77.42 516.33,83.03 514.93,77.42 
		510.02,76.01 	"/>
	<polygon class="st5" points="462.15,78.46 462.7,73.51 463.8,78.46 467.66,79.01 463.8,80.12 463.25,84.52 462.15,80.12 
		458.3,79.01 	"/>
	<polygon class="st5" points="443.23,4.51 443.73,0 444.73,4.51 448.24,5.01 444.73,6.02 444.23,10.03 443.23,6.02 439.72,5.01 	"/>
	<polygon class="st5" points="397.51,14.7 397.82,11.86 398.45,14.7 400.66,15.01 398.45,15.65 398.14,18.17 397.51,15.65 
		395.3,15.01 	"/>
	<polygon class="st5" points="310.51,67.7 310.82,64.86 311.45,67.7 313.66,68.01 311.45,68.65 311.14,71.17 310.51,68.65 
		308.3,68.01 	"/>
	<polygon class="st5" points="610.6,24.79 611.31,18.44 612.72,24.79 617.66,25.5 612.72,26.91 612.01,32.56 610.6,26.91 
		605.66,25.5 	"/>
	<polygon class="st5" points="624.78,52.91 625.37,47.62 626.54,52.91 630.66,53.5 626.54,54.68 625.95,59.38 624.78,54.68 
		620.66,53.5 	"/>
	<polygon class="st5" points="639.98,109.05 640.43,105 641.33,109.05 644.48,109.5 641.33,110.4 640.88,114 639.98,110.4 
		636.83,109.5 	"/>
	<polygon class="st5" points="756.98,113.05 757.43,109 758.33,113.05 761.48,113.5 758.33,114.4 757.88,118 756.98,114.4 
		753.83,113.5 	"/>
	<polygon class="st5" points="726.53,138.75 727.28,132 728.78,138.75 734.03,139.5 728.78,141 728.03,147 726.53,141 721.28,139.5 
			"/>
	<polygon class="st5" points="736.53,84.75 737.28,78 738.78,84.75 744.03,85.5 738.78,87 738.03,93 736.53,87 731.28,85.5 	"/>
	<polygon class="st5" points="694.53,70.75 695.28,64 696.78,70.75 702.03,71.5 696.78,73 696.03,79 694.53,73 689.28,71.5 	"/>
	<polygon class="st5" points="715.83,44.95 716.38,40 717.48,44.95 721.33,45.5 717.48,46.6 716.93,51 715.83,46.6 711.98,45.5 	"/>
</g>
<g id="Layer_8" class="st0">
	<path class="st1" d="M273.26,165.91h60.97c0,0-0.94-20.51,0-30.98c1.43-15.94,36.09-17.06,38.26,0s2.39,30.98,2.39,30.98h59.78
		l-5.98-45.36h5.98c0,0-11.96-22.13-11.96-26.55c0-1.11-10.16,20.47-10.16,20.47V86.81l3.59-2.21c0,0-7.77-8.3-8.37-8.85
		c-0.85-0.78-2.39-8.85-2.39-8.85l3.59-3.32h-3.59v-6.64h-3.59v5.53h-3.59l3.59,4.43l-2.39,5.53v3.32l-3.59,5.53l-4.78,2.21
		l3.59,3.32v5.53h-6.58l-0.6-52h4.78c0,0-10.76-11.06-10.76-19.91c0,0-5.98,17.7-10.76,19.91h3.59v17.7l-7.17-6.64V23.74l4.78-3.32
		v-3.32h-1.2l-1.2-2.21h-3.59c0,0,0-16.6,0-18.81s-1.2-2.21-1.2-4.43s0-7.74,0-7.74h-2.39L359.94-36l-3.59,19.91h-2.39v9.96
		l-1.79-4.98l-2.99,8.3v15.49l4.18,2.77h-4.78l-0.6,1.66h-1.2v3.32c0,0,4.78,2.21,4.78,6.64s0,24.34,0,24.34h-7.17
		c0,0,5.38-4.98,0-8.85l4.18-2.77l-5.38-2.77v-5.53l3.59-2.21L342,25.96c0,0,2.99-2.77-0.6-3.87L339.61,16V8.26
		c0,0,2.99-2.77,0-4.43l-1.79-4.98l-1.79,4.98c0,0-2.99,1.66,0,4.43c0.6,0.55,0,7.74,0,7.74l-1.2,5.53c0,0-3.59,2.21-1.2,4.43
		c1.2,1.11-3.59,3.32-3.59,3.32l3.59,2.21v5.53l-4.78,3.32l3.59,2.21c0,0-4.78,5.53,1.2,8.85h-9.56c0,0,0,13.28-10.76,17.7v4.43
		h4.78v13.28l-9.56,1.11v-8.85h5.98c0,0-13.15-17.7-13.15-26.55c0,0-4.78,22.13-11.96,26.55h5.98l-1.2,32.09l-7.17-17.7
		c0,0-10.76,25.45-14.35,27.66h7.17L273.26,165.91z"/>
	<path class="st1" d="M379.07,82.21v-5c0,0,2,1,7,0s9,2,10,2s-7,1-11,3H379.07z"/>
	<path class="st1" d="M464.07,87.21v-6c0,0,3,1,7,1s13,0.84,13,4c0,1-4.5-1.5-10.5,0.5S464.07,87.21,464.07,87.21z"/>
</g>
</svg>
