<?xml version="1.0" encoding="utf-8"?>
<!-- Generator: Adobe Illustrator 26.5.0, SVG Export Plug-In . SVG Version: 6.00 Build 0)  -->
<svg version="1.1" xmlns="http://www.w3.org/2000/svg" xmlns:xlink="http://www.w3.org/1999/xlink" x="0px" y="0px"
	 viewBox="0 0 767.54 361.85" style="enable-background:new 0 0 767.54 361.85;" xml:space="preserve">
<style type="text/css">
	.st0{display:none;}
	.st1{display:inline;fill:#FFFFFF;}
	.st2{font-family:'Karimun';}
	.st3{font-size:83px;}
	.st4{display:inline;}
	.st5{fill:#FFFFFF;}
	.st6{font-family:'Waltograph';}
	.st7{font-size:222.0164px;}
	
		.st8{clip-path:url(#SVGID_00000080892754432803114680000005623002108672691864_);fill:none;stroke:#FFFFFF;stroke-width:10;stroke-miterlimit:10;}
</style>
<g id="Layer_1" class="st0">
	<text transform="matrix(1 0 0 1 8.5032 366.9787)" class="st1 st2 st3">A Disney Parks Weather App</text>
	<g class="st4">
		<text transform="matrix(1 0 0 1 -2.7241 287.4524)" class="st5 st6 st7">Magic</text>
		<text transform="matrix(1 0 0 1 460.2759 332.4524)" class="st5 st6 st7">+</text>
		<g>
			<defs>
				<path id="SVGID_1_" d="M466.09,138.2c0,0-29,1-47,17s-24,23-24,23l-16-22l2-195h144l218,104l31,50l3,52l-36,132l-102.5,6.5
					c0,0,2.86-14.48,4.5-41.5c2-33-7-40-7-40l-39-60l-89-31L466.09,138.2z"/>
			</defs>
			<clipPath id="SVGID_00000157281352611036293580000007759928299799577000_">
				<use xlink:href="#SVGID_1_"  style="overflow:visible;"/>
			</clipPath>
			
				<path style="clip-path:url(#SVGID_00000157281352611036293580000007759928299799577000_);fill:none;stroke:#FFFFFF;stroke-width:10;stroke-miterlimit:10;" d="
				M717.86,76.58c-41.53-17.36-89.27,2.23-106.63,43.76c-4.64,11.09-6.61,22.62-6.26,33.91c-11.73-11.13-25.64-20.36-41.44-26.97
				c-11.6-4.85-23.48-7.97-35.38-9.51c6.87-7.1,12.57-15.56,16.61-25.22C562.12,51.02,542.53,3.29,501-14.07
				s-89.27,2.23-106.63,43.76c-17.36,41.53,2.23,89.27,43.76,106.63c0.38,0.16,0.76,0.29,1.15,0.45
				c-16.11,9.82-30.29,23.03-41.37,39.11c25.43-19.84,57.42-31.67,92.18-31.67c82.84,0,150,67.16,150,150
				c0,1.59-0.03,3.17-0.08,4.75c9.06-25.81,9.91-52.71,3.79-77.71c3.53,2.16,7.26,4.08,11.2,5.72
				c41.53,17.36,89.27-2.23,106.63-43.76C778.98,141.68,759.39,93.94,717.86,76.58z"/>
		</g>
	</g>
</g>
<g id="Layer_2" class="st0">
</g>
<g id="Layer_3" class="st0">
	<polygon class="st1" points="215.05,205.06 239.05,205.06 239.05,142.06 256.05,142.06 256.05,121.06 198.05,121.06 198.05,142.06 
		215.05,142.06 	"/>
	<path class="st1" d="M301.05,146.06c-3-3-6-3-8-3s-28,0-30,0s-5,1-7,3s-4,5-4,7s0,39,0,41s2,6,4,8s5,3,7,3s28,0,30,0s5,0,8-3
		s4-6,4-8s0-38,0-40S304.05,149.06,301.05,146.06z M284.05,187.06h-11v-26h11V187.06z"/>
	<polygon class="st1" points="311.55,125.56 311.05,205.06 332.05,205.06 332.05,180.06 348.05,205.06 373.05,205.06 353.05,172.06 
		370.05,143.06 345.05,143.06 331.55,166.56 331.55,125.56 	"/>
	<path class="st1" d="M428.05,143.06h-22v44h-10v-44h-21c0,0-1,50,0,52s4,9,10,10s16,0,16,0l5-9v14h-22l-11,18c0,0,42,0,45,0
		s10-3,10-14S428.05,143.06,428.05,143.06z"/>
	<path class="st1" d="M483.05,146.06c-3-3-6-3-8-3s-28,0-30,0s-5,1-7,3s-4,5-4,7s0,39,0,41s2,6,4,8s5,3,7,3s28,0,30,0s5,0,8-3
		s4-6,4-8s0-38,0-40S486.05,149.06,483.05,146.06z M466.05,187.06h-11v-26h11V187.06z"/>
	<path class="st1" d="M260.05,230.06c0-2,0-11-14-12s-47,0-47,0v84c0,0,48,1,51,0s9-2,10-12S260.05,232.06,260.05,230.06z
		 M236.05,281.06h-13v-42h13V281.06z"/>
	<rect x="266.05" y="229.06" class="st1" width="22" height="8"/>
	<rect x="266.05" y="240.06" class="st1" width="22" height="63"/>
	<g class="st4">
		<rect x="352.05" y="240.06" class="st5" width="21" height="63"/>
		<path class="st5" d="M405.05,303.06h-21v-46h-15l10-17h5c0,0,7.92-0.98,14,2c3.95,1.94,7,7.82,7,9
			C405.05,254.06,405.05,303.06,405.05,303.06z"/>
	</g>
	<path class="st1" d="M347.55,256.56l-10.5-16.5c0,0-27,0-30,0s-13,5-13,10s0,16,0,18s3,10,9,10s23,0,23,0v6h-34l10,18
		c0,0,30,0,33,0s11-4,11-11s0.5-16.5,0.5-18.5s-3-11-14-11s-18,0-18,0v-5H347.55z"/>
	<path class="st1" d="M432.55,283.56v-5h32c0,0-0.5-16.5-0.5-25.5c0-9-6-13-10-13s-25,0-32,0s-10,9-10,12s0,30,0,39s9,11,12,11
		s30,0,30,0l11.5-18.5H432.55z M432.55,257.56h11v7h-11V257.56z"/>
	<path class="st1" d="M523.05,240.06h-22v44h-10v-44h-21c0,0-1,50,0,52s4,9,10,10s16,0,16,0l5-9v14h-22l-11,18c0,0,42,0,45,0
		s10-3,10-14S523.05,240.06,523.05,240.06z"/>
	<rect x="530.05" y="222.06" class="st1" width="20" height="81"/>
	<g class="st4">
		<rect x="616.05" y="240.06" class="st5" width="21" height="63"/>
		<path class="st5" d="M669.05,303.06h-21v-46h-15l10-17h5c0,0,7.92-0.98,14,2c3.95,1.94,7,7.82,7,9
			C669.05,254.06,669.05,303.06,669.05,303.06z"/>
	</g>
	<path class="st1" d="M595.05,240.06c-4,0-29,0-29,0l-9.5,17.5h32v3c0,0-9-1-19,0s-13,9-13,12s-0.5,7.5,0.5,18.5s7.49,10.58,13,11
		c6.5,0.5,13,0,13,0l5-9v9h21c0,0,0-42,0-51C609.05,242.06,599.05,240.06,595.05,240.06z M588.55,283.56h-11v-7h11V283.56z"/>
	<path class="st1" d="M708.05,223.06v17c0,0-14,0-18,0s-15,1-15,11c0,10,0,35,0,38s2,13,12,13s15,0,15,0l6-10v10h21v-79H708.05z
		 M707.55,285.56h-11v-29h11V285.56z"/>
	<path class="st1" d="M6.05,302.06h172c0,0-13-44-4-44v-12h-8v-6h4c0,0-13-26-12-40c0,0,7-1,11,0s6-4,6-4s-6,2-12-6h-6
		c0,0-0.5,14.5-0.5,16.5s-6,27-9,30v-25l2-2v-7h-2c0,0-8-25.95-8-36c0-4,9-2,10-2s5-1,6-3c0,0-4-1-9-5s-9-1-9-1v13c0,0-2,28-7,34h-1
		v8l2,1v9h-7l1-22l3-4v-17h5c0,0-8-15-8-23h-1c0,0-3,18-7,21v-21l3-5v-4h-3v-10h3c0,0-3.99-6.53-7-19c-4.13-17.08-7.58-42.6-7-53
		c0,0,9,0,13,2c4,2,6-1,6-1s-8-3-8-6c0,0,5-2,6-4s-4,1-7-1s-9-6-12-4v18c0,0-9,65-13,69h3v9h-4v3l3,6v34l-7-24h-21l-8,36l-6-24
		c0,0-9,33-12,35h2v6l4,4v8h-7c0,0-12-22-12-25s0-6,0-6s6-2,9-1s7-3,7-3s-6.9-0.9-12-6c-1-1-6-1-6,0s0,15,0,15s-9,26-12,27h6v16h-8
		l-1,11c0,0,6,1,4,10S6.05,302.06,6.05,302.06z"/>
</g>
<g id="Layer_4" class="st0">
	<g class="st4">
		<path class="st5" d="M63.04,201.09c-3.45,0-7.54-0.47-7.54-2.51c0-14.44,25.43-15.07,36.27-15.07c14.13,0,32.18,4.4,47.57,9.89
			c23.39,8.48,70.81,36.74,70.81,69.08c0,28.57-30.77,42.23-59.35,42.23c-7.22,0-15.86-1.26-22.92-2.36
			c-0.47,1.73-0.79,2.98-1.88,6.59c-1.88,0.31-3.45,0.63-5.49,0.63l-3.61-0.31c-2.35-2.83-3.14-7.38-4.08-12.25
			c-14.29-8.32-23.55-15.39-27.79-20.25c-3.61-3.77-7.69-8.79-7.69-13.66c0-2.51,1.57-4.71,5.18-7.22
			c7.38-5.5,16.8-8.48,32.18-11.15l0.31-6.44c0.16-1.57,1.73-18.37,5.34-21.51c5.81,4.71,6.44,9.58,6.91,16.8
			c0.16,3.14,0.31,6.44,0.78,9.89h2.2c10.99,0,44.59,2.83,44.59,18.68c0,3.77-5.5,10.83-10.83,10.83c-1.88,0-5.34-0.79-6.91-2.04
			c2.35-2.67,5.81-5.02,6.75-7.06c-3.14-3.77-20.1-8.16-32.5-8.16c-2.04,0-2.83,0-4.08,0.16l0.16,34.38
			c5.02,3.14,11.15,3.45,15.07,3.45c17.27,0,53.07-2.98,53.07-30.93c0-27.63-35.32-48.98-61.7-59.03
			c-18.53-7.06-36.11-10.68-56.68-10.68c-4.24,0-8.63,0.31-12.87,1.41c-2.67,0.63-3.61,1.26-3.61,1.88c0,1.1,5.34,1.73,5.97,2.04
			c0.47,0.31,0.78,0.79,0.78,1.26c0,0.31-0.16,0.78-0.63,1.26C66.18,200.93,64.77,201.09,63.04,201.09z M114.07,256.19
			c-15.54,1.26-32.81,2.83-32.81,8.32c0,4.24,7.22,9.42,11.62,12.72c5.02,4.08,12.56,7.85,19.78,9.42L114.07,256.19z"/>
		<path class="st5" d="M248.3,200.46c2.67,0,8.79,2.67,8.79,8.48c0,12.09-20.72,25.9-31.09,25.9c-3.14,0-7.06-0.47-9.89-1.41
			c-1.73,2.04-2.35,3.77-4.71,4.08c-1.57-0.31-3.61-3.3-3.92-6.75c0-0.79,0.31-1.88,0.47-2.67c-2.35-3.14-4.08-5.97-4.08-9.42
			c0-10.36,15.54-24.18,30.46-24.18c6.91,0,12.4,2.67,13.35,6.12C247.83,200.61,247.99,200.46,248.3,200.46z M212.19,218.98
			c0.31,0,0.63-0.16,0.78-0.31c2.04-2.83,8.63-9.11,12.25-12.56v-0.16c0-0.16,0-0.47-0.31-0.79c-7.85,1.57-12.72,7.38-13.35,13.5
			C211.72,218.83,211.88,218.98,212.19,218.98z M227.11,253.21c0.31,12.72,1.57,26.06,1.57,38.62c0,2.51-0.94,5.5-4.87,5.5
			c-1.26,0-3.14-0.47-4.4-0.94c-2.04-0.63-2.98-6.75-3.14-8.32c0-8.01,0.16-8.16,0.47-16.49c0.16-2.2,0.63-10.83,2.67-26.69
			c0.16-0.79,0.31-1.1,0.94-1.1C226.01,243.95,226.79,247.24,227.11,253.21z M222.24,225.58h3.45c7.85,0,23.86-5.34,23.86-14.92
			c0-2.2,0-3.92-4.08-3.92c-9.11,0-18.05,8.79-24.49,17.58C220.98,224.64,221.77,225.58,222.24,225.58z"/>
		<path class="st5" d="M244.85,258.23c0,0.16,0.16,0.31,0.31,0.31c5.97,2.2,9.89,2.98,16.17,3.3c10.68,0.79,26.53,0.94,26.53,15.7
			c0,16.96-18.84,17.9-23.86,17.9c-13.34,0-25.12-8.48-25.12-14.92c0-7.69,8.01-9.73,14.29-9.73c5.97,0,13.82,1.57,20.25,4.87
			c0.16,0.16,0.31,0.31,0.31,0.63c0,0.47-0.16,0.79-0.31,0.94c-1.26,1.26-5.02,3.14-8.95,3.14c-4.55,0-10.83-3.77-16.96-3.77
			c-2.2,0-4.87,0.47-4.87,3.92c0,3.92,7.06,3.92,12.72,3.92c2.98,0,24.65-2.51,24.65-8.32c0-5.49-16.48-7.85-23.24-8.01
			c-18.05-0.47-20.41-2.35-20.41-8.95c0-14.76,29.83-15.86,31.24-15.86c7.85,0,14.91,1.41,20.1,2.67c1.1,0.16,1.73,0.63,1.73,2.36
			c-0.16,1.88-1.73,2.98-3.45,3.61c-1.26,0.31-3.93,0.79-5.18,0.94c-5.49,0.79-21.67,1.41-26.69,2.36
			c-5.18,0.78-7.38,1.41-8.95,2.35C245,257.76,244.85,258.08,244.85,258.23z"/>
		<path class="st5" d="M321.31,238.61c0-1.26,0.16-3.3,1.57-3.3c4.4,0,16.96,15.54,16.96,37.37c0,9.58-4.4,21.04-12.09,21.04
			c-9.11,0-18.68-29.2-20.88-29.2c-0.31,0-0.79,0.47-1.1,1.73c-0.47,1.88-0.79,18.37-1.57,23.24c-0.47,2.2-1.26,7.38-4.71,7.38
			c-5.02,0-6.12-8.63-6.12-12.4c0-8.16,4.08-37.05,10.83-37.05c4.71,0,14.13,19.62,22.45,29.99c0.63,0.63,0.94,1.26,1.1,1.26
			c0.94,0,0.94-1.41,0.94-4.08c0-14.44-2.98-18.68-6.91-33.44l-0.47-1.88V238.61z"/>
		<path class="st5" d="M381.28,289.48c-4.24,3.3-13.82,10.68-24.18,10.68c-8.63,0-12.56-6.44-12.56-13.19
			c0-3.61,2.2-8.48,3.92-13.34c-0.47-1.57-1.26-2.51-1.26-4.08c0-1.26,0.47-1.88,0.79-3.14c1.26-0.47,2.67-1.1,4.08-1.26l3.77-8.63
			c-3.61-1.73-8.95-3.77-8.95-7.07c0-1.73,1.41-2.2,4.08-2.35c6.59-0.31,14.29-3.14,27.16-3.14c1.41,0,3.14,0.16,6.44,1.1
			c1.41,1.73,5.02,5.02,5.02,7.69c0,1.57-5.49,3.3-8.48,3.45c-6.75,0.47-8.32,0.31-12.56,0.47c-0.79,0-1.57,0-2.35,0.16
			c-0.63,0.63-1.88,2.67-1.88,6.59c0,0.63,0.31,1.57,1.41,1.57h11.62l2.2,0.31c0.79,1.1,0.94,3.14,0.94,4.55
			c0,1.26-0.31,3.61-1.73,3.77c-2.83,0.16-9.89,0.47-17.74,0.47c-0.31,0-0.63,0-0.94,0.63c-0.78,3.3-2.2,7.06-3.77,10.52
			c0.78,0,6.75-1.57,16.8-2.51c1.57-0.16,3.61-0.31,5.18-0.31c1.88,0,3.92,2.67,3.92,4.71C382.22,288.06,382.06,289,381.28,289.48z"
			/>
		<path class="st5" d="M393.54,327.01c-6.28-0.63-10.52-5.81-10.52-12.56c0-2.98-0.49-3.94,8.3-24.98
			c-1.73-3.77-2.83-7.69-2.83-11.46c0-16.17,15.7-35.33,18.84-35.64c2.2,0.31,2.51,1.57,2.51,4.4c0,3.14-1.88,5.18-6.75,12.56
			c-2.51,3.93-6.12,10.36-6.12,16.01c0,0.63,0,1.57,0.47,1.88h0.31c0.16,0,0.31-0.16,0.63-0.63c7.54-10.05,23.08-28.89,31.09-28.89
			c8.16,0,10.21,13.19,10.21,19.47c0,18.53-23.24,31.71-33.75,31.71c-1.1,0-2.2,0.16-3.45,0.31c-6.12,17.9-4.22,9.59-8.46,26.55
			L393.54,327.01z M425.71,278.17c4.4-3.77,6.75-8.95,6.75-15.39c0-1.73,0-4.4-2.04-4.4c-2.67,0-8.63,7.06-10.99,10.05
			c-1.73,2.35-8.01,14.29-9.11,16.96C415.66,284.77,420.84,282.41,425.71,278.17z"/>
	</g>
	<g class="st4">
		<path class="st5" d="M507.85,296.66h-9.88l-8.86-14.84c-1.73-2.91-3.31-4.89-4.73-5.94s-3.04-1.58-4.87-1.58h-4.57v22.36h-8.44
			V242.2h17.33c5.65,0,10.01,1.27,13.1,3.81s4.62,6.15,4.62,10.81c0,3.66-1.07,6.79-3.2,9.39s-5.11,4.42-8.93,5.45v0.14
			c2.44,0.84,5.17,3.7,8.19,8.58L507.85,296.66z M474.95,249.16v18.14h7.49c3.12,0,5.61-0.9,7.47-2.71s2.79-4.1,2.79-6.89
			c0-5.7-3.38-8.54-10.12-8.54H474.95z"/>
		<path class="st5" d="M542.5,296.66h-30.16V242.2h28.93v7.24h-20.5v16.03h19.02v7.21h-19.02v16.73h21.73V296.66z"/>
		<path class="st5" d="M547.72,285.37c4.17,3.4,9.08,5.1,14.73,5.1c7.22,0,10.83-2.47,10.83-7.42c0-1.43-0.4-2.72-1.2-3.87
			s-1.87-2.15-3.22-3.01s-4.01-2.23-8-4.13c-4.9-2.34-8.32-4.72-10.27-7.14s-2.92-5.25-2.92-8.51c0-4.69,1.85-8.38,5.55-11.07
			s8.44-4.04,14.2-4.04c5.46,0,9.59,0.67,12.38,2v8.65c-3.35-2.32-7.54-3.48-12.55-3.48c-3.21,0-5.8,0.64-7.77,1.93
			s-2.95,3.06-2.95,5.31c0,2.04,0.72,3.71,2.16,5.03s4.48,3.07,9.12,5.27c5.41,2.53,9.15,5.07,11.21,7.61s3.09,5.47,3.09,8.77
			c0,4.92-1.78,8.68-5.34,11.29s-8.5,3.9-14.8,3.9c-2.32,0-4.9-0.28-7.73-0.84s-5.02-1.31-6.54-2.25V285.37z"/>
		<path class="st5" d="M586.66,270.11c0-8.6,2.41-15.56,7.22-20.87s11.31-7.96,19.49-7.96c7.66,0,13.82,2.58,18.46,7.73
			s6.96,11.77,6.96,19.83c0,8.55-2.37,15.48-7.1,20.78s-11.13,7.95-19.2,7.95c-7.69,0-13.92-2.55-18.69-7.66
			S586.66,278.2,586.66,270.11z M595.52,269.52c0,6,1.54,10.94,4.61,14.82s7.22,5.82,12.45,5.82c5.48,0,9.75-1.85,12.8-5.54
			s4.57-8.68,4.57-14.96c0-6.42-1.47-11.51-4.41-15.26c-2.94-3.75-7.13-5.62-12.57-5.62c-5.3,0-9.53,1.95-12.69,5.84
			C597.1,258.5,595.52,263.47,595.52,269.52z"/>
		<path class="st5" d="M688.11,296.66h-9.88l-8.86-14.84c-1.73-2.91-3.31-4.89-4.73-5.94s-3.04-1.58-4.87-1.58h-4.57v22.36h-8.44
			V242.2h17.33c5.65,0,10.01,1.27,13.1,3.81s4.62,6.15,4.62,10.81c0,3.66-1.07,6.79-3.2,9.39s-5.11,4.42-8.93,5.45v0.14
			c2.44,0.84,5.17,3.7,8.19,8.58L688.11,296.66z M655.2,249.16v18.14h7.49c3.12,0,5.61-0.9,7.47-2.71s2.79-4.1,2.79-6.89
			c0-5.7-3.38-8.54-10.12-8.54H655.2z"/>
		<path class="st5" d="M724.9,249.44h-15.64v47.21h-8.47v-47.21h-15.61v-7.24h39.73V249.44z"/>
	</g>
	<polygon class="st1" points="194.55,325.56 194.05,375.06 172.05,375.06 172.05,378.06 223.05,378.06 229.05,374.06 228.05,372.06 
		222.55,375.56 204.55,375.56 204.55,345.56 217.55,345.56 222.55,342.56 221.55,340.56 217.55,342.56 204.55,342.56 204.55,325.56 
			"/>
	<path class="st1" d="M241.05,339.06l7-5c0,0-7.88-6-12-6C235.05,328.06,241.05,339.06,241.05,339.06z"/>
	<path class="st1" d="M243.05,347.06c0,0-8-6-11-6l5,12L243.05,347.06z"/>
	<polygon class="st1" points="248.05,375.06 243.05,369.06 246.05,352.06 237.05,365.06 232.05,362.06 241.05,379.06 	"/>
	<path class="st1" d="M286.55,354.56l-1-3l-3,1v-14h-7v2h-17l0.5-1h-4.5l3-4h23l6-3l-2-3l-6,4l-20.5-0.5l4-4l-9-4l-6,22l5-5
		l-0.5,11.5h-5v3h4v16h7v-3h17v3h-7l7,5v2c0,0,6-2,7-4s0-5,0-5l5-4l-1-2l-4,3v-11L286.55,354.56z M262.55,367.56h-4v-11h4V367.56z
		 M262.55,354.56h-4v-11h4V354.56z M274.55,367.56h-4v-11h4V367.56z M274.55,354.56h-4v-11h4V354.56z"/>
	<path class="st1" d="M301.05,341.06l7-5c0,0-6-6-13-7L301.05,341.06z"/>
	<path class="st1" d="M306.05,345.06h-8v2h-6v2h7v20l-6,5l6,5l4-5c0,0,5.5,3.5,11.5,3.5s31,0,31,0l4-5c0,0-35,0-37,0s-7-1-7-4
		S306.05,345.06,306.05,345.06z"/>
	<path class="st1" d="M339.05,333.06v2h-6v-10h-8v10h-6v-2h-7v36h7v-4h6v1h8v-1h6v4h7v-36H339.05z M324.55,362.56h-5v-11h5V362.56z
		 M324.55,348.56h-5v-11h5V348.56z M338.55,362.56h-5v-11h5V362.56z M338.55,348.56h-5v-11h5V348.56z"/>
	<rect x="375.05" y="326.06" class="st1" width="10" height="50"/>
	<path class="st1" d="M354.05,340.06c0,0,45,0,46,0s6-3,6-3l2,3c0,0-4,3-6,3s-48,0-48,0V340.06z"/>
	<path class="st1" d="M452.05,326.06v2h-29v-2h-8c0,0,0,28,0,36s-2,19-2,19s4.78-4.55,8-11c2-4,2-11,2-11v-17h29v2h9v-18H452.05z
		 M452.05,340.06h-29v-10h29V340.06z"/>
	<path class="st1" d="M440.05,347.06h-9c0,0,0,22,0,24s0,7,4,7s20,0,22,0s7-3,7-7l-3.5-0.5v-9l-5,10h-16v-7l23-9l-7-7l-16,14
		L440.05,347.06z"/>
	<path class="st1" d="M482.05,328.06v-2h-8c0,0,0,28,0,36s-2,19-2,19s4.78-4.55,8-11c2-4,2-11,2-11v-17V328.06z"/>
	<path class="st1" d="M482.05,328.98l16,0.09v-5h8v5c0,0,9,0,11,0s6-2,6-2l1,3c0,0-2,2-5,2s-37,0-37,0"/>
	<rect x="481.05" y="338.06" class="st1" width="36" height="3"/>
	<rect x="488.05" y="335.06" class="st1" width="8" height="16"/>
	<rect x="508.05" y="335.06" class="st1" width="8" height="16"/>
	<rect x="495.05" y="347.06" class="st1" width="15" height="3"/>
	<path class="st1" d="M517.05,338.06c0,0,5,0,6-1s1,3,1,3s-5,1-8,1"/>
	<path class="st1" d="M508.05,366.06c5-2,12-8,12-8l-7-5l-3,2l-28,0.13v3.87h7c1,4,7,7,7,7l-19,12c12-1,24-8,24-8c2,4,19,8,19,8l4-7
		C517.05,371.06,508.05,366.06,508.05,366.06z M500.55,363.56l-10-5h17L500.55,363.56z"/>
	<polygon class="st1" points="538.05,339.06 542.05,339.06 542.05,377.06 533.05,377.06 533.05,348.06 528.05,355.06 537.05,323.06 
		545.05,327.06 	"/>
	<rect x="545.05" y="326.06" class="st1" width="9" height="51"/>
	<rect x="558.05" y="326.06" class="st1" width="6" height="19"/>
	<rect x="573.05" y="325.06" class="st1" width="7" height="19"/>
	<rect x="552.05" y="326.06" class="st1" width="23" height="3"/>
	<rect x="554.05" y="339.06" class="st1" width="22" height="4"/>
	<path class="st1" d="M554.05,351.06c0,0,6,0,6-1s1,2,1,2s-4,2-7,1.5S554.05,351.06,554.05,351.06z"/>
	<path class="st1" d="M554.05,361.06c0,0,6,0,6-1s1,2,1,2s-4,2-7,1.5S554.05,361.06,554.05,361.06z"/>
	<path class="st1" d="M574.05,364.06c1-2,8-14,8-14l-7-3l-1,2h-11c0,0,0,0,0,3s4,10,4,10l-12,15c8.5-0.5,14.5-9.5,14.5-8.5
		s9.5,9.5,9.5,9.5l5-6L574.05,364.06z M569.55,358.56l-6-7h9L569.55,358.56z"/>
	<rect x="592.05" y="325.06" class="st1" width="8" height="52"/>
	<path class="st1" d="M600.05,327.56c0,0,32,0.5,33,0.5s5-3,5-3l1,1c0,0-2,4-5,4s-37,0-37,0L600.05,327.56z"/>
	<path class="st1" d="M630.05,369.06l-11-13c0,0-9,10-17,14l13-19l-12-16c0,0,13,7,16,10l8-11l9,7l-10.5,10.5l13,11L630.05,369.06z"
		/>
	<g class="st4">
		<path class="st5" d="M280.19,226.77v-8.24c0.74,0.67,1.62,1.28,2.64,1.82c1.02,0.54,2.1,0.99,3.25,1.36s2.29,0.66,3.43,0.86
			c1.14,0.2,2.2,0.3,3.16,0.3c3.36,0,5.87-0.56,7.52-1.68s2.47-2.75,2.47-4.88c0-1.14-0.27-2.14-0.82-2.98
			c-0.55-0.84-1.32-1.61-2.31-2.3c-0.99-0.7-2.15-1.36-3.48-2c-1.33-0.64-2.76-1.31-4.29-2c-1.64-0.87-3.16-1.76-4.58-2.66
			s-2.64-1.89-3.68-2.98c-1.04-1.09-1.86-2.32-2.46-3.68c-0.59-1.37-0.89-2.97-0.89-4.81c0-2.27,0.51-4.23,1.53-5.91
			c1.02-1.67,2.37-3.05,4.04-4.14c1.67-1.09,3.57-1.9,5.7-2.42c2.13-0.53,4.31-0.79,6.53-0.79c5.05,0,8.73,0.57,11.04,1.72v7.91
			c-2.74-1.97-6.26-2.96-10.57-2.96c-1.19,0-2.37,0.11-3.55,0.34c-1.18,0.22-2.23,0.59-3.16,1.11c-0.93,0.52-1.69,1.18-2.27,1.99
			c-0.58,0.81-0.88,1.78-0.88,2.93c0,1.08,0.22,2.01,0.67,2.79s1.1,1.5,1.97,2.15c0.86,0.65,1.92,1.28,3.16,1.9
			c1.24,0.62,2.69,1.28,4.32,2c1.68,0.88,3.27,1.79,4.76,2.76c1.49,0.96,2.8,2.03,3.94,3.2c1.13,1.17,2.03,2.46,2.69,3.89
			s0.99,3.04,0.99,4.86c0,2.45-0.49,4.51-1.48,6.19c-0.99,1.68-2.32,3.05-3.99,4.1c-1.67,1.05-3.59,1.82-5.77,2.29
			c-2.18,0.47-4.47,0.71-6.9,0.71c-0.81,0-1.8-0.06-2.98-0.19s-2.38-0.3-3.62-0.54c-1.23-0.24-2.4-0.52-3.5-0.86
			C281.75,227.58,280.86,227.2,280.19,226.77z"/>
		<path class="st5" d="M347.99,228.69h-6.49v-16.89h-18.33v16.89h-6.46v-38.93h6.46v16.37h18.33v-16.37h6.49V228.69z"/>
		<path class="st5" d="M387.91,228.69h-7.09l-3.5-9.91h-15.31l-3.37,9.91h-7.06l14.58-38.93h7.28L387.91,228.69z M375.61,213.52
			l-5.4-15.53c-0.16-0.51-0.34-1.32-0.52-2.44h-0.11c-0.16,1.03-0.34,1.85-0.54,2.44l-5.35,15.53H375.61z"/>
		<path class="st5" d="M424.61,228.69h-7.06l-18.6-28.62c-0.47-0.72-0.86-1.48-1.17-2.25h-0.16c0.14,0.83,0.22,2.62,0.22,5.35v25.52
			h-6.24v-38.93h7.52l17.97,27.94c0.76,1.16,1.25,1.96,1.46,2.39h0.11c-0.18-1.03-0.27-2.78-0.27-5.24v-25.09h6.22V228.69z"/>
		<path class="st5" d="M462.96,226.03c-4.05,2.21-8.57,3.31-13.55,3.31c-5.76,0-10.42-1.79-13.98-5.38
			c-3.57-3.58-5.35-8.33-5.35-14.23c0-6.03,1.95-10.97,5.85-14.84c3.9-3.87,8.86-5.8,14.87-5.8c4.33,0,7.96,0.63,10.91,1.9v6.65
			c-2.99-1.99-6.54-2.99-10.67-2.99c-4.15,0-7.54,1.37-10.2,4.1c-2.65,2.73-3.98,6.27-3.98,10.62c0,4.47,1.14,7.99,3.42,10.55
			s5.38,3.84,9.29,3.84c2.68,0,5-0.52,6.95-1.55v-9.26h-8.2v-5.43h14.63V226.03z"/>
		<path class="st5" d="M500.96,228.69h-6.49v-16.89h-18.33v16.89h-6.46v-38.93h6.46v16.37h18.33v-16.37h6.49V228.69z"/>
		<path class="st5" d="M540.89,228.69h-7.09l-3.5-9.91h-15.31l-3.37,9.91h-7.06l14.58-38.93h7.28L540.89,228.69z M528.59,213.52
			l-5.4-15.53c-0.16-0.51-0.33-1.32-0.52-2.44h-0.11c-0.16,1.03-0.34,1.85-0.54,2.44l-5.35,15.53H528.59z"/>
		<path class="st5" d="M551.19,228.69h-6.65v-38.93h6.65V228.69z"/>
	</g>
	<path class="st1" d="M338.05,174.06h51c0,0-1-14,0-28s32-16,32,0s2,28,2,28h50l-5-41h5c0,0-10-20-10-24c0-1-8.5,18.5-8.5,18.5v-25
		l3-2c0,0-6.5-7.5-7-8c-0.71-0.71-2-8-2-8l3-3h-3v-6h-3v5h-3l3,4l-2,5v3l-3,5l-4,2l3,3v5h-5.5l-0.5-47h4c0,0-9-10-9-18
		c0,0-5,16-9,18h3v16l-6-6v-25l4-3v-3h-1l-1-2h-3c0,0,0-15,0-17s-1-2-1-4s0-7,0-7h-2l-2-18l-3,18h-2v9l-1.5-4.5l-2.5,7.5v14l3.5,2.5
		h-4l-0.5,1.5h-1v3c0,0,4,2,4,6s0,22,0,22h-6c0,0,4.5-4.5,0-8l3.5-2.5l-4.5-2.5v-5l3-2l-4-3c0,0,2.5-2.5-0.5-3.5l-1.5-5.5v-7
		c0,0,2.5-2.5,0-4l-1.5-4.5l-1.5,4.5c0,0-2.5,1.5,0,4c0.5,0.5,0,7,0,7l-1,5c0,0-3,2-1,4c1,1-3,3-3,3l3,2v5l-4,3l3,2c0,0-4,5,1,8h-8
		c0,0,0,12-9,16v4h4v12l-8,1v-8h5c0,0-11-16-11-24c0,0-4,20-10,24h5l-1,29l-6-16c0,0-9,23-12,25h6L338.05,174.06z"/>
	<path class="st1" d="M362.05,66.06v-5c0,0,2,1,7,0s9,2,10,2s-7,1-11,3H362.05z"/>
	<path class="st1" d="M447.05,71.06v-6c0,0,3,1,7,1s13,0.84,13,4c0,1-4.5-1.5-10.5,0.5S447.05,71.06,447.05,71.06z"/>
	<path class="st1" d="M515.05,174.06h17c0,0,20.5-119.5-92.5-151.5c-14.01-3.97-98.27-24.72-154.5,76.5
		c-1.36,2.44,63.5-106.5,155.5-64.5C540.64,80.25,515.05,174.06,515.05,174.06z"/>
	<polygon class="st1" points="281.05,133.06 279.05,176.06 275.05,133.06 259.05,143.06 270.05,129.06 242.05,126.06 269.05,122.06 
		259.05,107.06 274.05,116.06 276.05,75.06 281.05,116.06 296.05,107.06 285.05,122.06 311.05,126.06 287.05,130.06 296.05,143.06 	
		"/>
</g>
<g id="Layer_5" class="st0">
	<g class="st4">
		<path class="st5" d="M25.03,103.1c-4.48,0-9.77-0.61-9.77-3.26c0-18.72,32.97-19.54,47.01-19.54c18.32,0,41.72,5.7,61.66,12.82
			c30.32,10.99,91.78,47.62,91.78,89.54c0,37.04-39.89,54.74-76.93,54.74c-9.36,0-20.56-1.63-29.71-3.05
			c-0.61,2.24-1.02,3.87-2.44,8.55c-2.44,0.41-4.48,0.81-7.12,0.81l-4.68-0.41c-3.05-3.66-4.07-9.56-5.29-15.87
			c-18.52-10.79-30.53-19.94-36.02-26.25c-4.68-4.88-9.97-11.4-9.97-17.71c0-3.26,2.04-6.11,6.72-9.36
			c9.57-7.12,21.78-10.99,41.72-14.45l0.41-8.34c0.2-2.04,2.24-23.81,6.92-27.88c7.53,6.11,8.34,12.41,8.95,21.78
			c0.2,4.07,0.41,8.34,1.02,12.82h2.85c14.25,0,57.8,3.66,57.8,24.22c0,4.88-7.12,14.04-14.04,14.04c-2.44,0-6.92-1.02-8.95-2.65
			c3.05-3.46,7.53-6.51,8.75-9.16c-4.07-4.88-26.05-10.58-42.13-10.58c-2.65,0-3.66,0-5.29,0.2l0.2,44.57
			c6.51,4.07,14.45,4.48,19.54,4.48c22.39,0,68.79-3.87,68.79-40.09c0-35.82-45.79-63.49-79.98-76.52
			C92.79,97.4,70,92.72,43.34,92.72c-5.49,0-11.19,0.41-16.69,1.83c-3.46,0.81-4.68,1.63-4.68,2.44c0,1.42,6.92,2.24,7.73,2.65
			c0.61,0.41,1.02,1.02,1.02,1.63c0,0.41-0.2,1.02-0.81,1.63C29.1,102.89,27.26,103.1,25.03,103.1z M91.17,174.53
			c-20.15,1.63-42.53,3.66-42.53,10.79c0,5.5,9.36,12.21,15.06,16.48c6.51,5.29,16.28,10.18,25.64,12.21L91.17,174.53z"/>
		<path class="st5" d="M265.16,102.28c3.46,0,11.4,3.46,11.4,10.99c0,15.67-26.86,33.58-40.29,33.58c-4.07,0-9.16-0.61-12.82-1.83
			c-2.24,2.65-3.05,4.88-6.1,5.29c-2.04-0.41-4.68-4.27-5.09-8.75c0-1.02,0.41-2.44,0.61-3.46c-3.05-4.07-5.29-7.73-5.29-12.21
			c0-13.43,20.15-31.34,39.48-31.34c8.95,0,16.08,3.46,17.3,7.94C264.55,102.49,264.75,102.28,265.16,102.28z M218.35,126.3
			c0.41,0,0.81-0.2,1.02-0.41c2.65-3.66,11.19-11.8,15.87-16.28v-0.2c0-0.2,0-0.61-0.41-1.02c-10.18,2.04-16.48,9.56-17.3,17.5
			C217.74,126.09,217.95,126.3,218.35,126.3z M237.69,170.66c0.41,16.48,2.04,33.78,2.04,50.06c0,3.26-1.22,7.12-6.31,7.12
			c-1.63,0-4.07-0.61-5.7-1.22c-2.65-0.81-3.87-8.75-4.07-10.79c0-10.38,0.2-10.58,0.61-21.37c0.2-2.85,0.81-14.04,3.46-34.6
			c0.2-1.02,0.41-1.42,1.22-1.42C236.26,158.65,237.28,162.93,237.69,170.66z M231.38,134.84h4.48c10.18,0,30.93-6.92,30.93-19.33
			c0-2.85,0-5.09-5.29-5.09c-11.8,0-23.4,11.4-31.75,22.79C229.75,133.62,230.77,134.84,231.38,134.84z"/>
		<path class="st5" d="M260.68,177.17c0,0.2,0.2,0.41,0.41,0.41c7.73,2.85,12.82,3.87,20.96,4.27c13.84,1.02,34.39,1.22,34.39,20.35
			c0,21.98-24.42,23.2-30.93,23.2c-17.3,0-32.56-10.99-32.56-19.33c0-9.97,10.38-12.62,18.52-12.62c7.73,0,17.91,2.03,26.25,6.31
			c0.2,0.2,0.41,0.41,0.41,0.81c0,0.61-0.2,1.02-0.41,1.22c-1.63,1.63-6.51,4.07-11.6,4.07c-5.9,0-14.04-4.88-21.98-4.88
			c-2.85,0-6.31,0.61-6.31,5.09c0,5.09,9.16,5.09,16.48,5.09c3.87,0,31.95-3.26,31.95-10.79c0-7.12-21.37-10.18-30.12-10.38
			c-23.4-0.61-26.46-3.05-26.46-11.6c0-19.13,38.67-20.56,40.5-20.56c10.18,0,19.33,1.83,26.05,3.46c1.42,0.2,2.24,0.81,2.24,3.05
			c-0.2,2.44-2.24,3.87-4.48,4.68c-1.63,0.41-5.09,1.02-6.72,1.22c-7.12,1.02-28.08,1.83-34.6,3.05c-6.72,1.02-9.56,1.83-11.6,3.05
			C260.88,176.56,260.68,176.97,260.68,177.17z"/>
		<path class="st5" d="M359.79,151.74c0-1.63,0.2-4.27,2.04-4.27c5.7,0,21.98,20.15,21.98,48.44c0,12.41-5.7,27.27-15.67,27.27
			c-11.8,0-24.22-37.85-27.07-37.85c-0.41,0-1.02,0.61-1.42,2.24c-0.61,2.44-1.02,23.81-2.04,30.12c-0.61,2.85-1.63,9.57-6.1,9.57
			c-6.51,0-7.94-11.19-7.94-16.08c0-10.58,5.29-48.03,14.04-48.03c6.11,0,18.32,25.44,29.1,38.87c0.81,0.81,1.22,1.63,1.42,1.63
			c1.22,0,1.22-1.83,1.22-5.29c0-18.72-3.87-24.22-8.95-43.35l-0.61-2.44V151.74z"/>
		<path class="st5" d="M437.52,217.67c-5.49,4.27-17.91,13.84-31.34,13.84c-11.19,0-16.28-8.34-16.28-17.1
			c0-4.68,2.85-10.99,5.09-17.3c-0.61-2.04-1.63-3.26-1.63-5.29c0-1.63,0.61-2.44,1.02-4.07c1.63-0.61,3.46-1.42,5.29-1.63
			l4.88-11.19c-4.68-2.24-11.6-4.88-11.6-9.16c0-2.24,1.83-2.85,5.29-3.05c8.55-0.41,18.52-4.07,35.21-4.07
			c1.83,0,4.07,0.2,8.34,1.42c1.83,2.24,6.51,6.51,6.51,9.97c0,2.04-7.12,4.27-10.99,4.48c-8.75,0.61-10.79,0.41-16.28,0.61
			c-1.02,0-2.04,0-3.05,0.2c-0.81,0.81-2.44,3.46-2.44,8.55c0,0.81,0.41,2.04,1.83,2.04h15.06l2.85,0.41
			c1.02,1.42,1.22,4.07,1.22,5.9c0,1.63-0.41,4.68-2.24,4.88c-3.66,0.2-12.82,0.61-23,0.61c-0.41,0-0.81,0-1.22,0.81
			c-1.02,4.27-2.85,9.16-4.88,13.64c1.02,0,8.75-2.04,21.78-3.26c2.04-0.2,4.68-0.41,6.72-0.41c2.44,0,5.09,3.46,5.09,6.11
			C438.74,215.84,438.54,217.06,437.52,217.67z"/>
		<path class="st5" d="M449.53,287.07c-8.14-0.81-13.64-7.53-13.64-16.28c0-3.87,3.26-25.85,14.65-53.12
			c-2.24-4.88-3.66-9.97-3.66-14.86c0-20.96,20.35-45.79,24.42-46.2c2.85,0.41,3.26,2.04,3.26,5.7c0,4.07-2.44,6.72-8.75,16.28
			c-3.26,5.09-7.94,13.43-7.94,20.76c0,0.81,0,2.04,0.61,2.44h0.41c0.2,0,0.41-0.2,0.81-0.81c9.77-13.02,29.92-37.45,40.29-37.45
			c10.58,0,13.23,17.1,13.23,25.24c0,24.01-30.12,41.11-43.75,41.11c-1.42,0-2.85,0.2-4.48,0.41c-7.94,23.2-9.36,33.17-14.86,55.15
			L449.53,287.07z M495.11,203.02c5.7-4.88,8.75-11.6,8.75-19.94c0-2.24,0-5.7-2.65-5.7c-3.46,0-11.19,9.16-14.25,13.02
			c-2.24,3.05-10.38,18.52-11.8,21.98C482.09,211.57,488.81,208.51,495.11,203.02z"/>
		<path class="st5" d="M540.9,159.06c-0.2,14.65-6.11,18.93-9.57,47.21v0.81c0,1.83,1.02,3.46,2.24,3.46
			c2.85,0,7.33-2.44,13.64-4.68c3.05-1.22,7.12-3.26,9.16-3.26s2.24,3.46,2.24,4.68c0,8.75-15.06,21.78-25.03,21.78
			c-13.64,0-15.47-13.23-15.47-23.61c0-15.26,8.55-38.06,13.02-46.4c1.22-2.24,2.65-3.26,6.31-4.48
			C540.49,154.58,540.9,156.01,540.9,159.06z"/>
		<path class="st5" d="M600.12,149.7h1.22c2.64,0,5.49,3.46,5.9,6.31c1.02,3.46,4.68,13.43,5.5,18.93
			c2.44,17.71,4.07,27.68,4.07,43.35c0,7.12,0,8.96-0.61,11.4c-0.61,0.41-1.42,0.61-2.24,0.61c-3.87,0-6.92-4.27-9.16-9.56
			l-0.81-11.8h-6.51c-7.12,0-9.56-0.2-11.19-0.2c-0.61,0-1.02,0-1.22,0.2c-3.05,1.02-4.48,8.95-7.33,16.48l-2.24,5.9
			c-1.02,1.02-2.85,1.63-4.88,1.63c-1.22,0-2.44-0.41-4.07-0.61c-2.85-3.05-3.87-5.7-3.87-9.97c0-4.88,2.04-10.99,5.7-17.5
			c0-3.26-1.83-6.72-6.1-7.33l0.41-3.87c0.81,0.2,1.83,0.2,2.85,0.2h6.72c3.26-6.92,10.38-21.37,15.26-28.69l9.77-12.01l0.61-2.44
			C598.49,149.7,599.1,149.7,600.12,149.7z M596.25,193.05c1.83,0,4.07,0,5.9-0.2c0-3.87-0.2-12.82-2.85-17.5
			c-2.85,0.81-7.33,12.62-8.75,17.5C592.38,193.05,594.42,193.05,596.25,193.05z"/>
		<path class="st5" d="M659.74,151.74c0-1.63,0.2-4.27,2.04-4.27c5.7,0,21.98,20.15,21.98,48.44c0,12.41-5.7,27.27-15.67,27.27
			c-11.8,0-24.22-37.85-27.07-37.85c-0.41,0-1.02,0.61-1.42,2.24c-0.61,2.44-1.02,23.81-2.04,30.12c-0.61,2.85-1.63,9.57-6.1,9.57
			c-6.51,0-7.94-11.19-7.94-16.08c0-10.58,5.29-48.03,14.04-48.03c6.11,0,18.32,25.44,29.1,38.87c0.81,0.81,1.22,1.63,1.42,1.63
			c1.22,0,1.22-1.83,1.22-5.29c0-18.72-3.87-24.22-8.95-43.35l-0.61-2.44V151.74z"/>
		<path class="st5" d="M688.23,164.76c0-4.68,3.46-7.33,10.38-8.75c2.44-0.2,4.48-0.2,6.72-0.2c19.74,0,35.41,7.73,47.42,23.2
			c5.09,7.94,6.31,11.6,6.31,19.13c0,17.1-20.55,30.12-39.07,30.12h-1.22c-0.81,1.83-2.65,3.46-5.49,5.09h-1.63
			c-5.09,0-7.33-2.65-7.33-8.14v-0.81c-9.16-5.9-13.64-11.6-13.64-17.3c0-2.85,0.81-5.5,2.44-8.14c2.24,3.05,5.49,5.29,9.77,7.33
			c-0.2-2.24-0.2-4.07-0.2-6.11c0-16.08,3.87-24.01,11.6-24.01h1.42c1.02,6.92,1.02,15.87,1.02,22.79v12.82
			c2.85,1.22,6.51,1.22,8.55,1.22c13.23,0,19.74-3.87,19.74-11.4c0-4.88-2.85-11.4-8.75-19.54c-9.77-11.8-22.59-17.71-38.26-17.71
			h-2.44l-4.48,6.31l-2.65-3.66C688.23,166.18,688.23,165.37,688.23,164.76z"/>
	</g>
	<g class="st4">
		<path class="st5" d="M510.32,277.08v9.54h-4.35v-26.31h7.98c3.02,0,5.36,0.7,7.03,2.11c1.66,1.41,2.49,3.39,2.49,5.94
			s-0.87,4.65-2.6,6.27s-4.08,2.44-7.04,2.44H510.32z M510.32,263.91v9.61h2.83c1.87,0,3.3-0.43,4.27-1.3
			c0.98-0.87,1.47-2.09,1.47-3.67c0-3.09-1.8-4.64-5.39-4.64H510.32z"/>
		<path class="st5" d="M578.28,286.62h-4.79l-2.37-6.7h-10.35l-2.27,6.7h-4.77l9.85-26.31h4.92L578.28,286.62z M569.97,276.36
			l-3.65-10.49c-0.11-0.34-0.23-0.89-0.35-1.65h-0.07c-0.11,0.7-0.23,1.25-0.37,1.65l-3.61,10.49H569.97z"/>
		<path class="st5" d="M632.27,286.62h-5.1l-4.2-7.04c-0.38-0.65-0.75-1.2-1.11-1.66s-0.73-0.83-1.1-1.13
			c-0.37-0.29-0.78-0.51-1.22-0.64c-0.44-0.13-0.94-0.2-1.49-0.2h-1.76v10.68h-4.35v-26.31h8.66c1.24,0,2.37,0.15,3.41,0.44
			c1.04,0.29,1.94,0.74,2.72,1.33c0.77,0.59,1.37,1.33,1.81,2.22c0.43,0.89,0.65,1.92,0.65,3.11c0,0.93-0.14,1.78-0.41,2.56
			c-0.28,0.78-0.67,1.47-1.17,2.07c-0.51,0.61-1.12,1.12-1.83,1.55c-0.72,0.43-1.52,0.76-2.41,0.99v0.07
			c0.48,0.27,0.89,0.57,1.25,0.89c0.35,0.32,0.69,0.66,1.01,1c0.32,0.34,0.63,0.73,0.94,1.16c0.31,0.43,0.66,0.94,1.04,1.51
			L632.27,286.62z M616.3,263.85v8.55h3.63c0.67,0,1.29-0.1,1.86-0.31c0.57-0.21,1.06-0.51,1.48-0.9c0.42-0.39,0.74-0.87,0.97-1.43
			s0.35-1.19,0.35-1.89c0-1.26-0.4-2.24-1.19-2.95c-0.79-0.71-1.94-1.06-3.43-1.06H616.3z"/>
		<path class="st5" d="M669.87,286.62h-4.49v-26.31h4.49V286.62z"/>
		<path class="st5" d="M705.19,285.57v-4.49c0.4,0.37,0.88,0.7,1.44,0.99s1.15,0.54,1.77,0.74s1.25,0.36,1.87,0.47
			c0.62,0.11,1.2,0.17,1.72,0.17c1.83,0,3.2-0.31,4.1-0.92c0.9-0.61,1.35-1.5,1.35-2.66c0-0.62-0.15-1.16-0.45-1.62
			s-0.72-0.88-1.26-1.26c-0.54-0.38-1.17-0.74-1.9-1.09c-0.73-0.35-1.51-0.71-2.34-1.09c-0.89-0.48-1.72-0.96-2.49-1.45
			c-0.77-0.49-1.44-1.03-2.01-1.62c-0.57-0.59-1.02-1.26-1.34-2.01c-0.32-0.75-0.49-1.62-0.49-2.62c0-1.24,0.28-2.31,0.83-3.22
			s1.29-1.66,2.2-2.26c0.91-0.59,1.95-1.03,3.11-1.32c1.16-0.29,2.35-0.43,3.56-0.43c2.75,0,4.76,0.31,6.02,0.94v4.31
			c-1.49-1.08-3.41-1.61-5.76-1.61c-0.65,0-1.29,0.06-1.94,0.18c-0.64,0.12-1.22,0.32-1.72,0.61c-0.51,0.28-0.92,0.64-1.24,1.08
			c-0.32,0.44-0.48,0.97-0.48,1.6c0,0.59,0.12,1.09,0.37,1.52c0.24,0.43,0.6,0.82,1.07,1.17c0.47,0.35,1.05,0.7,1.72,1.04
			c0.68,0.34,1.46,0.7,2.36,1.09c0.92,0.48,1.78,0.98,2.6,1.5c0.81,0.53,1.53,1.11,2.15,1.74c0.62,0.64,1.11,1.34,1.47,2.12
			s0.54,1.66,0.54,2.65c0,1.33-0.27,2.46-0.81,3.38s-1.26,1.66-2.17,2.24c-0.91,0.57-1.96,0.99-3.15,1.25
			c-1.19,0.26-2.44,0.39-3.76,0.39c-0.44,0-0.98-0.03-1.62-0.1c-0.64-0.07-1.3-0.17-1.97-0.29c-0.67-0.13-1.31-0.28-1.91-0.47
			C706.04,286.01,705.56,285.8,705.19,285.57z"/>
	</g>
</g>
<g id="Layer_6" class="st0">
	<path class="st1" d="M99.63,92.74c-61.42-3.61-84.9-21.68-84.9-21.68c0.9,51.48,62.32,42.45,56.9,44.26
		c-13.05,4.35-21.68,39.74-19.87,54.19c1.81,14.45,5.42,61.42,0,66.84s-30.71,19.87-30.71,19.87c50.58-7.23,72.26,10.84,76.77,9.94
		c23.1-4.62,46.97-56,50.58-68.64C152.02,184.87,161.05,96.35,99.63,92.74z M109.57,243.58c-1.81-3.61-41.55-10.84-41.55-10.84
		c14.45-10.84,10.84-46.97,9.03-74.06c-1.81-27.1,5.42-39.74,5.42-39.74c32.52,0,34.32,32.52,39.74,65.03
		S111.38,247.19,109.57,243.58z"/>
	<path class="st1" d="M155.63,139.71l18.06-14.45c0,0,10.84,16.26,10.84,30.71s0,43.35,0,48.77s3.61,23.48,9.03,23.48
		s-16.26,14.45-16.26,14.45s-12.64-9.03-12.64-23.48c0-14.45,2.71-46.06,0.9-56.9C163.76,151.45,160.15,146.03,155.63,139.71z"/>
	<path class="st1" d="M154.73,108.09l18.06-14.45c0,0,5.42,10.84,16.26,9.03C199.89,100.87,172.79,137,154.73,108.09z"/>
	<path class="st1" d="M240.54,161.38l18.06-12.64c0,0-6.56-23.48-28.9-23.48c-7.23,0-21.68,14.45-27.1,21.68
		c-5.42,7.23-18.06,32.52,7.23,41.55c25.29,9.03,32.24,20.42,25.29,34.32c-1.81,3.61-13.55-2.71-18.97-17.16l-18.06,10.84
		c0,0,4.63,17.2,23.48,23.48c5.42,1.81,28.9-16.26,32.52-18.06c3.61-1.81,9.03-23.48,0-34.32c-9.03-10.84-37.93-18.06-37.93-25.29
		c0-7.23-1.81-16.26,1.81-18.06C221.57,142.42,234.21,146.03,240.54,161.38z"/>
	<path class="st1" d="M258.6,139.71c0,0,9.03,10.84,7.23,28.9s0,32.52,0,37.93s-0.15,34.32,10.84,34.32
		c1.81,0,19.87-14.45,19.87-14.45s-8.13-6.32-8.13-20.77c0-14.45-1.81-52.39-1.81-52.39l10.84-9.03c0,0,9.03,1.81,9.03,19.87
		s0,36.13,0,41.55s1.81,34.32,12.64,37.93l18.06-16.26c0,0-7.23-5.42-7.23-18.06c0-12.64,0-45.16,0-50.58s-9.03-32.52-19.87-32.52
		l-21.68,16.26c0,0-6.93-16.26-12.65-16.26C273.95,126.16,258.6,139.71,258.6,139.71z"/>
	<path class="st1" d="M360.66,194.8l37.93-30.71l-19.87-37.93c0,0-27.78,12.78-29.81,18.97c-31.61,96.64,28.9,95.74,28.9,95.74
		L401.31,221C360.66,221.9,360.66,194.8,360.66,194.8z M362.47,144.22l16.26,25.29l-19.87,16.26
		C355.24,165.9,362.47,144.22,362.47,144.22z"/>
	<path class="st1" d="M397.69,143.32l16.26-14.45c0,0,12.64,5.42,12.64,23.48s0,32.52,0,37.93c0,5.42,1.81,28.9,9.03,32.52
		c7.23,3.61,10.84-19.87,10.84-25.29c0-5.42,0-28.9,0-36.13s-3.61-12.64-7.23-18.06c-3.61-5.42,14.45-16.26,14.45-16.26
		s14.45,7.23,14.45,28.9s0,41.55,0,46.97s7.23,48.77,3.61,54.19s-10.84,18.06-32.52,19.87s-65.03-12.64-37.93-43.35L414.86,249
		c0,0-5.42,23.48,18.06,21.68c23.48-1.81,18.06-12.65,18.06-18.06c0-5.42-3.61-27.1-3.61-27.1l-18.06,16.26
		c0,0-27.1-5.42-25.29-30.71S409.44,153.25,397.69,143.32z"/>
	<path class="st1" d="M475.37,92.74l16.26-10.84c0,0,14.45,9.03,14.45,21.68s0,75.87,0,84.9c0,9.03-1.81,32.52,7.23,37.93
		l-16.26,14.45c0,0-14.45-9.03-12.64-28.9s-0.9-87.61-0.9-93.03C483.5,113.51,481.69,100.87,475.37,92.74z"/>
	<path class="st1" d="M578.34,197.51c0-5.42,1.81-39.74,1.81-50.58c0-10.84-27.1-27.1-27.1-27.1l-27.1,19.87
		c-31.61,84,13.55,98.45,13.55,98.45l18.97-18.97c0,9.03,18.06,18.06,18.06,18.06L590.98,221
		C576.53,219.19,578.34,202.93,578.34,197.51z M550.34,214.67c-28.56,0-12.64-75.87-12.64-75.87c7.23-1.81,18.06,7.23,18.06,10.84
		s1.81,56,1.81,59.61S552.14,214.67,550.34,214.67z"/>
	<path class="st1" d="M592.79,139.71l18.06-12.64c0,0,10.84,9.03,10.84,16.26l21.68-16.26c0,0,18.06,7.23,19.87,25.29
		c1.81,18.06,0,37.93,0,46.97c0,9.03,0,23.48,9.03,27.1l-18.06,14.45c0,0-11.74-2.71-11.74-26.19s0-46.97,0-52.39
		s-5.42-18.06-7.23-18.06c-1.81,0-10.84,9.03-10.84,9.03s0,46.97,0,52.39s0,16.26,5.42,19.87l-14.45,16.26
		c0,0-16.26-12.64-14.45-27.1c1.81-14.45,0-41.55,0-48.77C600.92,158.67,599.11,142.42,592.79,139.71z"/>
	<path class="st1" d="M742.72,192.09c0-32.52-0.9-56.9-0.9-65.93S745.33,81,729.17,81c-1.81,0-19.87,14.45-19.87,14.45
		s12.64,5.42,12.64,19.87s-2.71,18.97-2.71,18.97l-7.23-7.23l-23.48,16.26c0,0-34.32,72.26,16.26,97.55
		c3.61,1.81,16.26-16.26,16.26-16.26s9.03,18.06,16.26,18.06l18.06-16.26C755.37,226.41,742.72,224.61,742.72,192.09z M711.11,221.9
		c0,0-29.07-10.18-12.64-75.87c1.81-7.23,21.68,16.26,21.68,16.26l1.81,48.77L711.11,221.9z"/>
	<g class="st4">
		<path class="st5" d="M587.51,259.33v8.71h-3.97v-24.03h7.29c2.76,0,4.9,0.64,6.42,1.93c1.52,1.28,2.28,3.09,2.28,5.43
			c0,2.33-0.79,4.24-2.38,5.73c-1.59,1.49-3.73,2.23-6.44,2.23H587.51z M587.51,247.29v8.78h2.58c1.71,0,3.01-0.4,3.91-1.19
			c0.89-0.79,1.34-1.91,1.34-3.35c0-2.83-1.64-4.24-4.93-4.24H587.51z"/>
		<path class="st5" d="M643.1,268.04h-3.77v-2.68h-0.07c-1.18,2.06-2.92,3.08-5.21,3.08c-1.69,0-3.01-0.46-3.96-1.37
			c-0.96-0.92-1.43-2.13-1.43-3.64c0-3.24,1.87-5.13,5.6-5.67l5.09-0.72c0-2.45-1.16-3.67-3.49-3.67c-2.05,0-3.89,0.7-5.53,2.11
			v-3.4c1.81-1.07,3.9-1.61,6.27-1.61c4.33,0,6.5,2.13,6.5,6.4V268.04z M639.35,259.61l-3.6,0.5c-1.12,0.15-1.96,0.42-2.52,0.81
			c-0.56,0.4-0.85,1.09-0.85,2.09c0,0.73,0.26,1.32,0.78,1.79c0.52,0.46,1.22,0.7,2.09,0.7c1.18,0,2.16-0.42,2.94-1.25
			c0.78-0.83,1.17-1.88,1.17-3.14V259.61z"/>
		<path class="st5" d="M685.26,254.58c-0.47-0.37-1.15-0.55-2.03-0.55c-1.15,0-2.11,0.52-2.88,1.56c-0.77,1.04-1.16,2.45-1.16,4.24
			v8.21h-3.89v-17.16h3.89v3.54h0.07c0.38-1.21,0.96-2.15,1.75-2.82c0.79-0.68,1.67-1.01,2.64-1.01c0.7,0,1.24,0.11,1.61,0.32
			V254.58z"/>
		<path class="st5" d="M731.03,268.04h-4.93l-6.67-8.25h-0.07v8.25h-3.91v-25.41h3.91v16.11h0.07l6.3-7.86h4.67l-7.09,8.28
			L731.03,268.04z"/>
	</g>
</g>
<g id="Layer_7" class="st0">
	<g class="st4">
		<path class="st5" d="M73.76,157.17c2.26,0,5.32,0.93,7.05,2.66c12.77,10.51,22.21,30.86,22.08,47.75
			c0,40.83-28.33,59.58-45.09,59.58c-5.85,0-10.37-2.79-13.7-5.59c-1.6-1.6-2.93-2.93-3.86-4.39c-0.67-1.46-1.33-2.53-1.33-3.06
			c-3.46,1.46-7.45,2.39-11.17,2.39c-14.76,0-20.35-13.17-20.35-26.07c0-11.3,2.93-23.27,7.98-33.65
			c5.19-10.64,12.77-19.95,21.94-26.2c1.86-1.46,4.52-3.06,6.25-3.06c1.2,0,2,0.67,2,1.6c0,1.46-1.46,2.26-2,2.79
			c-15.16,15.56-25.4,38.57-25.4,60.65c0,8.11,2.26,18.22,11.17,18.22c2.66,0,5.59-0.8,7.18-2.66c-2-11.04-2.53-20.48-2.26-22.08
			c0-5.59,0.67-10.37,2.66-14.36c1.86-3.86,3.86-7.05,6.25-9.71c2.79-2.53,5.45-4.12,7.98-5.32c2.53-1.2,4.79-1.86,6.38-1.86
			c8.38,0,11.04,10.77,11.04,17.29c0,12.5-7.05,24.87-20.48,36.31c1.86,5.05,5.45,7.58,11.84,7.58c3.19,0,6.52-1.2,10.24-3.86
			c3.59-2.13,6.92-5.85,9.97-10.64c3.19-4.79,5.59-10.91,7.71-17.82c2-7.18,2.93-15.29,2.93-24.6c0-15.03-6.12-31.52-17.29-41.1
			L73.76,157.17z M46.89,238.83c3.99-4.92,6.65-9.71,8.38-14.36c1.6-4.92,2.39-9.84,2.39-15.29c0-3.46-0.13-9.04-3.06-9.04
			c-6.25,0-8.51,27.13-8.51,32.85v3.46C46.23,237.76,46.36,238.43,46.89,238.83z M121.5,207.04c0.27-0.67,0.67-0.8,0.93-0.8h1.33
			c0.93,0,1.86,0.67,2.53,1.33c0.67,1.06,1.33,1.99,1.46,2.93c0.67,2.13,2.93,8.64,3.59,12.5c1.6,11.57,2.66,17.82,2.66,28.33v4.92
			c-0.13,0.93-0.13,1.73-0.27,2.53c-0.4,0.27-1.06,0.4-1.46,0.4c-2.66,0-4.65-2.66-6.12-6.25l-0.53-7.85h-4.52
			c-4.39,0-6.12-0.13-7.18-0.13c-0.4,0-0.8,0.13-0.8,0.13c-1.06,0.4-1.73,1.6-2.53,3.99c-0.67,2.26-1.46,4.39-2.26,6.92l-1.46,3.72
			c-0.53,0.93-1.86,1.06-3.19,1.06c-0.93,0-1.6,0-2.66-0.27c-1.99-1.99-2.79-3.59-2.79-6.65c0-3.06,1.46-7.05,3.99-11.44
			c0-2.13-1.2-4.39-4.12-4.66l0.13-2.66h6.65c1.86-4.52,6.65-13.83,9.84-18.75l6.38-7.71L121.5,207.04z M116.71,234.57
			c0.67,0.13,1.33,0.13,1.86,0.13h3.72c0.67,0,1.46,0,2-0.13c0-2.53-0.13-8.38-1.86-11.3C120.57,223.8,117.91,231.24,116.71,234.57z
			 M149.16,208.9c1.73,0,2.13,1.06,2.13,2.79c0,2.53-0.27,4.39-0.67,6.38c-0.4,1.73-1.06,3.86-1.6,5.85
			c-1.33,4.26-2.79,9.44-3.86,18.75v0.67c0,1.2,0.4,2.13,1.33,2.13c1.86,0,4.79-1.73,9.04-3.06c2-0.8,4.52-2.13,5.85-2.13
			c0.93,0,1.2,0.4,1.2,1.2c0.27,0.8,0.4,1.33,0.4,1.99c0,5.85-10.11,14.36-16.49,14.36c-8.65,0-9.97-8.78-9.97-15.69
			c0-10.11,5.72-25,8.51-30.46C145.84,210.5,146.64,209.97,149.16,208.9z M178.16,271.41c-1.33,0.93-1.86,1.2-3.86,1.2
			c-1.2,0-2.53-0.4-3.86-1.46c-1.33-0.93-2.13-1.73-2.79-2.79c-1.06-1.73-1.86-3.86-1.99-6.38c-0.27-2.66-0.27-4.92-0.27-7.05
			c0-11.44,2-20.88,4.39-27.8c-9.18-3.72-13.83-8.11-13.83-13.03c0-0.93,0.13-2.13,0.67-3.46c0.27-1.33,1.06-2.13,2-2.53
			c1.06,0,1.2,2,1.2,3.33c0,0.4,0.27,0.67,0.53,0.67c4.65,3.86,8.91,4.92,14.36,5.72c2.39-2,6.38-7.85,13.03-7.71
			c3.46,0,9.18,1.06,9.18,10.64c0.13,7.58-10.91,8.78-15.69,8.78h-0.67c-2.39,8.78-2.79,18.35-2.79,27.4
			C177.76,262.1,177.89,266.89,178.16,271.41z M183.34,218.88c0.66,0.13,1.2,0.27,2.26,0.27c2.13,0,5.98-1.6,5.98-3.19
			c0-1.2-0.67-2.13-1.86-2.13c-1.46,0-2.66,0.4-4.12,1.2C184.14,215.95,183.48,217.15,183.34,218.88z M193.85,177.51
			c-0.8,0-1.86,0.27-3.46,0.27c-1.33,0-2.79-0.13-4.12-0.4c-1.46-0.4-2.13-0.8-2.13-1.86c0-12.1,21.41-12.63,30.59-12.63
			c6.25,0,12.77,0.8,19.95,2.39c7.05,1.73,14.1,3.59,20.61,5.98c9.84,3.19,25.14,11.7,37.64,21.94
			c12.63,9.98,22.48,23.14,22.48,36.57c0,6.38-1.6,11.44-4.52,16.23c-2.66,4.39-6.65,8.11-11.57,11.04
			c-4.52,3.06-10.11,5.19-16.09,6.65s-12.1,2.13-18.22,2.13c-6.25,0-13.3-0.93-19.28-2c-0.53,1.46-0.93,2.66-1.73,5.59
			c-1.6,0.53-2.79,0.67-4.66,0.67l-3.06-0.27c-2-2.39-2.53-6.25-3.59-10.51c-12.37-7.05-19.95-13.03-23.54-17.29
			c-1.46-1.46-3.06-3.46-4.52-5.45c-1.46-2-2.26-4.12-2.26-6.12s1.6-4.12,4.52-5.98c3.19-2.39,7.05-4.12,11.17-5.72
			c4.26-1.33,9.71-2.66,16.23-3.86l0.27-5.45c0-0.53,0.53-4.65,1.2-8.78c0.67-3.72,1.86-7.98,3.46-9.44
			c4.92,3.86,5.59,8.25,5.85,14.1c0.13,2.79,0.4,5.59,0.8,8.51h1.73c9.04,0,37.77,2.26,37.77,15.83c0,3.19-4.52,9.18-9.04,9.18
			c-1.73,0-4.65-0.53-6.12-1.6c1.2-1.06,2.26-2.26,3.46-3.33c1.2-0.93,2.26-2,2.39-2.93c-2.66-2.93-17.16-6.65-27.4-6.65
			c-1.86,0-2.53,0.13-3.59,0.53l0.13,28.73c2.13,1.46,4.52,2.26,6.78,2.66c2.53,0.27,4.12,0.4,5.85,0.4
			c7.45,0,19.02-0.67,28.19-4.39c9.44-3.59,17.16-10.11,17.16-22.08c0-23.41-30.06-41.36-52.4-50.14
			c-7.85-3.06-15.69-5.32-23.54-6.92c-7.71-1.6-15.96-2.13-24.87-2.13c-3.46,0-7.18,0.27-10.77,1.06c-2.13,0.4-3.19,1.06-3.19,1.73
			c0,0.8,4.65,1.33,5.19,1.73c0.53,0.27,0.66,0.53,0.66,1.06C194.25,176.85,194.25,177.25,193.85,177.51z M232.42,224.86
			c-11.44,1.06-26.47,2.26-26.6,6.92c0,3.32,6.25,7.85,9.97,10.77c4.39,3.59,10.51,6.65,16.76,8.25l1.2-25.93H232.42z
			 M346.66,177.51h0.53c2,0,7.45,2.39,7.45,7.18c0,2.66-1.06,5.32-2.79,7.98c-2,2.66-4.26,5.05-7.18,7.05
			c-2.66,1.99-5.45,3.72-8.65,5.05c-2.93,1.33-5.59,2.13-7.85,2.13c-2.79,0-5.98-0.4-8.51-1.2c-1.33,1.73-1.86,3.06-3.86,3.46
			c-1.6-0.4-2.93-2.93-3.46-5.98c0-0.53,0.27-1.46,0.53-2.13c-2.13-2.66-3.46-4.79-3.46-7.85c0-8.78,13.03-20.61,25.93-20.88
			C341.21,172.33,345.73,174.59,346.66,177.51z M315.81,193.21c0.13,0.13,0.27,0.13,0.53,0.13c0.27,0,0.53,0,0.67-0.13
			c1.86-2.39,7.31-7.98,10.51-10.77v-0.13c0-0.4-0.13-0.53-0.13-0.67c-3.72,0.8-6.12,2.13-8.25,4.39
			C317.14,188.15,316.07,190.55,315.81,193.21z M323.26,214.49c2.53,0.13,4.12,0.8,4.52,2c0.8,1.33,1.33,3.46,1.33,5.99
			c0.13,10.77,1.33,22.21,1.33,32.85c0,1.06-0.27,2.13-0.8,3.19c-0.53,0.93-1.73,1.46-3.46,1.46c-0.93,0-2.66-0.53-3.72-0.8
			c-1.6-0.4-2.53-5.85-2.53-7.05v-3.99c0-3.46,0.13-4.66,0.4-10.11c0.13-1.86,0.4-9.04,2.13-22.48
			C322.46,214.75,322.86,214.49,323.26,214.49z M323.79,198c0,0.4,0.8,1.06,1.06,1.06h2.93c7.05,0,20.35-4.66,20.35-12.9
			c0-0.93-0.13-1.6-0.27-2.13c-0.27-0.8-1.33-1.06-3.06-1.06C337.09,182.97,329.24,190.42,323.79,198z M342.27,226.19
			c-0.13,0.13-0.27,0.13-0.27,0.27c0,0.27,0.13,0.4,0.27,0.4c2.53,0.93,4.92,1.6,6.78,2.26c1.86,0,4.26,0.27,6.92,0.53
			c2.26,0.13,4.92,0.27,7.45,0.53c2.66,0.13,5.05,0.8,7.32,1.73c1.99,0.8,3.86,2.13,5.32,3.86c1.6,1.86,2.39,3.99,2.39,7.32
			c0,3.59-0.93,6.52-2.53,8.64c-1.73,1.86-3.72,3.33-5.99,4.39c-2.26,1.06-4.39,1.6-6.65,1.86c-2.26,0.27-3.86,0.4-4.92,0.4
			c-11.44,0-21.55-7.45-21.55-12.9c0-6.38,6.92-8.11,12.24-8.11c5.19,0,11.84,1.06,17.16,3.99c0.27,0.13,0.27,0.53,0.27,0.67
			c0,0.27,0,0.53-0.27,0.67c-0.53,0.67-1.33,1.2-2.79,1.86c-1.2,0.67-2.93,0.8-4.65,0.8c-3.86,0-9.31-3.19-14.5-3.19
			c-1.06,0-1.86,0.27-2.66,0.53c-0.93,0.53-1.46,1.33-1.46,2.79c0,3.59,5.98,3.59,10.77,3.59c0.53,0,1.99-0.13,4.39-0.4
			c2.39-0.4,4.65-0.8,7.18-1.33c2.39-0.67,4.39-1.33,6.38-2.26c2-0.93,3.06-2,3.06-3.19c0-4.79-14.1-6.78-19.82-7.05
			c-15.43,0-17.16-1.73-17.16-7.45c0-12.5,25.27-13.43,26.6-13.43c6.38,0,12.24,1.2,16.62,2.13c1.06,0.27,1.6,0.67,1.6,2.13
			c-0.27,1.46-1.6,2.39-3.06,3.06c-0.93,0.4-3.06,0.67-4.26,0.67c-4.66,0.8-18.49,1.46-22.61,2.13
			C345.33,224.86,343.47,225.13,342.27,226.19z M405.58,210.1c0-1.2,0.27-2.79,1.33-2.79c2,0,5.72,3.19,8.91,8.78
			c3.06,5.72,5.59,13.57,5.59,22.88c0,8.11-3.59,18.09-10.24,18.09c-7.58,0-15.83-25.14-17.69-25.14c-0.27,0-0.67,0.67-1.06,1.46
			c-0.27,1.73-0.4,15.96-1.33,19.95c-0.13,1.73-1.06,6.25-3.86,6.25c-4.39,0-5.19-7.45-5.19-10.37c-0.27-7.31,3.46-31.65,9.04-31.65
			c1.06,0,2.39,0.67,3.86,2.79c1.46,1.6,3.06,3.99,4.79,6.52c1.6,2.53,3.19,5.45,5.19,8.38c1.73,2.93,3.59,5.45,5.45,7.71
			c0.67,0.8,0.93,1.06,0.8,1.06c0.8,0,0.93-0.8,0.93-2.26v-1.2c0-11.97-2.66-15.83-5.85-28.46l-0.67-1.46V210.1z M455.32,250.8
			c0,0.93-0.27,1.6-0.8,1.99c-3.59,2.93-11.84,9.18-20.61,9.18c-3.72,0-6.25-1.2-8.11-3.59c-1.73-2.13-2.53-4.79-2.53-7.58
			c0-3.06,1.99-7.32,3.32-11.57c-0.4-1.33-1.06-1.86-1.06-3.46c0-1.06,0.27-1.6,0.67-2.53c1.06-0.53,2.39-1.06,3.46-1.2l3.06-7.18
			c-3.06-1.46-7.45-3.06-7.45-6.12c0-1.33,1.2-1.86,3.46-1.99c5.72-0.4,12.1-2.66,23.14-2.66c1.33,0,2.66,0,5.45,0.93
			c0.53,0.8,1.6,1.73,2.53,2.79c1.06,1.2,1.6,2.66,1.6,3.72c0,1.2-4.52,3.06-7.05,3.06c-2.93,0.13-4.79,0.27-6.12,0.27h-4.66
			c-0.93,0-1.6,0-1.86,0.13c-0.53,0.67-1.86,2.26-1.86,5.45c0,0.67,0.4,1.46,1.33,1.46h9.97l2,0.27c0.67,0.93,0.8,2.66,0.8,3.99
			c0,1.06-0.27,2.93-1.6,3.06c-2.53,0-8.38,0.27-15.29,0.27c-0.27,0-0.53,0.27-0.8,0.8c-0.53,2.93-1.73,5.85-3.19,8.91
			c0.8,0,5.85-1.33,14.36-2.13c1.46-0.13,3.06-0.27,4.65-0.27c0.67,0,1.46,0.53,2.13,1.33C455.05,249.07,455.32,250,455.32,250.8z
			 M461.97,298.81c-2.53-0.4-4.92-1.46-6.25-3.46c-1.73-1.99-2.79-4.39-2.79-7.31c0-2.53,2.39-16.89,9.71-34.71
			c-1.46-3.06-2.53-6.65-2.53-9.84c0-3.46,0.93-7.05,2.26-10.51c1.33-3.72,3.06-6.78,4.79-9.58c2-2.93,3.59-5.32,5.45-7.31
			c1.73-1.73,2.93-2.79,3.46-2.79c2.13,0.27,2.39,1.33,2.39,3.59c0,1.33-0.67,2.66-1.46,3.99c-0.93,1.33-2.26,3.86-4.39,6.78
			c-1.2,1.6-2.26,3.72-3.19,6.25c-1.2,2.39-2,4.92-2,7.18c0,0.67,0,1.33,0.53,1.73h0.27c0,0,0.27-0.13,0.4-0.53
			c1.6-2.26,3.46-4.52,5.85-7.32c2.39-2.93,4.65-5.59,7.05-7.98c2.66-2.39,5.05-4.79,7.45-6.52c2.26-1.86,4.26-2.79,5.99-2.79
			c6.92,0,8.78,11.44,8.78,16.62c0,3.86-1.06,7.45-3.46,10.77c-1.86,3.32-4.39,6.25-7.45,8.51c-3.19,2.66-6.25,4.39-9.58,5.72
			c-3.19,1.46-6.12,1.99-8.25,1.99c-0.8,0-1.86,0.13-2.93,0.27c-5.32,15.16-6.25,21.68-9.71,36.17L461.97,298.81z M478.73,250
			c4.65-0.67,8.91-2.66,13.03-6.25c3.99-3.46,5.72-7.58,5.72-13.3c0-0.67,0-1.33-0.27-2.26c0-0.8-0.53-1.46-1.33-1.46
			c-2.39,0-7.18,6.12-9.31,8.64C485.11,237.5,479.92,247.74,478.73,250z"/>
	</g>
	<g class="st4">
		<path class="st5" d="M585.83,202.1v1.52c-1.45,0-2.62,0.26-3.53,0.78s-1.76,1.49-2.58,2.91c-0.55,0.96-1.41,3.24-2.58,6.85
			l-15.5,44.83h-1.64l-12.67-35.56l-12.59,35.56h-1.48l-16.53-46.18c-1.23-3.45-2.01-5.48-2.34-6.11c-0.55-1.04-1.29-1.81-2.23-2.32
			s-2.22-0.76-3.84-0.76v-1.52h20.59v1.52h-0.98c-1.45,0-2.56,0.33-3.32,0.98s-1.15,1.45-1.15,2.38c0,0.96,0.6,3.16,1.8,6.6
			l10.95,31.21l9.23-26.54l-1.64-4.68l-1.31-3.73c-0.57-1.37-1.22-2.57-1.93-3.61c-0.36-0.52-0.79-0.96-1.31-1.31
			c-0.68-0.49-1.37-0.85-2.05-1.07c-0.52-0.16-1.34-0.25-2.46-0.25v-1.52h21.66v1.52h-1.48c-1.53,0-2.65,0.33-3.36,0.98
			s-1.07,1.54-1.07,2.67c0,1.39,0.62,3.83,1.85,7.3l10.66,30.23l10.58-30.64c1.2-3.39,1.8-5.74,1.8-7.05c0-0.63-0.2-1.22-0.59-1.76
			c-0.4-0.55-0.9-0.93-1.5-1.15c-1.04-0.38-2.39-0.57-4.06-0.57v-1.52H585.83z"/>
		<path class="st5" d="M600.75,219.04c5.69,0,10.25,2.16,13.7,6.48c2.93,3.69,4.39,7.93,4.39,12.71c0,3.36-0.81,6.77-2.42,10.21
			s-3.83,6.04-6.66,7.79c-2.83,1.75-5.98,2.62-9.46,2.62c-5.66,0-10.16-2.26-13.49-6.77c-2.82-3.8-4.22-8.07-4.22-12.8
			c0-3.45,0.86-6.87,2.56-10.27c1.71-3.4,3.96-5.92,6.75-7.55S597.64,219.04,600.75,219.04z M599.48,221.71
			c-1.45,0-2.91,0.43-4.37,1.29c-1.46,0.86-2.65,2.37-3.55,4.53s-1.35,4.94-1.35,8.33c0,5.47,1.09,10.19,3.26,14.15
			s5.04,5.95,8.59,5.95c2.65,0,4.84-1.09,6.56-3.28s2.58-5.95,2.58-11.28c0-6.67-1.44-11.92-4.31-15.75
			C604.97,223.02,602.49,221.71,599.48,221.71z"/>
		<path class="st5" d="M635.37,219.04v8.45c3.14-5.63,6.37-8.45,9.68-8.45c1.5,0,2.75,0.46,3.73,1.37s1.48,1.98,1.48,3.18
			c0,1.07-0.36,1.97-1.07,2.71s-1.56,1.11-2.54,1.11c-0.96,0-2.03-0.47-3.22-1.42s-2.07-1.42-2.65-1.42c-0.49,0-1.03,0.27-1.6,0.82
			c-1.23,1.12-2.5,2.97-3.81,5.54v18.01c0,2.08,0.26,3.65,0.78,4.72c0.36,0.74,0.98,1.35,1.89,1.85s2.2,0.74,3.9,0.74v1.48H622.7
			v-1.48c1.91,0,3.34-0.3,4.27-0.9c0.68-0.44,1.16-1.13,1.44-2.09c0.14-0.46,0.21-1.79,0.21-3.98v-14.56c0-4.38-0.09-6.98-0.27-7.81
			c-0.18-0.83-0.51-1.44-0.98-1.83c-0.48-0.38-1.07-0.57-1.79-0.57c-0.85,0-1.8,0.21-2.87,0.62l-0.41-1.48l11.36-4.59H635.37z"/>
		<path class="st5" d="M665.27,199.4v49.83c0,2.35,0.17,3.91,0.51,4.68s0.87,1.35,1.58,1.74c0.71,0.4,2.04,0.59,3.98,0.59v1.48
			h-18.42v-1.48c1.72,0,2.9-0.18,3.53-0.53c0.63-0.36,1.12-0.94,1.48-1.76s0.53-2.39,0.53-4.72v-34.12c0-4.24-0.1-6.84-0.29-7.81
			s-0.5-1.63-0.92-1.99s-0.96-0.53-1.62-0.53c-0.71,0-1.61,0.22-2.71,0.66l-0.7-1.44l11.2-4.59H665.27z"/>
		<path class="st5" d="M702.23,253.5c-1.83,1.91-3.62,3.29-5.37,4.12s-3.64,1.25-5.66,1.25c-4.1,0-7.68-1.72-10.75-5.15
			c-3.06-3.43-4.59-7.84-4.59-13.23s1.7-10.32,5.09-14.79s7.75-6.71,13.08-6.71c3.31,0,6.04,1.05,8.2,3.16v-6.93
			c0-4.29-0.1-6.93-0.31-7.92s-0.53-1.65-0.96-2.01s-0.98-0.53-1.64-0.53c-0.71,0-1.65,0.22-2.83,0.66l-0.53-1.44l11.2-4.59H709
			v43.44c0,4.4,0.1,7.09,0.31,8.06s0.53,1.65,0.98,2.03s0.98,0.57,1.58,0.57c0.74,0,1.72-0.23,2.95-0.7l0.45,1.44l-11.16,4.63h-1.89
			V253.5z M702.23,250.63v-19.36c-0.16-1.86-0.66-3.55-1.48-5.09s-1.91-2.69-3.26-3.47s-2.67-1.17-3.96-1.17
			c-2.41,0-4.55,1.08-6.44,3.24c-2.49,2.84-3.73,7-3.73,12.47c0,5.52,1.2,9.75,3.61,12.69s5.09,4.41,8.04,4.41
			C697.5,254.36,699.9,253.11,702.23,250.63z"/>
	</g>
	<g class="st4">
		<path class="st5" d="M518.68,311.59h-6.36l-8.07-11.14c-0.6,0.02-1.08,0.04-1.46,0.04c-0.15,0-0.32,0-0.49-0.01
			s-0.36-0.01-0.54-0.03v6.93c0,1.5,0.16,2.43,0.49,2.79c0.45,0.52,1.11,0.77,2,0.77h0.93v0.65h-10.21v-0.65h0.9
			c1.01,0,1.73-0.33,2.16-0.98c0.25-0.36,0.37-1.22,0.37-2.58v-15.4c0-1.5-0.16-2.43-0.49-2.79c-0.46-0.52-1.14-0.77-2.04-0.77h-0.9
			v-0.65h8.68c2.53,0,4.4,0.18,5.6,0.55s2.22,1.05,3.06,2.04s1.26,2.17,1.26,3.54c0,1.46-0.48,2.74-1.43,3.81s-2.43,1.84-4.44,2.29
			l4.92,6.84c1.12,1.57,2.09,2.61,2.9,3.13s1.86,0.84,3.16,0.98V311.59z M501.75,299.34c0.22,0,0.42,0,0.58,0.01s0.3,0.01,0.4,0.01
			c2.27,0,3.99-0.49,5.14-1.48s1.73-2.24,1.73-3.76c0-1.49-0.47-2.7-1.4-3.63s-2.17-1.4-3.7-1.4c-0.68,0-1.6,0.11-2.76,0.33V299.34z
			"/>
		<path class="st5" d="M538.48,289.06v9.42h5.24c1.36,0,2.27-0.21,2.72-0.62c0.61-0.54,0.95-1.49,1.02-2.85h0.65v8.3h-0.65
			c-0.16-1.16-0.33-1.9-0.49-2.23c-0.21-0.41-0.56-0.73-1.04-0.97s-1.22-0.35-2.21-0.35h-5.24v7.86c0,1.05,0.05,1.7,0.14,1.92
			s0.26,0.41,0.49,0.54s0.68,0.2,1.34,0.2h4.04c1.35,0,2.33-0.09,2.94-0.28s1.2-0.56,1.76-1.11c0.73-0.73,1.47-1.82,2.23-3.29h0.7
			l-2.06,5.98H531.7v-0.65h0.84c0.56,0,1.1-0.13,1.6-0.4c0.38-0.19,0.63-0.47,0.76-0.84s0.2-1.14,0.2-2.3v-15.49
			c0-1.51-0.15-2.44-0.46-2.79c-0.42-0.47-1.12-0.7-2.11-0.7h-0.84v-0.65h18.37l0.26,5.22h-0.69c-0.25-1.25-0.52-2.12-0.82-2.58
			s-0.74-0.83-1.33-1.07c-0.47-0.18-1.29-0.26-2.48-0.26H538.48z"/>
		<path class="st5" d="M582.06,287.21v8.24h-0.65c-0.21-1.58-0.59-2.84-1.13-3.78s-1.32-1.68-2.33-2.23s-2.05-0.83-3.13-0.83
			c-1.22,0-2.23,0.37-3.02,1.12s-1.2,1.59-1.2,2.54c0,0.73,0.25,1.39,0.76,1.99c0.73,0.88,2.46,2.05,5.19,3.52
			c2.23,1.2,3.75,2.11,4.56,2.75s1.44,1.39,1.88,2.26s0.66,1.78,0.66,2.72c0,1.8-0.7,3.36-2.1,4.67s-3.2,1.96-5.41,1.96
			c-0.69,0-1.34-0.05-1.95-0.16c-0.36-0.06-1.12-0.27-2.26-0.64s-1.87-0.55-2.17-0.55c-0.29,0-0.52,0.09-0.69,0.26
			s-0.3,0.54-0.38,1.09h-0.65v-8.17h0.65c0.3,1.71,0.71,2.99,1.23,3.84s1.3,1.56,2.36,2.12s2.22,0.84,3.49,0.84
			c1.46,0,2.62-0.39,3.47-1.16s1.27-1.69,1.27-2.74c0-0.59-0.16-1.18-0.48-1.78s-0.82-1.15-1.5-1.67c-0.46-0.35-1.71-1.1-3.74-2.24
			s-3.49-2.05-4.35-2.73s-1.51-1.43-1.96-2.25s-0.67-1.72-0.67-2.71c0-1.71,0.66-3.18,1.97-4.42s2.98-1.85,5.01-1.85
			c1.27,0,2.61,0.31,4.03,0.93c0.66,0.29,1.12,0.44,1.39,0.44c0.3,0,0.55-0.09,0.75-0.27s0.35-0.55,0.47-1.1H582.06z"/>
		<path class="st5" d="M611.34,287.21c3.09,0,5.77,1.17,8.04,3.52s3.4,5.28,3.4,8.8c0,3.62-1.14,6.63-3.43,9.02s-5.05,3.59-8.3,3.59
			c-3.28,0-6.04-1.17-8.27-3.5s-3.35-5.35-3.35-9.05c0-3.79,1.29-6.87,3.87-9.26C605.54,288.25,608.22,287.21,611.34,287.21z
			 M611,288.5c-2.13,0-3.84,0.79-5.13,2.37c-1.61,1.97-2.41,4.85-2.41,8.65c0,3.89,0.83,6.88,2.5,8.98
			c1.28,1.59,2.96,2.39,5.06,2.39c2.24,0,4.09-0.87,5.55-2.62s2.19-4.5,2.19-8.26c0-4.08-0.8-7.12-2.41-9.12
			C615.06,289.29,613.28,288.5,611,288.5z"/>
		<path class="st5" d="M661.1,311.59h-6.36l-8.07-11.14c-0.6,0.02-1.08,0.04-1.46,0.04c-0.15,0-0.32,0-0.49-0.01
			s-0.36-0.01-0.54-0.03v6.93c0,1.5,0.16,2.43,0.49,2.79c0.45,0.52,1.11,0.77,2,0.77h0.93v0.65h-10.21v-0.65h0.9
			c1.01,0,1.73-0.33,2.16-0.98c0.25-0.36,0.37-1.22,0.37-2.58v-15.4c0-1.5-0.16-2.43-0.49-2.79c-0.46-0.52-1.14-0.77-2.04-0.77h-0.9
			v-0.65h8.68c2.53,0,4.4,0.18,5.6,0.55s2.22,1.05,3.06,2.04s1.26,2.17,1.26,3.54c0,1.46-0.48,2.74-1.43,3.81s-2.43,1.84-4.44,2.29
			l4.92,6.84c1.12,1.57,2.09,2.61,2.9,3.13s1.86,0.84,3.16,0.98V311.59z M644.17,299.34c0.22,0,0.42,0,0.58,0.01s0.3,0.01,0.4,0.01
			c2.27,0,3.99-0.49,5.14-1.48s1.73-2.24,1.73-3.76c0-1.49-0.47-2.7-1.4-3.63s-2.17-1.4-3.7-1.4c-0.68,0-1.6,0.11-2.76,0.33V299.34z
			"/>
		<path class="st5" d="M692.05,287.76l0.26,5.59h-0.67c-0.13-0.98-0.3-1.69-0.53-2.11c-0.36-0.68-0.85-1.18-1.45-1.5
			s-1.4-0.48-2.38-0.48h-3.36v18.21c0,1.46,0.16,2.38,0.47,2.74c0.45,0.49,1.13,0.74,2.06,0.74h0.83v0.65h-10.11v-0.65h0.84
			c1.01,0,1.72-0.3,2.14-0.91c0.26-0.38,0.39-1.23,0.39-2.57v-18.21h-2.87c-1.11,0-1.9,0.08-2.37,0.25
			c-0.61,0.22-1.13,0.65-1.56,1.28s-0.69,1.49-0.77,2.57h-0.67l0.28-5.59H692.05z"/>
	</g>
	<path class="st1" d="M690.05,153.06l-6-9c0,0-288-126-585-12c0,0,46.5-33.5,282.5-38.5C532.52,90.36,690.05,153.06,690.05,153.06z"
		/>
	<polygon class="st1" points="659.55,102.56 649.55,107.56 661.55,112.56 664.55,123.56 671.55,112.56 684.55,114.56 677.55,104.56 
		682.55,92.56 670.55,97.56 660.55,89.56 	"/>
	<polygon class="st1" points="709.97,147.42 695.53,144.19 703.66,159.35 697.55,173.15 713.92,167.71 725.59,180.63 726.77,164.52 
		741.93,156.38 725.44,151.48 721.86,134.92 	"/>
	<polygon class="st1" points="603.76,143.89 594.07,141.72 599.53,151.89 595.42,161.15 606.41,157.5 614.24,166.17 615.03,155.36 
		625.2,149.9 614.14,146.61 611.74,135.5 	"/>
	<polygon class="st1" points="548.93,77.67 543.11,76.37 546.39,82.47 543.93,88.03 550.52,85.84 555.22,91.04 555.69,84.55 
		561.8,81.28 555.16,79.31 553.72,72.64 	"/>
	<polygon class="st1" points="595.55,84.56 596.55,75.56 598.55,84.56 605.55,85.56 598.55,87.56 597.55,95.56 595.55,87.56 
		588.55,85.56 	"/>
	<polygon class="st1" points="504.62,74.58 505.12,70.06 506.12,74.58 509.63,75.08 506.12,76.08 505.62,80.09 504.62,76.08 
		501.11,75.08 	"/>
	<polygon class="st1" points="570.32,150.38 571.02,144.06 572.42,150.38 577.33,151.08 572.42,152.48 571.72,158.09 570.32,152.48 
		565.41,151.08 	"/>
	<polygon class="st1" points="522.32,123.38 523.02,117.06 524.42,123.38 529.33,124.08 524.42,125.48 523.72,131.09 522.32,125.48 
		517.41,124.08 	"/>
	<polygon class="st1" points="469.54,126.53 470.09,121.57 471.19,126.53 475.05,127.08 471.19,128.18 470.64,132.58 469.54,128.18 
		465.69,127.08 	"/>
	<polygon class="st1" points="450.62,52.58 451.12,48.06 452.12,52.58 455.63,53.08 452.12,54.08 451.62,58.09 450.62,54.08 
		447.11,53.08 	"/>
	<polygon class="st1" points="404.9,62.76 405.21,59.92 405.84,62.76 408.05,63.08 405.84,63.71 405.53,66.23 404.9,63.71 
		402.69,63.08 	"/>
	<polygon class="st1" points="317.9,115.76 318.21,112.92 318.84,115.76 321.05,116.08 318.84,116.71 318.53,119.23 317.9,116.71 
		315.69,116.08 	"/>
	<polygon class="st1" points="617.99,72.86 618.7,66.5 620.11,72.86 625.05,73.56 620.11,74.97 619.4,80.62 617.99,74.97 
		613.05,73.56 	"/>
	<polygon class="st1" points="632.17,100.97 632.76,95.68 633.93,100.97 638.05,101.56 633.93,102.74 633.34,107.44 632.17,102.74 
		628.05,101.56 	"/>
	<polygon class="st1" points="647.37,157.11 647.82,153.06 648.72,157.11 651.87,157.56 648.72,158.46 648.27,162.06 647.37,158.46 
		644.22,157.56 	"/>
	<polygon class="st1" points="764.37,161.11 764.82,157.06 765.72,161.11 768.87,161.56 765.72,162.46 765.27,166.06 764.37,162.46 
		761.22,161.56 	"/>
	<polygon class="st1" points="733.92,186.81 734.67,180.06 736.17,186.81 741.42,187.56 736.17,189.06 735.42,195.06 733.92,189.06 
		728.67,187.56 	"/>
	<polygon class="st1" points="743.92,132.81 744.67,126.06 746.17,132.81 751.42,133.56 746.17,135.06 745.42,141.06 743.92,135.06 
		738.67,133.56 	"/>
	<polygon class="st1" points="701.92,118.81 702.67,112.06 704.17,118.81 709.42,119.56 704.17,121.06 703.42,127.06 701.92,121.06 
		696.67,119.56 	"/>
	<polygon class="st1" points="723.22,93.01 723.77,88.06 724.87,93.01 728.72,93.56 724.87,94.66 724.32,99.06 723.22,94.66 
		719.37,93.56 	"/>
</g>
<g id="Layer_8">
	<path class="st5" d="M280.65,213.98h60.97c0,0-0.94-20.51,0-30.98c1.43-15.94,36.09-17.06,38.26,0s2.39,30.98,2.39,30.98h59.78
		l-5.98-45.36h5.98c0,0-11.96-22.13-11.96-26.55c0-1.11-10.16,20.47-10.16,20.47v-27.66l3.59-2.21c0,0-7.77-8.3-8.37-8.85
		c-0.85-0.78-2.39-8.85-2.39-8.85l3.59-3.32h-3.59V105h-3.59v5.53h-3.59l3.59,4.43l-2.39,5.53v3.32l-3.59,5.53l-4.78,2.21l3.59,3.32
		v5.53h-6.58l-0.6-52h4.78c0,0-10.76-11.06-10.76-19.91c0,0-5.98,17.7-10.76,19.91h3.59v17.7l-7.17-6.64V71.81l4.78-3.32v-3.32h-1.2
		l-1.2-2.21h-3.59c0,0,0-16.6,0-18.81c0-2.21-1.2-2.21-1.2-4.43c0-2.21,0-7.74,0-7.74h-2.39l-2.39-19.91l-3.59,19.91h-2.39v9.96
		l-1.79-4.98l-2.99,8.3v15.49l4.18,2.77h-4.78l-0.6,1.66h-1.2v3.32c0,0,4.78,2.21,4.78,6.64s0,24.34,0,24.34h-7.17
		c0,0,5.38-4.98,0-8.85l4.18-2.77l-5.38-2.77v-5.53l3.59-2.21l-4.78-3.32c0,0,2.99-2.77-0.6-3.87L347,64.06v-7.74
		c0,0,2.99-2.77,0-4.43l-1.79-4.98l-1.79,4.98c0,0-2.99,1.66,0,4.43c0.6,0.55,0,7.74,0,7.74l-1.2,5.53c0,0-3.59,2.21-1.2,4.43
		c1.2,1.11-3.59,3.32-3.59,3.32l3.59,2.21v5.53l-4.78,3.32l3.59,2.21c0,0-4.78,5.53,1.2,8.85h-9.56c0,0,0,13.28-10.76,17.7v4.43
		h4.78v13.28l-9.56,1.11v-8.85h5.98c0,0-13.15-17.7-13.15-26.55c0,0-4.78,22.13-11.96,26.55h5.98l-1.2,32.09l-7.17-17.7
		c0,0-10.76,25.45-14.35,27.66h7.17L280.65,213.98z"/>
	<path class="st5" d="M430.05,139.06v-7c0,0,7,1,11,0s9,4,9,4s-9,0-12,1S434.05,139.06,430.05,139.06z"/>
	<rect x="410.05" y="82.06" class="st5" width="2" height="23"/>
	<path class="st5" d="M412.05,83.19c0,0,7-1.13,8-1.13c4.12,0,9,3,9,3s-6,0-10,2s-7,1.3-7,1.3V83.19z"/>
	<path class="st5" d="M367.05,0.06v10c0,0,7.88-0.52,11,0c6,1,9-1,10-2s5-4,5-4s-5.53,1.01-11,0C375.26,2.8,368.16-0.49,367.05,0.06
		"/>
	<path class="st5" d="M308.05,92.06v7c0,0,7-1,10-2s9-1,9-1S316.05,90.06,308.05,92.06"/>
	<g>
		<path class="st5" d="M10.08,172.01c-4.62,0-10.08-0.63-10.08-3.36c0-19.32,34.02-20.16,48.51-20.16c18.9,0,43.05,5.88,63.63,13.23
			c31.29,11.34,94.71,49.14,94.71,92.4c0,38.22-41.16,56.49-79.38,56.49c-9.66,0-21.21-1.68-30.66-3.15
			c-0.63,2.31-1.05,3.99-2.52,8.82c-2.52,0.42-4.62,0.84-7.35,0.84l-4.83-0.42c-3.15-3.78-4.2-9.87-5.46-16.38
			c-19.11-11.13-31.5-20.58-37.17-27.09c-4.83-5.04-10.29-11.76-10.29-18.27c0-3.36,2.1-6.3,6.93-9.66
			c9.87-7.35,22.47-11.34,43.05-14.91l0.42-8.61c0.21-2.1,2.31-24.57,7.14-28.77c7.77,6.3,8.61,12.81,9.24,22.47
			c0.21,4.2,0.42,8.61,1.05,13.23h2.94c14.7,0,59.64,3.78,59.64,24.99c0,5.04-7.35,14.49-14.49,14.49c-2.52,0-7.14-1.05-9.24-2.73
			c3.15-3.57,7.77-6.72,9.03-9.45c-4.2-5.04-26.88-10.92-43.47-10.92c-2.73,0-3.78,0-5.46,0.21l0.21,45.99
			c6.72,4.2,14.91,4.62,20.16,4.62c23.1,0,70.98-3.99,70.98-41.37c0-36.96-47.25-65.52-82.53-78.96
			c-24.78-9.45-48.3-14.28-75.81-14.28c-5.67,0-11.55,0.42-17.22,1.89c-3.57,0.84-4.83,1.68-4.83,2.52c0,1.47,7.14,2.31,7.98,2.73
			c0.63,0.42,1.05,1.05,1.05,1.68c0,0.42-0.21,1.05-0.84,1.68C14.28,171.8,12.39,172.01,10.08,172.01z M78.33,245.72
			c-20.79,1.68-43.89,3.78-43.89,11.13c0,5.67,9.66,12.6,15.54,17.01c6.72,5.46,16.8,10.5,26.46,12.6L78.33,245.72z"/>
		<path class="st5" d="M257.88,171.17c3.57,0,11.76,3.57,11.76,11.34c0,16.17-27.72,34.65-41.58,34.65c-4.2,0-9.45-0.63-13.23-1.89
			c-2.31,2.73-3.15,5.04-6.3,5.46c-2.1-0.42-4.83-4.41-5.25-9.03c0-1.05,0.42-2.52,0.63-3.57c-3.15-4.2-5.46-7.98-5.46-12.6
			c0-13.86,20.79-32.34,40.74-32.34c9.24,0,16.59,3.57,17.85,8.19C257.25,171.38,257.46,171.17,257.88,171.17z M209.58,195.95
			c0.42,0,0.84-0.21,1.05-0.42c2.73-3.78,11.55-12.18,16.38-16.8v-0.21c0-0.21,0-0.63-0.42-1.05c-10.5,2.1-17.01,9.87-17.85,18.06
			C208.95,195.74,209.16,195.95,209.58,195.95z M229.53,241.73c0.42,17.01,2.1,34.86,2.1,51.66c0,3.36-1.26,7.35-6.51,7.35
			c-1.68,0-4.2-0.63-5.88-1.26c-2.73-0.84-3.99-9.03-4.2-11.13c0-10.71,0.21-10.92,0.63-22.05c0.21-2.94,0.84-14.49,3.57-35.7
			c0.21-1.05,0.42-1.47,1.26-1.47C228.06,229.34,229.11,233.75,229.53,241.73z M223.02,204.77h4.62c10.5,0,31.92-7.14,31.92-19.95
			c0-2.94,0-5.25-5.46-5.25c-12.18,0-24.15,11.76-32.76,23.52C221.34,203.51,222.39,204.77,223.02,204.77z"/>
		<path class="st5" d="M253.26,248.45c0,0.21,0.21,0.42,0.42,0.42c7.98,2.94,13.23,3.99,21.63,4.41c14.28,1.05,35.49,1.26,35.49,21
			c0,22.68-25.2,23.94-31.92,23.94c-17.85,0-33.6-11.34-33.6-19.95c0-10.29,10.71-13.02,19.11-13.02c7.98,0,18.48,2.1,27.09,6.51
			c0.21,0.21,0.42,0.42,0.42,0.84c0,0.63-0.21,1.05-0.42,1.26c-1.68,1.68-6.72,4.2-11.97,4.2c-6.09,0-14.49-5.04-22.68-5.04
			c-2.94,0-6.51,0.63-6.51,5.25c0,5.25,9.45,5.25,17.01,5.25c3.99,0,32.97-3.36,32.97-11.13c0-7.35-22.05-10.5-31.08-10.71
			c-24.15-0.63-27.3-3.15-27.3-11.97c0-19.74,39.9-21.21,41.79-21.21c10.5,0,19.95,1.89,26.88,3.57c1.47,0.21,2.31,0.84,2.31,3.15
			c-0.21,2.52-2.31,3.99-4.62,4.83c-1.68,0.42-5.25,1.05-6.93,1.26c-7.35,1.05-28.98,1.89-35.7,3.15
			c-6.93,1.05-9.87,1.89-11.97,3.15C253.47,247.82,253.26,248.24,253.26,248.45z"/>
		<path class="st5" d="M355.53,222.2c0-1.68,0.21-4.41,2.1-4.41c5.88,0,22.68,20.79,22.68,49.98c0,12.81-5.88,28.14-16.17,28.14
			c-12.18,0-24.99-39.06-27.93-39.06c-0.42,0-1.05,0.63-1.47,2.31c-0.63,2.52-1.05,24.57-2.1,31.08c-0.63,2.94-1.68,9.87-6.3,9.87
			c-6.72,0-8.19-11.55-8.19-16.59c0-10.92,5.46-49.56,14.49-49.56c6.3,0,18.9,26.25,30.03,40.11c0.84,0.84,1.26,1.68,1.47,1.68
			c1.26,0,1.26-1.89,1.26-5.46c0-19.32-3.99-24.99-9.24-44.73l-0.63-2.52V222.2z"/>
		<path class="st5" d="M435.75,290.24c-5.67,4.41-18.48,14.28-32.34,14.28c-11.55,0-16.8-8.61-16.8-17.64
			c0-4.83,2.94-11.34,5.25-17.85c-0.63-2.1-1.68-3.36-1.68-5.46c0-1.68,0.63-2.52,1.05-4.2c1.68-0.63,3.57-1.47,5.46-1.68
			l5.04-11.55c-4.83-2.31-11.97-5.04-11.97-9.45c0-2.31,1.89-2.94,5.46-3.15c8.82-0.42,19.11-4.2,36.33-4.2
			c1.89,0,4.2,0.21,8.61,1.47c1.89,2.31,6.72,6.72,6.72,10.29c0,2.1-7.35,4.41-11.34,4.62c-9.03,0.63-11.13,0.42-16.8,0.63
			c-1.05,0-2.1,0-3.15,0.21c-0.84,0.84-2.52,3.57-2.52,8.82c0,0.84,0.42,2.1,1.89,2.1h15.54l2.94,0.42c1.05,1.47,1.26,4.2,1.26,6.09
			c0,1.68-0.42,4.83-2.31,5.04c-3.78,0.21-13.23,0.63-23.73,0.63c-0.42,0-0.84,0-1.26,0.84c-1.05,4.41-2.94,9.45-5.04,14.07
			c1.05,0,9.03-2.1,22.47-3.36c2.1-0.21,4.83-0.42,6.93-0.42c2.52,0,5.25,3.57,5.25,6.3C437.01,288.35,436.8,289.61,435.75,290.24z"
			/>
		<path class="st5" d="M448.14,361.85c-8.4-0.84-14.07-7.77-14.07-16.8c0-3.99,3.36-26.67,15.12-54.81
			c-2.31-5.04-3.78-10.29-3.78-15.33c0-21.63,21-47.25,25.2-47.67c2.94,0.42,3.36,2.1,3.36,5.88c0,4.2-2.52,6.93-9.03,16.8
			c-3.36,5.25-8.19,13.86-8.19,21.42c0,0.84,0,2.1,0.63,2.52h0.42c0.21,0,0.42-0.21,0.84-0.84c10.08-13.44,30.87-38.64,41.58-38.64
			c10.92,0,13.65,17.64,13.65,26.04c0,24.78-31.08,42.42-45.15,42.42c-1.47,0-2.94,0.21-4.62,0.42
			c-8.19,23.94-9.66,34.23-15.33,56.91L448.14,361.85z M495.18,275.12c5.88-5.04,9.03-11.97,9.03-20.58c0-2.31,0-5.88-2.73-5.88
			c-3.57,0-11.55,9.45-14.7,13.44c-2.31,3.15-10.71,19.11-12.18,22.68C481.74,283.94,488.67,280.79,495.18,275.12z"/>
		<path class="st5" d="M542.43,229.76c-0.21,15.12-6.3,19.53-9.87,48.72v0.84c0,1.89,1.05,3.57,2.31,3.57
			c2.94,0,7.56-2.52,14.07-4.83c3.15-1.26,7.35-3.36,9.45-3.36s2.31,3.57,2.31,4.83c0,9.03-15.54,22.47-25.83,22.47
			c-14.07,0-15.96-13.65-15.96-24.36c0-15.75,8.82-39.27,13.44-47.88c1.26-2.31,2.73-3.36,6.51-4.62
			C542.01,225.14,542.43,226.61,542.43,229.76z"/>
		<path class="st5" d="M603.54,220.1h1.26c2.73,0,5.67,3.57,6.09,6.51c1.05,3.57,4.83,13.86,5.67,19.53
			c2.52,18.27,4.2,28.56,4.2,44.73c0,7.35,0,9.24-0.63,11.76c-0.63,0.42-1.47,0.63-2.31,0.63c-3.99,0-7.14-4.41-9.45-9.87
			l-0.84-12.18h-6.72c-7.35,0-9.87-0.21-11.55-0.21c-0.63,0-1.05,0-1.26,0.21c-3.15,1.05-4.62,9.24-7.56,17.01l-2.31,6.09
			c-1.05,1.05-2.94,1.68-5.04,1.68c-1.26,0-2.52-0.42-4.2-0.63c-2.94-3.15-3.99-5.88-3.99-10.29c0-5.04,2.1-11.34,5.88-18.06
			c0-3.36-1.89-6.93-6.3-7.56l0.42-3.99c0.84,0.21,1.89,0.21,2.94,0.21h6.93c3.36-7.14,10.71-22.05,15.75-29.61l10.08-12.39
			l0.63-2.52C601.86,220.1,602.49,220.1,603.54,220.1z M599.55,264.83c1.89,0,4.2,0,6.09-0.21c0-3.99-0.21-13.23-2.94-18.06
			c-2.94,0.84-7.56,13.02-9.03,18.06C595.56,264.83,597.66,264.83,599.55,264.83z"/>
		<path class="st5" d="M665.06,222.2c0-1.68,0.21-4.41,2.1-4.41c5.88,0,22.68,20.79,22.68,49.98c0,12.81-5.88,28.14-16.17,28.14
			c-12.18,0-24.99-39.06-27.93-39.06c-0.42,0-1.05,0.63-1.47,2.31c-0.63,2.52-1.05,24.57-2.1,31.08c-0.63,2.94-1.68,9.87-6.3,9.87
			c-6.72,0-8.19-11.55-8.19-16.59c0-10.92,5.46-49.56,14.49-49.56c6.3,0,18.9,26.25,30.03,40.11c0.84,0.84,1.26,1.68,1.47,1.68
			c1.26,0,1.26-1.89,1.26-5.46c0-19.32-3.99-24.99-9.24-44.73l-0.63-2.52V222.2z"/>
		<path class="st5" d="M694.46,235.64c0-4.83,3.57-7.56,10.71-9.03c2.52-0.21,4.62-0.21,6.93-0.21c20.37,0,36.54,7.98,48.93,23.94
			c5.25,8.19,6.51,11.97,6.51,19.74c0,17.64-21.21,31.08-40.32,31.08h-1.26c-0.84,1.89-2.73,3.57-5.67,5.25h-1.68
			c-5.25,0-7.56-2.73-7.56-8.4v-0.84c-9.45-6.09-14.07-11.97-14.07-17.85c0-2.94,0.84-5.67,2.52-8.4c2.31,3.15,5.67,5.46,10.08,7.56
			c-0.21-2.31-0.21-4.2-0.21-6.3c0-16.59,3.99-24.78,11.97-24.78h1.47c1.05,7.14,1.05,16.38,1.05,23.52v13.23
			c2.94,1.26,6.72,1.26,8.82,1.26c13.65,0,20.37-3.99,20.37-11.76c0-5.04-2.94-11.76-9.03-20.16
			c-10.08-12.18-23.31-18.27-39.48-18.27h-2.52l-4.62,6.51l-2.73-3.78C694.46,237.11,694.46,236.27,694.46,235.64z"/>
	</g>
	<g>
		<path class="st5" d="M499.6,212.47h-5.66c0.2-6.87,0.3-13.03,0.3-18.47H476.4c0,4.41,0.1,10.56,0.3,18.47h-5.66
			c0.28-7.25,0.42-14.04,0.42-20.37c0-6.63-0.14-12.77-0.42-18.41h5.66c-0.24,5.68-0.36,11.2-0.36,16.56h17.96
			c0-4.31-0.12-9.83-0.36-16.56h5.66c-0.3,5.52-0.45,11.66-0.45,18.41C499.15,199.5,499.3,206.29,499.6,212.47z"/>
		<path class="st5" d="M539.84,196.05c0,5.3-1.67,9.52-5,12.64c-3.34,3.13-7.19,4.69-11.56,4.69c-4.19,0-7.87-1.45-11.04-4.33
			c-3.17-2.89-4.75-6.8-4.75-11.72c0-5.32,1.67-9.54,5-12.66c3.34-3.12,7.19-4.68,11.56-4.68c4.19,0,7.87,1.44,11.04,4.32
			C538.26,187.2,539.84,191.11,539.84,196.05z M534.63,196.59c0-4.05-1.15-7.2-3.44-9.44c-2.29-2.24-4.92-3.37-7.88-3.37
			c-2.76,0-5.22,1.18-7.37,3.54c-2.15,2.36-3.23,5.48-3.23,9.35c0,4.03,1.15,7.18,3.44,9.44s4.92,3.39,7.88,3.39
			c2.76,0,5.22-1.19,7.37-3.56S534.63,200.46,534.63,196.59z"/>
		<path class="st5" d="M572.84,212.47h-4.29c0-0.36-2.77-4.18-8.31-11.47c-5.78-7.62-9.08-12.52-9.89-14.68h-0.3
			c0.36,3.85,0.54,7.19,0.54,10.01c0,5.14,0.12,10.52,0.36,16.14h-4.86c0.3-5.22,0.45-10.78,0.45-16.68
			c0-5.78-0.15-10.82-0.45-15.13h5.66c0,0.54,2.53,4.19,7.59,10.96c5.32,7.13,8.36,11.8,9.12,14.03h0.3
			c-0.34-3.89-0.51-7.24-0.51-10.04c0-5.68-0.13-10.66-0.39-14.95h4.97c-0.26,4.27-0.39,9.31-0.39,15.13
			C572.45,201.7,572.58,207.26,572.84,212.47z"/>
		<path class="st5" d="M606.65,211.78c-3.14,0.89-6.22,1.34-9.26,1.34c-6.02,0-10.57-1.54-13.66-4.63
			c-3.09-3.09-4.63-6.84-4.63-11.24c0-4.53,1.7-8.49,5.09-11.9c3.39-3.41,7.99-5.11,13.79-5.11c2.5,0,4.75,0.23,6.73,0.68
			l-0.69,4.44c-3-0.66-5.38-0.98-7.15-0.98c-4.11,0-7.23,1.18-9.35,3.53c-2.12,2.35-3.19,5.22-3.19,8.59c0,3.47,1.23,6.5,3.69,9.08
			c2.46,2.58,5.85,3.87,10.16,3.87c1.03,0,2.35-0.12,3.96-0.36c-0.28-1.71-0.42-3.63-0.42-5.78c0-1.85-0.14-3.72-0.42-5.63h5.33
			c-0.14,2.24-0.21,4.58-0.21,7C606.44,205.9,606.51,208.27,606.65,211.78z"/>
		<path class="st5" d="M657.94,212.47h-6.52c0-0.22-1.13-1.95-3.4-5.18c-2.62-3.75-5.01-6.85-7.18-9.29
			c-2.94-3.32-5.11-4.97-6.52-4.97h-0.92c0,4.65,0.1,11.13,0.3,19.45h-5.6c0.3-6.16,0.45-12.95,0.45-20.37
			c0-6.99-0.15-13.12-0.45-18.41h5.6c-0.2,5.28-0.3,10.64-0.3,16.08h0.68c1.09,0,3.82-2.53,8.18-7.59c4.36-5.06,6.54-7.89,6.54-8.49
			h6.2c0,0.6-2.12,3.05-6.36,7.37c-4.24,4.32-7.39,7.22-9.46,8.71v0.3c2.28,0.87,6.09,4.82,11.41,11.82
			C655.49,208.35,657.94,211.87,657.94,212.47z"/>
		<path class="st5" d="M693.23,196.05c0,5.3-1.67,9.52-5,12.64c-3.34,3.13-7.19,4.69-11.56,4.69c-4.19,0-7.87-1.45-11.04-4.33
			c-3.17-2.89-4.75-6.8-4.75-11.72c0-5.32,1.67-9.54,5-12.66c3.34-3.12,7.19-4.68,11.56-4.68c4.19,0,7.87,1.44,11.04,4.32
			C691.65,187.2,693.23,191.11,693.23,196.05z M688.02,196.59c0-4.05-1.15-7.2-3.44-9.44s-4.92-3.37-7.88-3.37
			c-2.76,0-5.22,1.18-7.37,3.54s-3.23,5.48-3.23,9.35c0,4.03,1.15,7.18,3.44,9.44c2.29,2.26,4.92,3.39,7.88,3.39
			c2.76,0,5.22-1.19,7.37-3.56C686.94,203.59,688.02,200.46,688.02,196.59z"/>
		<path class="st5" d="M726.24,212.47h-4.29c0-0.36-2.77-4.18-8.31-11.47c-5.78-7.62-9.07-12.52-9.89-14.68h-0.3
			c0.36,3.85,0.54,7.19,0.54,10.01c0,5.14,0.12,10.52,0.36,16.14h-4.85c0.3-5.22,0.45-10.78,0.45-16.68
			c0-5.78-0.15-10.82-0.45-15.13h5.66c0,0.54,2.53,4.19,7.6,10.96c5.32,7.13,8.36,11.8,9.11,14.03h0.3
			c-0.34-3.89-0.51-7.24-0.51-10.04c0-5.68-0.13-10.66-0.39-14.95h4.97c-0.26,4.27-0.39,9.31-0.39,15.13
			C725.85,201.7,725.98,207.26,726.24,212.47z"/>
		<path class="st5" d="M760.04,211.78c-3.14,0.89-6.23,1.34-9.26,1.34c-6.02,0-10.57-1.54-13.66-4.63
			c-3.09-3.09-4.63-6.84-4.63-11.24c0-4.53,1.7-8.49,5.09-11.9c3.4-3.41,7.99-5.11,13.79-5.11c2.5,0,4.75,0.23,6.73,0.68l-0.68,4.44
			c-3-0.66-5.38-0.98-7.15-0.98c-4.11,0-7.23,1.18-9.35,3.53c-2.12,2.35-3.19,5.22-3.19,8.59c0,3.47,1.23,6.5,3.69,9.08
			c2.46,2.58,5.85,3.87,10.16,3.87c1.03,0,2.35-0.12,3.96-0.36c-0.28-1.71-0.42-3.63-0.42-5.78c0-1.85-0.14-3.72-0.42-5.63h5.33
			c-0.14,2.24-0.21,4.58-0.21,7C759.83,205.9,759.9,208.27,760.04,211.78z"/>
	</g>
	<path class="st5" d="M234.05,158.06c5-26,10.42-91.77,84.1-117.9c84.9-30.1,147.9,10.9,162.9,41.9c0,0-60.28-72.75-156-37
		C242.05,76.06,234.05,158.06,234.05,158.06z"/>
	<polygon class="st5" points="501.05,100.06 504.05,86.06 507.05,100.06 517.05,98.06 509.05,106.06 517.05,113.06 506.05,110.06 
		504.05,125.06 501.05,110.06 491.05,113.06 498.05,106.06 490.05,98.06 	"/>
	<polygon class="st5" points="513.57,84.93 514.4,81.06 515.23,84.93 517.99,84.37 515.78,86.58 517.99,88.52 514.95,87.69 
		514.4,91.83 513.57,87.69 510.81,88.52 512.74,86.58 510.54,84.37 	"/>
	<polygon class="st5" points="484.32,123.36 485.45,118.06 486.59,123.36 490.37,122.61 487.34,125.63 490.37,128.28 486.21,127.15 
		485.45,132.83 484.32,127.15 480.53,128.28 483.18,125.63 480.15,122.61 	"/>
	<polygon class="st5" points="512.44,125.64 513.43,121.06 514.41,125.64 517.68,124.99 515.06,127.61 517.68,129.9 514.08,128.92 
		513.43,133.83 512.44,128.92 509.17,129.9 511.46,127.61 508.84,124.99 	"/>
	<polygon class="st5" points="519.57,140.93 520.4,137.06 521.23,140.93 523.99,140.37 521.78,142.58 523.99,144.52 520.95,143.69 
		520.4,147.83 519.57,143.69 516.81,144.52 518.74,142.58 516.54,140.37 	"/>
	<polygon class="st5" points="486.05,86.06 488.05,81.06 490.05,86.06 493.05,88.06 490.05,89.06 488.05,95.06 486.05,89.06 
		483.05,88.06 	"/>
	<polygon class="st5" points="525.05,117.06 527.05,112.06 529.05,117.06 532.05,119.06 529.05,120.06 527.05,126.06 525.05,120.06 
		522.05,119.06 	"/>
	<polygon class="st5" points="497.62,144.63 499.05,141.06 500.48,144.63 502.62,146.06 500.48,146.78 499.05,151.06 497.62,146.78 
		495.48,146.06 	"/>
	<circle class="st5" cx="499.05" cy="80.06" r="2"/>
	<circle class="st5" cx="521.05" cy="104.06" r="2"/>
	<circle class="st5" cx="496.05" cy="133.06" r="2"/>
	<circle class="st5" cx="495.55" cy="160.56" r="1.5"/>
	<circle class="st5" cx="508.55" cy="151.56" r="1.5"/>
	<circle class="st5" cx="507.55" cy="138.56" r="1.5"/>
	<circle class="st5" cx="484.55" cy="107.56" r="1.5"/>
</g>
</svg>
