<?xml version="1.0" encoding="utf-8"?>
<!-- Generator: Adobe Illustrator 26.5.0, SVG Export Plug-In . SVG Version: 6.00 Build 0)  -->
<svg version="1.1" xmlns="http://www.w3.org/2000/svg" xmlns:xlink="http://www.w3.org/1999/xlink" x="0px" y="0px"
	 viewBox="0 0 743.79 206.77" style="enable-background:new 0 0 743.79 206.77;" xml:space="preserve">
<style type="text/css">
	.st0{display:none;}
	.st1{display:inline;}
	.st2{fill:#FFFFFF;}
	.st3{font-family:'Waltograph';}
	.st4{font-size:222.0164px;}
	
		.st5{clip-path:url(#SVGID_00000095326798744298628210000001395648328066787976_);fill:none;stroke:#FFFFFF;stroke-width:10;stroke-miterlimit:10;}
	.st6{display:inline;fill:#FFFFFF;}
</style>
<g id="Layer_1" class="st0">
	<g class="st1">
		<text transform="matrix(1 0 0 1 -17.9814 207.1499)" class="st2 st3 st4">Magic</text>
		<text transform="matrix(1 0 0 1 445.0186 252.1499)" class="st2 st3 st4">+</text>
		<g>
			<defs>
				<path id="SVGID_1_" d="M450.83,57.9c0,0-29,1-47,17s-24,23-24,23l-16-22l2-195h144l218,104l31,50l3,52l-36,132l-102.5,6.5
					c0,0,2.86-14.48,4.5-41.5c2-33-7-40-7-40l-39-60l-89-31L450.83,57.9z"/>
			</defs>
			<clipPath id="SVGID_00000035529445963446286560000003899465578367184811_">
				<use xlink:href="#SVGID_1_"  style="overflow:visible;"/>
			</clipPath>
			
				<path style="clip-path:url(#SVGID_00000035529445963446286560000003899465578367184811_);fill:none;stroke:#FFFFFF;stroke-width:10;stroke-miterlimit:10;" d="
				M702.61-3.72c-41.53-17.36-89.27,2.23-106.63,43.76c-4.64,11.09-6.61,22.62-6.26,33.91c-11.73-11.13-25.64-20.36-41.44-26.97
				c-11.6-4.85-23.48-7.97-35.38-9.51c6.87-7.1,12.57-15.56,16.61-25.22c17.36-41.53-2.23-89.27-43.76-106.63
				s-89.27,2.23-106.63,43.76c-17.36,41.53,2.23,89.27,43.76,106.63c0.38,0.16,0.76,0.29,1.15,0.45
				c-16.11,9.82-30.29,23.03-41.37,39.11c25.43-19.84,57.42-31.67,92.18-31.67c82.84,0,150,67.16,150,150
				c0,1.59-0.03,3.17-0.08,4.75c9.06-25.81,9.91-52.71,3.79-77.71c3.53,2.16,7.26,4.08,11.2,5.72
				c41.53,17.36,89.27-2.23,106.63-43.76C763.73,61.38,744.13,13.64,702.61-3.72z"/>
		</g>
	</g>
</g>
<g id="Layer_2" class="st0">
</g>
<g id="Layer_3" class="st0">
	<polygon class="st6" points="199.79,124.76 223.79,124.76 223.79,61.76 240.79,61.76 240.79,40.76 182.79,40.76 182.79,61.76 
		199.79,61.76 	"/>
	<path class="st6" d="M285.79,65.76c-3-3-6-3-8-3s-28,0-30,0s-5,1-7,3c-2,2-4,5-4,7s0,39,0,41s2,6,4,8s5,3,7,3s28,0,30,0s5,0,8-3
		s4-6,4-8s0-38,0-40S288.79,68.76,285.79,65.76z M268.79,106.76h-11v-26h11V106.76z"/>
	<polygon class="st6" points="296.29,45.26 295.79,124.76 316.79,124.76 316.79,99.76 332.79,124.76 357.79,124.76 337.79,91.76 
		354.79,62.76 329.79,62.76 316.29,86.26 316.29,45.26 	"/>
	<path class="st6" d="M412.79,62.76h-22v44h-10v-44h-21c0,0-1,50,0,52s4,9,10,10s16,0,16,0l5-9v14h-22l-11,18c0,0,42,0,45,0
		s10-3,10-14S412.79,62.76,412.79,62.76z"/>
	<path class="st6" d="M467.79,65.76c-3-3-6-3-8-3s-28,0-30,0s-5,1-7,3c-2,2-4,5-4,7s0,39,0,41s2,6,4,8s5,3,7,3s28,0,30,0s5,0,8-3
		s4-6,4-8s0-38,0-40S470.79,68.76,467.79,65.76z M450.79,106.76h-11v-26h11V106.76z"/>
	<path class="st6" d="M244.79,149.76c0-2,0-11-14-12s-47,0-47,0v84c0,0,48,1,51,0s9-2,10-12S244.79,151.76,244.79,149.76z
		 M220.79,200.76h-13v-42h13V200.76z"/>
	<rect x="250.79" y="148.76" class="st6" width="22" height="8"/>
	<rect x="250.79" y="159.76" class="st6" width="22" height="63"/>
	<g class="st1">
		<rect x="336.79" y="159.76" class="st2" width="21" height="63"/>
		<path class="st2" d="M389.79,222.76h-21v-46h-15l10-17h5c0,0,7.92-0.98,14,2c3.95,1.94,7,7.82,7,9
			C389.79,173.76,389.79,222.76,389.79,222.76z"/>
	</g>
	<path class="st6" d="M332.29,176.26l-10.5-16.5c0,0-27,0-30,0s-13,5-13,10s0,16,0,18s3,10,9,10s23,0,23,0v6h-34l10,18
		c0,0,30,0,33,0s11-4,11-11s0.5-16.5,0.5-18.5s-3-11-14-11s-18,0-18,0v-5H332.29z"/>
	<path class="st6" d="M417.29,203.26v-5h32c0,0-0.5-16.5-0.5-25.5s-6-13-10-13s-25,0-32,0s-10,9-10,12s0,30,0,39s9,11,12,11
		s30,0,30,0l11.5-18.5H417.29z M417.29,177.26h11v7h-11V177.26z"/>
	<path class="st6" d="M507.79,159.76h-22v44h-10v-44h-21c0,0-1,50,0,52s4,9,10,10s16,0,16,0l5-9v14h-22l-11,18c0,0,42,0,45,0
		s10-3,10-14S507.79,159.76,507.79,159.76z"/>
	<rect x="514.79" y="141.76" class="st6" width="20" height="81"/>
	<g class="st1">
		<rect x="600.79" y="159.76" class="st2" width="21" height="63"/>
		<path class="st2" d="M653.79,222.76h-21v-46h-15l10-17h5c0,0,7.92-0.98,14,2c3.95,1.94,7,7.82,7,9
			C653.79,173.76,653.79,222.76,653.79,222.76z"/>
	</g>
	<path class="st6" d="M579.79,159.76c-4,0-29,0-29,0l-9.5,17.5h32v3c0,0-9-1-19,0s-13,9-13,12s-0.5,7.5,0.5,18.5s7.49,10.58,13,11
		c6.5,0.5,13,0,13,0l5-9v9h21c0,0,0-42,0-51S583.79,159.76,579.79,159.76z M573.29,203.26h-11v-7h11V203.26z"/>
	<path class="st6" d="M692.79,142.76v17c0,0-14,0-18,0s-15,1-15,11s0,35,0,38s2,13,12,13s15,0,15,0l6-10v10h21v-79H692.79z
		 M692.29,205.26h-11v-29h11V205.26z"/>
	<path class="st6" d="M-9.21,221.76h172c0,0-13-44-4-44v-12h-8v-6h4c0,0-13-26-12-40c0,0,7-1,11,0s6-4,6-4s-6,2-12-6h-6
		c0,0-0.5,14.5-0.5,16.5c0,2-6,27-9,30v-25l2-2v-7h-2c0,0-8-25.95-8-36c0-4,9-2,10-2s5-1,6-3c0,0-4-1-9-5s-9-1-9-1v13c0,0-2,28-7,34
		h-1v8l2,1v9h-7l1-22l3-4v-17h5c0,0-8-15-8-23h-1c0,0-3,18-7,21v-21l3-5v-4h-3v-10h3c0,0-3.99-6.53-7-19c-4.13-17.08-7.58-42.6-7-53
		c0,0,9,0,13,2s6-1,6-1s-8-3-8-6c0,0,5-2,6-4s-4,1-7-1s-9-6-12-4v18c0,0-9,65-13,69h3v9h-4v3l3,6v34l-7-24h-21l-8,36l-6-24
		c0,0-9,33-12,35h2v6l4,4v8h-7c0,0-12-22-12-25s0-6,0-6s6-2,9-1s7-3,7-3s-6.9-0.9-12-6c-1-1-6-1-6,0s0,15,0,15s-9,26-12,27h6v16h-8
		l-1,11c0,0,6,1,4,10S-9.21,221.76-9.21,221.76z"/>
</g>
<g id="Layer_4" class="st0">
	<g class="st1">
		<path class="st2" d="M47.78,120.78c-3.45,0-7.54-0.47-7.54-2.51c0-14.44,25.43-15.07,36.27-15.07c14.13,0,32.18,4.4,47.57,9.89
			c23.39,8.48,70.81,36.74,70.81,69.08c0,28.57-30.77,42.23-59.35,42.23c-7.22,0-15.86-1.26-22.92-2.36
			c-0.47,1.73-0.79,2.98-1.88,6.59c-1.88,0.31-3.45,0.63-5.49,0.63l-3.61-0.31c-2.35-2.83-3.14-7.38-4.08-12.25
			c-14.29-8.32-23.55-15.39-27.79-20.25c-3.61-3.77-7.69-8.79-7.69-13.66c0-2.51,1.57-4.71,5.18-7.22
			c7.38-5.5,16.8-8.48,32.18-11.15l0.31-6.44c0.16-1.57,1.73-18.37,5.34-21.51c5.81,4.71,6.44,9.58,6.91,16.8
			c0.16,3.14,0.31,6.44,0.78,9.89h2.2c10.99,0,44.59,2.83,44.59,18.68c0,3.77-5.5,10.83-10.83,10.83c-1.88,0-5.34-0.79-6.91-2.04
			c2.35-2.67,5.81-5.02,6.75-7.06c-3.14-3.77-20.1-8.16-32.5-8.16c-2.04,0-2.83,0-4.08,0.16l0.16,34.38
			c5.02,3.14,11.15,3.45,15.07,3.45c17.27,0,53.07-2.98,53.07-30.93c0-27.63-35.32-48.98-61.7-59.03
			c-18.53-7.06-36.11-10.68-56.68-10.68c-4.24,0-8.63,0.31-12.87,1.41c-2.67,0.63-3.61,1.26-3.61,1.88c0,1.1,5.34,1.73,5.97,2.04
			c0.47,0.31,0.78,0.79,0.78,1.26c0,0.31-0.16,0.78-0.63,1.26C50.92,120.63,49.51,120.78,47.78,120.78z M98.81,175.89
			C83.27,177.15,66,178.72,66,184.21c0,4.24,7.22,9.42,11.62,12.72c5.02,4.08,12.56,7.85,19.78,9.42L98.81,175.89z"/>
		<path class="st2" d="M233.04,120.16c2.67,0,8.79,2.67,8.79,8.48c0,12.09-20.72,25.9-31.09,25.9c-3.14,0-7.06-0.47-9.89-1.41
			c-1.73,2.04-2.35,3.77-4.71,4.08c-1.57-0.31-3.61-3.3-3.92-6.75c0-0.79,0.31-1.88,0.47-2.67c-2.35-3.14-4.08-5.97-4.08-9.42
			c0-10.36,15.54-24.18,30.46-24.18c6.91,0,12.4,2.67,13.35,6.12C232.57,120.31,232.73,120.16,233.04,120.16z M196.94,138.68
			c0.31,0,0.63-0.16,0.78-0.31c2.04-2.83,8.63-9.11,12.25-12.56v-0.16c0-0.16,0-0.47-0.31-0.79c-7.85,1.57-12.72,7.38-13.35,13.5
			C196.46,138.52,196.62,138.68,196.94,138.68z M211.85,172.91c0.31,12.72,1.57,26.06,1.57,38.62c0,2.51-0.94,5.5-4.87,5.5
			c-1.26,0-3.14-0.47-4.4-0.94c-2.04-0.63-2.98-6.75-3.14-8.32c0-8.01,0.16-8.16,0.47-16.49c0.16-2.2,0.63-10.83,2.67-26.69
			c0.16-0.79,0.31-1.1,0.94-1.1C210.75,163.64,211.54,166.94,211.85,172.91z M206.98,145.28h3.45c7.85,0,23.86-5.34,23.86-14.92
			c0-2.2,0-3.92-4.08-3.92c-9.11,0-18.05,8.79-24.49,17.58C205.73,144.33,206.51,145.28,206.98,145.28z"/>
		<path class="st2" d="M229.59,177.93c0,0.16,0.16,0.31,0.31,0.31c5.97,2.2,9.89,2.98,16.17,3.3c10.68,0.79,26.53,0.94,26.53,15.7
			c0,16.96-18.84,17.9-23.86,17.9c-13.34,0-25.12-8.48-25.12-14.92c0-7.69,8.01-9.73,14.29-9.73c5.97,0,13.82,1.57,20.25,4.87
			c0.16,0.16,0.31,0.31,0.31,0.63c0,0.47-0.16,0.79-0.31,0.94c-1.26,1.26-5.02,3.14-8.95,3.14c-4.55,0-10.83-3.77-16.96-3.77
			c-2.2,0-4.87,0.47-4.87,3.92c0,3.92,7.06,3.92,12.72,3.92c2.98,0,24.65-2.51,24.65-8.32c0-5.49-16.48-7.85-23.24-8.01
			c-18.05-0.47-20.41-2.35-20.41-8.95c0-14.76,29.83-15.86,31.24-15.86c7.85,0,14.91,1.41,20.1,2.67c1.1,0.16,1.73,0.63,1.73,2.36
			c-0.16,1.88-1.73,2.98-3.45,3.61c-1.26,0.31-3.93,0.79-5.18,0.94c-5.49,0.79-21.67,1.41-26.69,2.36
			c-5.18,0.78-7.38,1.41-8.95,2.35C229.75,177.46,229.59,177.77,229.59,177.93z"/>
		<path class="st2" d="M306.05,158.31c0-1.26,0.16-3.3,1.57-3.3c4.4,0,16.96,15.54,16.96,37.37c0,9.58-4.4,21.04-12.09,21.04
			c-9.11,0-18.68-29.2-20.88-29.2c-0.31,0-0.79,0.47-1.1,1.73c-0.47,1.88-0.79,18.37-1.57,23.24c-0.47,2.2-1.26,7.38-4.71,7.38
			c-5.02,0-6.12-8.63-6.12-12.4c0-8.16,4.08-37.05,10.83-37.05c4.71,0,14.13,19.62,22.45,29.99c0.63,0.63,0.94,1.26,1.1,1.26
			c0.94,0,0.94-1.41,0.94-4.08c0-14.44-2.98-18.68-6.91-33.44l-0.47-1.88V158.31z"/>
		<path class="st2" d="M366.02,209.17c-4.24,3.3-13.82,10.68-24.18,10.68c-8.63,0-12.56-6.44-12.56-13.19
			c0-3.61,2.2-8.48,3.92-13.34c-0.47-1.57-1.26-2.51-1.26-4.08c0-1.26,0.47-1.88,0.79-3.14c1.26-0.47,2.67-1.1,4.08-1.26l3.77-8.63
			c-3.61-1.73-8.95-3.77-8.95-7.07c0-1.73,1.41-2.2,4.08-2.35c6.59-0.31,14.29-3.14,27.16-3.14c1.41,0,3.14,0.16,6.44,1.1
			c1.41,1.73,5.02,5.02,5.02,7.69c0,1.57-5.49,3.3-8.48,3.45c-6.75,0.47-8.32,0.31-12.56,0.47c-0.79,0-1.57,0-2.35,0.16
			c-0.63,0.63-1.88,2.67-1.88,6.59c0,0.63,0.31,1.57,1.41,1.57h11.62l2.2,0.31c0.79,1.1,0.94,3.14,0.94,4.55
			c0,1.26-0.31,3.61-1.73,3.77c-2.83,0.16-9.89,0.47-17.74,0.47c-0.31,0-0.63,0-0.94,0.63c-0.78,3.3-2.2,7.06-3.77,10.52
			c0.78,0,6.75-1.57,16.8-2.51c1.57-0.16,3.61-0.31,5.18-0.31c1.88,0,3.92,2.67,3.92,4.71C366.96,207.76,366.8,208.7,366.02,209.17z
			"/>
		<path class="st2" d="M378.28,246.71c-6.28-0.63-10.52-5.81-10.52-12.56c0-2.98-0.49-3.94,8.3-24.98
			c-1.73-3.77-2.83-7.69-2.83-11.46c0-16.17,15.7-35.33,18.84-35.64c2.2,0.31,2.51,1.57,2.51,4.4c0,3.14-1.88,5.18-6.75,12.56
			c-2.51,3.93-6.12,10.36-6.12,16.01c0,0.63,0,1.57,0.47,1.88h0.31c0.16,0,0.31-0.16,0.63-0.63c7.54-10.05,23.08-28.89,31.09-28.89
			c8.16,0,10.21,13.19,10.21,19.47c0,18.53-23.24,31.71-33.75,31.71c-1.1,0-2.2,0.16-3.45,0.31c-6.12,17.9-4.22,9.59-8.46,26.55
			L378.28,246.71z M410.45,197.87c4.4-3.77,6.75-8.95,6.75-15.39c0-1.73,0-4.4-2.04-4.4c-2.67,0-8.63,7.06-10.99,10.05
			c-1.73,2.35-8.01,14.29-9.11,16.96C400.4,204.46,405.58,202.11,410.45,197.87z"/>
	</g>
	<g class="st1">
		<path class="st2" d="M492.6,216.36h-9.88l-8.86-14.84c-1.73-2.91-3.31-4.89-4.73-5.94s-3.04-1.58-4.87-1.58h-4.57v22.36h-8.44
			V161.9h17.33c5.65,0,10.01,1.27,13.1,3.81s4.62,6.15,4.62,10.81c0,3.66-1.07,6.79-3.2,9.39s-5.11,4.42-8.93,5.45v0.14
			c2.44,0.84,5.17,3.7,8.19,8.58L492.6,216.36z M459.69,168.86V187h7.49c3.12,0,5.61-0.9,7.47-2.71s2.79-4.1,2.79-6.89
			c0-5.7-3.38-8.54-10.12-8.54H459.69z"/>
		<path class="st2" d="M527.24,216.36h-30.16V161.9h28.93v7.24h-20.5v16.03h19.02v7.21h-19.02v16.73h21.73V216.36z"/>
		<path class="st2" d="M532.47,205.07c4.17,3.4,9.08,5.1,14.73,5.1c7.22,0,10.83-2.47,10.83-7.42c0-1.43-0.4-2.72-1.2-3.87
			s-1.87-2.15-3.22-3.01s-4.01-2.23-8-4.13c-4.9-2.34-8.32-4.72-10.27-7.14s-2.92-5.25-2.92-8.51c0-4.69,1.85-8.38,5.55-11.07
			s8.44-4.04,14.2-4.04c5.46,0,9.59,0.67,12.38,2v8.65c-3.35-2.32-7.54-3.48-12.55-3.48c-3.21,0-5.8,0.64-7.77,1.93
			s-2.95,3.06-2.95,5.31c0,2.04,0.72,3.71,2.16,5.03s4.48,3.07,9.12,5.27c5.41,2.53,9.15,5.07,11.21,7.61s3.09,5.47,3.09,8.77
			c0,4.92-1.78,8.68-5.34,11.29s-8.5,3.9-14.8,3.9c-2.32,0-4.9-0.28-7.73-0.84s-5.02-1.31-6.54-2.25V205.07z"/>
		<path class="st2" d="M571.4,189.81c0-8.6,2.41-15.56,7.22-20.87s11.31-7.96,19.49-7.96c7.66,0,13.82,2.58,18.46,7.73
			s6.96,11.77,6.96,19.83c0,8.55-2.37,15.48-7.1,20.78s-11.13,7.95-19.2,7.95c-7.69,0-13.92-2.55-18.69-7.66
			S571.4,197.9,571.4,189.81z M580.26,189.21c0,6,1.54,10.94,4.61,14.82s7.22,5.82,12.45,5.82c5.48,0,9.75-1.85,12.8-5.54
			s4.57-8.68,4.57-14.96c0-6.42-1.47-11.51-4.41-15.26s-7.13-5.62-12.57-5.62c-5.3,0-9.53,1.95-12.69,5.84
			S580.26,183.17,580.26,189.21z"/>
		<path class="st2" d="M672.85,216.36h-9.88l-8.86-14.84c-1.73-2.91-3.31-4.89-4.73-5.94s-3.04-1.58-4.87-1.58h-4.57v22.36h-8.44
			V161.9h17.33c5.65,0,10.01,1.27,13.1,3.81s4.62,6.15,4.62,10.81c0,3.66-1.07,6.79-3.2,9.39s-5.11,4.42-8.93,5.45v0.14
			c2.44,0.84,5.17,3.7,8.19,8.58L672.85,216.36z M639.94,168.86V187h7.49c3.12,0,5.61-0.9,7.47-2.71s2.79-4.1,2.79-6.89
			c0-5.7-3.38-8.54-10.12-8.54H639.94z"/>
		<path class="st2" d="M709.64,169.14H694v47.21h-8.47v-47.21h-15.61v-7.24h39.73V169.14z"/>
	</g>
	<g class="st1">
		<path class="st2" d="M264.93,146.47v-8.24c0.74,0.67,1.62,1.28,2.64,1.82c1.02,0.54,2.1,0.99,3.25,1.36s2.29,0.66,3.43,0.86
			c1.14,0.2,2.2,0.3,3.16,0.3c3.36,0,5.87-0.56,7.52-1.68s2.47-2.75,2.47-4.88c0-1.14-0.27-2.14-0.82-2.98
			c-0.55-0.84-1.32-1.61-2.31-2.3c-0.99-0.7-2.15-1.36-3.48-2c-1.33-0.64-2.76-1.31-4.29-2c-1.64-0.87-3.16-1.76-4.58-2.66
			s-2.64-1.89-3.68-2.98c-1.04-1.09-1.86-2.32-2.46-3.68c-0.59-1.37-0.89-2.97-0.89-4.81c0-2.27,0.51-4.23,1.53-5.91
			c1.02-1.67,2.37-3.05,4.04-4.14c1.67-1.09,3.57-1.9,5.7-2.42c2.13-0.53,4.31-0.79,6.53-0.79c5.05,0,8.73,0.57,11.04,1.72v7.91
			c-2.74-1.97-6.26-2.96-10.57-2.96c-1.19,0-2.37,0.11-3.55,0.34c-1.18,0.22-2.23,0.59-3.16,1.11c-0.93,0.52-1.69,1.18-2.27,1.99
			c-0.58,0.81-0.88,1.78-0.88,2.93c0,1.08,0.22,2.01,0.67,2.79s1.1,1.5,1.97,2.15c0.86,0.65,1.92,1.28,3.16,1.9
			c1.24,0.62,2.69,1.28,4.32,2c1.68,0.88,3.27,1.79,4.76,2.76c1.49,0.96,2.8,2.03,3.94,3.2c1.13,1.17,2.03,2.46,2.69,3.89
			s0.99,3.04,0.99,4.86c0,2.45-0.49,4.51-1.48,6.19c-0.99,1.68-2.32,3.05-3.99,4.1c-1.67,1.05-3.59,1.82-5.77,2.29
			c-2.18,0.47-4.47,0.71-6.9,0.71c-0.81,0-1.8-0.06-2.98-0.19s-2.38-0.3-3.62-0.54c-1.23-0.24-2.4-0.52-3.5-0.86
			C266.49,147.28,265.6,146.9,264.93,146.47z"/>
		<path class="st2" d="M332.73,148.39h-6.49V131.5h-18.33v16.89h-6.46v-38.93h6.46v16.37h18.33v-16.37h6.49V148.39z"/>
		<path class="st2" d="M372.66,148.39h-7.09l-3.5-9.91h-15.31l-3.37,9.91h-7.06l14.58-38.93h7.28L372.66,148.39z M360.36,133.21
			l-5.4-15.53c-0.16-0.51-0.34-1.32-0.52-2.44h-0.11c-0.16,1.03-0.34,1.85-0.54,2.44l-5.35,15.53H360.36z"/>
		<path class="st2" d="M409.35,148.39h-7.06l-18.6-28.62c-0.47-0.72-0.86-1.48-1.17-2.25h-0.16c0.14,0.83,0.22,2.62,0.22,5.35v25.52
			h-6.24v-38.93h7.52l17.97,27.94c0.76,1.16,1.25,1.96,1.46,2.39h0.11c-0.18-1.03-0.27-2.78-0.27-5.24v-25.09h6.22V148.39z"/>
		<path class="st2" d="M447.7,145.73c-4.05,2.21-8.57,3.31-13.55,3.31c-5.76,0-10.42-1.79-13.98-5.38
			c-3.57-3.58-5.35-8.33-5.35-14.23c0-6.03,1.95-10.97,5.85-14.84c3.9-3.87,8.86-5.8,14.87-5.8c4.33,0,7.96,0.63,10.91,1.9v6.65
			c-2.99-1.99-6.54-2.99-10.67-2.99c-4.15,0-7.54,1.37-10.2,4.1c-2.65,2.73-3.98,6.27-3.98,10.62c0,4.47,1.14,7.99,3.42,10.55
			s5.38,3.84,9.29,3.84c2.68,0,5-0.52,6.95-1.55v-9.26h-8.2v-5.43h14.63V145.73z"/>
		<path class="st2" d="M485.7,148.39h-6.49V131.5h-18.33v16.89h-6.46v-38.93h6.46v16.37h18.33v-16.37h6.49V148.39z"/>
		<path class="st2" d="M525.63,148.39h-7.09l-3.5-9.91h-15.31l-3.37,9.91h-7.06l14.58-38.93h7.28L525.63,148.39z M513.33,133.21
			l-5.4-15.53c-0.16-0.51-0.33-1.32-0.52-2.44h-0.11c-0.16,1.03-0.34,1.85-0.54,2.44l-5.35,15.53H513.33z"/>
		<path class="st2" d="M535.94,148.39h-6.65v-38.93h6.65V148.39z"/>
	</g>
	<path class="st6" d="M322.79,93.76h51c0,0-3-26,0-28c3-2,18.49-13.51,32,0c2,2,2,28,2,28h50l-5-41h5c0,0-10-20-10-24
		c0-1-8.5,18.5-8.5,18.5v-25l3-2c0,0-6.5-7.5-7-8c-0.71-0.71-2-8-2-8l3-3h-3v-6h-3v5h-3l3,4l-2,5v3l-3,5l-4,2l3,3v5h-5.5l-0.5-47h4
		c0,0-9-10-9-18c0,0-5,16-9,18h3v16l-6-6v-25l4-3v-3h-1l-1-2h-3c0,0,0-15,0-17s-1-2-1-4c0-2,0-7,0-7h-2l-2-18l-3,18h-2v9l-1.5-4.5
		l-2.5,7.5v14l3.5,2.5h-4l-0.5,1.5h-1v3c0,0,4,2,4,6s0,22,0,22h-6c0,0,4.5-4.5,0-8l3.5-2.5l-4.5-2.5v-5l3-2l-4-3
		c0,0,2.5-2.5-0.5-3.5l-1.5-5.5v-7c0,0,2.5-2.5,0-4l-1.5-4.5l-1.5,4.5c0,0-2.5,1.5,0,4c0.5,0.5,0,7,0,7l-1,5c0,0-3,2-1,4
		c1,1-3,3-3,3l3,2v5l-4,3l3,2c0,0-4,5,1,8h-8c0,0,0,12-9,16v4h4v12l-8,1v-8h5c0,0-11-16-11-24c0,0-4,20-10,24h5l-1,29l-6-16
		c0,0-9,23-12,25h6L322.79,93.76z"/>
	<path class="st6" d="M499.79,93.76h17c0,0,20.5-119.5-92.5-151.5c-14.01-3.97-98.27-24.72-154.5,76.5
		c-1.36,2.44,63.5-106.5,155.5-64.5C525.38-0.05,499.79,93.76,499.79,93.76z"/>
	<polygon class="st6" points="265.79,52.76 263.79,95.76 259.79,52.76 243.79,62.76 254.79,48.76 226.79,45.76 253.79,41.76 
		243.79,26.76 258.79,35.76 260.79,-5.24 265.79,35.76 280.79,26.76 269.79,41.76 295.79,45.76 271.79,49.76 280.79,62.76 	"/>
</g>
<g id="Layer_5">
	<g>
		<path class="st2" d="M9.77,22.79C5.29,22.79,0,22.18,0,19.54C0,0.81,32.97,0,47.01,0c18.32,0,41.72,5.7,61.66,12.82
			c30.32,10.99,91.78,47.62,91.78,89.54c0,37.04-39.89,54.74-76.93,54.74c-9.36,0-20.56-1.63-29.71-3.05
			c-0.61,2.24-1.02,3.87-2.44,8.55c-2.44,0.41-4.48,0.81-7.12,0.81l-4.68-0.41c-3.05-3.66-4.07-9.56-5.29-15.87
			c-18.52-10.79-30.53-19.94-36.02-26.25c-4.68-4.88-9.97-11.4-9.97-17.71c0-3.26,2.04-6.11,6.72-9.36
			c9.57-7.12,21.78-10.99,41.72-14.45l0.41-8.34c0.2-2.04,2.24-23.81,6.92-27.88c7.53,6.11,8.34,12.41,8.95,21.78
			c0.2,4.07,0.41,8.34,1.02,12.82h2.85c14.25,0,57.8,3.66,57.8,24.22c0,4.88-7.12,14.04-14.04,14.04c-2.44,0-6.92-1.02-8.95-2.65
			c3.05-3.46,7.53-6.51,8.75-9.16c-4.07-4.88-26.05-10.58-42.13-10.58c-2.65,0-3.66,0-5.29,0.2l0.2,44.57
			c6.51,4.07,14.45,4.48,19.54,4.48c22.39,0,68.79-3.87,68.79-40.09c0-35.82-45.79-63.49-79.98-76.52
			C77.54,17.1,54.74,12.41,28.08,12.41c-5.49,0-11.19,0.41-16.69,1.83c-3.46,0.81-4.68,1.63-4.68,2.44c0,1.42,6.92,2.24,7.73,2.65
			c0.61,0.41,1.02,1.02,1.02,1.63c0,0.41-0.2,1.02-0.81,1.63C13.84,22.59,12.01,22.79,9.77,22.79z M75.91,94.23
			c-20.15,1.63-42.53,3.66-42.53,10.79c0,5.5,9.36,12.21,15.06,16.48c6.51,5.29,16.28,10.18,25.64,12.21L75.91,94.23z"/>
		<path class="st2" d="M249.9,21.98c3.46,0,11.4,3.46,11.4,10.99c0,15.67-26.86,33.58-40.29,33.58c-4.07,0-9.16-0.61-12.82-1.83
			c-2.24,2.65-3.05,4.88-6.1,5.29c-2.04-0.41-4.68-4.27-5.09-8.75c0-1.02,0.41-2.44,0.61-3.46c-3.05-4.07-5.29-7.73-5.29-12.21
			c0-13.43,20.15-31.34,39.48-31.34c8.95,0,16.08,3.46,17.3,7.94C249.29,22.18,249.5,21.98,249.9,21.98z M203.1,45.99
			c0.41,0,0.81-0.2,1.02-0.41c2.65-3.66,11.19-11.8,15.87-16.28v-0.2c0-0.2,0-0.61-0.41-1.02c-10.18,2.04-16.48,9.56-17.3,17.5
			C202.49,45.79,202.69,45.99,203.1,45.99z M222.43,90.36c0.41,16.48,2.04,33.78,2.04,50.06c0,3.26-1.22,7.12-6.31,7.12
			c-1.63,0-4.07-0.61-5.7-1.22c-2.65-0.81-3.87-8.75-4.07-10.79c0-10.38,0.2-10.58,0.61-21.37c0.2-2.85,0.81-14.04,3.46-34.6
			c0.2-1.02,0.41-1.42,1.22-1.42C221.01,78.35,222.02,82.62,222.43,90.36z M216.12,54.54h4.48c10.18,0,30.93-6.92,30.93-19.33
			c0-2.85,0-5.09-5.29-5.09c-11.8,0-23.4,11.4-31.75,22.79C214.49,53.32,215.51,54.54,216.12,54.54z"/>
		<path class="st2" d="M245.42,96.87c0,0.2,0.2,0.41,0.41,0.41c7.73,2.85,12.82,3.87,20.96,4.27c13.84,1.02,34.39,1.22,34.39,20.35
			c0,21.98-24.42,23.2-30.93,23.2c-17.3,0-32.56-10.99-32.56-19.33c0-9.97,10.38-12.62,18.52-12.62c7.73,0,17.91,2.03,26.25,6.31
			c0.2,0.2,0.41,0.41,0.41,0.81c0,0.61-0.2,1.02-0.41,1.22c-1.63,1.63-6.51,4.07-11.6,4.07c-5.9,0-14.04-4.88-21.98-4.88
			c-2.85,0-6.31,0.61-6.31,5.09c0,5.09,9.16,5.09,16.48,5.09c3.87,0,31.95-3.26,31.95-10.79c0-7.12-21.37-10.18-30.12-10.38
			c-23.4-0.61-26.46-3.05-26.46-11.6c0-19.13,38.67-20.56,40.5-20.56c10.18,0,19.33,1.83,26.05,3.46c1.42,0.2,2.24,0.81,2.24,3.05
			c-0.2,2.44-2.24,3.87-4.48,4.68c-1.63,0.41-5.09,1.02-6.72,1.22c-7.12,1.02-28.08,1.83-34.6,3.05c-6.72,1.02-9.56,1.83-11.6,3.05
			C245.63,96.26,245.42,96.67,245.42,96.87z"/>
		<path class="st2" d="M344.53,71.43c0-1.63,0.2-4.27,2.04-4.27c5.7,0,21.98,20.15,21.98,48.44c0,12.41-5.7,27.27-15.67,27.27
			c-11.8,0-24.22-37.85-27.07-37.85c-0.41,0-1.02,0.61-1.42,2.24c-0.61,2.44-1.02,23.81-2.04,30.12c-0.61,2.85-1.63,9.57-6.1,9.57
			c-6.51,0-7.94-11.19-7.94-16.08c0-10.58,5.29-48.03,14.04-48.03c6.11,0,18.32,25.44,29.1,38.87c0.81,0.81,1.22,1.63,1.42,1.63
			c1.22,0,1.22-1.83,1.22-5.29c0-18.72-3.87-24.22-8.95-43.35l-0.61-2.44V71.43z"/>
		<path class="st2" d="M422.26,137.37c-5.49,4.27-17.91,13.84-31.34,13.84c-11.19,0-16.28-8.34-16.28-17.1
			c0-4.68,2.85-10.99,5.09-17.3c-0.61-2.04-1.63-3.26-1.63-5.29c0-1.63,0.61-2.44,1.02-4.07c1.63-0.61,3.46-1.42,5.29-1.63
			l4.88-11.19c-4.68-2.24-11.6-4.88-11.6-9.16c0-2.24,1.83-2.85,5.29-3.05c8.55-0.41,18.52-4.07,35.21-4.07
			c1.83,0,4.07,0.2,8.34,1.42c1.83,2.24,6.51,6.51,6.51,9.97c0,2.04-7.12,4.27-10.99,4.48c-8.75,0.61-10.79,0.41-16.28,0.61
			c-1.02,0-2.04,0-3.05,0.2c-0.81,0.81-2.44,3.46-2.44,8.55c0,0.81,0.41,2.04,1.83,2.04h15.06l2.85,0.41
			c1.02,1.42,1.22,4.07,1.22,5.9c0,1.63-0.41,4.68-2.24,4.88c-3.66,0.2-12.82,0.61-23,0.61c-0.41,0-0.81,0-1.22,0.81
			c-1.02,4.27-2.85,9.16-4.88,13.64c1.02,0,8.75-2.04,21.78-3.26c2.04-0.2,4.68-0.41,6.72-0.41c2.44,0,5.09,3.46,5.09,6.11
			C423.49,135.54,423.28,136.76,422.26,137.37z"/>
		<path class="st2" d="M434.27,206.77c-8.14-0.81-13.64-7.53-13.64-16.28c0-3.87,3.26-25.85,14.65-53.12
			c-2.24-4.88-3.66-9.97-3.66-14.86c0-20.96,20.35-45.79,24.42-46.2c2.85,0.41,3.26,2.04,3.26,5.7c0,4.07-2.44,6.72-8.75,16.28
			c-3.26,5.09-7.94,13.43-7.94,20.76c0,0.81,0,2.04,0.61,2.44h0.41c0.2,0,0.41-0.2,0.81-0.81c9.77-13.02,29.92-37.45,40.29-37.45
			c10.58,0,13.23,17.1,13.23,25.24c0,24.01-30.12,41.11-43.75,41.11c-1.42,0-2.85,0.2-4.48,0.41c-7.94,23.2-9.36,33.17-14.86,55.15
			L434.27,206.77z M479.86,122.72c5.7-4.88,8.75-11.6,8.75-19.94c0-2.24,0-5.7-2.65-5.7c-3.46,0-11.19,9.16-14.25,13.02
			c-2.24,3.05-10.38,18.52-11.8,21.98C466.83,131.26,473.55,128.21,479.86,122.72z"/>
		<path class="st2" d="M525.64,78.76c-0.2,14.65-6.11,18.93-9.57,47.21v0.81c0,1.83,1.02,3.46,2.24,3.46
			c2.85,0,7.33-2.44,13.64-4.68c3.05-1.22,7.12-3.26,9.16-3.26s2.24,3.46,2.24,4.68c0,8.75-15.06,21.78-25.03,21.78
			c-13.64,0-15.47-13.23-15.47-23.61c0-15.26,8.55-38.06,13.02-46.4c1.22-2.24,2.65-3.26,6.31-4.48
			C525.23,74.28,525.64,75.71,525.64,78.76z"/>
		<path class="st2" d="M584.86,69.4h1.22c2.64,0,5.49,3.46,5.9,6.31c1.02,3.46,4.68,13.43,5.5,18.93
			c2.44,17.71,4.07,27.68,4.07,43.35c0,7.12,0,8.96-0.61,11.4c-0.61,0.41-1.42,0.61-2.24,0.61c-3.87,0-6.92-4.27-9.16-9.56
			l-0.81-11.8h-6.51c-7.12,0-9.56-0.2-11.19-0.2c-0.61,0-1.02,0-1.22,0.2c-3.05,1.02-4.48,8.95-7.33,16.48l-2.24,5.9
			c-1.02,1.02-2.85,1.63-4.88,1.63c-1.22,0-2.44-0.41-4.07-0.61c-2.85-3.05-3.87-5.7-3.87-9.97c0-4.88,2.04-10.99,5.7-17.5
			c0-3.26-1.83-6.72-6.1-7.33l0.41-3.87c0.81,0.2,1.83,0.2,2.85,0.2h6.72c3.26-6.92,10.38-21.37,15.26-28.69l9.77-12.01l0.61-2.44
			C583.23,69.4,583.84,69.4,584.86,69.4z M580.99,112.74c1.83,0,4.07,0,5.9-0.2c0-3.87-0.2-12.82-2.85-17.5
			c-2.85,0.81-7.33,12.62-8.75,17.5C577.13,112.74,579.16,112.74,580.99,112.74z"/>
		<path class="st2" d="M644.49,71.43c0-1.63,0.2-4.27,2.04-4.27c5.7,0,21.98,20.15,21.98,48.44c0,12.41-5.7,27.27-15.67,27.27
			c-11.8,0-24.22-37.85-27.07-37.85c-0.41,0-1.02,0.61-1.42,2.24c-0.61,2.44-1.02,23.81-2.04,30.12c-0.61,2.85-1.63,9.57-6.1,9.57
			c-6.51,0-7.94-11.19-7.94-16.08c0-10.58,5.29-48.03,14.04-48.03c6.11,0,18.32,25.44,29.1,38.87c0.81,0.81,1.22,1.63,1.42,1.63
			c1.22,0,1.22-1.83,1.22-5.29c0-18.72-3.87-24.22-8.95-43.35l-0.61-2.44V71.43z"/>
		<path class="st2" d="M672.97,84.46c0-4.68,3.46-7.33,10.38-8.75c2.44-0.2,4.48-0.2,6.72-0.2c19.74,0,35.41,7.73,47.42,23.2
			c5.09,7.94,6.31,11.6,6.31,19.13c0,17.1-20.55,30.12-39.07,30.12h-1.22c-0.81,1.83-2.65,3.46-5.49,5.09h-1.63
			c-5.09,0-7.33-2.65-7.33-8.14v-0.81c-9.16-5.9-13.64-11.6-13.64-17.3c0-2.85,0.81-5.5,2.44-8.14c2.24,3.05,5.49,5.29,9.77,7.33
			c-0.2-2.24-0.2-4.07-0.2-6.11c0-16.08,3.87-24.01,11.6-24.01h1.42c1.02,6.92,1.02,15.87,1.02,22.79v12.82
			c2.85,1.22,6.51,1.22,8.55,1.22c13.23,0,19.74-3.87,19.74-11.4c0-4.88-2.85-11.4-8.75-19.54c-9.77-11.8-22.59-17.71-38.26-17.71
			h-2.44l-4.48,6.31l-2.65-3.66C672.97,85.88,672.97,85.07,672.97,84.46z"/>
	</g>
	<g>
		<path class="st2" d="M495.07,196.78v9.54h-4.35v-26.31h7.98c3.02,0,5.36,0.7,7.03,2.11s2.49,3.39,2.49,5.94
			c0,2.56-0.87,4.65-2.6,6.27c-1.74,1.63-4.08,2.44-7.04,2.44H495.07z M495.07,183.6v9.61h2.83c1.87,0,3.3-0.43,4.27-1.3
			c0.98-0.87,1.47-2.09,1.47-3.67c0-3.09-1.8-4.64-5.39-4.64H495.07z"/>
		<path class="st2" d="M563.02,206.31h-4.79l-2.37-6.7h-10.35l-2.27,6.7h-4.77l9.85-26.31h4.92L563.02,206.31z M554.71,196.06
			l-3.65-10.49c-0.11-0.34-0.23-0.89-0.35-1.65h-0.07c-0.11,0.7-0.23,1.25-0.37,1.65l-3.61,10.49H554.71z"/>
		<path class="st2" d="M617.02,206.31h-5.1l-4.2-7.04c-0.38-0.65-0.75-1.2-1.11-1.66c-0.36-0.46-0.73-0.83-1.1-1.13
			c-0.37-0.29-0.78-0.51-1.22-0.64c-0.44-0.13-0.94-0.2-1.49-0.2h-1.76v10.68h-4.35v-26.31h8.66c1.24,0,2.37,0.15,3.41,0.44
			c1.04,0.29,1.94,0.74,2.72,1.33c0.77,0.59,1.37,1.33,1.81,2.22c0.43,0.89,0.65,1.92,0.65,3.11c0,0.93-0.14,1.78-0.41,2.56
			c-0.28,0.78-0.67,1.47-1.17,2.07c-0.51,0.61-1.12,1.12-1.83,1.55c-0.72,0.43-1.52,0.76-2.41,0.99v0.07
			c0.48,0.27,0.89,0.57,1.25,0.89c0.35,0.32,0.69,0.66,1.01,1c0.32,0.34,0.63,0.73,0.94,1.16c0.31,0.43,0.66,0.94,1.04,1.51
			L617.02,206.31z M601.04,183.55v8.55h3.63c0.67,0,1.29-0.1,1.86-0.31c0.57-0.21,1.06-0.51,1.48-0.9c0.42-0.39,0.74-0.87,0.97-1.43
			s0.35-1.19,0.35-1.89c0-1.26-0.4-2.24-1.19-2.95c-0.79-0.71-1.94-1.06-3.43-1.06H601.04z"/>
		<path class="st2" d="M654.61,206.31h-4.49v-26.31h4.49V206.31z"/>
		<path class="st2" d="M689.93,205.27v-4.49c0.4,0.37,0.88,0.7,1.44,0.99s1.15,0.54,1.77,0.74c0.62,0.2,1.25,0.36,1.87,0.47
			s1.2,0.17,1.72,0.17c1.83,0,3.2-0.31,4.1-0.92c0.9-0.61,1.35-1.5,1.35-2.66c0-0.62-0.15-1.16-0.45-1.62
			c-0.3-0.46-0.72-0.88-1.26-1.26c-0.54-0.38-1.17-0.74-1.9-1.09c-0.73-0.35-1.51-0.71-2.34-1.09c-0.89-0.48-1.72-0.96-2.49-1.45
			c-0.77-0.49-1.44-1.03-2.01-1.62c-0.57-0.59-1.02-1.26-1.34-2.01c-0.32-0.75-0.49-1.62-0.49-2.62c0-1.24,0.28-2.31,0.83-3.22
			c0.56-0.91,1.29-1.66,2.2-2.26c0.91-0.59,1.95-1.03,3.11-1.32c1.16-0.29,2.35-0.43,3.56-0.43c2.75,0,4.76,0.31,6.02,0.94v4.31
			c-1.49-1.08-3.41-1.61-5.76-1.61c-0.65,0-1.29,0.06-1.94,0.18c-0.64,0.12-1.22,0.32-1.72,0.61c-0.51,0.28-0.92,0.64-1.24,1.08
			c-0.32,0.44-0.48,0.97-0.48,1.6c0,0.59,0.12,1.09,0.37,1.52c0.24,0.43,0.6,0.82,1.07,1.17s1.05,0.7,1.72,1.04
			c0.68,0.34,1.46,0.7,2.36,1.09c0.92,0.48,1.78,0.98,2.6,1.5c0.81,0.53,1.53,1.11,2.15,1.74c0.62,0.64,1.11,1.34,1.47,2.12
			c0.36,0.78,0.54,1.66,0.54,2.65c0,1.33-0.27,2.46-0.81,3.38c-0.54,0.92-1.26,1.66-2.17,2.24c-0.91,0.57-1.96,0.99-3.15,1.25
			s-2.44,0.39-3.76,0.39c-0.44,0-0.98-0.03-1.62-0.1c-0.64-0.07-1.3-0.17-1.97-0.29c-0.67-0.13-1.31-0.28-1.91-0.47
			C690.78,205.71,690.3,205.5,689.93,205.27z"/>
	</g>
</g>
</svg>
