<?xml version="1.0" encoding="utf-8"?>
<!-- Generator: Adobe Illustrator 26.5.0, SVG Export Plug-In . SVG Version: 6.00 Build 0)  -->
<svg version="1.1" xmlns="http://www.w3.org/2000/svg" xmlns:xlink="http://www.w3.org/1999/xlink" x="0px" y="0px"
	 viewBox="0 0 669.39 402.16" style="enable-background:new 0 0 669.39 402.16;" xml:space="preserve">
<style type="text/css">
	.st0{display:none;}
	.st1{display:inline;fill:#FFFFFF;}
	.st2{font-family:'Karimun';}
	.st3{font-size:83px;}
	.st4{display:inline;}
	.st5{fill:#FFFFFF;}
	.st6{font-family:'Waltograph';}
	.st7{font-size:222.0164px;}
	
		.st8{clip-path:url(#SVGID_00000092432922886264327210000016076783485151745970_);fill:none;stroke:#FFFFFF;stroke-width:10;stroke-miterlimit:10;}
</style>
<g id="Layer_1" class="st0">
	<text transform="matrix(1 0 0 1 -47.0027 388.0732)" class="st1 st2 st3">A Disney Parks Weather App</text>
	<g class="st4">
		<text transform="matrix(1 0 0 1 -58.23 308.5469)" class="st5 st6 st7">Magic</text>
		<text transform="matrix(1 0 0 1 404.77 353.5469)" class="st5 st6 st7">+</text>
		<g>
			<defs>
				<path id="SVGID_1_" d="M410.58,159.3c0,0-29,1-47,17s-24,23-24,23l-16-22l2-195h144l218,104l31,50l3,52l-36,132l-102.5,6.5
					c0,0,2.86-14.48,4.5-41.5c2-33-7-40-7-40l-39-60l-89-31L410.58,159.3z"/>
			</defs>
			<clipPath id="SVGID_00000036226439151055008420000012410449880270781092_">
				<use xlink:href="#SVGID_1_"  style="overflow:visible;"/>
			</clipPath>
			
				<path style="clip-path:url(#SVGID_00000036226439151055008420000012410449880270781092_);fill:none;stroke:#FFFFFF;stroke-width:10;stroke-miterlimit:10;" d="
				M662.36,97.68c-41.53-17.36-89.27,2.23-106.63,43.76c-4.64,11.09-6.61,22.62-6.26,33.91c-11.73-11.13-25.64-20.36-41.44-26.97
				c-11.6-4.85-23.48-7.97-35.38-9.51c6.87-7.1,12.57-15.56,16.61-25.22c17.36-41.53-2.23-89.27-43.76-106.63
				s-89.27,2.23-106.63,43.76c-17.36,41.53,2.23,89.27,43.76,106.63c0.38,0.16,0.76,0.29,1.15,0.45
				c-16.11,9.82-30.29,23.03-41.37,39.11c25.43-19.84,57.42-31.67,92.18-31.67c82.84,0,150,67.16,150,150
				c0,1.59-0.03,3.17-0.08,4.75c9.06-25.81,9.91-52.71,3.79-77.71c3.53,2.16,7.26,4.08,11.2,5.72
				c41.53,17.36,89.27-2.23,106.63-43.76C723.48,162.77,703.89,115.04,662.36,97.68z"/>
		</g>
	</g>
</g>
<g id="Layer_2" class="st0">
</g>
<g id="Layer_3" class="st0">
	<polygon class="st1" points="159.54,226.16 183.54,226.16 183.54,163.16 200.54,163.16 200.54,142.16 142.54,142.16 142.54,163.16 
		159.54,163.16 	"/>
	<path class="st1" d="M245.54,167.16c-3-3-6-3-8-3s-28,0-30,0s-5,1-7,3s-4,5-4,7s0,39,0,41s2,6,4,8s5,3,7,3s28,0,30,0s5,0,8-3
		s4-6,4-8s0-38,0-40S248.54,170.16,245.54,167.16z M228.54,208.16h-11v-26h11V208.16z"/>
	<polygon class="st1" points="256.04,146.66 255.54,226.16 276.54,226.16 276.54,201.16 292.54,226.16 317.54,226.16 297.54,193.16 
		314.54,164.16 289.54,164.16 276.04,187.66 276.04,146.66 	"/>
	<path class="st1" d="M372.54,164.16h-22v44h-10v-44h-21c0,0-1,50,0,52s4,9,10,10s16,0,16,0l5-9v14h-22l-11,18c0,0,42,0,45,0
		s10-3,10-14S372.54,164.16,372.54,164.16z"/>
	<path class="st1" d="M427.54,167.16c-3-3-6-3-8-3s-28,0-30,0s-5,1-7,3s-4,5-4,7s0,39,0,41s2,6,4,8s5,3,7,3s28,0,30,0s5,0,8-3
		s4-6,4-8s0-38,0-40S430.54,170.16,427.54,167.16z M410.54,208.16h-11v-26h11V208.16z"/>
	<path class="st1" d="M204.54,251.16c0-2,0-11-14-12s-47,0-47,0v84c0,0,48,1,51,0s9-2,10-12S204.54,253.16,204.54,251.16z
		 M180.54,302.16h-13v-42h13V302.16z"/>
	<rect x="210.54" y="250.16" class="st1" width="22" height="8"/>
	<rect x="210.54" y="261.16" class="st1" width="22" height="63"/>
	<g class="st4">
		<rect x="296.54" y="261.16" class="st5" width="21" height="63"/>
		<path class="st5" d="M349.54,324.16h-21v-46h-15l10-17h5c0,0,7.92-0.98,14,2c3.95,1.94,7,7.82,7,9
			C349.54,275.16,349.54,324.16,349.54,324.16z"/>
	</g>
	<path class="st1" d="M292.04,277.66l-10.5-16.5c0,0-27,0-30,0s-13,5-13,10s0,16,0,18s3,10,9,10s23,0,23,0v6h-34l10,18
		c0,0,30,0,33,0s11-4,11-11s0.5-16.5,0.5-18.5s-3-11-14-11s-18,0-18,0v-5H292.04z"/>
	<path class="st1" d="M377.04,304.66v-5h32c0,0-0.5-16.5-0.5-25.5s-6-13-10-13s-25,0-32,0s-10,9-10,12s0,30,0,39s9,11,12,11
		s30,0,30,0l11.5-18.5H377.04z M377.04,278.66h11v7h-11V278.66z"/>
	<path class="st1" d="M467.54,261.16h-22v44h-10v-44h-21c0,0-1,50,0,52s4,9,10,10s16,0,16,0l5-9v14h-22l-11,18c0,0,42,0,45,0
		s10-3,10-14S467.54,261.16,467.54,261.16z"/>
	<rect x="474.54" y="243.16" class="st1" width="20" height="81"/>
	<g class="st4">
		<rect x="560.54" y="261.16" class="st5" width="21" height="63"/>
		<path class="st5" d="M613.54,324.16h-21v-46h-15l10-17h5c0,0,7.92-0.98,14,2c3.95,1.94,7,7.82,7,9
			C613.54,275.16,613.54,324.16,613.54,324.16z"/>
	</g>
	<path class="st1" d="M539.54,261.16c-4,0-29,0-29,0l-9.5,17.5h32v3c0,0-9-1-19,0s-13,9-13,12s-0.5,7.5,0.5,18.5s7.49,10.58,13,11
		c6.5,0.5,13,0,13,0l5-9v9h21c0,0,0-42,0-51S543.54,261.16,539.54,261.16z M533.04,304.66h-11v-7h11V304.66z"/>
	<path class="st1" d="M652.54,244.16v17c0,0-14,0-18,0s-15,1-15,11s0,35,0,38s2,13,12,13s15,0,15,0l6-10v10h21v-79H652.54z
		 M652.04,306.66h-11v-29h11V306.66z"/>
	<path class="st1" d="M-49.46,323.16h172c0,0-13-44-4-44v-12h-8v-6h4c0,0-13-26-12-40c0,0,7-1,11,0s6-4,6-4s-6,2-12-6h-6
		c0,0-0.5,14.5-0.5,16.5s-6,27-9,30v-25l2-2v-7h-2c0,0-8-25.95-8-36c0-4,9-2,10-2s5-1,6-3c0,0-4-1-9-5s-9-1-9-1v13c0,0-2,28-7,34h-1
		v8l2,1v9h-7l1-22l3-4v-17h5c0,0-8-15-8-23h-1c0,0-3,18-7,21v-21l3-5v-4h-3v-10h3c0,0-3.99-6.53-7-19c-4.13-17.08-7.58-42.6-7-53
		c0,0,9,0,13,2s6-1,6-1s-8-3-8-6c0,0,5-2,6-4s-4,1-7-1s-9-6-12-4v18c0,0-9,65-13,69h3v9h-4v3l3,6v34l-7-24h-21l-8,36l-6-24
		c0,0-9,33-12,35h2v6l4,4v8h-7c0,0-12-22-12-25s0-6,0-6s6-2,9-1s7-3,7-3s-6.9-0.9-12-6c-1-1-6-1-6,0s0,15,0,15s-9,26-12,27h6v16h-8
		l-1,11c0,0,6,1,4,10S-49.46,323.16-49.46,323.16z"/>
</g>
<g id="Layer_4">
	<g>
		<path class="st5" d="M7.54,222.18c-3.45,0-7.54-0.47-7.54-2.51c0-14.44,25.43-15.07,36.27-15.07c14.13,0,32.18,4.4,47.57,9.89
			c23.39,8.48,70.81,36.74,70.81,69.08c0,28.57-30.77,42.23-59.35,42.23c-7.22,0-15.86-1.26-22.92-2.36
			c-0.47,1.73-0.79,2.98-1.88,6.59c-1.88,0.31-3.45,0.63-5.49,0.63l-3.61-0.31c-2.35-2.83-3.14-7.38-4.08-12.25
			c-14.29-8.32-23.55-15.39-27.79-20.25c-3.61-3.77-7.69-8.79-7.69-13.66c0-2.51,1.57-4.71,5.18-7.22
			c7.38-5.5,16.8-8.48,32.18-11.15l0.31-6.44c0.16-1.57,1.73-18.37,5.34-21.51c5.81,4.71,6.44,9.58,6.91,16.8
			c0.16,3.14,0.31,6.44,0.78,9.89h2.2c10.99,0,44.59,2.83,44.59,18.68c0,3.77-5.5,10.83-10.83,10.83c-1.88,0-5.34-0.79-6.91-2.04
			c2.35-2.67,5.81-5.02,6.75-7.06c-3.14-3.77-20.1-8.16-32.5-8.16c-2.04,0-2.83,0-4.08,0.16l0.16,34.38
			c5.02,3.14,11.15,3.45,15.07,3.45c17.27,0,53.07-2.98,53.07-30.93c0-27.63-35.32-48.98-61.7-59.03
			c-18.53-7.06-36.11-10.68-56.68-10.68c-4.24,0-8.63,0.31-12.87,1.41c-2.67,0.63-3.61,1.26-3.61,1.88c0,1.1,5.34,1.73,5.97,2.04
			c0.47,0.31,0.78,0.79,0.78,1.26c0,0.31-0.16,0.78-0.63,1.26C10.68,222.02,9.26,222.18,7.54,222.18z M58.56,277.29
			c-15.54,1.26-32.81,2.83-32.81,8.32c0,4.24,7.22,9.42,11.62,12.72c5.02,4.08,12.56,7.85,19.78,9.42L58.56,277.29z"/>
		<path class="st5" d="M192.8,221.55c2.67,0,8.79,2.67,8.79,8.48c0,12.09-20.72,25.9-31.09,25.9c-3.14,0-7.06-0.47-9.89-1.41
			c-1.73,2.04-2.35,3.77-4.71,4.08c-1.57-0.31-3.61-3.3-3.92-6.75c0-0.79,0.31-1.88,0.47-2.67c-2.35-3.14-4.08-5.97-4.08-9.42
			c0-10.36,15.54-24.18,30.46-24.18c6.91,0,12.4,2.67,13.35,6.12C192.32,221.71,192.48,221.55,192.8,221.55z M156.69,240.08
			c0.31,0,0.63-0.16,0.78-0.31c2.04-2.83,8.63-9.11,12.25-12.56v-0.16c0-0.16,0-0.47-0.31-0.79c-7.85,1.57-12.72,7.38-13.35,13.5
			C156.22,239.92,156.37,240.08,156.69,240.08z M171.6,274.3c0.31,12.72,1.57,26.06,1.57,38.62c0,2.51-0.94,5.5-4.87,5.5
			c-1.26,0-3.14-0.47-4.4-0.94c-2.04-0.63-2.98-6.75-3.14-8.32c0-8.01,0.16-8.16,0.47-16.49c0.16-2.2,0.63-10.83,2.67-26.69
			c0.16-0.79,0.31-1.1,0.94-1.1C170.5,265.04,171.29,268.34,171.6,274.3z M166.73,246.67h3.45c7.85,0,23.86-5.34,23.86-14.92
			c0-2.2,0-3.92-4.08-3.92c-9.11,0-18.05,8.79-24.49,17.58C165.48,245.73,166.26,246.67,166.73,246.67z"/>
		<path class="st5" d="M189.34,279.33c0,0.16,0.16,0.31,0.31,0.31c5.97,2.2,9.89,2.98,16.17,3.3c10.68,0.79,26.53,0.94,26.53,15.7
			c0,16.96-18.84,17.9-23.86,17.9c-13.34,0-25.12-8.48-25.12-14.92c0-7.69,8.01-9.73,14.29-9.73c5.97,0,13.82,1.57,20.25,4.87
			c0.16,0.16,0.31,0.31,0.31,0.63c0,0.47-0.16,0.79-0.31,0.94c-1.26,1.26-5.02,3.14-8.95,3.14c-4.55,0-10.83-3.77-16.96-3.77
			c-2.2,0-4.87,0.47-4.87,3.92c0,3.92,7.06,3.92,12.72,3.92c2.98,0,24.65-2.51,24.65-8.32c0-5.49-16.48-7.85-23.24-8.01
			c-18.05-0.47-20.41-2.35-20.41-8.95c0-14.76,29.83-15.86,31.24-15.86c7.85,0,14.91,1.41,20.1,2.67c1.1,0.16,1.73,0.63,1.73,2.36
			c-0.16,1.88-1.73,2.98-3.45,3.61c-1.26,0.31-3.93,0.79-5.18,0.94c-5.49,0.79-21.67,1.41-26.69,2.36
			c-5.18,0.78-7.38,1.41-8.95,2.35C189.5,278.86,189.34,279.17,189.34,279.33z"/>
		<path class="st5" d="M265.8,259.7c0-1.26,0.16-3.3,1.57-3.3c4.4,0,16.96,15.54,16.96,37.37c0,9.58-4.4,21.04-12.09,21.04
			c-9.11,0-18.68-29.2-20.88-29.2c-0.31,0-0.79,0.47-1.1,1.73c-0.47,1.88-0.79,18.37-1.57,23.24c-0.47,2.2-1.26,7.38-4.71,7.38
			c-5.02,0-6.12-8.63-6.12-12.4c0-8.16,4.08-37.05,10.83-37.05c4.71,0,14.13,19.62,22.45,29.99c0.63,0.63,0.94,1.26,1.1,1.26
			c0.94,0,0.94-1.41,0.94-4.08c0-14.44-2.98-18.68-6.91-33.44l-0.47-1.88V259.7z"/>
		<path class="st5" d="M325.77,310.57c-4.24,3.3-13.82,10.68-24.18,10.68c-8.63,0-12.56-6.44-12.56-13.19
			c0-3.61,2.2-8.48,3.92-13.34c-0.47-1.57-1.26-2.51-1.26-4.08c0-1.26,0.47-1.88,0.79-3.14c1.26-0.47,2.67-1.1,4.08-1.26l3.77-8.63
			c-3.61-1.73-8.95-3.77-8.95-7.07c0-1.73,1.41-2.2,4.08-2.35c6.59-0.31,14.29-3.14,27.16-3.14c1.41,0,3.14,0.16,6.44,1.1
			c1.41,1.73,5.02,5.02,5.02,7.69c0,1.57-5.49,3.3-8.48,3.45c-6.75,0.47-8.32,0.31-12.56,0.47c-0.79,0-1.57,0-2.35,0.16
			c-0.63,0.63-1.88,2.67-1.88,6.59c0,0.63,0.31,1.57,1.41,1.57h11.62l2.2,0.31c0.79,1.1,0.94,3.14,0.94,4.55
			c0,1.26-0.31,3.61-1.73,3.77c-2.83,0.16-9.89,0.47-17.74,0.47c-0.31,0-0.63,0-0.94,0.63c-0.78,3.3-2.2,7.06-3.77,10.52
			c0.78,0,6.75-1.57,16.8-2.51c1.57-0.16,3.61-0.31,5.18-0.31c1.88,0,3.92,2.67,3.92,4.71C326.71,309.16,326.56,310.1,325.77,310.57
			z"/>
		<path class="st5" d="M338.04,348.11c-6.28-0.63-10.52-5.81-10.52-12.56c0-2.98-0.49-3.94,8.3-24.98
			c-1.73-3.77-2.83-7.69-2.83-11.46c0-16.17,15.7-35.33,18.84-35.64c2.2,0.31,2.51,1.57,2.51,4.4c0,3.14-1.88,5.18-6.75,12.56
			c-2.51,3.93-6.12,10.36-6.12,16.01c0,0.63,0,1.57,0.47,1.88h0.31c0.16,0,0.31-0.16,0.63-0.63c7.54-10.05,23.08-28.89,31.09-28.89
			c8.16,0,10.21,13.19,10.21,19.47c0,18.53-23.24,31.71-33.75,31.71c-1.1,0-2.2,0.16-3.45,0.31c-6.12,17.9-4.22,9.59-8.46,26.55
			L338.04,348.11z M370.2,299.27c4.4-3.77,6.75-8.95,6.75-15.39c0-1.73,0-4.4-2.04-4.4c-2.67,0-8.63,7.06-10.99,10.05
			c-1.73,2.35-8.01,14.29-9.11,16.96C360.15,305.86,365.34,303.51,370.2,299.27z"/>
	</g>
	<g>
		<path class="st5" d="M452.35,317.75h-9.88l-8.86-14.84c-1.73-2.91-3.31-4.89-4.73-5.94s-3.04-1.58-4.87-1.58h-4.57v22.36H411
			V263.3h17.33c5.65,0,10.01,1.27,13.1,3.81s4.62,6.15,4.62,10.81c0,3.66-1.07,6.79-3.2,9.39s-5.11,4.42-8.93,5.45v0.14
			c2.44,0.84,5.17,3.7,8.19,8.58L452.35,317.75z M419.44,270.26v18.14h7.49c3.12,0,5.61-0.9,7.47-2.71s2.79-4.1,2.79-6.89
			c0-5.7-3.38-8.54-10.12-8.54H419.44z"/>
		<path class="st5" d="M487,317.75h-30.16V263.3h28.93v7.24h-20.5v16.03h19.02v7.21h-19.02v16.73H487V317.75z"/>
		<path class="st5" d="M492.22,306.47c4.17,3.4,9.08,5.1,14.73,5.1c7.22,0,10.83-2.47,10.83-7.42c0-1.43-0.4-2.72-1.2-3.87
			s-1.87-2.15-3.22-3.01s-4.01-2.23-8-4.13c-4.9-2.34-8.32-4.72-10.27-7.14s-2.92-5.25-2.92-8.51c0-4.69,1.85-8.38,5.55-11.07
			s8.44-4.04,14.2-4.04c5.46,0,9.59,0.67,12.38,2v8.65c-3.35-2.32-7.54-3.48-12.55-3.48c-3.21,0-5.8,0.64-7.77,1.93
			s-2.95,3.06-2.95,5.31c0,2.04,0.72,3.71,2.16,5.03s4.48,3.07,9.12,5.27c5.41,2.53,9.15,5.07,11.21,7.61s3.09,5.47,3.09,8.77
			c0,4.92-1.78,8.68-5.34,11.29s-8.5,3.9-14.8,3.9c-2.32,0-4.9-0.28-7.73-0.84s-5.02-1.31-6.54-2.25V306.47z"/>
		<path class="st5" d="M531.16,291.21c0-8.6,2.41-15.56,7.22-20.87s11.31-7.96,19.49-7.96c7.66,0,13.82,2.58,18.46,7.73
			s6.96,11.77,6.96,19.83c0,8.55-2.37,15.48-7.1,20.78s-11.13,7.95-19.2,7.95c-7.69,0-13.92-2.55-18.69-7.66
			S531.16,299.3,531.16,291.21z M540.01,290.61c0,6,1.54,10.94,4.61,14.82s7.22,5.82,12.45,5.82c5.48,0,9.75-1.85,12.8-5.54
			s4.57-8.68,4.57-14.96c0-6.42-1.47-11.51-4.41-15.26s-7.13-5.62-12.57-5.62c-5.3,0-9.53,1.95-12.69,5.84
			S540.01,284.56,540.01,290.61z"/>
		<path class="st5" d="M632.6,317.75h-9.88l-8.86-14.84c-1.73-2.91-3.31-4.89-4.73-5.94s-3.04-1.58-4.87-1.58h-4.57v22.36h-8.44
			V263.3h17.33c5.65,0,10.01,1.27,13.1,3.81s4.62,6.15,4.62,10.81c0,3.66-1.07,6.79-3.2,9.39s-5.11,4.42-8.93,5.45v0.14
			c2.44,0.84,5.17,3.7,8.19,8.58L632.6,317.75z M599.7,270.26v18.14h7.49c3.12,0,5.61-0.9,7.47-2.71s2.79-4.1,2.79-6.89
			c0-5.7-3.38-8.54-10.12-8.54H599.7z"/>
		<path class="st5" d="M669.39,270.54h-15.64v47.21h-8.47v-47.21h-15.61v-7.24h39.73V270.54z"/>
	</g>
	<polygon class="st5" points="139.04,346.66 138.54,396.16 116.54,396.16 116.54,399.16 167.54,399.16 173.54,395.16 172.54,393.16 
		167.04,396.66 149.04,396.66 149.04,366.66 162.04,366.66 167.04,363.66 166.04,361.66 162.04,363.66 149.04,363.66 149.04,346.66 
			"/>
	<path class="st5" d="M185.54,360.16l7-5c0,0-7.88-6-12-6C179.54,349.16,185.54,360.16,185.54,360.16z"/>
	<path class="st5" d="M187.54,368.16c0,0-8-6-11-6l5,12L187.54,368.16z"/>
	<polygon class="st5" points="192.54,396.16 187.54,390.16 190.54,373.16 181.54,386.16 176.54,383.16 185.54,400.16 	"/>
	<path class="st5" d="M231.04,375.66l-1-3l-3,1v-14h-7v2h-17l0.5-1h-4.5l3-4h23l6-3l-2-3l-6,4l-20.5-0.5l4-4l-9-4l-6,22l5-5
		l-0.5,11.5h-5v3h4v16h7v-3h17v3h-7l7,5v2c0,0,6-2,7-4s0-5,0-5l5-4l-1-2l-4,3v-11L231.04,375.66z M207.04,388.66h-4v-11h4V388.66z
		 M207.04,375.66h-4v-11h4V375.66z M219.04,388.66h-4v-11h4V388.66z M219.04,375.66h-4v-11h4V375.66z"/>
	<path class="st5" d="M245.54,362.16l7-5c0,0-6-6-13-7L245.54,362.16z"/>
	<path class="st5" d="M250.54,366.16h-8v2h-6v2h7v20l-6,5l6,5l4-5c0,0,5.5,3.5,11.5,3.5s31,0,31,0l4-5c0,0-35,0-37,0s-7-1-7-4
		S250.54,366.16,250.54,366.16z"/>
	<path class="st5" d="M283.54,354.16v2h-6v-10h-8v10h-6v-2h-7v36h7v-4h6v1h8v-1h6v4h7v-36H283.54z M269.04,383.66h-5v-11h5V383.66z
		 M269.04,369.66h-5v-11h5V369.66z M283.04,383.66h-5v-11h5V383.66z M283.04,369.66h-5v-11h5V369.66z"/>
	<rect x="319.54" y="347.16" class="st5" width="10" height="50"/>
	<path class="st5" d="M298.54,361.16c0,0,45,0,46,0s6-3,6-3l2,3c0,0-4,3-6,3s-48,0-48,0V361.16z"/>
	<path class="st5" d="M298.54,394.16c0,0,45,0,46,0s6-3,6-3l2,3c0,0-4,3-6,3s-48,0-48,0V394.16z"/>
	<path class="st5" d="M396.54,347.16v2h-29v-2h-8c0,0,0,28,0,36s-2,19-2,19s4.78-4.55,8-11c2-4,2-11,2-11v-17h29v2h9v-18H396.54z
		 M396.54,361.16h-29v-10h29V361.16z"/>
	<path class="st5" d="M384.54,368.16h-9c0,0,0,22,0,24s0,7,4,7s20,0,22,0s7-3,7-7l-3.5-0.5v-9l-5,10h-16v-7l23-9l-7-7l-16,14
		L384.54,368.16z"/>
	<path class="st5" d="M426.54,349.16v-2h-8c0,0,0,28,0,36s-2,19-2,19s4.78-4.55,8-11c2-4,2-11,2-11v-17V349.16z"/>
	<path class="st5" d="M426.54,350.07l16,0.09v-5h8v5c0,0,9,0,11,0s6-2,6-2l1,3c0,0-2,2-5,2s-37,0-37,0"/>
	<rect x="425.54" y="359.16" class="st5" width="36" height="3"/>
	<rect x="432.54" y="356.16" class="st5" width="8" height="16"/>
	<rect x="452.54" y="356.16" class="st5" width="8" height="16"/>
	<rect x="439.54" y="368.16" class="st5" width="15" height="3"/>
	<path class="st5" d="M461.54,359.16c0,0,5,0,6-1s1,3,1,3s-5,1-8,1"/>
	<path class="st5" d="M452.54,387.16c5-2,12-8,12-8l-7-5l-3,2l-28,0.13v3.87h7c1,4,7,7,7,7l-19,12c12-1,24-8,24-8c2,4,19,8,19,8l4-7
		C461.54,392.16,452.54,387.16,452.54,387.16z M445.04,384.66l-10-5h17L445.04,384.66z"/>
	<polygon class="st5" points="482.54,360.16 486.54,360.16 486.54,398.16 477.54,398.16 477.54,369.16 472.54,376.16 481.54,344.16 
		489.54,348.16 	"/>
	<rect x="489.54" y="347.16" class="st5" width="9" height="51"/>
	<rect x="502.54" y="347.16" class="st5" width="6" height="19"/>
	<rect x="517.54" y="346.16" class="st5" width="7" height="19"/>
	<rect x="496.54" y="347.16" class="st5" width="23" height="3"/>
	<rect x="498.54" y="360.16" class="st5" width="22" height="4"/>
	<path class="st5" d="M498.54,372.16c0,0,6,0,6-1s1,2,1,2s-4,2-7,1.5S498.54,372.16,498.54,372.16z"/>
	<path class="st5" d="M498.54,382.16c0,0,6,0,6-1s1,2,1,2s-4,2-7,1.5S498.54,382.16,498.54,382.16z"/>
	<path class="st5" d="M518.54,385.16c1-2,8-14,8-14l-7-3l-1,2h-11c0,0,0,0,0,3s4,10,4,10l-12,15c8.5-0.5,14.5-9.5,14.5-8.5
		s9.5,9.5,9.5,9.5l5-6L518.54,385.16z M514.04,379.66l-6-7h9L514.04,379.66z"/>
	<rect x="536.54" y="346.16" class="st5" width="8" height="52"/>
	<path class="st5" d="M544.54,348.66c0,0,32,0.5,33,0.5s5-3,5-3l1,1c0,0-2,4-5,4s-37,0-37,0L544.54,348.66z"/>
	<path class="st5" d="M544.54,393.66c0,0,32,0.5,33,0.5s5-3,5-3l1,1c0,0-2,4-5,4s-37,0-37,0L544.54,393.66z"/>
	<path class="st5" d="M574.54,390.16l-11-13c0,0-9,10-17,14l13-19l-12-16c0,0,13,7,16,10l8-11l9,7l-10.5,10.5l13,11L574.54,390.16z"
		/>
	<g>
		<path class="st5" d="M224.68,247.87v-8.24c0.74,0.67,1.62,1.28,2.64,1.82c1.02,0.54,2.1,0.99,3.25,1.36s2.29,0.66,3.43,0.86
			c1.14,0.2,2.2,0.3,3.16,0.3c3.36,0,5.87-0.56,7.52-1.68s2.47-2.75,2.47-4.88c0-1.14-0.27-2.14-0.82-2.98
			c-0.55-0.84-1.32-1.61-2.31-2.3c-0.99-0.7-2.15-1.36-3.48-2c-1.33-0.64-2.76-1.31-4.29-2c-1.64-0.87-3.16-1.76-4.58-2.66
			s-2.64-1.89-3.68-2.98c-1.04-1.09-1.86-2.32-2.46-3.68c-0.59-1.37-0.89-2.97-0.89-4.81c0-2.27,0.51-4.23,1.53-5.91
			c1.02-1.67,2.37-3.05,4.04-4.14c1.67-1.09,3.57-1.9,5.7-2.42c2.13-0.53,4.31-0.79,6.53-0.79c5.05,0,8.73,0.57,11.04,1.72v7.91
			c-2.74-1.97-6.26-2.96-10.57-2.96c-1.19,0-2.37,0.11-3.55,0.34c-1.18,0.22-2.23,0.59-3.16,1.11c-0.93,0.52-1.69,1.18-2.27,1.99
			c-0.58,0.81-0.88,1.78-0.88,2.93c0,1.08,0.22,2.01,0.67,2.79s1.1,1.5,1.97,2.15c0.86,0.65,1.92,1.28,3.16,1.9
			c1.24,0.62,2.69,1.28,4.32,2c1.68,0.88,3.27,1.79,4.76,2.76c1.49,0.96,2.8,2.03,3.94,3.2c1.13,1.17,2.03,2.46,2.69,3.89
			s0.99,3.04,0.99,4.86c0,2.45-0.49,4.51-1.48,6.19c-0.99,1.68-2.32,3.05-3.99,4.1c-1.67,1.05-3.59,1.82-5.77,2.29
			c-2.18,0.47-4.47,0.71-6.9,0.71c-0.81,0-1.8-0.06-2.98-0.19s-2.38-0.3-3.62-0.54c-1.23-0.24-2.4-0.52-3.5-0.86
			C226.24,248.68,225.35,248.3,224.68,247.87z"/>
		<path class="st5" d="M292.48,249.79h-6.49V232.9h-18.33v16.89h-6.46v-38.93h6.46v16.37h18.33v-16.37h6.49V249.79z"/>
		<path class="st5" d="M332.41,249.79h-7.09l-3.5-9.91H306.5l-3.37,9.91h-7.06l14.58-38.93h7.28L332.41,249.79z M320.11,234.61
			l-5.4-15.53c-0.16-0.51-0.34-1.32-0.52-2.44h-0.11c-0.16,1.03-0.34,1.85-0.54,2.44l-5.35,15.53H320.11z"/>
		<path class="st5" d="M369.1,249.79h-7.06l-18.6-28.62c-0.47-0.72-0.86-1.48-1.17-2.25h-0.16c0.14,0.83,0.22,2.62,0.22,5.35v25.52
			h-6.24v-38.93h7.52l17.97,27.94c0.76,1.16,1.25,1.96,1.46,2.39h0.11c-0.18-1.03-0.27-2.78-0.27-5.24v-25.09h6.22V249.79z"/>
		<path class="st5" d="M407.46,247.13c-4.05,2.21-8.57,3.31-13.55,3.31c-5.76,0-10.42-1.79-13.98-5.38
			c-3.57-3.58-5.35-8.33-5.35-14.23c0-6.03,1.95-10.97,5.85-14.84c3.9-3.87,8.86-5.8,14.87-5.8c4.33,0,7.96,0.63,10.91,1.9v6.65
			c-2.99-1.99-6.54-2.99-10.67-2.99c-4.15,0-7.54,1.37-10.2,4.1c-2.65,2.73-3.98,6.27-3.98,10.62c0,4.47,1.14,7.99,3.42,10.55
			s5.38,3.84,9.29,3.84c2.68,0,5-0.52,6.95-1.55v-9.26h-8.2v-5.43h14.63V247.13z"/>
		<path class="st5" d="M445.46,249.79h-6.49V232.9h-18.33v16.89h-6.46v-38.93h6.46v16.37h18.33v-16.37h6.49V249.79z"/>
		<path class="st5" d="M485.38,249.79h-7.09l-3.5-9.91h-15.31l-3.37,9.91h-7.06l14.58-38.93h7.28L485.38,249.79z M473.08,234.61
			l-5.4-15.53c-0.16-0.51-0.33-1.32-0.52-2.44h-0.11c-0.16,1.03-0.34,1.85-0.54,2.44l-5.35,15.53H473.08z"/>
		<path class="st5" d="M495.69,249.79h-6.65v-38.93h6.65V249.79z"/>
	</g>
	<path class="st5" d="M282.54,195.16h51c0,0-3-26,0-28s18.49-13.51,32,0c2,2,2,28,2,28h50l-5-41h5c0,0-10-20-10-24
		c0-1-8.5,18.5-8.5,18.5v-25l3-2c0,0-6.5-7.5-7-8c-0.71-0.71-2-8-2-8l3-3h-3v-6h-3v5h-3l3,4l-2,5v3l-3,5l-4,2l3,3v5h-5.5l-0.5-47h4
		c0,0-9-10-9-18c0,0-5,16-9,18h3v16l-6-6v-25l4-3v-3h-1l-1-2h-3c0,0,0-15,0-17s-1-2-1-4s0-7,0-7h-2l-2-18l-3,18h-2v9l-1.5-4.5
		l-2.5,7.5v14l3.5,2.5h-4l-0.5,1.5h-1v3c0,0,4,2,4,6s0,22,0,22h-6c0,0,4.5-4.5,0-8l3.5-2.5l-4.5-2.5v-5l3-2l-4-3
		c0,0,2.5-2.5-0.5-3.5l-1.5-5.5v-7c0,0,2.5-2.5,0-4l-1.5-4.5l-1.5,4.5c0,0-2.5,1.5,0,4c0.5,0.5,0,7,0,7l-1,5c0,0-3,2-1,4
		c1,1-3,3-3,3l3,2v5l-4,3l3,2c0,0-4,5,1,8h-8c0,0,0,12-9,16v4h4v12l-8,1v-8h5c0,0-11-16-11-24c0,0-4,20-10,24h5l-1,29l-6-16
		c0,0-9,23-12,25h6L282.54,195.16z"/>
	<path class="st5" d="M306.54,87.16v-5c0,0,2,1,7,0s9,2,10,2s-7,1-11,3H306.54z"/>
	<path class="st5" d="M354.54,8.16v-7c0,0,5,0,11-1s14,3,15,6c0,0-6.5-3.5-14.5-0.5S358.04,8.66,354.54,8.16z"/>
	<path class="st5" d="M391.54,92.16v-6c0,0,3,1,7,1s13,0.84,13,4c0,1-4.5-1.5-10.5,0.5S391.54,92.16,391.54,92.16z"/>
	<path class="st5" d="M459.54,195.16h17c0,0,20.5-119.5-92.5-151.5c-14.01-3.97-98.27-24.72-154.5,76.5
		c-1.36,2.44,63.5-106.5,155.5-64.5C485.13,101.35,459.54,195.16,459.54,195.16z"/>
	<polygon class="st5" points="225.54,154.16 223.54,197.16 219.54,154.16 203.54,164.16 214.54,150.16 186.54,147.16 213.54,143.16 
		203.54,128.16 218.54,137.16 220.54,96.16 225.54,137.16 240.54,128.16 229.54,143.16 255.54,147.16 231.54,151.16 240.54,164.16 	
		"/>
</g>
</svg>
