<?xml version="1.0" encoding="utf-8"?>
<!-- Generator: Adobe Illustrator 26.5.0, SVG Export Plug-In . SVG Version: 6.00 Build 0)  -->
<svg version="1.1" xmlns="http://www.w3.org/2000/svg" xmlns:xlink="http://www.w3.org/1999/xlink" x="0px" y="0px"
	 viewBox="0 0 723 276.05" style="enable-background:new 0 0 723 276.05;" xml:space="preserve">
<style type="text/css">
	.st0{display:none;}
	.st1{display:inline;fill:#FFFFFF;}
	.st2{font-family:'Karimun';}
	.st3{font-size:83px;}
	.st4{display:inline;}
	.st5{fill:#FFFFFF;}
	.st6{font-family:'Waltograph';}
	.st7{font-size:222.0164px;}
	
		.st8{clip-path:url(#SVGID_00000021804948208995585670000017109906092126431389_);fill:none;stroke:#FFFFFF;stroke-width:10;stroke-miterlimit:10;}
</style>
<g id="Layer_1" class="st0">
	<text transform="matrix(1 0 0 1 2.4534 317.9617)" class="st1 st2 st3">A Disney Parks Weather App</text>
	<g class="st4">
		<text transform="matrix(1 0 0 1 -8.7739 238.4354)" class="st5 st6 st7">Magic</text>
		<text transform="matrix(1 0 0 1 454.2261 283.4354)" class="st5 st6 st7">+</text>
		<g>
			<defs>
				<path id="SVGID_1_" d="M460.04,89.19c0,0-29,1-47,17s-24,23-24,23l-16-22l2-195h144l218,104l31,50l3,52l-36,132l-102.5,6.5
					c0,0,2.86-14.48,4.5-41.5c2-33-7-40-7-40l-39-60l-89-31L460.04,89.19z"/>
			</defs>
			<clipPath id="SVGID_00000086676332845520383850000005253096319533318049_">
				<use xlink:href="#SVGID_1_"  style="overflow:visible;"/>
			</clipPath>
			
				<path style="clip-path:url(#SVGID_00000086676332845520383850000005253096319533318049_);fill:none;stroke:#FFFFFF;stroke-width:10;stroke-miterlimit:10;" d="
				M711.81,27.56c-41.53-17.36-89.27,2.23-106.63,43.76c-4.64,11.09-6.61,22.62-6.26,33.91c-11.73-11.13-25.64-20.36-41.44-26.97
				c-11.6-4.85-23.48-7.97-35.38-9.51c6.87-7.1,12.57-15.56,16.61-25.22c17.36-41.53-2.23-89.27-43.76-106.63
				s-89.27,2.23-106.63,43.76c-17.36,41.53,2.23,89.27,43.76,106.63c0.38,0.16,0.76,0.29,1.15,0.45
				c-16.11,9.82-30.29,23.03-41.37,39.11c25.43-19.84,57.42-31.67,92.18-31.67c82.84,0,150,67.16,150,150
				c0,1.59-0.03,3.17-0.08,4.75c9.06-25.81,9.91-52.71,3.79-77.71c3.53,2.16,7.26,4.08,11.2,5.72
				c41.53,17.36,89.27-2.23,106.63-43.76C772.93,92.66,753.34,44.92,711.81,27.56z"/>
		</g>
	</g>
</g>
<g id="Layer_2" class="st0">
</g>
<g id="Layer_3">
	<polygon class="st5" points="209,156.05 233,156.05 233,93.05 250,93.05 250,72.05 192,72.05 192,93.05 209,93.05 	"/>
	<path class="st5" d="M295,97.05c-3-3-6-3-8-3s-28,0-30,0s-5,1-7,3s-4,5-4,7s0,39,0,41s2,6,4,8s5,3,7,3s28,0,30,0s5,0,8-3s4-6,4-8
		s0-38,0-40S298,100.05,295,97.05z M278,138.05h-11v-26h11V138.05z"/>
	<polygon class="st5" points="305.5,76.55 305,156.05 326,156.05 326,131.05 342,156.05 367,156.05 347,123.05 364,94.05 339,94.05 
		325.5,117.55 325.5,76.55 	"/>
	<path class="st5" d="M422,94.05h-22v44h-10v-44h-21c0,0-1,50,0,52s4,9,10,10s16,0,16,0l5-9v14h-22l-11,18c0,0,42,0,45,0s10-3,10-14
		S422,94.05,422,94.05z"/>
	<path class="st5" d="M477,97.05c-3-3-6-3-8-3s-28,0-30,0s-5,1-7,3s-4,5-4,7s0,39,0,41s2,6,4,8s5,3,7,3s28,0,30,0s5,0,8-3s4-6,4-8
		s0-38,0-40S480,100.05,477,97.05z M460,138.05h-11v-26h11V138.05z"/>
	<path class="st5" d="M254,181.05c0-2,0-11-14-12s-47,0-47,0v84c0,0,48,1,51,0s9-2,10-12S254,183.05,254,181.05z M230,232.05h-13
		v-42h13V232.05z"/>
	<rect x="260" y="180.05" class="st5" width="22" height="8"/>
	<rect x="260" y="191.05" class="st5" width="22" height="63"/>
	<g>
		<rect x="346" y="191.05" class="st5" width="21" height="63"/>
		<path class="st5" d="M399,254.05h-21v-46h-15l10-17h5c0,0,7.92-0.98,14,2c3.95,1.94,7,7.82,7,9C399,205.05,399,254.05,399,254.05z
			"/>
	</g>
	<path class="st5" d="M341.5,207.55l-10.5-16.5c0,0-27,0-30,0s-13,5-13,10s0,16,0,18s3,10,9,10s23,0,23,0v6h-34l10,18c0,0,30,0,33,0
		s11-4,11-11s0.5-16.5,0.5-18.5s-3-11-14-11s-18,0-18,0v-5H341.5z"/>
	<path class="st5" d="M426.5,234.55v-5h32c0,0-0.5-16.5-0.5-25.5s-6-13-10-13s-25,0-32,0s-10,9-10,12s0,30,0,39s9,11,12,11
		s30,0,30,0l11.5-18.5H426.5z M426.5,208.55h11v7h-11V208.55z"/>
	<path class="st5" d="M517,191.05h-22v44h-10v-44h-21c0,0-1,50,0,52s4,9,10,10s16,0,16,0l5-9v14h-22l-11,18c0,0,42,0,45,0
		s10-3,10-14C517,251.05,517,191.05,517,191.05z"/>
	<rect x="524" y="173.05" class="st5" width="20" height="81"/>
	<g>
		<rect x="610" y="191.05" class="st5" width="21" height="63"/>
		<path class="st5" d="M663,254.05h-21v-46h-15l10-17h5c0,0,7.92-0.98,14,2c3.95,1.94,7,7.82,7,9C663,205.05,663,254.05,663,254.05z
			"/>
	</g>
	<path class="st5" d="M589,191.05c-4,0-29,0-29,0l-9.5,17.5h32v3c0,0-9-1-19,0s-13,9-13,12s-0.5,7.5,0.5,18.5s7.49,10.58,13,11
		c6.5,0.5,13,0,13,0l5-9v9h21c0,0,0-42,0-51S593,191.05,589,191.05z M582.5,234.55h-11v-7h11V234.55z"/>
	<path class="st5" d="M702,174.05v17c0,0-14,0-18,0s-15,1-15,11s0,35,0,38s2,13,12,13s15,0,15,0l6-10v10h21v-79H702z M701.5,236.55
		h-11v-29h11V236.55z"/>
	<path class="st5" d="M0,253.05h172c0,0-13-44-4-44v-12h-8v-6h4c0,0-13-26-12-40c0,0,7-1,11,0s6-4,6-4s-6,2-12-6h-6
		c0,0-0.5,14.5-0.5,16.5s-6,27-9,30v-25l2-2v-7h-2c0,0-8-25.95-8-36c0-4,9-2,10-2s5-1,6-3c0,0-4-1-9-5s-9-1-9-1v13c0,0-2,28-7,34h-1
		v8l2,1v9h-7l1-22l3-4v-17h5c0,0-8-15-8-23h-1c0,0-3,18-7,21v-21l3-5v-4h-3v-10h3c0,0-3.99-6.53-7-19c-4.13-17.08-7.58-42.6-7-53
		c0,0,9,0,13,2s6-1,6-1s-8-3-8-6c0,0,5-2,6-4s-4,1-7-1s-9-6-12-4v18c0,0-9,65-13,69h3v9h-4v3l3,6v34l-7-24h-21l-8,36l-6-24
		c0,0-9,33-12,35h2v6l4,4v8h-7c0,0-12-22-12-25s0-6,0-6s6-2,9-1s7-3,7-3s-6.9-0.9-12-6c-1-1-6-1-6,0s0,15,0,15s-9,26-12,27h6v16h-8
		l-1,11c0,0,6,1,4,10S0,253.05,0,253.05z"/>
</g>
</svg>
